<?xml version="1.0" standalone="no"?>
<!DOCTYPE svg PUBLIC "-//W3C//DTD SVG 1.1//EN" "http://www.w3.org/Graphics/SVG/1.1/DTD/svg11.dtd" >
<svg>
<metadata>
Created by FontForge 20090914 at Thu Jan  8 11:57:12 2015
 By www-data
Copyright 1990-2001 Bitstream Inc. All rights reserved.
</metadata>
<defs>
<font id="AmazoneBT-Regular" horiz-adv-x="1024" >
  <font-face 
    font-family="Amazone BT"
    font-weight="400"
    font-style="italic"
    font-stretch="normal"
    units-per-em="2048"
    panose-1="3 2 7 2 4 5 7 9 10 4"
    ascent="1556"
    descent="-492"
    x-height="694.002"
    cap-height="1415"
    bbox="-336 -600.001 2982 1835"
    underline-thickness="80"
    underline-position="-259"
    slope="-16"
    unicode-range="U+0020-U+F002"
  />
<missing-glyph horiz-adv-x="1229" 
d="M102 -362v1806h1024v-1806h-1024zM217 -248h795v1577h-795v-1577z" />
    <glyph glyph-name=".notdef" horiz-adv-x="1229" 
d="M102 -362v1806h1024v-1806h-1024zM217 -248h795v1577h-795v-1577z" />
    <glyph glyph-name="space" unicode=" " horiz-adv-x="473" 
 />
    <glyph glyph-name="exclam" unicode="!" horiz-adv-x="682" 
d="M340 231l-7.99805 -5.99805l-21 2l-4 13l283 1012c3.33301 12 7.66602 20.333 12.999 25s13.666 7.66699 24.999 9l126 8c4.66699 0 9.16699 -1.66699 13.5 -5s6.5 -7 6.5 -11c0 -2.66699 -0.5 -5.83398 -1.5 -9.50098s-2.5 -7.83398 -4.5 -12.501zM303.002 -7.99805
c-37.333 0 -62.333 2.66797 -75 8.00098s-19 15 -19 29c0 33.333 2.83301 59.666 8.5 78.999s13.167 29 22.5 29c0.666992 0 11.667 -2.33301 33 -7s43.333 -9 66 -13c8.66699 -1.33301 16.167 -10 22.5 -26s9.5 -34.667 9.5 -56c0 -17.333 -4.33301 -28.833 -13 -34.5
s-27 -8.5 -55 -8.5z" />
    <glyph glyph-name="quotedbl" unicode="&#x22;" horiz-adv-x="672" 
d="M514 868l-31 -0.00195312l-61 455c-2 12 -3.16699 20.833 -3.5 26.5s-0.5 11.167 -0.5 16.5c0 30.667 7 54.334 21 71.001s34.333 25 61 25c25.333 0 45 -8.5 59 -25.5s21 -41.167 21 -72.5c0 -8 -1.33301 -20.333 -4 -37c0 -1.33301 -0.333008 -2.66602 -1 -3.99902z
M188 867.998h-30l-62 455v4c-2.66699 16.667 -4 29 -4 37c0 31.333 6.83301 55.5 20.5 72.5s33.5 25.5 59.5 25.5s46.167 -8.33301 60.5 -25s21.5 -40.334 21.5 -71.001c0 -6.66699 -1 -18.667 -3 -36c-0.666992 -3.33301 -1 -5.66602 -1 -6.99902z" />
    <glyph glyph-name="numbersign" unicode="#" horiz-adv-x="1575" 
d="M700 872l-104 -294h295l104 294h-295zM793 1454h114l-172 -483h295l172 483h113l-172 -483h315l-35 -99h-315l-102 -294h340l-37 -99h-340l-170 -479h-113l170 479h-293l-172 -479h-112l170 479h-332l37 99h329l105 294h-359l35 99h359z" />
    <glyph glyph-name="dollar" unicode="$" horiz-adv-x="948" 
d="M500 756l125 405.002c-4 0 -9.16699 0.333008 -15.5 1s-10.833 1 -13.5 1c-66.667 0 -120.167 -18.5 -160.5 -55.5s-60.5 -85.833 -60.5 -146.5c0 -24.667 8.33301 -51.334 25 -80.001s50 -70.334 100 -125.001zM340 37.002l4 -0.000976562c90 0 163 25.333 219 76
s84 115.334 84 194.001c0 42 -11.333 83.5 -34 124.5s-59.667 86.833 -111 137.5zM229 -126.999l38.999 127.002c-65.333 11.333 -123.166 26.666 -173.499 45.999s-88.5 41 -114.5 65l2 14l24 35h19c39.333 -30.667 80.666 -55.834 123.999 -75.501s88 -33.5 134 -41.5
l172 569c-75.333 72.667 -127.666 132.834 -156.999 180.501s-44 94.167 -44 139.5c0 76.667 34.167 140.834 102.5 192.501s155.5 77.5 261.5 77.5h17l35 109l63 12l-39 -127c50 -13.333 89.833 -26.5 119.5 -39.5s52.167 -26.5 67.5 -40.5l2 -14l-21 -27l-12 -2
c-34.667 21.333 -66 38.666 -94 51.999s-53.333 22.666 -76 27.999l-133 -442c87.333 -88 147 -159.5 179 -214.5s48 -110.5 48 -166.5c0 -96 -41.5 -175.333 -124.5 -238s-190.167 -94.667 -321.5 -96l-33 -111z" />
    <glyph glyph-name="percent" unicode="%" horiz-adv-x="1311" 
d="M926 16c36 0 69.666 13.832 100.999 41.499s59 67.834 83 120.501c24.667 53.333 43.834 107.166 57.501 161.499s20.5 103.5 20.5 147.5c0 50 -11.333 89.5 -34 118.5s-53 43.5 -91 43.5c-30 0 -58 -8.83301 -84 -26.5s-50.667 -44.834 -74 -81.501
c-11.333 -17.333 -23 -40.333 -35 -69s-23.333 -61.667 -34 -99c-13.333 -43.333 -22.833 -80.166 -28.5 -110.499s-8.5 -57.166 -8.5 -80.499c0 -52 11.167 -92.667 33.5 -122s53.5 -44 93.5 -44zM1245 456.999c0 -43.333 -5.33398 -87.333 -16.001 -132
s-26.334 -88.667 -47.001 -132c-36 -74.667 -75.667 -129.667 -119 -165s-92.666 -53 -147.999 -53c-59.333 0 -110.666 24.167 -153.999 72.5s-65 106.166 -65 173.499c0 64.667 9.33301 125.834 28 183.501s47 112.5 85 164.5c30 42.667 64.667 75.167 104 97.5
s80.333 33.5 123 33.5c64 0 114.833 -22 152.5 -66s56.5 -103 56.5 -177zM523.998 970.999c-5.33301 9.33301 -9.33105 19.999 -11.998 31.999s-4 25.667 -4 41c0 29.333 5.5 59.833 16.5 91.5s27.833 66.5 50.5 104.5c-2.66699 37.333 -15 67.666 -37 90.999
s-49.667 35 -83 35c-30 0 -58.333 -9.16699 -85 -27.5s-51.667 -46.166 -75 -83.499c-30.667 -48 -56.167 -106.667 -76.5 -176s-30.5 -132.666 -30.5 -189.999c0 -52 10.667 -92 32 -120s51.666 -42 90.999 -42c44 0 84.667 21.333 122 64s67.666 102.667 90.999 180z
M129 -145.002l-4.00195 10.001c110.667 155.333 226.667 332 348 530s245 412.333 371 643c-41.333 -40.667 -79.666 -70.834 -114.999 -90.501s-69.333 -29.5 -102 -29.5c-8.66699 0 -17 0.666992 -25 2s-16 3.33301 -24 6c-28 -74.667 -65.833 -133 -113.5 -175
s-99.5 -63 -155.5 -63c-62 0 -114.667 24 -158 72s-65 106.667 -65 176c0 64.667 9.33301 125.834 28 183.501s47 112.5 85 164.5c30 42 64.5 74.333 103.5 97s79.5 34 121.5 34c61.333 0 112.5 -23.333 153.5 -70s61.5 -106 61.5 -178
c0 -25.333 -3.16699 -53.833 -9.5 -85.5s-15.5 -65.834 -27.5 -102.501c6 -4 12.333 -7 19 -9s13.334 -3 20.001 -3c42 0 94.333 28.833 157 86.5s119.667 131.167 171 220.5l82 143l12 6h47l2 -10l-891 -1548l-14 -10h-78z" />
    <glyph glyph-name="ampersand" unicode="&#x26;" horiz-adv-x="1554" 
d="M967 219c-66.667 56 -126.833 112.5 -180.5 169.5s-101.5 115.167 -143.5 174.5c-77.333 -4.66699 -142.333 -35.167 -195 -91.5s-79 -122.833 -79 -199.5c0 -70 21.5 -125.667 64.5 -167s101.167 -62 174.5 -62c63.333 0 126 15.167 188 45.5s119 73.833 171 130.5z
M1262 74c0 34.667 -13.001 75.998 -39.001 123.998s-61.667 96.667 -107 146c-14 -23.333 -27.167 -43.666 -39.5 -60.999s-25.166 -34 -38.499 -50c40.667 -37.333 79.5 -69.166 116.5 -95.499s72.833 -47.5 107.5 -63.5zM1004 259.998
c18 18.667 33.999 37.832 47.999 57.499s25.667 40.167 35 61.5c-46.667 46 -95.667 82.833 -147 110.5s-104.666 46.167 -159.999 55.5c25.333 -52 56.5 -101.667 93.5 -149s80.5 -92.666 130.5 -135.999zM1001 192.996c-74 -73.333 -148.501 -127.17 -223.501 -161.503
s-154.5 -51.5 -238.5 -51.5c-92 0 -168.333 27.167 -229 81.5s-91 121.833 -91 202.5c0 93.333 37.333 174.5 112 243.5s169 108.167 283 117.5c-23.333 41.333 -40.666 82 -51.999 122s-17 79.667 -17 119c0 108 38.167 196.833 114.5 266.5s173.833 104.5 292.5 104.5
c26 0 51.167 -2 75.5 -6s48.5 -10.333 72.5 -19l-29 -67c-28 13.333 -54.833 23.5 -80.5 30.5s-49.167 10.5 -70.5 10.5c-76.667 0 -136.5 -25 -179.5 -75s-64.5 -119.333 -64.5 -208c0 -46 5.66699 -92.5 17 -139.5s28 -93.833 50 -140.5c64 -15.333 126.5 -40 187.5 -74
s119.5 -77 175.5 -129c10.667 28.667 18.834 58 24.501 88s8.5 60.667 8.5 92c0 12.667 -1.33301 33.334 -4 62.001v10l362 12c51.333 1.33301 91.5 7.5 120.5 18.5s52.5 28.833 70.5 53.5l10 2l4 -8c-18.667 -70 -54.667 -119 -108 -147s-142.333 -42 -267 -42
c-27.333 0 -73 1.33301 -137 4h-6c-4 -28 -9.66699 -56.667 -17 -86s-16.666 -60 -27.999 -92c65.333 -80 117.666 -151.5 156.999 -214.5s66.666 -119.167 81.999 -168.5l-6 -10c-42 0.666992 -91.667 16.334 -149 47.001s-131.333 81.334 -222 152.001z" />
    <glyph glyph-name="quotesingle" unicode="'" horiz-adv-x="346" 
d="M188 868l-30 -0.000976562l-62 455v4c-2.66699 16.667 -4 29 -4 37c0 31.333 6.83301 55.5 20.5 72.5s33.5 25.5 59.5 25.5s45.833 -8.16699 59.5 -24.5s20.5 -40.166 20.5 -71.499c0 -10.667 -0.166992 -19 -0.5 -25s-0.833008 -11.667 -1.5 -17z" />
    <glyph glyph-name="parenleft" unicode="(" horiz-adv-x="711" 
d="M449 -479v-13.001l-21 -10l-10 8c-42.667 98 -75.167 205.833 -97.5 323.5s-33.5 239.5 -33.5 365.5c0 207.333 45.333 418.833 136 634.5s233.667 450.5 429 704.5l10 2l21 -10l-2 -8c-160 -277.333 -281.333 -550.166 -364 -818.499s-124 -524.166 -124 -767.499
c0 -84.667 4.66699 -161.334 14 -230.001s23.333 -129 42 -181z" />
    <glyph glyph-name="parenright" unicode=")" horiz-adv-x="711" 
d="M424 1516l2.00098 11.999l20 8l11 -6c42.667 -99.333 75.167 -207.833 97.5 -325.5s33.5 -239.167 33.5 -364.5c0 -208 -45.5 -419.667 -136.5 -635s-233.833 -450.333 -428.5 -705l-11 -2l-20 10l2 11c160.667 278.667 282 551.5 364 818.5s123 521.833 123 764.5
c0 82 -4.83301 157.833 -14.5 227.5s-23.834 131.834 -42.501 186.501z" />
    <glyph glyph-name="asterisk" unicode="*" 
d="M500 1139c-27.333 38 -59.667 75.6621 -97 112.995s-80.333 74.666 -129 111.999l-2 16l17 50l8 2c43.333 -35.333 85.833 -77.333 127.5 -126s81.834 -103 120.501 -163l1 5c46 198.667 92.667 298 140 298c25.333 0 43.833 -0.5 55.5 -1.5s21.834 -2.83301 30.501 -5.5
v-7c-56.667 -54.667 -100.667 -107.5 -132 -158.5s-51.333 -102.167 -60 -153.5c65.333 39.333 129 71 191 95s106 36 132 36c8 0 15 -0.833008 21 -2.5s12 -4.16699 18 -7.5l78 -41l2 -8c-104.667 -10.667 -191.334 -23.667 -260.001 -39
s-123.334 -33.666 -164.001 -54.999c94 -33.333 168.667 -65.333 224 -96s83 -54.667 83 -72c0 -14.667 -1.66699 -30.167 -5 -46.5s-8.33301 -32.166 -15 -47.499h-8c-15.333 38 -48 76.667 -98 116s-113.667 76.333 -191 111c37.333 -59.333 67.833 -115.833 91.5 -169.5
s35.5 -90.834 35.5 -111.501c0 -4 -1 -9.16699 -3 -15.5s-4.33301 -12.5 -7 -18.5l-35 -76l-8 -2c-8 81.333 -21.167 155 -39.5 221s-41.5 122 -69.5 168c-22 -54 -38.833 -112.667 -50.5 -176s-17.5 -130.333 -17.5 -201l-8 -12h-43l-6 8v12
c0 56 6.83301 113.833 20.5 173.5s34.167 119.834 61.5 180.501c-45.333 -15.333 -90.166 -36.666 -134.499 -63.999s-94.5 -64.666 -150.5 -111.999h-16l-43 25l-2 10c46 36.667 98.5 70.834 157.5 102.501s123.833 61.167 194.5 88.5
c-59.333 24.667 -119.333 43.334 -180 56.001s-121.334 19 -182.001 19l-13 9l2 43l7 6c46 0 98.333 -7.5 157 -22.5s123 -36.833 193 -65.5z" />
    <glyph glyph-name="plus" unicode="+" horiz-adv-x="1706" 
d="M805 1221h98v-562h549v-98h-549v-561h-98v561h-551v98h551v562z" />
    <glyph glyph-name="comma" unicode="," horiz-adv-x="473" 
d="M57 -209l15 49c50 28.667 90.167 58.667 120.5 90s45.5 58 45.5 80c0 12.667 -4 22.667 -12 30s-18.333 11 -31 11c-7.33301 0 -22.333 -3.66699 -45 -11l-9 -3l-8 8l25 90c4 14 13.167 25 27.5 33s32.5 12 54.5 12c28.667 0 52.167 -9.33301 70.5 -28
s27.5 -42.667 27.5 -72c0 -47.333 -24.167 -95.833 -72.5 -145.5s-117.833 -97.5 -208.5 -143.5z" />
    <glyph glyph-name="hyphen" unicode="-" horiz-adv-x="883" 
d="M272 354l-6 15l29 86l14 8h459l10 -12l-24 -91l-13 -6h-469z" />
    <glyph glyph-name="period" unicode="." horiz-adv-x="473" 
d="M201 -8c-37.333 0 -62.502 2.66797 -75.502 8.00098s-19.5 15 -19.5 29c0 33.333 2.83301 59.666 8.5 78.999s13.167 29 22.5 29c0.666992 0 11.834 -2.33301 33.501 -7s43.834 -9 66.501 -13c8 -1.33301 15.167 -10 21.5 -26s9.5 -34.667 9.5 -56
c0 -17.333 -4.16699 -28.833 -12.5 -34.5s-26.5 -8.5 -54.5 -8.5z" />
    <glyph glyph-name="slash" unicode="/" horiz-adv-x="569" 
d="M121 -190h-88l-6 10l665 1593l13 8h53l8 -10l-633 -1591z" />
    <glyph glyph-name="zero" unicode="0" horiz-adv-x="948" 
d="M217 301c0 -87.333 16.3291 -156.333 48.9961 -207s77 -76 133 -76c48.667 0 95.167 22.167 139.5 66.5s85.5 109.833 123.5 196.5c37.333 85.333 67 181.5 89 288.5s33 207.167 33 300.5c0 94.667 -14.667 168.167 -44 220.5s-70.666 78.5 -123.999 78.5
c-27.333 0 -55.166 -8.5 -83.499 -25.5s-56.166 -42.5 -83.499 -76.5c-36 -44.667 -68.167 -98.5 -96.5 -161.5s-55.166 -139.5 -80.499 -229.5c-18 -65.333 -31.667 -129.5 -41 -192.5s-14 -123.833 -14 -182.5zM382.996 -23c-90.667 0 -165.499 39.1699 -224.499 117.503
s-88.5 179.166 -88.5 302.499c0 43.333 4 89 12 137s19.667 97.333 35 148c28 90 61.5 168.833 100.5 236.5s84.5 126.167 136.5 175.5c42 38.667 83.833 67.667 125.5 87s83.167 29 124.5 29c87.333 0 155 -36.833 203 -110.5s72 -178.167 72 -313.5
c0 -118.667 -18 -234.334 -54 -347.001s-86.333 -210.667 -151 -294c-44.667 -56.667 -90.834 -98.834 -138.501 -126.501s-98.5 -41.5 -152.5 -41.5z" />
    <glyph glyph-name="one" unicode="1" horiz-adv-x="948" 
d="M278 30l312 989.999c-46.667 -51.333 -93.667 -99 -141 -143s-93.333 -82.333 -138 -115h-10l-12 18l2 13c56.667 50 105.167 94.5 145.5 133.5s74.5 74.833 102.5 107.5c16.667 20 35.667 46.667 57 80c29.333 44 55.333 67.333 78 70l63 6h4c4.66699 0 8 -1 10 -3
s3 -5 3 -9c0 -2 -0.666992 -5.16699 -2 -9.5l-4 -12.5l-330 -1117c-4 -15.333 -8.33301 -25 -13 -29s-12.667 -6.66699 -24 -8l-84 -6h-4c-6 0 -10.5 1.33301 -13.5 4s-4.83301 6.66699 -5.5 12c0 2 0.333008 4.33301 1 7s1.66699 6.33398 3 11.001z" />
    <glyph glyph-name="two" unicode="2" horiz-adv-x="948" 
d="M168 98l-116.997 -113.999h-8l-23 16l3 12l135 205c2.66699 4 6.33398 7 11.001 9s9.66699 3 15 3c8.66699 0 15.167 -0.333008 19.5 -1s8.16602 -1.66699 11.499 -3c147.333 161.333 260.333 308.166 339 440.499s118 242.166 118 329.499
c0 45.333 -11.333 80.666 -34 105.999s-54.334 38 -95.001 38c-62 0 -118.833 -30.667 -170.5 -92s-83.834 -138.666 -96.501 -231.999l-6 -8h-26l-8 12c12.667 112.667 51.667 205 117 277s141.666 108 228.999 108c70.667 0 129.167 -22.667 175.5 -68
s69.5 -102.333 69.5 -171c0 -110.667 -176 -349 -528 -715l-37 -39l55 -25c139.333 -62.667 227 -94 263 -94c32.667 0 64.167 11.5 94.5 34.5s63.5 60.833 99.5 113.5l6 4l19 -11l2 -8c-46 -80 -92.333 -141.667 -139 -185s-90.667 -65 -132 -65
c-30 0 -87 16.833 -171 50.5s-147.667 57.834 -191 72.501z" />
    <glyph glyph-name="three" unicode="3" horiz-adv-x="948" 
d="M55 27l-1.99512 10l10 14l11 4c23.333 -10.667 48.166 -18.667 74.499 -24s53.166 -8 80.499 -8c38 0 73.833 5.5 107.5 16.5s64.834 27.833 93.501 50.5c55.333 43.333 100.166 99 134.499 167s51.5 134.667 51.5 200c0 53.333 -17 96.666 -51 129.999s-79 50 -135 50
c-15.333 0 -34.5 -2.33301 -57.5 -7s-50.833 -12 -83.5 -22l-15 6l-6 19l4 10c130 58.667 226.667 119.667 290 183s95 130.666 95 201.999c0 33.333 -9.83301 60.5 -29.5 81.5s-45.167 31.5 -76.5 31.5c-40.667 0 -82.167 -16.167 -124.5 -48.5
s-82.833 -78.5 -121.5 -138.5h-10l-19 13l-2 12c44.667 73.333 95.667 129.833 153 169.5s115.666 59.5 174.999 59.5c58.667 0 106.5 -16.833 143.5 -50.5s55.5 -77.5 55.5 -131.5c0 -68.667 -30.333 -130.667 -91 -186s-155.334 -107.333 -284.001 -156
c104 0 186.667 -23.167 248 -69.5s92 -108.5 92 -186.5c0 -55.333 -15.833 -111.166 -47.5 -167.499s-77.834 -111.166 -138.501 -164.499c-42 -36 -91.333 -64.833 -148 -86.5s-112.667 -32.5 -168 -32.5c-44.667 0 -84.5 4.16699 -119.5 12.5s-64.833 20.833 -89.5 37.5z
" />
    <glyph glyph-name="four" unicode="4" horiz-adv-x="948" 
d="M494 25l104.003 368.001l-496 -14l-12 2l-6 16l4 15c92.667 124.667 173.667 240.167 243 346.5s130.333 207.833 183 304.5c4.66699 8.66699 10.667 21 18 37c19.333 40.667 39.333 63 60 67l133 29h2c5.33301 0 9.66602 -2.16699 12.999 -6.5s5 -9.5 5 -15.5
c0 -22.667 -55.5 -104.834 -166.5 -246.501s-251.833 -308.167 -422.5 -499.5l456 10l72 263c3.33301 10 7 16.833 11 20.5s11 6.16699 21 7.5l79 10h4c4.66699 0 8.16699 -1.5 10.5 -4.5s3.5 -7.5 3.5 -13.5c0 -3.33301 -0.166992 -6 -0.5 -8s-0.833008 -4 -1.5 -6
l-68 -263h52l12 -8l-4 -24l-10 -11l-62 -2l-92 -360c-2.66699 -10.667 -5.83398 -18 -9.50098 -22s-8.83398 -7 -15.501 -9l-106 -22h-8c-4 0 -6.83301 0.666992 -8.5 2s-2.5 4 -2.5 8c0 6.66699 0.333008 12 1 16s2 8.33301 4 13z" />
    <glyph glyph-name="five" unicode="5" horiz-adv-x="948" 
d="M76 -2l-4.00684 14.002l8 15l10 4c20 -6.66699 40.167 -11.5 60.5 -14.5s41.166 -4.5 62.499 -4.5c42 0 84.667 8.66699 128 26s84 42.333 122 75c54 45.333 96.5 100.166 127.5 164.499s46.5 130.166 46.5 197.499c0 61.333 -16.333 110.5 -49 147.5
s-75.667 55.5 -129 55.5c-50 0 -102.833 -19.833 -158.5 -59.5s-86.167 -59.5 -91.5 -59.5s-9.33301 1.5 -12 4.5s-4 7.83301 -4 14.5c0 3.33301 0.666992 9 2 17c0.666992 2.66699 1.33398 5 2.00098 7l170 527c4.66699 13.333 10.334 22.333 17.001 27s19.334 7 38.001 7
l338 6c17.333 0 34.333 3.33301 51 10s32.334 16.334 47.001 29.001l10 -4c-9.33301 -64 -35.666 -108.333 -78.999 -133s-135.666 -37 -276.999 -37c-32 0 -57.167 0.166992 -75.5 0.5s-36.166 0.833008 -53.499 1.5l-129 -399c40.667 31.333 82.5 54.833 125.5 70.5
s87.167 23.5 132.5 23.5c80 0 144.333 -23.5 193 -70.5s73 -108.833 73 -185.5c0 -64.667 -16.667 -128.334 -50 -191.001s-80.666 -119 -141.999 -169c-54.667 -45.333 -114 -80 -178 -104s-129.667 -36 -197 -36c-30 0 -56 1.83301 -78 5.5s-41 9.5 -57 17.5z" />
    <glyph glyph-name="six" unicode="6" horiz-adv-x="948" 
d="M362 307l-6 -9.99805l-20 -2l-8 12c5.33301 115.333 36 210.5 92 285.5s122 112.5 198 112.5c57.333 0 105.166 -23.333 143.499 -70s57.5 -105.334 57.5 -176.001c0 -52 -10.167 -106.333 -30.5 -163s-48.166 -108.334 -83.499 -155.001
c-42 -54 -87.333 -94.833 -136 -122.5s-101 -41.5 -157 -41.5c-90.667 0 -162.834 30.167 -216.501 90.5s-80.5 140.833 -80.5 241.5c0 138.667 49.833 290 149.5 454s237.5 318.667 413.5 464l12 2l21 -23l-6 -16c-139.333 -135.333 -250 -288 -332 -458
s-123 -328 -123 -474c0 -70 15.167 -126.333 45.5 -169s69.833 -64 118.5 -64c70 0 132.5 45 187.5 135s82.5 196.333 82.5 319c0 52.667 -8.66699 92.5 -26 119.5s-42.666 40.5 -75.999 40.5c-49.333 0 -95.5 -31.5 -138.5 -94.5s-70.167 -142.167 -81.5 -237.5z" />
    <glyph glyph-name="seven" unicode="7" horiz-adv-x="948" 
d="M229 2l-123.001 -12.002c-4.66699 0 -9.16699 1.66699 -13.5 5s-6.5 6.33301 -6.5 9c0 23.333 73.5 133.5 220.5 330.5s331.5 430.167 553.5 699.5c-76.667 2.66699 -144.5 4.66699 -203.5 6s-98.167 2 -117.5 2c-56.667 0 -97.334 -6.5 -122.001 -19.5
s-45.667 -38.5 -63 -76.5c-2 -5.33301 -4.33301 -12.666 -7 -21.999c-6.66699 -20.667 -19.334 -31 -38.001 -31c-3.33301 0 -6.16602 1.5 -8.49902 4.5s-3.5 6.83301 -3.5 11.5c0 8.66699 6.66699 31.667 20 69s29.333 73 48 107c19.333 36.667 44.833 62 76.5 76
s96.834 21 195.501 21c60 0 115 -1.33301 165 -4s96.667 -7 140 -13l25 21l12 2l12 -14v-15c-30 -47.333 -96 -141.833 -198 -283.5s-184.667 -262.167 -248 -361.5c-42.667 -66 -86 -137.167 -130 -213.5s-91 -162.166 -141 -257.499c-8 -16.667 -15.167 -27.5 -21.5 -32.5
s-14.166 -7.83301 -23.499 -8.5z" />
    <glyph glyph-name="eight" unicode="8" horiz-adv-x="948" 
d="M600 637c50.667 51.333 90 107.666 118 168.999s42 121 42 179c0 54.667 -13.667 98 -41 130s-64.333 48 -111 48c-48 0 -88.333 -17 -121 -51s-49 -76.333 -49 -127c0 -34 12 -77.167 36 -129.5s66 -125.166 126 -218.499zM426 659
c-80.667 -72.667 -139.333 -142.002 -176 -208.002s-55 -133.667 -55 -203s17.667 -124.666 53 -165.999s82.333 -62 141 -62c62 0 113.667 22.833 155 68.5s62 102.834 62 171.501c0 43.333 -12.5 93.5 -37.5 150.5s-72.5 139.833 -142.5 248.5zM403.001 697.998
c-28 42 -49.333 83.3359 -64 124.003s-22 80.667 -22 120c0 75.333 26.5 138.166 79.5 188.499s119.5 75.5 199.5 75.5c74 0 132.833 -20.833 176.5 -62.5s65.5 -97.834 65.5 -168.501c0 -50.667 -16.667 -106 -50 -166s-87.666 -131.667 -162.999 -215
c35.333 -55.333 62.166 -108.833 80.499 -160.5s27.5 -99.167 27.5 -142.5c0 -86.667 -32.5 -160.667 -97.5 -222s-144.5 -92 -238.5 -92c-86.667 0 -158.167 25 -214.5 75s-84.5 113.333 -84.5 190c0 63.333 23.333 130.166 70 200.499s125 155.5 235 255.5z" />
    <glyph glyph-name="nine" unicode="9" horiz-adv-x="948" 
d="M301 -47l-4.00098 -2.00293l-8 2l-15 20l5 13c136 114 240.5 247 313.5 399s109.5 312.333 109.5 481c0 98.667 -13.833 172.5 -41.5 221.5s-69.5 73.5 -125.5 73.5c-34 0 -68.167 -10.167 -102.5 -30.5s-65.166 -49.166 -92.499 -86.499
c-32 -42 -56.333 -87.167 -73 -135.5s-25 -97.833 -25 -148.5c0 -64.667 12.667 -115 38 -151s61 -54 107 -54c51.333 0 96.5 25.833 135.5 77.5s66.167 122.834 81.5 213.501l6 6l23 -2l6 -10c-15.333 -118.667 -51.333 -216 -108 -292s-119.667 -114 -189 -114
c-58 0 -106 22.833 -144 68.5s-57 103.5 -57 173.5c0 62 13.333 126 40 192s64.667 129 114 189c41.333 50.667 83.5 88.167 126.5 112.5s88.833 36.5 137.5 36.5c82 0 150.333 -36.167 205 -108.5s82 -165.166 82 -278.499c0 -132 -49.167 -277.167 -147.5 -435.5
s-230.833 -301.833 -397.5 -430.5z" />
    <glyph glyph-name="colon" unicode=":" horiz-adv-x="522" 
d="M385 537c-36 0 -60.998 2.83301 -74.998 8.5s-21 15.5 -21 29.5c0 33.333 2.66699 59.5 8 78.5s12.666 28.5 21.999 28.5c2 0 19.333 -3 52 -9c20 -4 36 -7 48 -9c8 -1.33301 15.333 -10 22 -26s10 -34.667 10 -56c0 -18 -4.33301 -30 -13 -36s-26.334 -9 -53.001 -9z
M225.002 -8c-37.333 0 -62.6699 2.66797 -76.0029 8.00098s-20 15 -20 29c0 33.333 2.83301 59.666 8.5 78.999s13.167 29 22.5 29c0.666992 0 11.834 -2.33301 33.501 -7s43.834 -9 66.501 -13c8 -1.33301 15.167 -10 21.5 -26s9.5 -34.667 9.5 -56
c0 -17.333 -4.16699 -28.833 -12.5 -34.5s-26.166 -8.5 -53.499 -8.5z" />
    <glyph glyph-name="semicolon" unicode=";" horiz-adv-x="522" 
d="M414 537c-36 0 -61.167 2.83301 -75.5 8.5s-21.5 15.5 -21.5 29.5c0 33.333 2.83301 59.5 8.5 78.5s13.167 28.5 22.5 28.5c2 0 19 -3 51 -9c20.667 -4 37 -7 49 -9c8 -1.33301 15.167 -10 21.5 -26s9.5 -34.667 9.5 -56c0 -18 -4.33301 -30 -13 -36s-26 -9 -52 -9z
M82 -209l12 49c51.333 28.667 92.166 58.667 122.499 90s45.5 58 45.5 80c0 12.667 -4.16699 22.667 -12.5 30s-19.166 11 -32.499 11c-6.66699 0 -18.667 -3 -36 -9l-15 -5l-8 8l24 90c4 14 13.333 25 28 33s32.667 12 54 12c28.667 0 52.167 -9.33301 70.5 -28
s27.5 -42.667 27.5 -72c0 -47.333 -24 -95.833 -72 -145.5s-117.333 -97.5 -208 -143.5z" />
    <glyph glyph-name="less" unicode="&#x3c;" horiz-adv-x="1706" 
d="M1442 1135v-109l-1022 -416l1022 -413v-109l-1178 481v82z" />
    <glyph glyph-name="equal" unicode="=" horiz-adv-x="1706" 
d="M254 473h1198v-98h-1198v98zM254 846h1198v-98h-1198v98z" />
    <glyph glyph-name="greater" unicode="&#x3e;" horiz-adv-x="1706" 
d="M264 1135l1178 -484v-82l-1178 -481v109l1022 413l-1022 416v109z" />
    <glyph glyph-name="question" unicode="?" horiz-adv-x="797" 
d="M326 -8c-38 0 -63.6689 2.66797 -77.002 8.00098s-20 15 -20 29c0 33.333 2.83301 59.666 8.5 78.999s13.167 29 22.5 29c0.666992 0 11.834 -2.33301 33.501 -7s43.834 -9 66.501 -13c8 -1.33301 15.167 -10 21.5 -26s9.5 -34.667 9.5 -56
c0 -17.333 -4 -28.833 -12 -34.5s-25.667 -8.5 -53 -8.5zM337.998 213.001l-10 -5.99805l-25 8v14c16 59.333 56 150.666 120 273.999l32 62c78.667 157.333 132 276.833 160 358.5s42 152.167 42 211.5c0 58 -12.667 103.167 -38 135.5s-61 48.5 -107 48.5
c-59.333 0 -112.333 -30 -159 -90s-83 -144.667 -109 -254l-6 -8l-27 2l-4 10c22 124.667 63.333 221.667 124 291s134 104 220 104c73.333 0 134.333 -25.5 183 -76.5s73 -114.833 73 -191.5c0 -112 -86 -287.333 -258 -526l-68 -95
c-34.667 -48.667 -64.167 -96.334 -88.5 -143.001s-42.5 -89.667 -54.5 -129z" />
    <glyph glyph-name="at" unicode="@" horiz-adv-x="2019" 
d="M1192 340c-39.333 -70.667 -85.3301 -124.167 -137.997 -160.5s-110.334 -54.5 -173.001 -54.5c-80.667 0 -146 30.833 -196 92.5s-75 142.834 -75 243.501c0 70.667 16.333 141.667 49 213s78.667 136 138 194c44.667 44 92.667 78 144 102s101.666 36 150.999 36
c57.333 0 104.833 -17 142.5 -51s63.834 -83.333 78.501 -148l55 182h131l-170 -606c-7.33301 -26 -12.166 -46.5 -14.499 -61.5s-3.5 -29.167 -3.5 -42.5c0 -36 8.66699 -63.5 26 -82.5s42 -28.5 74 -28.5c31.333 0 67.5 10 108.5 30s79.167 47 114.5 81
c62 58.667 110.333 131.667 145 219s52 180 52 278c0 189.333 -64.667 341.833 -194 457.5s-299.666 173.5 -510.999 173.5c-117.333 0 -226.833 -19.5 -328.5 -58.5s-192.167 -95.833 -271.5 -170.5c-88.667 -84 -155.834 -182.667 -201.501 -296
s-68.5 -238.666 -68.5 -375.999c0 -117.333 18.667 -218.833 56 -304.5s96.333 -163.167 177 -232.5c77.333 -66.667 165.5 -117 264.5 -151s206.167 -51 321.5 -51c111.333 0 219.166 17.667 323.499 53s202.166 87 293.499 155l30 -34
c-98 -72.667 -201.833 -127.5 -311.5 -164.5s-223.5 -55.5 -341.5 -55.5c-126 0 -239.5 15.333 -340.5 46s-192.167 77 -273.5 139c-100.667 76.667 -177.167 168.5 -229.5 275.5s-78.5 225.5 -78.5 355.5c0 136 28.667 262.667 86 380s140.666 221.333 249.999 312
c88 73.333 184.833 128.5 290.5 165.5s219.167 55.5 340.5 55.5c230 0 414.167 -62.333 552.5 -187s207.5 -290.334 207.5 -497.001c0 -104.667 -19.333 -203 -58 -295s-93.667 -170.333 -165 -235c-39.333 -36.667 -80.5 -64.334 -123.5 -83.001s-86.5 -28 -130.5 -28
c-64 0 -113.167 18 -147.5 54s-53.5 89.667 -57.5 161zM1094 969c-37.333 0 -71.167 -10.332 -101.5 -30.999s-61.5 -54.667 -93.5 -102c-48.667 -74 -87.5 -152.667 -116.5 -236s-43.5 -157 -43.5 -221s14.333 -114.833 43 -152.5s67 -56.5 115 -56.5
c44.667 0 87.667 14.833 129 44.5s81 74.167 119 133.5c38 60.667 68.333 127.167 91 199.5s34 139.166 34 200.499c0 63.333 -16.833 116 -50.5 158s-75.5 63 -125.5 63z" />
    <glyph glyph-name="A" unicode="A" horiz-adv-x="2232" 
d="M1532 717c-94.667 56 -186 98.666 -274 127.999s-169.333 44 -244 44c-90.667 0 -163.167 -17.5 -217.5 -52.5s-81.5 -81.167 -81.5 -138.5c0 -80 50.167 -148 150.5 -204s236.5 -90.333 408.5 -103c28.667 27.333 63.167 66.333 103.5 117s91.833 120.334 154.5 209.001
zM2154 1321c-78 -24.667 -220.333 -204.333 -427 -539l-60 -98l99.5 -70.5c29 -21 54.5 -40.5 76.5 -58.5c58 188 113 346.167 165 474.5s100.667 225.5 146 291.5zM1917 420c-7.33301 -28 -13 -55.832 -17 -83.499s-6 -55.167 -6 -82.5c0 -51.333 7 -93.833 21 -127.5
s35.667 -61.5 65 -83.5c10.667 22.667 18.5 46.167 23.5 70.5s7.5 49.166 7.5 74.499c0 44 -7.66699 84.833 -23 122.5s-39 74.167 -71 109.5zM1931 483.001c47.333 -57.333 82.8369 -116.997 106.504 -178.997s35.5 -127 35.5 -195c0 -50 -2.66699 -87.5 -8 -112.5
s-13 -37.5 -23 -37.5c-5.33301 0 -17.833 6.16699 -37.5 18.5s-39.834 27.5 -60.501 45.5c-45.333 38 -79.333 83.167 -102 135.5s-34 110.833 -34 175.5c0 26 2.16699 53 6.5 81s10.5 57 18.5 87c-26.667 22.667 -55.5 45.5 -86.5 68.5s-66.5 47.167 -106.5 72.5
c-38 -56 -73 -105 -105 -147s-61 -77.667 -87 -107h49c14.667 0 30.834 0.333008 48.501 1l76.5 3l10 -8l2 -20l-9 -8c-21.333 -4 -44.833 -6.83301 -70.5 -8.5s-56.5 -2.5 -92.5 -2.5h-55c-115.333 -116 -235 -204.333 -359 -265s-246.667 -91 -368 -91
c-120.667 0 -221.5 23.333 -302.5 70s-121.5 103 -121.5 169c0 52 21.667 93.667 65 125s101.666 47 174.999 47c54.667 0 108 -7 160 -21s102.333 -35 151 -63l4 -14l-8 -16l-12 -4c-49.333 22 -92.5 38 -129.5 48s-71.833 15 -104.5 15
c-54.667 0 -97.334 -12 -128.001 -36s-46 -57.667 -46 -101c0 -49.333 29 -91.333 87 -126s130.667 -52 218 -52c81.333 0 169 27.167 263 81.5s190 133.5 288 237.5c-190 19.333 -340.167 62.666 -450.5 129.999s-165.5 147.666 -165.5 240.999c0 66 29.667 119 89 159
s138.666 60 237.999 60s200.166 -15.5 302.499 -46.5s204.5 -76.833 306.5 -137.5c132.667 201.333 263.167 361.5 391.5 480.5s231.166 178.5 308.5 178.5c10.667 0 17.834 -1.83301 21.5 -5.5c3.66699 -3.66699 5.5 -9.83398 5.5 -18.501
c0 -12.667 -41.5 -119.667 -124.5 -321s-159.833 -397 -230.5 -587z" />
    <glyph glyph-name="B" unicode="B" horiz-adv-x="2163" 
d="M918 199c72 72 130.668 175.003 176.001 309.003s70.333 281.333 75 442c-86 -88 -151.833 -187.333 -197.5 -298s-68.5 -226.334 -68.5 -347.001c0 -20.667 1.16699 -39.834 3.5 -57.501s6.16602 -33.834 11.499 -48.501zM772.001 -22.9971l-9.99902 2.99707
c-2.66699 8.66699 -4.66699 17.5 -6 26.5s-2 17.833 -2 26.5c0 72.667 9.83301 155.167 29.5 247.5s47.167 183.833 82.5 274.5c36.667 92.667 79.834 176.334 129.501 251.001s107.5 143.334 173.5 206.001c-10 110 -56.5 196.833 -139.5 260.5s-191.167 95.5 -324.5 95.5
c-134 0 -242.667 -30.5 -326 -91.5s-125 -139.833 -125 -236.5c0 -72.667 27 -130.334 81 -173.001s127.333 -64 220 -64c50.667 0 104.167 7.16699 160.5 21.5s116.833 36.5 181.5 66.5l14 -6l9 -19l-7 -14c-61.333 -34 -126 -59.5 -194 -76.5s-137.667 -25.5 -209 -25.5
c-114 0 -205.333 26.667 -274 80s-103 124 -103 212c0 108.667 55.167 198.334 165.5 269.001s252.5 106 426.5 106c155.333 0 284.166 -28.167 386.499 -84.5s166.833 -133.833 193.5 -232.5c119.333 106 226.5 186 321.5 240s176.167 81 243.5 81
c53.333 0 96.333 -14.167 129 -42.5s49 -65.166 49 -110.499c0 -52.667 -29.5 -118.334 -88.5 -197.001s-155.167 -179.667 -288.5 -303c112.667 -2 199.834 -30.667 261.501 -86s92.5 -132.333 92.5 -231c0 -66.667 -15.167 -133 -45.5 -199s-73.833 -127.333 -130.5 -184
c-43.333 -44 -92.333 -78 -147 -102s-110 -36 -166 -36c-55.333 0 -99.5 15 -132.5 45s-49.5 69.667 -49.5 119c0 68 30.667 132.167 92 192.5s142 104.166 242 131.499l14 -4l4 -19l-4 -10c-68.667 -29.333 -124.834 -73.5 -168.501 -132.5s-65.5 -118.5 -65.5 -178.5
c0 -29.333 8.66699 -53.5 26 -72.5s39.666 -28.5 66.999 -28.5c28.667 0 58.667 9.5 90 28.5s61.333 45.833 90 80.5c45.333 53.333 80.5 114.333 105.5 183s37.5 138 37.5 208c0 75.333 -21.333 133.5 -64 174.5s-108 66.167 -196 75.5
c-85.333 -81.333 -158.333 -145.5 -219 -192.5s-112.667 -79.833 -156 -98.5l-8 6c28 89.333 73.167 162.166 135.5 218.499s135.833 90.833 220.5 103.5c98.667 99.333 174.334 188 227.001 266s79 140 79 186c0 32.667 -11.5 58.667 -34.5 78s-53.833 29 -92.5 29
c-58 0 -127.833 -24.667 -209.5 -74s-166.834 -119 -255.501 -209v-6c0 -81.333 -18.667 -178.166 -56 -290.499s-91 -233.166 -161 -362.499c-53.333 -97.333 -108 -180.666 -164 -249.999s-108.667 -119.333 -158 -150z" />
    <glyph glyph-name="C" unicode="C" horiz-adv-x="1651" 
d="M696 739c32 90 75.167 175.666 129.5 256.999s119.166 157 194.499 227c-54.667 17.333 -112.667 30.5 -174 39.5s-127 13.5 -197 13.5c-137.333 0 -248.166 -25.5 -332.499 -76.5s-126.5 -117.167 -126.5 -198.5c0 -82.667 43.833 -146.667 131.5 -192
s212.5 -68.666 374.5 -69.999zM1139 1229c70 -32.667 125.831 -69.832 167.498 -111.499s71.167 -89.834 88.5 -144.501c56 51.333 100 104.5 132 159.5s48 104.167 48 147.5c0 40 -11.667 71.833 -35 95.5s-54.666 35.5 -93.999 35.5c-46.667 0 -96.667 -15.833 -150 -47.5
s-105.666 -76.5 -156.999 -134.5zM865.998 745.001c94.667 13.333 183.166 35.834 265.499 67.501s157.833 72.167 226.5 121.5c-13.333 57.333 -40.166 107.5 -80.499 150.5s-95.5 79.5 -165.5 109.5c-49.333 -64.667 -94.5 -134.334 -135.5 -209.001
s-77.833 -154.667 -110.5 -240zM683.997 694.002c-200.667 7.33301 -353.162 38.5 -457.495 93.5s-156.5 131.833 -156.5 230.5c0 91.333 48.667 164.666 146 219.999s228.666 83 393.999 83c77.333 0 153.166 -5.5 227.499 -16.5s147.5 -27.5 219.5 -49.5
c76 66.667 148.5 116.834 217.5 150.501s132.833 50.5 191.5 50.5c63.333 0 113.666 -17.667 150.999 -53s56 -82.333 56 -141c0 -64 -23 -128.833 -69 -194.5s-111.667 -126.5 -197 -182.5v-17c0 -96 -35 -179.833 -105 -251.5s-172.333 -128.5 -307 -170.5l-10 7l-6 18
l8 10c122 42.667 214.333 95.667 277 159s94 134.666 94 213.999v4c-72.667 -40 -151.334 -73.333 -236.001 -100s-176 -46.667 -274 -60c-11.333 -38 -20 -78.667 -26 -122s-9 -88 -9 -134c0 -130 35.333 -232 106 -306s167.667 -111 291 -111
c113.333 0 223.166 42.333 329.499 127s224.5 225 354.5 421c2 -5.33301 3.66699 -10.666 5 -15.999s2 -9.33301 2 -12c0 -20.667 -12.833 -50.834 -38.5 -90.501s-68.167 -94.834 -127.5 -165.501c-92.667 -110 -184 -189.833 -274 -239.5s-187.333 -74.5 -292 -74.5
c-151.333 0 -274.833 46.833 -370.5 140.5s-143.5 214.834 -143.5 363.501c0 34.667 2.5 69.834 7.5 105.501s12.167 72.167 21.5 109.5z" />
    <glyph glyph-name="D" unicode="D" horiz-adv-x="1890" 
d="M739 129c-27.333 8 -55.6689 14.167 -85.002 18.5s-59.666 6.5 -90.999 6.5c-54 0 -105 -9.5 -153 -28.5s-87.667 -45.167 -119 -78.5c20.667 -8 42.334 -14 65.001 -18s46.667 -6 72 -6c64 0 122 8.83301 174 26.5s97.667 44.167 137 79.5zM900.997 383
c44 87.333 101.994 249.666 173.994 486.999l17 56c-60 26.667 -119.167 46.667 -177.5 60s-116.166 20 -173.499 20c-44 0 -86.667 -4 -128 -12s-81.666 -20 -120.999 -36l-15 3l-6 18l4 12c40.667 20.667 84.5 36.167 131.5 46.5s96.167 15.5 147.5 15.5
c58 0 116.333 -7.16699 175 -21.5s118.334 -35.833 179.001 -64.5c14.667 44 29.834 84.5 45.501 121.5s31.167 70.833 46.5 101.5c-80.667 40.667 -161.167 71.334 -241.5 92.001s-158.166 31 -233.499 31c-137.333 0 -248.166 -38 -332.499 -114
s-126.5 -175.333 -126.5 -298c0 -118 55.667 -222.667 167 -314s267.333 -159.333 468 -204zM1029.99 373c2.66699 -0.666992 6.33301 -1 11 -1c27.333 -2 47 -3 59 -3c84 0 150.667 20.167 200 60.5s74 94.5 74 162.5c0 46 -14.333 91.5 -43 136.5s-69.667 85.5 -123 121.5
c-31.333 -112.667 -61.5 -208 -90.5 -286s-58.167 -141.667 -87.5 -191zM865.99 135c54 -22.667 105.499 -39.499 154.499 -50.499s96.5 -16.5 142.5 -16.5c147.333 0 265.833 43.833 355.5 131.5s134.5 203.5 134.5 347.5c0 111.333 -30.167 218.5 -90.5 321.5
s-144.166 190.167 -251.499 261.5c-15.333 -35.333 -30 -72 -44 -110s-27.333 -79 -40 -123c65.333 -47.333 114 -96.333 146 -147s48 -103.334 48 -158.001c0 -82 -30 -146.833 -90 -194.5s-142.667 -71.5 -248 -71.5c-12 0 -33.667 1 -65 3
c-5.33301 0 -9.33301 0.333008 -12 1c-18.667 -30.667 -39.667 -62.167 -63 -94.5s-49 -65.833 -77 -100.5zM828.989 100.001c-47.333 -39.333 -102.004 -68.501 -164.004 -87.501s-132.667 -28.5 -212 -28.5c-62.667 0 -120.667 5 -174 15s-100 24.667 -140 44v12
c40.667 50 92.334 87.5 155.001 112.5s136 37.5 220 37.5c42 0 85.5 -3.5 130.5 -10.5s90.167 -17.167 135.5 -30.5c13.333 13.333 27.333 33 42 59s35 65.667 61 119c-237.333 51.333 -421.666 129.833 -552.999 235.5s-197 227.167 -197 364.5
c0 121.333 51.5 222.333 154.5 303s234.5 121 394.5 121c84.667 0 172.167 -11.167 262.5 -33.5s184.5 -56.166 282.5 -101.499c56.667 73.333 120.667 130 192 170s150 63 236 69l10 -8v-18l-10 -10c-77.333 -16.667 -143 -46.167 -197 -88.5
s-97.667 -98.166 -131 -167.499c142.667 -104.667 251.334 -215.334 326.001 -332.001s112 -234 112 -352c0 -69.333 -12.667 -134.833 -38 -196.5s-61.666 -116.5 -108.999 -164.5c-48.667 -48.667 -104 -85.667 -166 -111s-127.667 -38 -197 -38
c-56.667 0 -120.5 9.66699 -191.5 29s-149.167 48.333 -234.5 87z" />
    <glyph glyph-name="E" unicode="E" horiz-adv-x="1731" 
d="M1155 940c155.333 46.667 270.668 95.999 346.001 147.999s113 108.333 113 169c0 37.333 -12.5 66.833 -37.5 88.5s-58.833 32.5 -101.5 32.5c-99.333 0 -186 -31.333 -260 -94s-111 -135 -111 -217c0 -27.333 4.16699 -51.166 12.5 -71.499
s21.166 -38.833 38.499 -55.5zM1294 798.999c-45.333 4 -87.832 12.3301 -127.499 24.9971s-76.834 30.334 -111.501 53.001c-80.667 -21.333 -157.834 -37.333 -231.501 -48s-144.167 -16 -211.5 -16c-160.667 0 -287.5 26.833 -380.5 80.5s-139.5 126.5 -139.5 218.5
c0 86.667 43.833 157.5 131.5 212.5s202.167 82.5 343.5 82.5c61.333 0 125.833 -5.16699 193.5 -15.5s137.834 -25.5 210.501 -45.5l6 -11l-4 -18l-12 -4c-66 17.333 -129.167 30.5 -189.5 39.5s-117.5 13.5 -171.5 13.5c-115.333 0 -205.666 -23.5 -270.999 -70.5
s-98 -111.5 -98 -193.5c0 -79.333 35.5 -140.5 106.5 -183.5s171.5 -64.5 301.5 -64.5c59.333 0 121.166 4.66699 185.499 14s130.833 23 199.5 41c-22.667 20 -39.667 43 -51 69s-17 55.667 -17 89c0 52.667 15.333 99.334 46 140.001s81.667 82 153 124
c45.333 27.333 99.5 48.833 162.5 64.5s126.167 23.5 189.5 23.5c68.667 0 122 -12.667 160 -38s57 -60.333 57 -105c0 -66 -45.167 -129.5 -135.5 -190.5s-225.166 -119.833 -404.499 -176.5c26.667 -21.333 57.667 -39.333 93 -54s80.666 -27.334 135.999 -38.001l8 -10
v-21l-10 -6c-205.333 -28.667 -371.333 -91.167 -498 -187.5s-190 -205.166 -190 -326.499c0 -79.333 29.5 -141.833 88.5 -187.5s140.167 -68.5 243.5 -68.5c116.667 0 216.5 27.833 299.5 83.5s124.5 120.834 124.5 195.501c0 44 -16.167 79.167 -48.5 105.5
s-74.833 39.5 -127.5 39.5c-48 0 -102.167 -13.5 -162.5 -40.5s-129.166 -68.833 -206.499 -125.5l-10 2l-11 15l2 12c90 70 173.667 122.333 251 157s149.333 52 216 52c65.333 0 119.333 -16.833 162 -50.5s64 -75.5 64 -125.5c0 -40 -12.333 -78.667 -37 -116
s-62.334 -74 -113.001 -110c-65.333 -46.667 -137.166 -82.5 -215.499 -107.5s-158.833 -37.5 -241.5 -37.5c-132.667 0 -239.5 29 -320.5 87s-121.5 134 -121.5 228c0 122.667 66.667 232.167 200 328.5s311.666 161.833 534.999 196.5z" />
    <glyph glyph-name="F" unicode="F" horiz-adv-x="1284" 
d="M774 930l13.999 -1.99902l13 -21l-8 -16c-54.667 -33.333 -110.834 -58.833 -168.501 -76.5s-113.5 -26.5 -167.5 -26.5c-90 0 -162.333 25.333 -217 76s-82 117 -82 199c0 115.333 54.5 205.333 163.5 270s261.833 97 458.5 97c72 0 161.333 -2.16699 268 -6.5
s178 -6.5 214 -6.5c56 0 104.667 9.66699 146 29c6 2.66699 9.66699 4 11 4c4.66699 0 7.83398 -0.833008 9.50098 -2.5s2.83398 -5.5 3.50098 -11.5c0 -4.66699 -4.5 -12.334 -13.5 -23.001s-31.833 -34.667 -68.5 -72c-15.333 -16 -30.5 -27.167 -45.5 -33.5
s-38.167 -9.5 -69.5 -9.5h-14c-79.333 0 -191 5.5 -335 16.5s-248.333 16.5 -313 16.5c-114.667 0 -205.334 -24.667 -272.001 -74s-100 -115.333 -100 -198c0 -68 23.833 -123.333 71.5 -166s109.834 -64 186.501 -64c46.667 0 95.5 8.16699 146.5 24.5
s107.167 41.833 168.5 76.5zM1110 590.001c-24 -82 -53.667 -156.335 -89 -223.002s-76 -125.667 -122 -177c-56 -62 -117.833 -113 -185.5 -153s-124.5 -60 -170.5 -60c-42 0 -75.833 11.667 -101.5 35s-38.5 54 -38.5 92c0 48 21.833 100.333 65.5 157
s107.167 115 190.5 175l15 2l12 -14l-4 -12c-74.667 -62 -123.667 -108.167 -147 -138.5s-35 -59.5 -35 -87.5c0 -31.333 11.667 -56.166 35 -74.499s55.333 -27.5 96 -27.5c87.333 0 160.666 42.167 219.999 126.5s106 211.833 140 382.5
c-81.333 4 -145.833 8.5 -193.5 13.5s-84.834 11.167 -111.501 18.5l6 22c54 0 107.167 0.5 159.5 1.5s103.833 2.83301 154.5 5.5c20.667 78 44 177 70 297c34 155.333 64.333 239 91 251l88 37c2 0.666992 3.33301 1 4 1c5.33301 2 9 3 11 3c4 0 7.33301 -1.83301 10 -5.5
s4 -8.5 4 -14.5c0 -13.333 -28.333 -120.333 -85 -321l-66 -236c18 0.666992 35.833 1.83398 53.5 3.50098s26.167 2.5 25.5 2.5c10.667 0 26 1.66699 46 5s35 5 45 5c3.33301 0 5.33301 -0.166992 6 -0.5s1.33398 -1.5 2.00098 -3.5c0 -24 -14.333 -45.333 -43 -64
s-65 -28 -109 -28c-8.66699 0 -22.667 1 -42 3c-3.33301 0.666992 -5.66602 1 -6.99902 1z" />
    <glyph glyph-name="G" unicode="G" horiz-adv-x="2218" 
d="M842 449c10.667 68.667 33.8311 141.332 69.498 217.999s82.834 155.334 141.501 236.001c-68 18 -130.667 31.333 -188 40s-110.666 13 -159.999 13c-130 0 -234.667 -25 -314 -75s-119 -115 -119 -195c0 -77.333 34.5 -138.666 103.5 -183.999s162.833 -68 281.5 -68
c26 0 54 1.16699 84 3.5s63.667 6.16602 101 11.499zM1006 474.998c98.667 19.333 190.165 42.5 274.498 69.5s160.5 57.833 228.5 92.5c162 82.667 289.333 174.667 382 276s139 197.666 139 288.999c0 50 -14.5 89.167 -43.5 117.5s-68.5 42.5 -118.5 42.5
c-85.333 0 -185.5 -41.333 -300.5 -124s-229.167 -197 -342.5 -343c26.667 -9.33301 53.334 -19.166 80.001 -29.499l79 -31.5l7 -17l-13 -20h-10c-24 10.667 -50.667 21 -80 31s-60.666 20 -93.999 30c-42 -55.333 -78.833 -115 -110.5 -179s-57.5 -132 -77.5 -204z
M1903 359.998c-145.333 -126 -277.495 -219.499 -396.495 -280.499s-228.5 -91.5 -328.5 -91.5c-100.667 0 -182.834 34.667 -246.501 104s-95.5 160.333 -95.5 273c0 4.66699 0.333008 11.5 1 20.5s1 15.5 1 19.5c-34 -4.66699 -67.5 -8.16699 -100.5 -10.5
s-65.833 -3.5 -98.5 -3.5c-148.667 0 -267.334 28.833 -356.001 86.5s-133 133.5 -133 227.5c0 90.667 43.667 164.5 131 221.5s203.333 85.5 348 85.5c64 0 133.833 -6 209.5 -18s157.167 -30 244.5 -54c122.667 146 260 261.667 412 347s294 128 426 128
c78 0 138.167 -17.5 180.5 -52.5s63.5 -85.167 63.5 -150.5c0 -71.333 -28.833 -144.333 -86.5 -219s-145.5 -152.334 -263.5 -233.001s-244.667 -148 -380 -202s-282.333 -96.667 -441 -128c-4 -14.667 -6.83301 -31.334 -8.5 -50.001s-2.5 -40.334 -2.5 -65.001
c0 -84 23 -149.667 69 -197s110.333 -71 193 -71c97.333 0 216.5 44.833 357.5 134.5s291.5 216.834 451.5 381.501l10 -2c-18 -160.667 -42.833 -310 -74.5 -448s-64.834 -247.333 -99.501 -328c-27.333 -65.333 -59.5 -122.166 -96.5 -170.499
s-87.5 -98.166 -151.5 -149.499c-18 -14.667 -35.5 -26.5 -52.5 -35.5s-30.167 -13.5 -39.5 -13.5s-17 8.16699 -23 24.5s-9 37.5 -9 63.5c0 63.333 12.5 126.666 37.5 189.999s62.167 125.666 111.5 186.999l10 2l15 -8l2 -12c-28 -45.333 -48.667 -86.666 -62 -123.999
s-20 -72.666 -20 -105.999c0 -18.667 2.16699 -37.667 6.5 -57s11.166 -38.333 20.499 -57c61.333 33.333 110.666 105.666 147.999 216.999s76 319.333 116 624z" />
    <glyph glyph-name="H" unicode="H" horiz-adv-x="2048" 
d="M1090 588c-100.667 -46 -186.5 -113.168 -257.5 -201.501s-123.833 -193.166 -158.5 -314.499c80 11.333 155.833 61.333 227.5 150s134.5 210.667 188.5 366zM1726 845.999c88 44 155.5 100.498 202.5 169.498s70.5 146.167 70.5 231.5v21
c-56.667 -45.333 -107.667 -103.166 -153 -173.499s-85.333 -153.166 -120 -248.499zM1241 632.997c-45.333 -118 -102.333 -221.837 -171 -311.504s-147.334 -164.167 -236.001 -223.5c-56 -36 -113.833 -65.5 -173.5 -88.5s-104.5 -34.5 -134.5 -34.5
c-8 0.666992 -14.333 2.5 -19 5.5s-7 6.83301 -7 11.5c0 19.333 13.333 54.166 40 104.499s61 102.833 103 157.5c68 88 140.833 164.833 218.5 230.5s159.167 119.834 244.5 162.501c8.66699 42.667 15.334 83.834 20.001 123.501s7 78.5 7 116.5
c0 152.667 -37.833 266.834 -113.5 342.501s-189.5 113.5 -341.5 113.5c-140 0 -255.833 -33 -347.5 -99s-137.5 -148.333 -137.5 -247c0 -108 49.5 -193.333 148.5 -256s235.833 -94 410.5 -94l12 -10v-23l-8 -10c-215.333 0 -384.666 36 -507.999 108s-185 170 -185 294
c0 112.667 55.667 205 167 277s256.666 108 435.999 108c194.667 0 346.334 -44 455.001 -132s163 -210.667 163 -368c0 -32 -2.33301 -65.667 -7 -101s-12 -72 -22 -110c58.667 10 114.167 22.5 166.5 37.5s102.166 32.5 149.499 52.5
c98 184.667 207.167 341.5 327.5 470.5s203.5 193.5 249.5 193.5c5.33301 0 9.83301 -2.5 13.5 -7.5s5.5 -11.5 5.5 -19.5c0 -37.333 -14.667 -91.666 -44 -162.999s-66.666 -138.666 -112 -201.999c-43.333 -58.667 -89.833 -109.5 -139.5 -152.5
s-104.167 -79.5 -163.5 -109.5c-39.333 -112.667 -69.333 -216 -90 -310s-31 -173 -31 -237c0 -66 14 -117.167 42 -153.5s67.333 -54.5 118 -54.5c63.333 0 138.333 42.167 225 126.5s194.667 220.166 324 407.499c3.33301 -3.33301 5.83301 -7 7.5 -11
s2.5 -8.33301 2.5 -13c0 -19.333 -11.667 -47.666 -35 -84.999s-65.666 -95.333 -127 -174c-80 -103.333 -154.167 -180.333 -222.5 -231s-132.5 -76 -192.5 -76c-81.333 0 -146.833 31.667 -196.5 95s-74.5 147.666 -74.5 252.999c0 62 6.83301 125.333 20.5 190
s34.167 131.334 61.5 200.001c-58.667 -18 -112.667 -33.167 -162 -45.5s-95 -21.833 -137 -28.5z" />
    <glyph glyph-name="I" unicode="I" horiz-adv-x="1532" 
d="M1139 1090c-74 -8.66699 -150.5 -34.832 -229.5 -78.499s-156.833 -102.834 -233.5 -177.501h37c102.667 0 191.5 22.5 266.5 67.5s128.167 107.833 159.5 188.5zM1272 1128c-50.667 -106 -128.998 -190.502 -234.998 -253.502s-223.667 -94.5 -353 -94.5
c-13.333 0 -24 0.166992 -32 0.5s-15.667 0.833008 -23 1.5c-33.333 -43.333 -64.833 -88.833 -94.5 -136.5s-57.5 -97.5 -83.5 -149.5l-13 -7l-18 9l-4 12c16 43.333 37.667 88.5 65 135.5s60.333 95.5 99 145.5c-99.333 10.667 -179.833 42.334 -241.5 95.001
s-92.5 114.334 -92.5 185.001c0 95.333 58.667 176.5 176 243.5s265.333 100.5 444 100.5c188 0 335.333 -45.333 442 -136s160 -215.334 160 -374.001c0 -54.667 -6.16699 -112.5 -18.5 -173.5s-30.5 -124.5 -54.5 -190.5c-28.667 -76 -62.334 -146.333 -101.001 -211
s-81 -121.334 -127 -170.001c-78.667 -84 -166 -150.167 -262 -198.5s-187.333 -72.5 -274 -72.5c-68 0 -121.167 14.167 -159.5 42.5s-57.5 66.833 -57.5 115.5c0 55.333 26.167 106 78.5 152s118.833 75.333 199.5 88l10 -6l3 -15l-3 -12
c-56 -17.333 -99.333 -40.666 -130 -69.999s-46 -62.666 -46 -99.999c0 -40.667 16 -73.334 48 -98.001s74 -37 126 -37c67.333 0 135 19.333 203 58s128 92.334 180 161.001c72 93.333 128 203.833 168 331.5s60 259.5 60 395.5c0 46 -3.33301 88.333 -10 127
s-16.334 74 -29.001 106zM1262 1151c-32.667 70.667 -85.666 124.833 -158.999 162.5s-162.333 56.5 -267 56.5c-135.333 0 -247.333 -28 -336 -84s-133 -125 -133 -207c0 -58 21.833 -107.833 65.5 -149.5s105.5 -71.5 185.5 -89.5c102.667 102 205.667 179.667 309 233
s202.666 80 297.999 80c4 0 10 -0.333008 18 -1s14.333 -1 19 -1z" />
    <glyph glyph-name="J" unicode="J" horiz-adv-x="1446" 
d="M569 899c59.333 79.333 133.5 148.001 222.5 206.001s193.833 106 314.5 144c-37.333 40.667 -88 71.667 -152 93s-137.667 32 -221 32c-134 0 -242.5 -26.333 -325.5 -79s-124.5 -119.667 -124.5 -201c0 -62.667 22.833 -110.834 68.5 -144.501s111.5 -50.5 197.5 -50.5
h20zM1169 1212c-114.667 -22.667 -217.667 -59.832 -309 -111.499s-167 -115.5 -227 -191.5c122.667 15.333 230.167 49.166 322.5 101.499s163.5 119.5 213.5 201.5zM459 -470.997c60.667 27.333 125.671 72.9971 195.004 136.997s132.666 137 189.999 219
c112 162 199.333 336.167 262 522.5s94 363.166 94 530.499c0 27.333 -1.83301 54.833 -5.5 82.5s-9.16699 55.834 -16.5 84.501c-84.667 -69.333 -175.334 -125 -272.001 -167s-200 -70 -310 -84c-38.667 -53.333 -71.5 -108.666 -98.5 -165.999s-48.167 -116 -63.5 -176
l-8 -10l-23 4l-6 14c10.667 54 27.5 108.5 50.5 163.5s52.833 110.5 89.5 166.5h-29c-108 0 -192.333 19.833 -253 59.5s-91 94.167 -91 163.5c0 94 54.667 174.833 164 242.5s245 101.5 407 101.5c96.667 0 185.167 -12.5 265.5 -37.5s144.166 -59.5 191.499 -103.5
c33.333 12 61 20.833 83 26.5s39.333 8.5 52 8.5c6 0 12 -0.5 18 -1.5s13 -2.83301 21 -5.5l6 -12c-5.33301 -13.333 -15.5 -28 -30.5 -44s-38.833 -37.333 -71.5 -64c25.333 -39.333 44.333 -83.5 57 -132.5s19 -103.167 19 -162.5c0 -56.667 -6.5 -117.167 -19.5 -181.5
s-31.833 -132.166 -56.5 -203.499c-48.667 -136.667 -108 -263.334 -178 -380.001s-154 -229 -252 -337c-92.667 -102 -184.334 -186.167 -275.001 -252.5s-171 -108.5 -241 -126.5l-8 10c2 99.333 41.167 200.833 117.5 304.5s183.833 200.167 322.5 289.5h12l8 -16l-2 -12
c-104 -76.667 -182.833 -151 -236.5 -223s-80.5 -139.667 -80.5 -203c0 -7.33301 0.166992 -13.166 0.5 -17.499s0.833008 -8.16602 1.5 -11.499z" />
    <glyph glyph-name="K" unicode="K" horiz-adv-x="2048" 
d="M997 707c-106 -81.333 -191.166 -175.167 -255.499 -281.5s-104.5 -220.833 -120.5 -343.5c86.667 43.333 162.167 118.333 226.5 225s114.166 240 149.499 400zM1010 777.999c21.333 98.667 36.501 174.497 45.501 227.497s13.5 94.5 13.5 124.5
c0 88 -30.667 153.167 -92 195.5s-155.666 63.5 -282.999 63.5c-124.667 0 -222.667 -21.833 -294 -65.5s-107 -102.5 -107 -176.5c0 -58 24.167 -104 72.5 -138s114.166 -51 197.499 -51c29.333 0 62.166 2.33301 98.499 7s75.833 11.334 118.5 20.001l15 -8l6 -21l-10 -10
c-43.333 -11.333 -86.833 -20 -130.5 -26s-87.167 -9 -130.5 -9c-104.667 0 -188.5 21.5 -251.5 64.5s-94.5 99.5 -94.5 169.5c0 84.667 46.167 153.667 138.5 207s214.833 80 367.5 80c173.333 0 303.666 -31 390.999 -93s131 -154.667 131 -278
c0 -48.667 -9 -107 -27 -175s-45 -144.333 -81 -229c-34 -80 -70.833 -154 -110.5 -222s-82.167 -129.667 -127.5 -185c-61.333 -76 -126.5 -139.333 -195.5 -190s-137.5 -85.667 -205.5 -105l-6 6c18.667 126.667 74.334 258.834 167.001 396.501
s220.667 277.834 384 420.501zM1186 628.996c24.667 12 47.3301 21.165 67.9971 27.498s39.667 9.5 57 9.5c46 0 87 -16.667 123 -50s70.667 -86.333 104 -159c20 -44 44.667 -102.667 74 -176c61.333 -153.333 118 -230 170 -230c43.333 0 101.166 39.333 173.499 118
s168.166 207.334 287.499 386.001c4 -4.66699 7 -9.16699 9 -13.5s3 -9.5 3 -15.5c0 -17.333 -10 -42.166 -30 -74.499s-66 -94.166 -138 -185.499c-75.333 -96.667 -142 -167.834 -200 -213.501s-110 -68.5 -156 -68.5c-83.333 0 -167.666 94.667 -252.999 284l-18 39
l-29 64c-65.333 147.333 -123.333 221 -174 221c-16 0 -36.667 -5.5 -62 -16.5s-55.666 -27.5 -90.999 -49.5l-6 6c4.66699 50 42.334 123.333 113.001 220s161.334 196.334 272.001 299.001c112.667 104 228.834 192.333 348.501 265s193.834 109 222.501 109
c6 0 10.167 -1.5 12.5 -4.5s3.83301 -9.5 4.5 -19.5c0 -22.667 -3.33301 -47.834 -10 -75.501s-13.667 -47.5 -21 -59.5c-8.66699 -13.333 -33.334 -26.333 -74.001 -39c-18.667 -6 -32.667 -10.667 -42 -14c-155.333 -55.333 -296 -133 -422 -233s-231.333 -217 -316 -351z
" />
    <glyph glyph-name="L" unicode="L" horiz-adv-x="2032" 
d="M936 141c-27.333 14.667 -54.667 25.5 -82 32.5s-56 10.5 -86 10.5c-40.667 0 -81 -10.167 -121 -30.5s-79.667 -51.166 -119 -92.499c16 -9.33301 33.667 -16.333 53 -21s41.333 -7 66 -7c62 0 117.667 9.16699 167 27.5s90 45.166 122 80.499zM1286 690
c54 16.667 107.998 41.002 161.998 73.002s107.333 71.333 160 118c83.333 71.333 150.5 144.666 201.5 219.999s76.5 135.666 76.5 180.999c0 40.667 -10.333 72 -31 94s-50.667 33 -90 33c-91.333 0 -177.166 -60.333 -257.499 -181s-154.166 -300 -221.499 -538z
M992.997 117.002c-43.333 -39.333 -93.3311 -69.6689 -149.998 -91.002s-115 -32 -175 -32c-58.667 0 -117 8.83301 -175 26.5s-111.667 42.834 -161 75.501v10c57.333 38.667 118.833 68.167 184.5 88.5s132.5 30.5 200.5 30.5c42 0 83.5 -3.66699 124.5 -11
s81.5 -18.666 121.5 -33.999c31.333 40 78.666 162.333 141.999 367l15 51c-70 -16 -141 -27.833 -213 -35.5s-145.667 -11.5 -221 -11.5c-203.333 0 -359.333 28.167 -468 84.5s-163 137.5 -163 243.5c0 105.333 55.667 189.333 167 252s263.333 94 456 94
c69.333 0 138.833 -3.16699 208.5 -9.5s138.167 -15.5 205.5 -27.5l8 -12l-2 -19l-11 -8c-84.667 12 -159.334 20.833 -224.001 26.5s-121.667 8.5 -171 8.5c-160 0 -287.333 -27.833 -382 -83.5s-142 -129.5 -142 -221.5c0 -89.333 48.667 -158.833 146 -208.5
s233.666 -74.5 408.999 -74.5c58 0 121.667 4.16699 191 12.5s144.333 21.166 225 38.499c64 260 148.333 458.5 253 595.5s223.667 205.5 357 205.5c62.667 0 111.5 -16.5 146.5 -49.5s52.5 -79.167 52.5 -138.5c0 -107.333 -61.5 -218 -184.5 -332
s-286.833 -210.333 -491.5 -289c-37.333 -107.333 -75.5 -199.666 -114.5 -276.999s-82.167 -145.333 -129.5 -204c109.333 -42.667 217.5 -74.834 324.5 -96.501s209.167 -32.5 306.5 -32.5c69.333 0 119.833 8.5 151.5 25.5s47.5 44.5 47.5 82.5s-17 68.333 -51 91
s-79.333 34 -136 34c-31.333 0 -62 -3 -92 -9s-58.667 -15.333 -86 -28l-10 2l-6 17l6 12c26.667 15.333 56.167 27 88.5 35s66.166 12 101.499 12c68.667 0 123.334 -16.167 164.001 -48.5s61 -74.833 61 -127.5c0 -63.333 -25.667 -113.666 -77 -150.999
s-121 -56 -209 -56c-73.333 0 -163.666 17 -270.999 51s-223.333 82.667 -348 146z" />
    <glyph glyph-name="M" unicode="M" horiz-adv-x="2261" 
d="M835 720l-92.0029 -294.001c146 282 278.667 498.667 398 650s217.666 227 294.999 227c37.333 0 66 -12.333 86 -37s30 -60.334 30 -107.001c0 -9.33301 -2.66699 -26.666 -8 -51.999s-14 -60.666 -26 -105.999l-164 -614c142 277.333 277 496.833 405 658.5
s228.333 242.5 301 242.5c31.333 0 57.666 -11.667 79 -35c21.333 -23.333 32 -52.666 32 -87.999c0 -41.333 -38.333 -167.666 -115 -378.999l-18 -51c-66.667 -184.667 -110 -315.5 -130 -392.5s-30 -140.5 -30 -190.5c0 -46 9 -82.167 27 -108.5s42.333 -39.5 73 -39.5
c44 0 103.5 41.5 178.5 124.5s169.167 211.5 282.5 385.5c3.33301 -5.33301 5.83301 -10.666 7.5 -15.999s2.5 -11 2.5 -17c0 -23.333 -27.333 -73.666 -82 -150.999l-8 -11c-103.333 -144 -184.333 -241.667 -243 -293s-114 -77 -166 -77
c-57.333 0 -103.5 21.167 -138.5 63.5s-52.5 98.166 -52.5 167.499c0 58 11.333 131 34 219s68 226 136 414l50 135c43.333 118 65 189.667 65 215c0 15.333 -3.33301 27.333 -10 36s-15.667 13 -27 13c-42 0 -113.333 -62.833 -214 -188.5s-206.667 -288.5 -318 -488.5
c-67.333 -121.333 -131.666 -261 -192.999 -419c-5.33301 -14.667 -9.33301 -25.334 -12 -32.001s-6.33398 -16.334 -11.001 -29.001c-14.667 -40.667 -32.667 -61.667 -54 -63l-72 -6h-9c-9.33301 0 -15.666 1.16699 -18.999 3.5s-5 6.5 -5 12.5
c0 4 0.333008 7.83301 1 11.5s2.33398 10.167 5.00098 19.5l270 928c20.667 71.333 34 121.666 40 150.999s9 53.333 9 72c0 14 -3.83301 25 -11.5 33s-18.834 12 -33.501 12c-36 0 -94.333 -47 -175 -141s-167 -217.667 -259 -371
c-59.333 -101.333 -112.5 -201.833 -159.5 -301.5s-87.167 -197.834 -120.5 -294.501c-4 -12 -9 -28 -15 -48c-13.333 -48 -33.666 -73 -60.999 -75l-74 -8h-8c-8 0 -13.833 1.5 -17.5 4.5s-5.5 7.5 -5.5 13.5s2.33301 16.333 7 31
c0.666992 2.66699 1.33398 4.66699 2.00098 6l270 897c9.33301 32.667 16.5 63 21.5 91s7.5 53 7.5 75c0 74 -21.833 132.167 -65.5 174.5s-103.167 63.5 -178.5 63.5c-96 0 -175.333 -27.833 -238 -83.5s-94 -125.5 -94 -209.5c0 -59.333 17.667 -107.666 53 -144.999
s81.333 -56 138 -56c16.667 0 35 2 55 6s41 10.333 63 19l11 -5l6 -12l-6 -10c-26.667 -12.667 -54.667 -22.334 -84 -29.001s-58.666 -10 -87.999 -10c-76.667 0 -136.5 19.5 -179.5 58.5s-64.5 92.5 -64.5 160.5c0 42 9.66699 82.833 29 122.5s47 75.5 83 107.5
c45.333 39.333 96 69.833 152 91.5s112.667 32.5 170 32.5c101.333 0 186 -30 254 -90s102 -134.333 102 -223c0 -69.333 -24 -182.666 -72 -339.999z" />
    <glyph glyph-name="N" unicode="N" horiz-adv-x="2169" 
d="M850 27l230.997 873.998c10 37.333 17.333 71 22 101s7 56.333 7 79c0 93.333 -32 164.166 -96 212.499s-157 72.5 -279 72.5c-147.333 0 -266.666 -30.167 -357.999 -90.5s-137 -137.5 -137 -231.5c0 -70.667 28 -127.5 84 -170.5s131 -64.5 225 -64.5
c43.333 0 88.333 5.5 135 16.5s95 28.167 145 51.5l15 -5l6 -14l-6 -16c-47.333 -26.667 -98.833 -47 -154.5 -61s-112.834 -21 -171.501 -21c-112.667 0 -204.667 27.167 -276 81.5s-107 123.5 -107 207.5c0 105.333 54.167 191.333 162.5 258s250.833 100 427.5 100
c166.667 0 295.334 -29.333 386.001 -88s136 -142 136 -250c0 -34 -6.33301 -82.167 -19 -144.5s-31.667 -138.5 -57 -228.5l-79 -274c188.667 334.667 342 572.667 460 714s220.667 212 308 212c52 0 93.667 -14.667 125 -44s47 -68.666 47 -117.999
c0 -40.667 -32.333 -152 -97 -334l-86 -246c-38.667 -115.333 -67.667 -212.5 -87 -291.5s-29 -138.167 -29 -177.5c0 -44.667 10.667 -80.334 32 -107.001s49.333 -40 84 -40c54 0 119 40.5 195 121.5s186 230.167 330 447.5c2.66699 -8 4.66699 -15.667 6 -23s2 -14 2 -20
c0 -11.333 -6.66699 -28.333 -20 -51s-45.666 -69 -96.999 -139c-114.667 -160.667 -202.167 -264.667 -262.5 -312s-123.833 -71 -190.5 -71c-56.667 0 -104.834 21.333 -144.501 64s-59.5 95 -59.5 157c0 88.667 38.333 244.334 115 467.001l38 112l25 72
c74.667 221.333 112 355.333 112 402c0 22 -6.66699 39.667 -20 53s-31 20 -53 20c-54.667 0 -125.167 -48.667 -211.5 -146s-189.166 -244.666 -308.499 -441.999c-71.333 -116.667 -129.666 -220 -174.999 -310s-79.333 -170 -102 -240
c-4.66699 -14 -10.334 -32.667 -17.001 -56c-17.333 -59.333 -39.666 -90.666 -66.999 -93.999l-76 -10h-2c-3.33301 0 -6.83301 3 -10.5 9s-5.5 12.333 -5.5 19v7z" />
    <glyph glyph-name="O" unicode="O" horiz-adv-x="1790" 
d="M1069 41c-71.333 40.667 -124.667 92.002 -160 154.002s-53 135.667 -53 221c-21.333 -4.66699 -45.5 -8 -72.5 -10s-60.833 -3 -101.5 -3c-24 0 -45 0.666992 -63 2s-34.667 3.66602 -50 6.99902c0 -4.66699 -0.333008 -10.834 -1 -18.501s-1 -13.167 -1 -16.5
c0 -110 33.333 -198.333 100 -265s154.334 -100 263.001 -100c22.667 0 45.667 2.5 69 7.5s46.666 12.167 69.999 21.5zM1122 61.002c54 25.333 105.665 59.832 154.998 103.499s95.333 96.167 138 157.5c70 100 123.667 204 161 312s56 213.333 56 316
c0 21.333 -2.33301 41.166 -7 59.499s-11.667 34.833 -21 49.5c-50.667 -143.333 -129.167 -266.666 -235.5 -369.999s-236.166 -182.333 -389.499 -237c-3.33301 -22 -5.83301 -42.167 -7.5 -60.5s-2.5 -36.166 -2.5 -53.499c0 -62 13.333 -117.167 40 -165.5
s64.334 -85.5 113.001 -111.5zM986.997 500.001c143.333 50.667 266.334 128.5 369.001 233.5s173.667 225.167 213 360.5c-12.667 13.333 -27.834 23.5 -45.501 30.5s-37.5 10.5 -59.5 10.5c-76.667 0 -162 -60.333 -256 -181s-167.667 -272 -221 -454zM573.998 455.001
c24.667 -5.33301 47.334 -9.16699 68.001 -11.5s40 -3.5 58 -3.5c24 0 48.833 1.33301 74.5 4s53.5 7 83.5 13c10 76 30 150.833 60 224.5s68.667 143.5 116 209.5c67.333 93.333 135.666 164.5 204.999 213.5s136.333 73.5 201 73.5c22.667 0 45.667 -3.83301 69 -11.5
s46.666 -18.834 69.999 -33.501c0.666992 4 1.33398 9 2.00098 15c1.33301 14.667 2 25.334 2 32.001c0 62 -24.5 113.667 -73.5 155s-111.833 62 -188.5 62c-78.667 0 -155.5 -22.833 -230.5 -68.5s-147.167 -113.167 -216.5 -202.5
c31.333 -7.33301 55.666 -13.5 72.999 -18.5s32 -9.5 44 -13.5l8 -11l-6 -16l-12 -2l-13 2c-56 10 -96 16 -120 18c-68.667 -92.667 -126.167 -192.5 -172.5 -299.5s-80.166 -217.167 -101.499 -330.5zM433.998 489c14.667 110.667 44.001 217 88.001 319
s101.333 197.333 172 286h-6c-36.667 2.66699 -63.334 4 -80.001 4c-132 0 -238 -28.833 -318 -86.5s-120 -133.5 -120 -227.5c0 -66 22 -123.667 66 -173s110 -90 198 -122zM1118 14c-33.333 -13.333 -66.832 -23.499 -100.499 -30.499s-67.834 -10.5 -102.501 -10.5
c-134.667 0 -246.667 43 -336 129s-137.666 198 -144.999 336c-119.333 42.667 -209.833 94.834 -271.5 156.501s-92.5 131.167 -92.5 208.5c0 99.333 49.667 181.166 149 245.499s229 96.5 389 96.5c18.667 0 38 -0.5 58 -1.5s41.667 -2.5 65 -4.5
c94 98.667 191.167 173.834 291.5 225.501s199.833 77.5 298.5 77.5c92 0 165.5 -24 220.5 -72s82.5 -111.333 82.5 -190c0 -13.333 -0.666992 -26.166 -2 -38.499s-3.33301 -24.833 -6 -37.5c26 -28 45.833 -63.5 59.5 -106.5s20.5 -91.5 20.5 -145.5
c0 -70.667 -12.833 -144.834 -38.5 -222.501s-63.5 -155.834 -113.5 -234.501c-50.667 -79.333 -107 -148.666 -169 -207.999s-129 -108 -201 -146c16.667 -8 35.167 -14.167 55.5 -18.5s41.166 -6.5 62.499 -6.5c96 0 193.667 37.667 293 113s222.333 207.666 369 396.999
c2 -3.33301 3.5 -6.83301 4.5 -10.5s1.5 -7.5 1.5 -11.5c0 -18 -8.83301 -40.333 -26.5 -67s-54.5 -71.334 -110.5 -134.001c-108.667 -121.333 -203.167 -206 -283.5 -254s-164.833 -72 -253.5 -72c-28.667 0 -57.167 3.16699 -85.5 9.5s-55.833 15.5 -82.5 27.5z" />
    <glyph glyph-name="P" unicode="P" horiz-adv-x="1688" 
d="M1053 647c43.333 140 75.6689 239.667 97.002 299s40.666 105.666 57.999 138.999c-27.333 6 -54.166 10.333 -80.499 13s-52.5 4 -78.5 4c-73.333 0 -145.5 -7.33301 -216.5 -22s-140.833 -36.667 -209.5 -66l-17 4l-4 18l8 13c68 30.667 139.667 54 215 70
s154 24 236 24c21.333 0 45.5 -1.16699 72.5 -3.5s59.5 -6.16602 97.5 -11.499c14.667 26 33 53.333 55 82s47.333 58.667 76 90c-52.667 21.333 -113.834 37.333 -183.501 48s-147.167 16 -232.5 16c-190.667 0 -347.5 -39 -470.5 -117s-184.5 -175 -184.5 -291
c0 -102 45.833 -183 137.5 -243s216.5 -90 374.5 -90c40.667 0 81.667 2 123 6s83.666 10 126.999 18zM1206 684c63.333 15.333 114.667 43.499 154 84.499s59 85.833 59 134.5c0 33.333 -9 62.333 -27 87s-44.333 44.334 -79 59.001l-39 -131
c-34 -114.667 -56.667 -192.667 -68 -234zM1129 442.999c159.333 2.66699 287.167 46.8291 383.5 132.496s144.5 196.834 144.5 333.501c0 78.667 -19.667 149.334 -59 212.001s-96.333 114.334 -171 155.001c-22 -27.333 -41.167 -56 -57.5 -86s-29.833 -62 -40.5 -96
c54.667 -24.667 96.667 -55.167 126 -91.5s44 -76.166 44 -119.499c0 -58.667 -26.333 -110 -79 -154s-128.667 -78 -228 -102l-34.5 -100.5c-15 -43 -24.5 -70.833 -28.5 -83.5zM606.005 265.994l-7.99609 -10.0029c-70 -3.33301 -122.667 -15.666 -158 -36.999
s-53 -51.333 -53 -90s18.667 -71.167 56 -97.5s85 -39.5 143 -39.5c84 0 155.333 31.167 214 93.5s115.334 169.166 170.001 320.499c-24.667 3.33301 -49.167 7.33301 -73.5 12s-49.166 10 -74.499 16l-7 10l6 17l10 6c29.333 -5.33301 57.166 -9.5 83.499 -12.5
s51.166 -4.83301 74.499 -5.5c9.33301 23.333 18.166 47.333 26.499 72s15.833 49.667 22.5 75c-46.667 -6.66699 -91.667 -11.834 -135 -15.501s-85 -5.5 -125 -5.5c-189.333 0 -340.333 34.833 -453 104.5s-169 161.167 -169 274.5c0 39.333 8.66699 78.333 26 117
s43.333 76.334 78 113.001c68.667 72.667 161.5 128.667 278.5 168s250.167 59 399.5 59c85.333 0 167.333 -5.66699 246 -17s153.667 -28.333 225 -51c8.66699 6 18.5 12 29.5 18s23.833 12.333 38.5 19l18 -4l14 -10l-2 -12c-7.33301 -6 -13.833 -11.667 -19.5 -17
l-17.5 -16c98 -45.333 171.667 -101.166 221 -167.499s74 -142.166 74 -227.499c0 -151.333 -60.333 -276 -181 -374s-279.334 -149.667 -476.001 -155c-59.333 -145.333 -134 -255 -224 -329s-193.667 -111 -311 -111c-81.333 0 -151.5 19.167 -210.5 57.5
s-88.5 81.833 -88.5 130.5c0 44 24.167 79.333 72.5 106s113.833 40 196.5 40c15.333 0 26.666 -0.166992 33.999 -0.5s14.666 -1.16602 21.999 -2.49902l7 -7v-15z" />
    <glyph glyph-name="Q" unicode="Q" horiz-adv-x="1896" 
d="M662 676c23.333 84 55.667 163.833 97 239.5s92 148.167 152 217.5c-43.333 5.33301 -82.5 9.33301 -117.5 12s-67.5 4 -97.5 4c-128 0 -232 -21.667 -312 -65s-120 -98 -120 -164c0 -71.333 36.667 -129.833 110 -175.5s169.333 -68.5 288 -68.5zM819.001 682
c46 4 90.832 10.332 134.499 18.999s86.167 19.334 127.5 32.001c71.333 134 151.333 237.167 240 309.5s179.334 108.5 272.001 108.5c11.333 0 29 -1.33301 53 -4h4c8 20.667 13.833 39 17.5 55s5.5 30.333 5.5 43c0 46.667 -15.5 83.667 -46.5 111s-73.5 41 -127.5 41
c-132 0 -257.167 -62.167 -375.5 -186.5s-219.833 -300.5 -304.5 -528.5zM1196 769.999c84 29.333 162 72.501 234 129.501s135 125.5 189 205.5c-3.33301 1.33301 -7 2.16602 -11 2.49902s-10.333 0.5 -19 0.5c-66.667 0 -133.5 -28.833 -200.5 -86.5
s-131.167 -141.5 -192.5 -251.5zM1065 127c28 44.667 58.167 77.667 90.5 99s68.5 32 108.5 32c32 0 62.833 -7.5 92.5 -22.5s58.167 -37.5 85.5 -67.5c98 102.667 175.333 218.334 232 347.001s85 250.667 85 366c0 58.667 -7.5 105.167 -22.5 139.5
s-38.167 58.833 -69.5 73.5c-60.667 -90 -131.167 -165.667 -211.5 -227s-175.833 -112 -286.5 -152c-40 -91.333 -70.333 -177.333 -91 -258s-31 -153 -31 -217c0 -20.667 1.5 -40.334 4.5 -59.001s7.5 -36.667 13.5 -54zM1358 106
c-20 28.667 -40.3301 49.498 -60.9971 62.498s-43.334 19.5 -68.001 19.5c-26.667 0 -52.5 -8 -77.5 -24s-47.833 -39.333 -68.5 -70l-8 -8l-18 -4l-15 4c-18.667 22 -32.834 55.167 -42.501 99.5s-14.5 99.833 -14.5 166.5c0 52 6.16699 106 18.5 162
s30.833 113.333 55.5 172c-56 -13.333 -103.667 -23.666 -143 -30.999s-76.333 -12.666 -111 -15.999c-8.66699 -38 -15.334 -74.5 -20.001 -109.5s-7 -68.167 -7 -99.5c0 -123.333 31.333 -222.833 94 -298.5s144.667 -113.5 246 -113.5c41.333 0 82 7.33301 122 22
s79.333 36.667 118 66zM2093 -469.002l-2.00098 -12.002c-35.333 -28 -71.333 -49 -108 -63s-74.334 -21 -113.001 -21c-72 0 -134.5 24.833 -187.5 74.5s-106.5 136.167 -160.5 259.5c-6 12.667 -15 34.667 -27 66c-37.333 95.333 -72.666 171.333 -105.999 228
c-49.333 -28 -97.333 -48.833 -144 -62.5s-93 -20.5 -139 -20.5c-135.333 0 -246.666 48.167 -333.999 144.5s-131 220.166 -131 371.499c0 22 0.666992 44.333 2 67s3.33301 45 6 67c-155.333 6.66699 -276 35 -362 85s-129 116.667 -129 200
c0 87.333 46.667 155.333 140 204s224 73 392 73c36.667 0 75.5 -1.66699 116.5 -5s86.833 -8.66602 137.5 -15.999c99.333 89.333 194.333 156.5 285 201.5s176 67.5 256 67.5c73.333 0 130.5 -17.167 171.5 -51.5s61.5 -82.166 61.5 -143.499
c0 -14.667 -2.16699 -31 -6.5 -49s-10.833 -38.333 -19.5 -61c56 -25.333 99.333 -65.166 130 -119.499s46 -119.166 46 -194.499c0 -116.667 -34.167 -235.167 -102.5 -355.5s-165.166 -232.5 -290.499 -336.5c46 -78.667 88.667 -167.667 128 -267s62 -154.333 68 -165
c47.333 -86.667 87.833 -144.167 121.5 -172.5s73.167 -42.5 118.5 -42.5c20.667 0 43.167 4.66699 67.5 14s55.166 25.666 92.499 48.999h12z" />
    <glyph glyph-name="R" unicode="R" horiz-adv-x="2142" 
d="M930 142c86.667 104 154.667 220.001 204 348.001s79.666 267.667 90.999 419c-100 -92.667 -176.667 -195 -230 -307s-80 -226.667 -80 -344c0 -22.667 1.33301 -43.834 4 -63.501s6.33398 -37.167 11.001 -52.5zM827 -32.999l-9.99805 -0.00195312
c-8 8.66699 -13.667 21.334 -17 38.001s-5 45 -5 85c0 143.333 37.667 291.833 113 445.5s182.333 299.5 321 437.5c-18 130 -74.5 231.333 -169.5 304s-218.833 109 -371.5 109c-135.333 0 -246 -30.167 -332 -90.5s-129 -136.5 -129 -228.5
c0 -79.333 28.5 -142.5 85.5 -189.5s133.833 -70.5 230.5 -70.5c75.333 0 156.5 13.167 243.5 39.5s181.833 66.5 284.5 120.5l14 -2l7 -13l-5 -16c-101.333 -59.333 -203.333 -104.166 -306 -134.499s-202 -45.5 -298 -45.5c-116 0 -208.833 26.833 -278.5 80.5
s-104.5 125.167 -104.5 214.5c0 112.667 54.833 204.334 164.5 275.001s254.167 106 433.5 106c181.333 0 331.166 -33.667 449.499 -101s185.166 -155.333 200.499 -264c116.667 100.667 217.834 174.667 303.501 222s161.167 71 226.5 71
c57.333 0 102.666 -15.5 135.999 -46.5s50 -72.833 50 -125.5c0 -84 -42.667 -175.833 -128 -275.5s-208.333 -201.167 -369 -304.5c34 -30 64.5 -70.833 91.5 -122.5s53.833 -120.834 80.5 -207.501l15 -51c36 -124 78 -186 126 -186c38.667 0 99.667 45.333 183 136
s178 214.667 284 372c2 -8 3.5 -15.167 4.5 -21.5s1.5 -12.166 1.5 -17.499c0 -12.667 -5.66699 -29 -17 -49s-37 -56.333 -77 -109c-116 -151.333 -202.667 -250.833 -260 -298.5s-111.333 -71.5 -162 -71.5c-86 0 -157.333 85.333 -214 256
c-6 16.667 -10.333 29.334 -13 38.001c-26 78 -49.833 141 -71.5 189s-40.167 80 -55.5 96l-58 -20c-85.333 -30.667 -135.666 -46.334 -150.999 -47.001l-4 8l28 67c9.33301 22 28.333 39.833 57 53.5s61 20.5 97 20.5c10.667 0 22.334 -0.833008 35.001 -2.5
s25.667 -4.16699 39 -7.5c126 74.667 226 156.167 300 244.5s111 169.166 111 242.499c0 42 -15 76.5 -45 103.5s-68.667 40.5 -116 40.5c-50.667 0 -110.834 -20.667 -180.501 -62s-150.167 -104 -241.5 -188v-6c0 -70.667 -20.333 -162.834 -61 -276.501
s-99 -240.167 -175 -379.5c-42.667 -79.333 -89.334 -152.666 -140.001 -219.999s-101 -122.333 -151 -165z" />
    <glyph glyph-name="S" unicode="S" horiz-adv-x="1384" 
d="M850 489l12.001 -8l2 -20l-10 -12c-155.333 0 -272.666 -21.167 -351.999 -63.5s-119 -104.5 -119 -186.5c0 -54.667 25 -98.834 75 -132.501s116.333 -50.5 199 -50.5c130.667 0 241.5 35.5 332.5 106.5s136.5 154.5 136.5 250.5c0 41.333 -10.5 83.333 -31.5 126
s-52.167 84.667 -93.5 126l-176 176c-48.667 48.667 -85.667 97.334 -111 146.001s-38 95.334 -38 140.001c0 97.333 50.167 181.5 150.5 252.5s222.833 106.5 367.5 106.5c84 0 150.333 -15.333 199 -46s73 -72 73 -124c0 -58 -33 -106.667 -99 -146s-150.333 -59 -253 -59
c-10 0 -20.667 0.333008 -32 1s-24.333 1.66699 -39 3l-11 8v17l8 10c92 0 163.833 14.5 215.5 43.5s77.5 69.167 77.5 120.5c0 38 -16.5 68 -49.5 90s-77.833 33 -134.5 33c-94 0 -174.5 -26.333 -241.5 -79s-100.5 -114.334 -100.5 -185.001
c0 -39.333 10.5 -78.333 31.5 -117s56.833 -83.667 107.5 -135l182 -185c43.333 -42.667 76.166 -87.667 98.499 -135s33.5 -95 33.5 -143c0 -46.667 -12.833 -94.5 -38.5 -143.5s-60.834 -92.833 -105.501 -131.5c-63.333 -55.333 -136.5 -97.5 -219.5 -126.5
s-171.5 -43.5 -265.5 -43.5c-122 0 -219.167 22.333 -291.5 67s-108.5 103.667 -108.5 177c0 88 49.333 155.333 148 202s240.667 70 426 70h45z" />
    <glyph glyph-name="T" unicode="T" horiz-adv-x="1763" 
d="M880 806c-27.333 -1.33301 -53.0059 -2.50391 -77.0059 -3.50391s-46.667 -1.5 -68 -1.5c-168 0 -300.833 29.833 -398.5 89.5s-146.5 140.5 -146.5 242.5c0 90.667 32.333 164.834 97 222.501s149.334 86.5 254.001 86.5c42 0 90.167 -5.16699 144.5 -15.5
s141.833 -32.5 262.5 -66.5c143.333 -39.333 254.833 -67 334.5 -83s143.834 -24 192.501 -24c58.667 0 118.334 9.16699 179.001 27.5s123 46.166 187 83.499h14l13 -14l-2 -17c-79.333 -56.667 -165.666 -99.167 -258.999 -127.5s-194 -42.5 -302 -42.5
c-102.667 0 -239.334 22.333 -410.001 67c-20 4.66699 -35 8.33398 -45 11.001l-135 35c-147.333 39.333 -241.666 59 -282.999 59c-57.333 0 -104 -19 -140 -57s-54 -86.333 -54 -145c0 -88 45 -158.5 135 -211.5s211.333 -79.5 364 -79.5
c23.333 0 48.833 0.833008 76.5 2.5s58.834 4.16699 93.501 7.5l24 36c54 84 99.333 135.333 136 154l180 95l4 -9c-22.667 -27.333 -50 -62.333 -82 -105l-106 -146c48.667 6 99.334 14.667 152.001 26s105.667 25 159 41l10 -4l7 -22l-9 -13c-42.667 -16 -94 -31 -154 -45
s-126.667 -26.333 -200 -37c-59.333 -101.333 -103.833 -196.833 -133.5 -286.5s-44.5 -173.5 -44.5 -251.5c0 -96.667 25.333 -173.5 76 -230.5s118 -85.5 202 -85.5c57.333 0 112.5 14.333 165.5 43s101.833 70.334 146.5 125.001
c35.333 42.667 62.833 89.334 82.5 140.001s29.5 100.334 29.5 149.001c0 43.333 -9.83301 77.333 -29.5 102s-46.5 37 -80.5 37c-63.333 0 -126.166 -28.333 -188.499 -85s-112.166 -132 -149.499 -226l-10 -6l-17 2l-8 14c32.667 98.667 84.167 179.667 154.5 243
s141.833 95 214.5 95c57.333 0 103.666 -19 138.999 -57s53 -88.667 53 -152c0 -62.667 -18.833 -127 -56.5 -193s-89.167 -123.667 -154.5 -173c-39.333 -30.667 -84.5 -54.5 -135.5 -71.5s-102.167 -25.5 -153.5 -25.5c-116.667 0 -212 40 -286 120s-111 182.667 -111 308
c0 73.333 12.667 148.333 38 225s61.666 151 108.999 223z" />
    <glyph glyph-name="U" unicode="U" horiz-adv-x="2198" 
d="M1729 391c-105.333 -141.333 -206.498 -245.998 -303.498 -313.998s-193.833 -102 -290.5 -102c-57.333 0 -103.833 16 -139.5 48s-53.5 73.333 -53.5 124c0 21.333 3.5 48.666 10.5 81.999s17.167 71 30.5 113l174 537c13.333 40.667 23.166 76.667 29.499 108
s9.5 59.333 9.5 84c0 100 -42.333 179.667 -127 239s-199.334 89 -344.001 89c-132.667 0 -237.5 -25.5 -314.5 -76.5s-115.5 -119.833 -115.5 -206.5c0 -85.333 41.5 -154.5 124.5 -207.5s193.167 -79.5 330.5 -79.5c16 0 33.667 0.666992 53 2l58 4l9 -6l2 -16l-6 -14
c-18.667 -3.33301 -40.167 -6 -64.5 -8s-52.5 -3 -84.5 -3c-164 0 -296.167 33 -396.5 99s-150.5 151.333 -150.5 256c0 96 42.333 172.5 127 229.5s200 85.5 346 85.5c92.667 0 181.667 -10.833 267 -32.5s163 -53.167 233 -94.5
c63.333 -37.333 111.166 -80.333 143.499 -129s48.5 -101.334 48.5 -158.001c0 -25.333 -4.33301 -56.166 -13 -92.499s-26.667 -95.5 -54 -177.5l-160 -477c-10 -29.333 -17.333 -55.833 -22 -79.5s-7 -47.167 -7 -70.5c0 -30 13 -55.5 39 -76.5s58 -31.5 96 -31.5
c72 0 152.833 38 242.5 114s188.5 190.333 296.5 343c58 223.333 122.833 413.166 194.5 569.499s142.834 264.833 213.501 325.5l12 -1c2 -6.66699 3.5 -13.5 4.5 -20.5s1.5 -13.5 1.5 -19.5c0 -87.333 -25.833 -199.833 -77.5 -337.5s-120.834 -271.167 -207.501 -400.5
c-26.667 -104 -46.167 -190 -58.5 -258s-18.5 -124 -18.5 -168c0 -50.667 8 -89.834 24 -117.501s38.667 -41.5 68 -41.5c40.667 0 99.334 40 176.001 120s179 208.333 307 385c2.66699 -5.33301 4.66699 -10.166 6 -14.499s2 -8.16602 2 -11.499
c0 -29.333 -39 -92.333 -117 -189l-6 -8c-96 -122 -176 -209.5 -240 -262.5s-120.333 -79.5 -169 -79.5c-52 0 -92.333 19.667 -121 59s-43 95 -43 167c0 26 1.83301 54.667 5.5 86s10.167 68.666 19.5 111.999z" />
    <glyph glyph-name="V" unicode="V" horiz-adv-x="1782" 
d="M1114 -72l-16 13.001l84 971c2 26 3.5 49.833 4.5 71.5s1.5 39.834 1.5 54.501c0 114 -38.667 199.833 -116 257.5s-192.333 86.5 -345 86.5c-140 0 -250.833 -27.5 -332.5 -82.5s-122.5 -129.167 -122.5 -222.5c0 -84 38.167 -150.667 114.5 -200
s180.166 -74 311.499 -74c18.667 0 40.334 1 65.001 3s52.334 5 83.001 9l12 -4l4 -23l-6 -12c-28.667 -6 -58.334 -10.5 -89.001 -13.5s-63 -4.5 -97 -4.5c-160.667 0 -287.167 29.833 -379.5 89.5s-138.5 141.167 -138.5 244.5c0 102.667 48.333 183.834 145 243.501
s229.667 89.5 399 89.5c213.333 0 370.5 -37.667 471.5 -113s151.5 -192.333 151.5 -351c0 -37.333 -0.666992 -71.5 -2 -102.5s-3.33301 -60.5 -6 -88.5l-35 -358c-0.666992 -10 -5.66699 -51.833 -15 -125.5l-24 -188.5c196.667 196 342.5 390.167 437.5 582.5
s142.5 390.166 142.5 593.499c0 19.333 -0.166992 33.666 -0.5 42.999s-0.833008 18.333 -1.5 27l141 114l14 -4c2 -6.66699 3.5 -13.667 4.5 -21s1.5 -14.666 1.5 -21.999c0 -20.667 -2.83301 -48.834 -8.5 -84.501s-13.5 -74.5 -23.5 -116.5
c-26 -108.667 -57 -207.834 -93 -297.501s-79.667 -178.167 -131 -265.5c-79.333 -135.333 -170.833 -264.5 -274.5 -387.5s-214.167 -233.5 -331.5 -331.5z" />
    <glyph glyph-name="W" unicode="W" horiz-adv-x="2181" 
d="M887 -39l-9.99805 7.99805c-4 15.333 -6.83301 28.833 -8.5 40.5s-2.5 21.5 -2.5 29.5c0 134.667 16.167 318.5 48.5 551.5s48.5 397.167 48.5 492.5c0 97.333 -24.167 169.5 -72.5 216.5s-122.5 70.5 -222.5 70.5c-104 0 -191.167 -27.333 -261.5 -82
s-105.5 -121.667 -105.5 -201c0 -69.333 27.667 -125.5 83 -168.5s128.666 -64.5 219.999 -64.5c12 0 25.667 0.5 41 1.5s31.666 2.5 48.999 4.5l11 -6l2 -20l-9 -11c-17.333 -4 -35 -7 -53 -9s-36.333 -3 -55 -3c-124.667 0 -222.834 26.833 -294.501 80.5
s-107.5 126.5 -107.5 218.5c0 96.667 38.667 172 116 226s185 81 323 81c160.667 0 280.667 -28.167 360 -84.5s119 -142.166 119 -257.499c0 -59.333 -14.5 -193.166 -43.5 -401.499s-47.167 -387.833 -54.5 -538.5c105.333 110 205.666 246 300.999 408
s181.333 343.333 258 544c0.666992 12.667 1.33398 29.667 2.00098 51c4 92.667 14 141.334 30 146.001l93 27c1.33301 0.666992 2.83301 1.16699 4.5 1.5s4.16699 0.5 7.5 0.5c5.33301 0 9.33301 -2.33301 12 -7s4 -12 4 -22c0 -14 -4 -51 -12 -111
c-34 -250 -51 -488.667 -51 -716c0 -78.667 2.5 -146.167 7.5 -202.5s12.833 -104.833 23.5 -145.5c150.667 172.667 265.667 353.167 345 541.5s119 374.833 119 559.5c0 15.333 -1 33.333 -3 54s-3 33.667 -3 39c0 17.333 8.66699 31 26 41l10 6l83 57
c3.33301 2 6.33301 3.5 9 4.5s5 1.5 7 1.5c9.33301 0 16.5 -5.83301 21.5 -17.5s7.5 -27.5 7.5 -47.5c0 -76.667 -17 -173.334 -51 -290.001s-81 -236.667 -141 -360c-76 -155.333 -157.667 -296.333 -245 -423s-175.666 -232.667 -264.999 -318l-15 2
c-18.667 54 -33.167 121.333 -43.5 202s-15.5 170.334 -15.5 269.001c0 88.667 1.33301 175.667 4 261s6.66699 169 12 251c-94.667 -226.667 -197.667 -422.334 -309 -587.001s-229.333 -296 -354 -394z" />
    <glyph glyph-name="X" unicode="X" horiz-adv-x="2185" 
d="M410 45l-1.99902 16.002l8 15l12 2c45.333 -22.667 88.833 -39.334 130.5 -50.001s82.834 -16 123.501 -16c66.667 0 129.334 12.667 188.001 38s112 62.666 160 111.999c74.667 75.333 135 172 181 290s69 235.667 69 353c0 171.333 -51.667 308.666 -155 411.999
s-240 155 -410 155c-125.333 0 -228.333 -28.167 -309 -84.5s-121 -127.166 -121 -212.499c0 -70.667 26.833 -127.5 80.5 -170.5s125.167 -64.5 214.5 -64.5c54 0 115.667 9.16699 185 27.5s144.666 45.166 225.999 80.499l15 -6l6 -14l-4 -17
c-84.667 -42 -166.667 -73.667 -246 -95s-156 -32 -230 -32c-113.333 0 -203.666 25.833 -270.999 77.5s-101 120.167 -101 205.5c0 103.333 50.667 187.5 152 252.5s235.666 97.5 402.999 97.5c219.333 0 392.166 -55.167 518.499 -165.5s189.5 -260.5 189.5 -450.5
c0 -86 -14.833 -172.333 -44.5 -259s-72.834 -169.667 -129.501 -249c-75.333 -107.333 -159.833 -188.5 -253.5 -243.5s-194.167 -82.5 -301.5 -82.5c-57.333 0 -110.5 6.83301 -159.5 20.5s-90.5 32.834 -124.5 57.501zM1853 700.002l-14.001 0.000976562l-12 13l2 14
c102 100 183.833 205.667 245.5 317s92.5 205 92.5 281c0 31.333 -8 56.666 -24 75.999s-36.667 29 -62 29c-43.333 0 -88.333 -16.167 -135 -48.5s-92 -78.5 -136 -138.5c-36 -50.667 -69.333 -107.5 -100 -170.5s-58.667 -133.833 -84 -212.5
c-29.333 -92 -51.333 -177.833 -66 -257.5s-22 -152.834 -22 -219.501c0 -110 24.667 -196.833 74 -260.5s116 -95.5 200 -95.5c80 0 161.833 36.833 245.5 110.5s204.5 223.5 362.5 449.5c3.33301 -3.33301 5.66602 -7.33301 6.99902 -12s2 -10 2 -16
c0 -23.333 -26.333 -70.666 -79 -141.999l-28 -38c-118.667 -158 -217 -266.167 -295 -324.5s-158.333 -87.5 -241 -87.5c-111.333 0 -200.333 42 -267 126s-100 197 -100 339c0 112.667 16.5 225.834 49.5 339.501s80.833 221.834 143.5 324.501
c72.667 118.667 151.334 212.167 236.001 280.5s163 102.5 235 102.5c56 0 101.667 -19.333 137 -58s53 -88.334 53 -149.001c0 -80.667 -36.167 -170.334 -108.5 -269.001s-176.166 -199.667 -311.499 -303z" />
    <glyph glyph-name="Y" unicode="Y" horiz-adv-x="2195" 
d="M1292 -589c-4.66699 10 -8.16309 21.335 -10.4961 34.002s-3.5 26.334 -3.5 41.001c0 56.667 17.833 114 53.5 172s86.167 110.667 151.5 158h16l12 -13l-2 -12c-43.333 -36.667 -75 -73.334 -95 -110.001s-30 -77.667 -30 -123c0 -16 0.833008 -30.5 2.5 -43.5
s4.5 -25.833 8.5 -38.5c101.333 24.667 184 91.5 248 200.5s122 286.5 174 532.5l180 860c-219.333 -412 -389.166 -691.167 -509.499 -837.5s-232.5 -219.5 -336.5 -219.5c-62.667 0 -111.834 19.167 -147.501 57.5s-53.5 90.833 -53.5 157.5c0 20.667 2.66699 44.5 8 71.5
s13.666 59.167 24.999 96.5l158 500c8.66699 27.333 15.167 53.833 19.5 79.5s6.5 49.834 6.5 72.501c0 93.333 -39 168.5 -117 225.5s-181.667 85.5 -311 85.5c-120 0 -220.667 -27 -302 -81s-122 -119.333 -122 -196c0 -68.667 31.167 -125 93.5 -169
s143.833 -66 244.5 -66c30 0 59.833 2.33301 89.5 7s59.167 11.667 88.5 21l17 -2l4 -20l-4 -14c-39.333 -15.333 -80.333 -26.666 -123 -33.999s-85.667 -11 -129 -11c-123.333 0 -221.833 26.833 -295.5 80.5s-110.5 124.167 -110.5 211.5
c0 98.667 47.667 176.667 143 234s225.333 86 390 86c173.333 0 314.333 -35.833 423 -107.5s163 -162.834 163 -273.501c0 -21.333 -2.83301 -45.833 -8.5 -73.5s-17.834 -72.167 -36.501 -133.5l-121 -381c-17.333 -54.667 -29.833 -100.834 -37.5 -138.501
s-11.5 -69.834 -11.5 -96.501c0 -40.667 8.66699 -71.334 26 -92.001s42.666 -31 75.999 -31c63.333 0 141.166 51.667 233.499 155s192.833 251 301.5 443l187 340c45.333 85.333 78.333 151.333 99 198c2.66699 6 6 14 10 24c16 37.333 33.667 58 53 62l97 21h8
c5.33301 0 9.66602 -1.66699 13 -5c3.33301 -3.33301 5.33301 -8.66602 6 -15.999c0 -3.33301 -0.166992 -5.83301 -0.5 -7.5s-0.833008 -3.5 -1.5 -5.5l-164 -726c-94 -414.667 -195.5 -704.834 -304.5 -870.501s-252.5 -261.167 -430.5 -286.5z" />
    <glyph glyph-name="Z" unicode="Z" horiz-adv-x="1958" 
d="M819 389c-25.333 16.667 -51.667 29 -79 37s-57 12 -89 12c-96.667 0 -171.334 -31.833 -224.001 -95.5s-79 -153.834 -79 -270.501c82 34.667 162.333 78.334 241 131.001s155.334 114.667 230.001 186zM247.999 -20l-10.0049 -0.00585938l-13 6l-2 12
c32 160.667 93.833 288.834 185.5 384.501s197.834 143.5 318.501 143.5c31.333 0 63.333 -3.83301 96 -11.5s66.334 -19.5 101.001 -35.5c98.667 106.667 204.834 238.834 318.501 396.501s230.5 334.834 350.5 531.501l-186 -123h-72
c-127.333 0 -269.5 4.16699 -426.5 12.5s-250.167 12.5 -279.5 12.5c-109.333 0 -190 -19.333 -242 -58s-78 -98.667 -78 -180c0 -71.333 23 -129.166 69 -173.499s106.333 -66.5 181 -66.5c47.333 0 96.833 10.5 148.5 31.5s106.5 52.833 164.5 95.5l17 3l10 -17l-2 -14
c-59.333 -46 -118 -80.667 -176 -104s-114.667 -35 -170 -35c-89.333 0 -161.166 26.833 -215.499 80.5s-81.5 124.167 -81.5 211.5c0 111.333 43.167 198.666 129.5 261.999s206.166 95 359.499 95c43.333 0 126.333 -3.83301 249 -11.5s223.334 -11.5 302.001 -11.5
c102.667 0 184.334 8.83301 245.001 26.5s106.667 45.834 138 84.501l13 2l20 -10l2 -11c-104.667 -182 -219.667 -361.5 -345 -538.5s-259.333 -349.5 -402 -517.5c62.667 -40.667 142.667 -105 240 -193l29 -26l1 -1c187.333 -166 319.666 -249 396.999 -249
c47.333 0 85.5 14.667 114.5 44s43.5 68.333 43.5 117c0 82.667 -37.167 154.167 -111.5 214.5s-177.833 102.166 -310.5 125.499l-8 15l4 14l12 8c159.333 -21.333 281.5 -61.166 366.5 -119.499s127.5 -131.833 127.5 -220.5c0 -72 -28.333 -133.333 -85 -184
s-126 -76 -208 -76c-109.333 0 -293.666 103.667 -552.999 311l-162 127c-116.667 -99.333 -226.167 -180.666 -328.5 -243.999s-197.5 -108.666 -285.5 -135.999z" />
    <glyph glyph-name="bracketleft" unicode="[" horiz-adv-x="711" 
d="M18 -498l-2 13l670 1958l10 8h308l4 -13l-11 -32l-12 -6h-184l-645 -1876h186l6 -11l-14 -32l-12 -9h-304z" />
    <glyph glyph-name="backslash" unicode="\" horiz-adv-x="569" 
d="M444 -190h-90l-4 10l-16 1593l12 8h55l7 -10l49 -1591z" />
    <glyph glyph-name="bracketright" unicode="]" horiz-adv-x="711" 
d="M852 1481l2 -13l-670 -1957l-10 -11h-307l-4 15l10 32l12 7h185l645 1873h-187l-6 13l15 30l12 11h303z" />
    <glyph glyph-name="asciicircum" unicode="^" horiz-adv-x="2048" 
d="M940 1462h166l526 -565h-88l-522 451l-524 -451h-86z" />
    <glyph glyph-name="underscore" unicode="_" 
d="M0 -383h1024v-100h-1024v100z" />
    <glyph glyph-name="grave" unicode="`" 
d="M592 1006l119 -226.001h-56l-149 172c-9.33301 10.667 -16.5 21.334 -21.5 32.001s-7.5 20 -7.5 28c0 12 5.33301 22.833 16 32.5s23 14.5 37 14.5c12.667 0 23.167 -3.33301 31.5 -10s18.5 -21 30.5 -43z" />
    <glyph glyph-name="a" unicode="a" horiz-adv-x="840" 
d="M577 627c-10.667 10 -24.166 17.834 -40.499 23.501s-33.5 8.5 -51.5 8.5c-32 0 -66 -13.333 -102 -40s-73 -66.334 -111 -119.001c-50 -70.667 -88 -136.334 -114 -197.001s-39 -114.667 -39 -162c0 -27.333 5.66699 -49.166 17 -65.499s26.666 -24.5 45.999 -24.5
c48 0 107.667 51.5 179 154.5s143.333 243.5 216 421.5zM477.001 313.001c-66 -116 -124.329 -199.829 -174.996 -251.496s-99.334 -77.5 -146.001 -77.5c-52 0 -93 19.167 -123 57.5s-45 91.5 -45 159.5c0 61.333 18 125.5 54 192.5s86.333 129.833 151 188.5
c44.667 40 92.667 70.5 144 91.5s103.666 31.5 156.999 31.5c31.333 0 61.833 -3.33301 91.5 -10s59.167 -16.334 88.5 -29.001l10 -15v-4c0 -16 -8.33301 -49.333 -25 -100c-8.66699 -26.667 -15.334 -48 -20.001 -64l-92 -315
c-0.666992 -1.33301 -1.33398 -3.33301 -2.00098 -6c-6.66699 -28.667 -10 -50.667 -10 -66c0 -10.667 3.83301 -20.167 11.5 -28.5s16.5 -12.5 26.5 -12.5c32 0 80.333 36.667 145 110s161.334 201.666 290.001 384.999c2 -4.66699 3.5 -9.33398 4.5 -14.001
s1.5 -9.33398 1.5 -14.001c0 -22.667 -21.333 -63 -64 -121l-10 -14l-12 -16c-193.333 -258 -329.333 -387 -408 -387c-32.667 0 -57.834 8.5 -75.501 25.5s-26.5 41.833 -26.5 74.5c0 17.333 4.66699 44.5 14 81.5s24.333 86.167 45 147.5z" />
    <glyph glyph-name="b" unicode="b" horiz-adv-x="864" 
d="M258 395c107.333 126.667 186.333 247.33 237 361.997s76 230.334 76 347.001c0 24.667 -1.5 48.334 -4.5 71.001s-7.5 44.667 -13.5 66c-59.333 -76 -114.5 -186.667 -165.5 -332s-94.167 -316.666 -129.5 -513.999zM569 142.996
c-37.333 -52.667 -77.1641 -92.667 -119.497 -120s-85.833 -41 -130.5 -41c-64 0 -114.333 24.5 -151 73.5s-55 116.5 -55 202.5c0 100.667 24.833 224.667 74.5 372s118.834 299.666 207.501 456.999c44.667 78.667 89.167 146.667 133.5 204s85.166 99.333 122.499 126
l12 -2c7.33301 -9.33301 12.666 -22.166 15.999 -38.499s5 -37.5 5 -63.5c0 -170 -32.333 -331.333 -97 -484s-177 -327.334 -337 -524.001c-0.666992 -7.33301 -1.33398 -16.666 -2.00098 -27.999c-1.33301 -18 -2 -29.667 -2 -35c0 -62 10.333 -110 31 -144s50 -51 88 -51
c29.333 0 60.666 13 93.999 39s63.333 61.667 90 107c-10 17.333 -17.333 36.833 -22 58.5s-7 46.5 -7 74.5c0 67.333 12 132.666 36 195.999s56.333 115.333 97 156h9c9.33301 -15.333 16.333 -31.833 21 -49.5s7 -37.5 7 -59.5c0 -70 -7.66699 -137 -23 -201
s-37.666 -121.667 -66.999 -173c7.33301 -16.667 16.166 -29.167 26.499 -37.5s22.833 -12.5 37.5 -12.5c34 0 77.167 28.833 129.5 86.5s131.166 165.5 236.499 323.5c2.66699 -4.66699 4.66699 -9.5 6 -14.5s2 -10.5 2 -16.5c0 -21.333 -19.333 -60.666 -58 -117.999
l-7 -11c-75.333 -111.333 -136.166 -189 -182.499 -233s-88.5 -66 -126.5 -66c-18.667 0 -36 4 -52 12s-30.333 19.667 -43 35z" />
    <glyph glyph-name="c" unicode="c" horiz-adv-x="729" 
d="M911 555c0.666992 -2.66699 1.16309 -5.66602 1.49609 -8.99902s0.5 -8.66602 0.5 -15.999c0 -17.333 -4.5 -36.333 -13.5 -57s-26.833 -50.667 -53.5 -90c-90 -130.667 -184.833 -231.334 -284.5 -302.001s-196.834 -106 -291.501 -106
c-73.333 0 -133.666 24 -180.999 72s-71 109.333 -71 184c0 52.667 11.167 105.334 33.5 158.001s54.166 102.667 95.499 150c49.333 55.333 100.833 97.833 154.5 127.5s106.834 44.5 159.501 44.5c49.333 0 89.333 -12.5 120 -37.5s46 -57.833 46 -98.5
c0 -33.333 -12.667 -62 -38 -86s-55.666 -36 -90.999 -36c-14.667 0 -26.834 2.16699 -36.501 6.5s-18.167 11.5 -25.5 21.5c22.667 12.667 41 29.167 55 49.5s21 40.166 21 59.499c0 24 -5.66699 42.667 -17 56s-27.666 20 -48.999 20c-24 0 -48.5 -7.83301 -73.5 -23.5
s-49.5 -38.834 -73.5 -69.501c-39.333 -48 -71.666 -106 -96.999 -174s-38 -130 -38 -186c0 -57.333 13.833 -101.333 41.5 -132s67.834 -46 120.501 -46c82.667 0 175.334 45.333 278.001 136s205 218.667 307 384z" />
    <glyph glyph-name="d" unicode="d" horiz-adv-x="831" 
d="M543 608c-12 16.667 -24.001 28.665 -36.001 35.998s-26 11 -42 11c-23.333 0 -48.5 -9.66699 -75.5 -29s-57.167 -49 -90.5 -89c-56 -68 -99.667 -137.167 -131 -207.5s-47 -132.5 -47 -186.5c0 -31.333 6 -55.166 18 -71.499s30 -24.5 54 -24.5
c48.667 0 106.334 52.333 173.001 157s125.667 239.334 177 404.001zM458.999 280.998c-58 -104 -110.831 -179.835 -158.498 -227.502s-93.834 -71.5 -138.501 -71.5c-52.667 0 -94.5 18.667 -125.5 56s-46.5 88 -46.5 152c0 62.667 14.167 125.167 42.5 187.5
s69.5 120.833 123.5 175.5c46 47.333 94.833 84 146.5 110s101.167 39 148.5 39c15.333 0 31.666 -2 48.999 -6s37 -10.667 59 -20l148 573v3c6 25.333 18 39.333 36 42l78 11h4c6.66699 0 11.5 -1.66699 14.5 -5s4.5 -8 4.5 -14c0 -2.66699 -0.666992 -7 -2 -13
c-1.33301 -4.66699 -2 -7.66699 -2 -9l-291 -1082c-6.66699 -23.333 -11.167 -40.5 -13.5 -51.5s-3.5 -20.5 -3.5 -28.5c0 -20 2.83301 -34.167 8.5 -42.5s14.5 -12.5 26.5 -12.5c26.667 0 69 33.167 127 99.5s158.667 199.5 302 399.5
c1.33301 -3.33301 2.5 -7.16602 3.5 -11.499s1.5 -9.16602 1.5 -14.499c0 -30 -35 -92.333 -105 -187l-19 -26c-96.667 -130.667 -170.167 -217.5 -220.5 -260.5s-98.5 -64.5 -144.5 -64.5c-29.333 0 -53 8.5 -71 25.5s-27 39.167 -27 66.5c0 23.333 3.5 51.5 10.5 84.5
s18.5 73.833 34.5 122.5z" />
    <glyph glyph-name="e" unicode="e" horiz-adv-x="725" 
d="M160 254c97.333 22 177 64.332 239 126.999s93 130.334 93 203.001c0 24.667 -5.83301 43.834 -17.5 57.501s-28.5 20.5 -50.5 20.5c-54 0 -107 -38.833 -159 -116.5s-87 -174.834 -105 -291.501zM901 558.999c2 -2.66699 3.49902 -6.00098 4.49902 -10.001
s1.5 -8.66699 1.5 -14c0 -19.333 -7.16699 -43.5 -21.5 -72.5s-36.5 -64.5 -66.5 -106.5c-88.667 -122 -181.167 -216 -277.5 -282s-189.5 -99 -279.5 -99c-73.333 0 -131.5 23.167 -174.5 69.5s-64.5 108.5 -64.5 186.5c0 53.333 11.667 107.833 35 163.5
s57.333 109.834 102 162.501c40.667 48 86.334 85.667 137.001 113s99.667 41 147 41c48.667 0 88.834 -13.5 120.501 -40.5s47.5 -60.833 47.5 -101.5c0 -66 -41.167 -132.5 -123.5 -199.5s-191.833 -121.167 -328.5 -162.5c0 -54 13.667 -96.5 41 -127.5
s64.666 -46.5 111.999 -46.5c85.333 0 180 46.333 284 139s205.333 221.667 304 387z" />
    <glyph glyph-name="f" unicode="f" horiz-adv-x="596" 
d="M276 551c66.667 70.667 118.168 148.999 154.501 234.999s54.5 172 54.5 258c0 36 -3 71 -9 105s-15 68 -27 102c-23.333 -55.333 -51.833 -163.166 -85.5 -323.499s-62.834 -285.833 -87.501 -376.5zM35.001 -479.001c48 36.667 84.167 81.501 108.5 134.501
s36.5 113.167 36.5 180.5c0 29.333 -2.66699 59.5 -8 90.5s-13.666 63.167 -24.999 96.5c-36.667 -92.667 -64.834 -178.834 -84.501 -258.501s-29.5 -147.834 -29.5 -204.501c0 -11.333 0.166992 -19.666 0.5 -24.999s0.833008 -10 1.5 -14zM76.001 164
c-43.333 22 -73.0049 38.668 -89.0049 50.001s-24 20.666 -24 27.999c0 2 0.833008 5.16699 2.5 9.5s3.83398 8.16602 6.50098 11.499l30 40c2.66699 3.33301 5.5 6.16602 8.5 8.49902s5.5 3.5 7.5 3.5c4.66699 0 8.83398 -0.666992 12.501 -2s6.83398 -3 9.50098 -5l58 -34
c66.667 299.333 136.334 550 209.001 752s141.667 337.333 207 406h8c13.333 -16.667 23.5 -44.5 30.5 -83.5s10.5 -86.5 10.5 -142.5c0 -138 -26.5 -271 -79.5 -399s-130.167 -245.333 -231.5 -352c-6 -46 -13.5 -89.167 -22.5 -129.5s-19.833 -79.166 -32.5 -116.499
c23.333 -17.333 47.5 -30.166 72.5 -38.499s51.833 -12.5 80.5 -12.5c56.667 0 112.167 24.667 166.5 74s141.5 165 261.5 347c2 -8.66699 3.16699 -14.667 3.5 -18s0.5 -6.66602 0.5 -9.99902c0 -30.667 -22.333 -77 -67 -139c-8 -12 -14 -20.667 -18 -26
c-94 -126 -167.333 -207.167 -220 -243.5s-110.667 -54.5 -174 -54.5c-26 0 -50.667 3.33301 -74 10s-45.666 17 -66.999 31c22 -66 38 -123.167 48 -171.5s15 -92.833 15 -133.5c0 -88.667 -17.667 -169.334 -53 -242.001s-85 -130.667 -149 -174l-11 2
c-9.33301 13.333 -16 37 -20 71s-6 83.333 -6 148c0 64 7.5 140.833 22.5 230.5s37.5 191.167 67.5 304.5z" />
    <glyph glyph-name="g" unicode="g" horiz-adv-x="844" 
d="M573 625c-10.667 11.333 -22.833 19.834 -36.5 25.501s-29.5 8.5 -47.5 8.5c-28.667 0 -59.167 -10.833 -91.5 -32.5s-67.833 -55.834 -106.5 -102.501c-56 -66.667 -99.333 -132.167 -130 -196.5s-46 -121.5 -46 -171.5c0 -28 6.16699 -50 18.5 -66s28.5 -24 48.5 -24
c48.667 0 108 49.833 178 149.5s141 236.167 213 409.5zM172.001 -499.999c54.667 28.667 98 72.166 130 130.499s54.333 134.5 67 228.5c-72.667 -44.667 -125 -90.667 -157 -138s-48 -101.666 -48 -162.999c0 -8 1.66699 -21.667 5 -41
c1.33301 -7.33301 2.33301 -13 3 -17zM96.001 -592l-11.999 2.00781c-4.66699 8.66699 -8.16699 18.167 -10.5 28.5s-3.5 22.166 -3.5 35.499c0 87.333 23.333 165.666 70 234.999s123 137.666 229 204.999c4 50.667 14.167 106.667 30.5 168s42.833 141.333 79.5 240
c-61.333 -111.333 -119.166 -193.5 -173.499 -246.5s-107.166 -79.5 -158.499 -79.5c-46.667 0 -85.167 19.167 -115.5 57.5s-45.5 88.166 -45.5 149.499s14.5 122.333 43.5 183s70.5 116.334 124.5 167.001c54.667 51.333 110.167 89.5 166.5 114.5
s116.166 37.5 179.499 37.5c58 0 103.167 -5.33301 135.5 -16s48.5 -25.334 48.5 -44.001c0 -7.33301 -4.16699 -27 -12.5 -59s-27.5 -99 -57.5 -201l-118 -405c62.667 43.333 139 114.833 229 214.5s186.333 219.834 289 360.501c0 -1.33301 0.333008 -3.33301 1 -6
c2 -9.33301 3 -16.333 3 -21c0 -14.667 -4.16699 -30.334 -12.5 -47.001s-28.166 -45.334 -59.499 -86.001c-96 -123.333 -181.333 -223.333 -256 -300s-144.334 -136.334 -209.001 -179.001c-28.667 -130.667 -74.334 -237.334 -137.001 -320.001
s-145.334 -145.334 -248.001 -188.001z" />
    <glyph glyph-name="h" unicode="h" horiz-adv-x="934" 
d="M322 659c79.333 84 138.333 167.5 177 250.5s58 167.5 58 253.5c0 26.667 -1.83301 50 -5.5 70s-9.16699 37.667 -16.5 53c-38.667 -45.333 -74 -114 -106 -206s-67.667 -232.333 -107 -421zM25 44l116.002 429.002c66 248 141.833 456.833 227.5 626.5
s167.5 276.834 245.5 321.501l9 -2c14.667 -18 25.834 -39.5 33.501 -64.5s11.5 -53.833 11.5 -86.5c0 -95.333 -32.5 -204.833 -97.5 -328.5s-156.167 -248.5 -273.5 -374.5l-86 -313c110 163.333 198 278.166 264 344.499s124 99.5 174 99.5
c33.333 0 61.166 -11 83.499 -33s33.5 -49.667 33.5 -83c0 -14 -3.83301 -34.833 -11.5 -62.5s-19.5 -64.834 -35.5 -111.501l-70 -203c-6.66699 -20 -11.667 -38 -15 -54s-5 -31 -5 -45c0 -10 4 -18.5 12 -25.5s17.667 -10.5 29 -10.5c34 0 89.167 41.833 165.5 125.5
s165.833 200.834 268.5 351.501c0 -2.66699 0.666992 -7 2 -13c1.33301 -9.33301 2 -15.333 2 -18c0 -18.667 -12 -47 -36 -85s-62 -89 -114 -153c-92 -113.333 -162.667 -190.333 -212 -231s-93.333 -61 -132 -61c-34 0 -61.5 11.5 -82.5 34.5s-31.5 53.833 -31.5 92.5
c0 28 18.333 96 55 204c7.33301 20.667 12.666 36.334 15.999 47.001l11 31c36.667 103.333 55 165.666 55 186.999c0 12.667 -3.16699 22.667 -9.5 30s-14.833 11 -25.5 11c-28.667 0 -68.5 -26.667 -119.5 -80s-110.167 -130 -177.5 -230
c-40.667 -60.667 -78 -125.334 -112 -194.001s-58 -104.334 -72 -107.001l-78 -16c-1.33301 0 -2.83301 -0.333008 -4.5 -1s-2.83398 -1 -3.50098 -1c-5.33301 0 -9.5 1.66699 -12.5 5s-4.5 8.33301 -4.5 15c0 4 0.5 8.5 1.5 13.5s2.83301 11.167 5.5 18.5z" />
    <glyph glyph-name="i" unicode="i" horiz-adv-x="506" 
d="M375 870c-26.667 0 -53.166 7.33203 -79.499 21.999s-39.5 28.667 -39.5 42c0 11.333 7.66699 30.833 23 58.5s26 41.5 32 41.5c8 0 19.167 -5 33.5 -15s24.166 -16.333 29.499 -19c4 -2 9 -4.33301 15 -7c19.333 -8.66699 29 -18.667 29 -30
c0 -33.333 -3.33301 -57.166 -10 -71.499s-17.667 -21.5 -33 -21.5zM66.001 243.999l130.997 403.002c4 11.333 9 19.833 15 25.5s14 9.5 24 11.5l75 14h8c4.66699 0 8.33398 -1.16699 11.001 -3.5s4 -5.83301 4 -10.5c0 -3.33301 -0.166992 -5.83301 -0.5 -7.5
s-0.833008 -3.16699 -1.5 -4.5l-139 -432c-11.333 -34.667 -19.666 -63.167 -24.999 -85.5s-8 -38.5 -8 -48.5c0 -18.667 4.5 -33.167 13.5 -43.5s21.5 -15.5 37.5 -15.5c40.667 0 99.834 42.5 177.501 127.5s175.5 213.833 293.5 386.5c1.33301 -6 2.33301 -11 3 -15
s1 -7.66699 1 -11c0 -30.667 -30 -87 -90 -169l-21 -29c-95.333 -126.667 -175 -216.5 -239 -269.5s-124 -79.5 -180 -79.5c-36 0 -64.833 11.333 -86.5 34s-32.5 53 -32.5 91c0 13.333 2.5 31.166 7.5 53.499s12.167 48.166 21.5 77.499z" />
    <glyph glyph-name="j" unicode="j" horiz-adv-x="498" 
d="M391 870c-26 0 -52.666 7.33301 -79.999 22s-41 28.667 -41 42c0 11.333 7.66699 30.833 23 58.5s26.333 41.5 33 41.5c7.33301 0 18.166 -5 32.499 -15s24.833 -16.667 31.5 -20c2.66699 -1.33301 7 -3.33301 13 -6c19.333 -8.66699 29 -18.667 29 -30
c0 -34 -3 -58 -9 -72s-16.667 -21 -32 -21zM94.001 -139l-20.001 -67.9971c-68 -232.667 -107.667 -357.667 -119 -375l-6 2c-8.66699 16.667 -15 36.334 -19 59.001s-6 49 -6 79c0 100.667 10 189.667 30 267s48.333 137.666 85 180.999
c2.66699 37.333 7.83398 76.666 15.501 117.999s18.167 86 31.5 134l107 394c4 15.333 8.5 25.5 13.5 30.5s11.833 8.16699 20.5 9.5l80 15h8c7.33301 -0.666992 12.333 -2.33398 15 -5.00098s4 -6.66699 4 -12c0 -1.33301 -1 -5.66602 -3 -12.999
c-0.666992 -2.66699 -1 -4.33398 -1 -5.00098l-221 -748c62.667 41.333 142.5 114.666 239.5 219.999s208.833 241 335.5 407c0 -0.666992 0.333008 -2 1 -4c2 -8 3 -14.333 3 -19c0 -18.667 -7.66699 -41 -23 -67s-45.333 -65.667 -90 -119
c-105.333 -130 -196 -232.833 -272 -308.5s-145.667 -133.167 -209 -172.5z" />
    <glyph glyph-name="k" unicode="k" horiz-adv-x="938" 
d="M322 666c78.667 83.333 137.832 164.833 177.499 244.5s59.5 156.5 59.5 230.5c0 29.333 -2.16699 57 -6.5 83s-11.166 51.333 -20.499 76c-57.333 -52.667 -123 -244.667 -197 -576zM13.998 26l183.003 648.004c53.333 192 116.666 354.333 189.999 487
s147.666 220.667 222.999 264l11 -2c14.667 -12.667 25.5 -30.5 32.5 -53.5s10.5 -52.833 10.5 -89.5c0 -98.667 -32 -210.334 -96 -335.001s-154.333 -250 -271 -376l-86 -321c90 148 175.833 260.667 257.5 338s155.5 116 221.5 116c38 0 69.333 -11.167 94 -33.5
s37 -50.5 37 -84.5c0 -46.667 -26.667 -94.167 -80 -142.5s-131.666 -95.833 -234.999 -142.5c23.333 -77.333 47.833 -133.833 73.5 -169.5s54.5 -53.5 86.5 -53.5c38 0 91.833 37.667 161.5 113s163.167 198 280.5 368c1.33301 -2.66699 2.33301 -5.83398 3 -9.50098
s1 -9.5 1 -17.5c0 -14.667 -5 -32 -15 -52s-33 -55 -69 -105c-103.333 -142.667 -185.5 -242.167 -246.5 -298.5s-115.5 -84.5 -163.5 -84.5c-28 0 -53 7.83301 -75 23.5s-46 43.167 -72 82.5c-22.667 34 -41.334 68.167 -56.001 102.5s-22 58.166 -22 71.499
c0 15.333 16.667 30 50 44l17 7c86.667 40.667 147 77 181 109s51 67 51 105c0 22 -7.16699 39.667 -21.5 53s-33.833 20 -58.5 20c-42 0 -92.5 -30.167 -151.5 -90.5s-125.167 -148.833 -198.5 -265.5c-23.333 -36.667 -43.333 -71.5 -60 -104.5s-32 -68.5 -46 -106.5
c-4.66699 -11.333 -9.83398 -19.333 -15.501 -24s-17.167 -9 -34.5 -13l-69 -16c-1.33301 0 -3 -0.333008 -5 -1s-3.66699 -1 -5 -1c-5.33301 0 -9.5 1.66699 -12.5 5s-4.5 7.66602 -4.5 12.999c0 2 0.333008 4.66699 1 8s1.66699 8 3 14z" />
    <glyph glyph-name="l" unicode="l" horiz-adv-x="645" 
d="M274 485c74.667 98 130.667 194.669 168 290.002s56 189.333 56 282c0 25.333 -1.66699 54 -5 86s-8 66 -14 102c-52 -102.667 -95.333 -218.334 -130 -347.001s-59.667 -266.334 -75 -413.001zM264 403.002c-6.66699 -34 -11.667 -65.835 -15 -95.502
s-5 -55.167 -5 -76.5c0 -60.667 8 -105.167 24 -133.5s41.333 -42.5 76 -42.5c48 0 108 38.167 180 114.5s170.333 206.833 295 391.5c2 -6 3.5 -11.833 4.5 -17.5s1.5 -11.5 1.5 -17.5c0 -12 -9.5 -34.5 -28.5 -67.5s-46.167 -73.833 -81.5 -122.5
c-87.333 -122 -165.166 -212.333 -233.499 -271s-129.833 -88 -184.5 -88c-58 0 -103.5 22.333 -136.5 67s-49.5 106.334 -49.5 185.001c0 40 6 94.833 18 164.5s29.667 154.167 53 253.5c19.333 81.333 43.666 161.666 72.999 240.999s65 162.333 107 249
c34.667 71.333 69.5 132.333 104.5 183s65.833 85 92.5 103l14 2c12 -11.333 20.833 -29.166 26.5 -53.499s8.5 -56.166 8.5 -95.499c0 -142 -29.167 -287 -87.5 -435s-143.833 -294 -256.5 -438z" />
    <glyph glyph-name="m" unicode="m" horiz-adv-x="1335" 
d="M4 31l185.995 613.998c3.33301 10 7.16602 17.333 11.499 22s10.833 8.33398 19.5 11.001l82 16h8c6 0 10.667 -1.5 14 -4.5s5 -6.83301 5 -11.5c0 -3.33301 -0.166992 -5.83301 -0.5 -7.5s-0.833008 -3.16699 -1.5 -4.5l-127 -416
c93.333 166 170.833 282.833 232.5 350.5s119.834 101.5 174.501 101.5c34 0 60.667 -8.5 80 -25.5s29 -40.5 29 -70.5c0 -22.667 -6.83301 -61.167 -20.5 -115.5s-37.5 -136.5 -71.5 -246.5c94.667 156 176.834 270.667 246.501 344s130.834 110 183.501 110
c32 0 57.333 -10.333 76 -31s28 -49 28 -85c0 -34 -16 -95 -48 -183c-20.667 -56.667 -36 -101.667 -46 -135c-12 -37.333 -21.167 -68.833 -27.5 -94.5s-9.5 -44.5 -9.5 -56.5c0 -16.667 3.66699 -28.667 11 -36s18.666 -11 33.999 -11c31.333 0 77 33.167 137 99.5
s158.333 195.5 295 387.5c1.33301 -5.33301 2.33301 -10.333 3 -15s1 -8.66699 1 -12c0 -32 -31.333 -89.667 -94 -173l-10 -13c-114 -152.667 -196.667 -250.167 -248 -292.5s-101.666 -63.5 -150.999 -63.5c-30.667 0 -56.5 10.833 -77.5 32.5s-31.5 48.167 -31.5 79.5
c0 43.333 19 121.666 57 234.999c4.66699 14 8.33398 24.667 11.001 32c8.66699 27.333 21.334 63 38.001 107c22 62 33 100 33 114c0 10.667 -3.83301 19.834 -11.5 27.501s-17.5 11.5 -29.5 11.5c-28.667 0 -71.5 -33.667 -128.5 -101s-121.167 -160.666 -192.5 -279.999
c-26 -42.667 -53 -92.834 -81 -150.501s-49.333 -88.167 -64 -91.5l-72 -12h-6c-6 0 -10.667 0.833008 -14 2.5s-5 4.16699 -5 7.5c0 6 0.333008 11.167 1 15.5s1.66699 8.83301 3 13.5l135 491c0.666992 2 1.66699 5.33301 3 10c8 31.333 12 52 12 62
c0 12 -3 21.167 -9 27.5s-14.667 9.5 -26 9.5c-28.667 0 -68 -30.333 -118 -91s-109.667 -150.667 -179 -270c-28.667 -49.333 -57.667 -105 -87 -167s-48.666 -93.667 -57.999 -95l-89 -16h-6c-4.66699 0 -8.16699 1.33301 -10.5 4s-3.5 6.66699 -3.5 12
c-0 6.66699 0.333008 11.834 1 15.501s1.66699 7.5 3 11.5z" />
    <glyph glyph-name="n" unicode="n" horiz-adv-x="928" 
d="M4 35l182 592c6.66699 20 13.334 33.5 20.001 40.5s15.667 11.833 27 14.5l71 17c0.666992 0 2.16699 0.166992 4.5 0.5s5.16602 0.5 8.49902 0.5c5.33301 0 9.5 -1.33301 12.5 -4s4.5 -6.66699 4.5 -12c0 -3.33301 -0.166992 -6 -0.5 -8s-0.833008 -4 -1.5 -6l-139 -443
c103.333 160.667 192.5 280 267.5 358s137.833 117 188.5 117c31.333 0 58 -11 80 -33s33 -49 33 -81c0 -18 -3.83301 -41.667 -11.5 -71s-21.5 -73.333 -41.5 -132c-4 -10.667 -9.33301 -25.667 -16 -45c-45.333 -128 -68 -206 -68 -234
c0 -8.66699 3.83301 -16.5 11.5 -23.5s16.834 -10.5 27.501 -10.5c30 0 79 37.667 147 113s162.667 197 284 365c2.66699 -4 4.5 -8 5.5 -12s1.5 -8 1.5 -12c0 -28 -38 -91.667 -114 -191l-36 -46c-83.333 -110 -151.5 -188 -204.5 -234s-99.5 -69 -139.5 -69
c-34.667 0 -63.5 12 -86.5 36s-34.5 54.333 -34.5 91c0 26.667 19 95.667 57 207l34 100c18 54.667 30.667 94.5 38 119.5s11 41.167 11 48.5c0 8 -3.33301 15 -10 21s-14.334 9 -23.001 9c-24.667 0 -62.5 -26 -113.5 -78s-109.5 -124 -175.5 -216
c-32 -46 -60 -89 -84 -129s-43.667 -77.667 -59 -113c-3.33301 -6.66699 -7.33301 -16.334 -12 -29.001c-10.667 -28.667 -26.667 -45 -48 -49l-75 -14h-9c-6 0 -10.5 1.5 -13.5 4.5s-4.5 7.5 -4.5 13.5c-0 6.66699 0.333008 11.834 1 15.501s1.66699 7.5 3 11.5z" />
    <glyph glyph-name="o" unicode="o" horiz-adv-x="858" 
d="M618 199c3.33301 -14 9.49902 -24.6709 18.499 -32.0039s20.167 -11 33.5 -11c26.667 0 64.834 27.5 114.501 82.5s133.5 165.167 251.5 330.5c2 -3.33301 3.5 -7.16602 4.5 -11.499s1.5 -8.5 1.5 -12.5c0 -15.333 -6 -34.333 -18 -57s-35.333 -57 -70 -103
c-91.333 -123.333 -159.5 -205.666 -204.5 -246.999s-84.5 -62 -118.5 -62c-14.667 0 -28.5 3 -41.5 9s-25.167 15.333 -36.5 28c-47.333 -48 -94.166 -83.333 -140.499 -106s-93.833 -34 -142.5 -34c-78 0 -140.5 23.667 -187.5 71s-70.5 110.333 -70.5 189
c0 55.333 12.167 109.833 36.5 163.5s60.166 105.834 107.499 156.501c46.667 50.667 96.834 89.667 150.501 117s107.167 41 160.5 41c66 0 120.667 -24.667 164 -74s65 -112 65 -188c0 -39.333 -6.33301 -79.666 -19 -120.999s-32.334 -84.333 -59.001 -129z
M591.999 523.996c-9.33301 47.333 -25.5 83.165 -48.5 107.498s-51.833 36.5 -86.5 36.5c-19.333 0 -39 -5 -59 -15s-40 -24.333 -60 -43c-52.667 -49.333 -95.5 -112.666 -128.5 -189.999s-49.5 -151.666 -49.5 -222.999c0 -56.667 11.5 -100.667 34.5 -132
s55.167 -47 96.5 -47c34 0 69.333 14.5 106 43.5s73.667 72.167 111 129.5c-4.66699 10 -8.16699 21.167 -10.5 33.5s-3.5 26.166 -3.5 41.499c0 40.667 8.16699 82.834 24.5 126.501s40.833 87.5 73.5 131.5z" />
    <glyph glyph-name="p" unicode="p" horiz-adv-x="895" 
d="M-4 -436c16.667 32 32 89.999 46 173.999s26.667 197.333 38 340c-32 -51.333 -56.333 -112.166 -73 -182.499s-25 -146.833 -25 -229.5c0 -19.333 1.16699 -37.333 3.5 -54s5.83301 -32.667 10.5 -48zM-25 -600.001h-8.00098c-10 32 -17.5 68.667 -22.5 110
s-7.5 86 -7.5 134c0 98.667 12.833 193 38.5 283s66.5 184 122.5 282l33 184c33.333 192 65.333 291 96 297l84 17h4c6 0 10.333 -1.83301 13 -5.5s4 -8.83398 4 -15.501v-8l-60 -238c70.667 96 133.167 165.167 187.5 207.5s107.166 63.5 158.499 63.5
c49.333 0 88.333 -16 117 -48s43 -74.667 43 -128c0 -75.333 -27.667 -147.5 -83 -216.5s-136.666 -132.833 -243.999 -191.5c12 -19.333 28 -34 48 -44s42.667 -15 68 -15c65.333 0 137.833 39.167 217.5 117.5s178.5 208.833 296.5 391.5
c2.66699 -5.33301 4.33398 -10.166 5.00098 -14.499s1 -8.83301 1 -13.5c0 -20 -7.16699 -43.5 -21.5 -70.5s-46.5 -73.167 -96.5 -138.5c-99.333 -129.333 -182.833 -219.333 -250.5 -270s-135.834 -76 -204.501 -76c-54.667 0 -105.167 12.5 -151.5 37.5
s-69.5 49.167 -69.5 72.5c0 12 18 26.333 54 43c26 12 46 22.333 60 31c70.667 43.333 125.667 93.333 165 150s59 114 59 172c0 31.333 -8.83301 56.833 -26.5 76.5s-40.167 29.5 -67.5 29.5c-38 0 -82.667 -25.167 -134 -75.5s-103.666 -120.833 -156.999 -211.5
c-60 -267.333 -111.667 -474.333 -155 -621s-82 -246 -116 -298z" />
    <glyph glyph-name="q" unicode="q" horiz-adv-x="825" 
d="M553 629c-10 9.33301 -21.5 16.333 -34.5 21s-28.167 7 -45.5 7c-29.333 0 -59.5 -8.5 -90.5 -25.5s-60.167 -41.167 -87.5 -72.5c-59.333 -66.667 -106.666 -137 -141.999 -211s-53 -138.667 -53 -194c0 -28 6.66699 -50.5 20 -67.5s30.666 -25.5 51.999 -25.5
c48.667 0 104 46.167 166 138.5s133.667 235.5 215 429.5zM229 -498c75.333 64 135.168 144.833 179.501 242.5s66.5 197.167 66.5 298.5v12c-82.667 -156 -142.834 -276.667 -180.501 -362s-59.5 -149 -65.5 -191zM211.002 -592l-8.00098 2.00098
c-2 10 -3.5 20.333 -4.5 31s-1.5 21.667 -1.5 33c0 71.333 15.667 162.166 47 272.499s95.333 288.5 192 534.5c-60.667 -105.333 -113.334 -179.5 -158.001 -222.5s-90.334 -64.5 -137.001 -64.5c-48.667 0 -87.667 19 -117 57s-44 89.333 -44 154
c0 52.667 11.333 105 34 157s57 104 103 156c54.667 62 112.167 108.667 172.5 140s122.833 47 187.5 47c57.333 0 102.5 -5.16699 135.5 -15.5s49.5 -24.5 49.5 -42.5c0 -7.33301 -7.33301 -36.333 -22 -87l-60 -202l-72 -237c8.66699 -6.66699 17.334 -11.5 26.001 -14.5
s18.334 -4.5 29.001 -4.5c40.667 0 91.834 32.333 153.501 97s153.834 184.667 276.501 360c2.66699 -4 4.66699 -8.66699 6 -14s2 -11 2 -17c0 -27.333 -32.333 -83 -97 -167l-7 -9c-98 -126.667 -168 -207.5 -210 -242.5s-82 -52.5 -120 -52.5c-12 0 -21.333 0.5 -28 1.5
s-12.667 2.5 -18 4.5l-1 -24c0 -107.333 -26.333 -214.833 -79 -322.5s-129.334 -210.5 -230.001 -308.5z" />
    <glyph glyph-name="r" unicode="r" horiz-adv-x="662" 
d="M835 571c2 -6.66699 3.3291 -11.835 3.99609 -15.502s1 -7.16699 1 -10.5c0 -30.667 -29.667 -85.334 -89 -164.001c-9.33301 -12.667 -16.666 -22.334 -21.999 -29.001c-117.333 -161.333 -201.333 -263.666 -252 -306.999s-99.667 -65 -147 -65
c-42 0 -74.667 11.167 -98 33.5s-35 54.166 -35 95.499c0 46.667 18.5 110.334 55.5 191.001s90.167 171.667 159.5 273c-40 -24.667 -77.333 -44 -112 -58s-62.334 -21 -83.001 -21c-25.333 0 -44.666 6 -57.999 18s-20 29.667 -20 53c0 40 12.5 76.333 37.5 109
s54.167 51 87.5 55l4 -6c-9.33301 -18 -15.666 -31.667 -18.999 -41s-5 -17.666 -5 -24.999c0 -17.333 4.83301 -30.166 14.5 -38.499s24.5 -12.5 44.5 -12.5c20.667 0 49.334 5.33301 86.001 16s89.334 29.334 158.001 56.001l8 -6
c-99.333 -211.333 -162 -350.166 -188 -416.499s-39 -112.5 -39 -138.5c0 -16.667 5.33301 -30.834 16 -42.501s23 -17.5 37 -17.5c32.667 0 78 31.5 136 94.5s164 202.833 318 419.5z" />
    <glyph glyph-name="s" unicode="s" horiz-adv-x="737" 
d="M394 27c-34 -16 -66.8311 -27.832 -98.498 -35.499s-62.5 -11.5 -92.5 -11.5c-60 0 -108.5 10.667 -145.5 32s-55.5 48.666 -55.5 81.999c0 26 11 47.5 33 64.5s50 25.5 84 25.5c10 0 19.833 -0.833008 29.5 -2.5s18.834 -4.16699 27.501 -7.5v-8
c-12.667 -8 -22.667 -18.167 -30 -30.5s-11 -25.5 -11 -39.5c0 -20.667 10.167 -37.667 30.5 -51s46.5 -20 78.5 -20c50 0 91.5 12.5 124.5 37.5s49.5 56.167 49.5 93.5c0 24.667 -7.33301 47.667 -22 69s-49 52 -103 92c-64 48 -105 84.167 -123 108.5s-27 49.833 -27 76.5
c0 54 30.333 102 91 144s133 63 217 63c48.667 0 85 -7.66699 109 -23s36 -38.666 36 -69.999c0 -24.667 -13.833 -47.167 -41.5 -67.5s-61.5 -31.833 -101.5 -34.5l-7 10c13.333 10.667 23.166 22.667 29.499 36s9.5 27.333 9.5 42c0 17.333 -7.83301 31.666 -23.5 42.999
s-36.5 17 -62.5 17c-39.333 0 -71.666 -9.66699 -96.999 -29s-38 -43.333 -38 -72c0 -37.333 36.333 -82 109 -134l59 -44c36 -28.667 62.5 -56.334 79.5 -83.001s25.5 -54.334 25.5 -83.001c0 -20.667 -4.83301 -41 -14.5 -61s-24.834 -40.667 -45.501 -62
c53.333 8.66699 117.333 54.334 192 137.001s156 197.334 244 344.001c3.33301 -2.66699 5.66602 -6 6.99902 -10s2 -8.66699 2 -14c0 -20 -9.33301 -47.833 -28 -83.5s-46.334 -78.167 -83.001 -127.5c-76.667 -105.333 -147.5 -182 -212.5 -230
s-133.167 -75.667 -204.5 -83z" />
    <glyph glyph-name="t" unicode="t" horiz-adv-x="518" 
d="M92 311l84 294.999h-113l-4 12l9 29l10 10h117l83 264c5.33301 16.667 10.833 28.334 16.5 35.001s13.5 11 23.5 13l73 16h8c5.33301 0 9.16602 -1.16699 11.499 -3.5s3.5 -5.83301 3.5 -10.5c0 -4 -0.166992 -7.16699 -0.5 -9.5s-0.833008 -4.5 -1.5 -6.5l-84 -298h106
l2 -10l-6 -33l-8 -8h-109l-120 -418c-6 -18 -10.333 -34.5 -13 -49.5s-4 -28.5 -4 -40.5c0 -14.667 4.66699 -26.834 14 -36.501s21 -14.5 35 -14.5c42.667 0 101.834 42.167 177.501 126.5s169.5 212.833 281.5 385.5c1.33301 -3.33301 2.33301 -7.16602 3 -11.499
s1 -10.166 1 -17.499c0 -32 -31 -91 -93 -177l-3 -5c-94 -132 -172.833 -226.333 -236.5 -283s-121.5 -85 -173.5 -85c-42.667 0 -75.834 11.167 -99.501 33.5s-35.5 54.166 -35.5 95.499c0 16 3.83301 41.167 11.5 75.5s18.834 76.5 33.501 126.5z" />
    <glyph glyph-name="u" unicode="u" horiz-adv-x="922" 
d="M47 215l141.002 428.001c0.666992 1.33301 1.33398 3 2.00098 5c7.33301 20 19 31.333 35 34l84 16h8c6 0 10.167 -1 12.5 -3s3.83301 -5.66699 4.5 -11c0 -1.33301 -1 -5.66602 -3 -12.999c-0.666992 -2.66699 -1 -4.33398 -1 -5.00098l-162 -473
c-6 -18 -10.5 -35 -13.5 -51s-4.5 -29.333 -4.5 -40c0 -12 3.5 -21.833 10.5 -29.5s16.167 -11.5 27.5 -11.5c31.333 0 84 40.833 158 122.5s152.667 187.834 236 318.501c16.667 26 35 61.833 55 107.5s39.667 70.5 59 74.5l78 16h6c5.33301 0 9.5 -1.33301 12.5 -4
s4.5 -6.66699 4.5 -12c0 -2 -0.333008 -4.33301 -1 -7s-1.66699 -6.33398 -3 -11.001l-160 -469c-6 -18 -10.667 -34.833 -14 -50.5s-5 -29.167 -5 -40.5s4.16699 -21.666 12.5 -30.999s17.833 -14 28.5 -14c34 0 85.667 40.333 155 121s164 211 284 391
c2.66699 -5.33301 4.66699 -10.333 6 -15s2 -9 2 -13c0 -29.333 -36 -95 -108 -197l-13 -18c-82 -114 -155.333 -200.5 -220 -259.5s-119 -88.5 -163 -88.5c-32.667 0 -59 10.833 -79 32.5s-30 50.834 -30 87.501c0 24 8 63.167 24 117.5s41.667 129.166 77 224.499
c-110.667 -164.667 -202.334 -282.834 -275.001 -354.501s-136 -107.5 -190 -107.5c-34.667 0 -60.834 9.33301 -78.501 28s-26.5 46 -26.5 82c0 14 2.16699 30.667 6.5 50s11.166 43.666 20.499 72.999z" />
    <glyph glyph-name="v" unicode="v" horiz-adv-x="862" 
d="M551 178c-44 -65.333 -88.999 -115.17 -134.999 -149.503s-90.333 -51.5 -133 -51.5c-48.667 0 -85.167 22 -109.5 66s-36.5 109.667 -36.5 197c0 40 2.5 89.667 7.5 149s12.167 125 21.5 197c0.666992 6 1.66699 14.333 3 25c4 38.667 16 60.334 36 65.001l78 18
c0.666992 0 1.66699 0.333008 3 1s2.33301 1 3 1c4.66699 0 8.5 -2.16699 11.5 -6.5s4.5 -10.166 4.5 -17.499c0 -16 -7.5 -72.833 -22.5 -170.5s-22.5 -186.167 -22.5 -265.5c0 -63.333 6.66699 -108.666 20 -135.999s35.333 -41 66 -41c26.667 0 57.167 15.667 91.5 47
s65.166 72.333 92.499 123c-4 19.333 -7 37.166 -9 53.499s-3 30.833 -3 43.5c0 61.333 20.167 125.166 60.5 191.499s94.5 123.833 162.5 172.5l11 -4c2.66699 -5.33301 4.66699 -10.666 6 -15.999s2 -11 2 -17c0 -60 -15.333 -128 -46 -204
s-73.334 -150.667 -128.001 -224c5.33301 -24.667 15.5 -44.5 30.5 -59.5s32.167 -22.5 51.5 -22.5c54 0 175 134.333 363 403h2c1.33301 -3.33301 2.5 -7.16602 3.5 -11.499s1.5 -9.16602 1.5 -14.499c0 -16 -6.16699 -35.667 -18.5 -59s-42.166 -66.333 -89.499 -129
c-66 -88.667 -118.833 -149.834 -158.5 -183.501s-77.167 -50.5 -112.5 -50.5c-23.333 0 -43.5 6.16699 -60.5 18.5s-32.833 32.833 -47.5 61.5z" />
    <glyph glyph-name="w" unicode="w" horiz-adv-x="1327" 
d="M594 414c-85.333 -147.333 -162.001 -256.167 -230.001 -326.5s-130.667 -105.5 -188 -105.5c-37.333 0 -66.5 12.167 -87.5 36.5s-31.5 58.5 -31.5 102.5c0 16.667 2 36.167 6 58.5s9.66699 46.5 17 72.5l108 401c2.66699 10 6 17 10 21s10.333 6.66699 19 8l84 12
c1.33301 0 3.33301 0.333008 6 1s4.66699 1 6 1c4 0 6.83301 -0.666992 8.5 -2s2.5 -4 2.5 -8c0 -1.33301 -0.666992 -4.5 -2 -9.5s-2.33301 -8.5 -3 -10.5l-116 -416c-7.33301 -24 -13 -46.833 -17 -68.5s-6 -39.834 -6 -54.501c0 -20 5.33301 -36.333 16 -49
s24.667 -19 42 -19c33.333 0 77.666 31.833 132.999 95.5s114 150.834 176 261.501c23.333 42.667 48 95 74 157c26.667 66 52.334 101.667 77.001 107l78 14h8c4.66699 0 7.66699 -0.666992 9 -2s2 -4 2 -8c0 -5.33301 -0.333008 -10 -1 -14s-1.66699 -8.33301 -3 -13
l-105 -362c-8 -29.333 -14.5 -58.666 -19.5 -87.999s-7.5 -54 -7.5 -74c0 -27.333 6 -48.5 18 -63.5s28.667 -22.5 50 -22.5c30.667 0 68.334 17.5 113.001 52.5s94.334 85.833 149.001 152.5c0 2.66699 -0.333008 7 -1 13c-4.66699 37.333 -7 63 -7 77
c0 70.667 13.833 137.667 41.5 201s65.167 113 112.5 149l10 -2c8 -9.33301 13.667 -21.5 17 -36.5s5 -35.5 5 -61.5c0 -52.667 -10.667 -107 -32 -163s-54.333 -116.667 -99 -182c3.33301 -32.667 12.666 -58.167 27.999 -76.5s35.333 -27.5 60 -27.5
c38 0 83.667 29 137 87s130.666 164.333 231.999 319c1.33301 -2.66699 2.33301 -5.83398 3 -9.50098s1 -9.5 1 -17.5c0 -18.667 -6.83301 -41.167 -20.5 -67.5s-42.834 -69.833 -87.501 -130.5c-61.333 -84 -112 -142.667 -152 -176s-78.333 -50 -115 -50
c-29.333 0 -54.666 8.83301 -75.999 26.5s-37 43.167 -47 76.5c-70 -76.667 -131.833 -133.167 -185.5 -169.5s-102.167 -54.5 -145.5 -54.5c-41.333 0 -73.5 13.5 -96.5 40.5s-34.5 64.833 -34.5 113.5c0 20.667 3.83301 50.5 11.5 89.5s22.834 103.5 45.501 193.5z" />
    <glyph glyph-name="x" unicode="x" horiz-adv-x="891" 
d="M305 238l-164.001 -205c-38 -47.333 -69.833 -81 -95.5 -101s-49.167 -30 -70.5 -30c-18.667 0 -34.167 7 -46.5 21s-18.5 31.333 -18.5 52c0 28 7.5 54.833 22.5 80.5s35.5 46.834 61.5 63.501l6 -4c-2 -8.66699 -3.5 -16 -4.5 -22s-1.5 -11.667 -1.5 -17
c0 -15.333 4.33301 -27.666 13 -36.999s20 -14 34 -14s28.667 5.5 44 16.5s33.333 29.833 54 56.5l144 181l-168 374c-0.666992 1.33301 -1.16699 2.83301 -1.5 4.5s-0.5 3.83398 -0.5 6.50098c0 4.66699 1.33301 8.5 4 11.5s6.66699 5.16699 12 6.5l76 12
c1.33301 0 3.16602 0.333008 5.49902 1s3.83301 1 4.5 1c4.66699 0 8.5 -1.16699 11.5 -3.5s6.83301 -8.5 11.5 -18.5l124 -275l160 197c27.333 33.333 53.833 58.333 79.5 75s50.5 25 74.5 25s44.333 -9.66699 61 -29s25 -43 25 -71c0 -48 -18 -97.833 -54 -149.5
s-81.667 -91.834 -137 -120.501l-6 8c36 39.333 63.167 76.833 81.5 112.5s27.5 68.5 27.5 98.5c0 14.667 -5.5 27.5 -16.5 38.5s-24.167 16.5 -39.5 16.5c-16.667 0 -36.667 -10.333 -60 -31s-55.666 -57.334 -96.999 -110.001l-78 -99l76 -161
c21.333 -47.333 42.5 -81.333 63.5 -102s44.833 -31 71.5 -31c43.333 0 98 33.833 164 101.5s165.667 195.5 299 383.5c1.33301 -2.66699 2.33301 -6 3 -10s1 -9.66699 1 -17c0 -29.333 -33.333 -87.333 -100 -174l-11 -14c-102 -134.667 -182.167 -227.334 -240.5 -278.001
s-111.166 -76 -158.499 -76c-48.667 0 -91.5 19 -128.5 57s-76.167 104.333 -117.5 199z" />
    <glyph glyph-name="y" unicode="y" horiz-adv-x="922" 
d="M254 -514c52 27.333 94.5 73.168 127.5 137.501s56.167 146.833 69.5 247.5c-74 -51.333 -127.667 -101.833 -161 -151.5s-50 -102.834 -50 -159.501c0 -10.667 1.16699 -22.167 3.5 -34.5s5.83301 -25.5 10.5 -39.5zM557 -105.998
c-33.333 -128.667 -82.1719 -234.665 -146.505 -317.998s-142.5 -142 -234.5 -176l-12 2c-4.66699 13.333 -8.16699 27 -10.5 41s-3.5 29 -3.5 45c0 76 24.833 150 74.5 222s126.167 145.333 229.5 220c5.33301 36.667 15.666 85.5 30.999 146.5s46.333 169.833 93 326.5
c-82 -134 -159.833 -234.667 -233.5 -302s-142.834 -101 -207.501 -101c-31.333 0 -56.5 11 -75.5 33s-28.5 50.667 -28.5 86c0 11.333 2.16699 27.166 6.5 47.499s10.833 44.833 19.5 73.5l134 412c2.66699 8.66699 7.33398 15.5 14.001 20.5s15.334 8.16699 26.001 9.5
l78 10h6c4.66699 0 7.83398 -0.666992 9.50098 -2s2.83398 -4 3.50098 -8c0 -1.33301 -0.666992 -4 -2 -8s-2 -6.66699 -2 -8l-146 -468c-4.66699 -14 -8.16699 -28.333 -10.5 -43s-3.5 -28.667 -3.5 -42c0 -10.667 4 -19.834 12 -27.501s17.667 -11.5 29 -11.5
c36 0 82.5 29.833 139.5 89.5s121.167 145.834 192.5 258.501c32 50.667 63 106.667 93 168s52 92.666 66 93.999l84 10h4c4.66699 0 8.33398 -0.833008 11.001 -2.5s4 -4.16699 4 -7.5c0 -5.33301 -9 -32 -27 -80c-79.333 -211.333 -145.666 -425 -198.999 -641
c70.667 58 148.5 135.5 233.5 232.5s178.833 214.5 281.5 352.5c2 -4 3.5 -8.16699 4.5 -12.5s1.5 -8.83301 1.5 -13.5c0 -16 -7.16699 -36.167 -21.5 -60.5s-48.166 -69.5 -101.499 -135.5c-100.667 -124 -181.667 -217.5 -243 -280.5s-119 -113.5 -173 -151.5z" />
    <glyph glyph-name="z" unicode="z" horiz-adv-x="729" 
d="M90 33c-16.667 -22.667 -29.8311 -36.834 -39.498 -42.501s-21.167 -8.5 -34.5 -8.5c-5.33301 0 -9.33301 0.666992 -12 2s-4 3.33301 -4 6c0 4 0.333008 7.33301 1 10s1.66699 5.33398 3 8.00098l66 129c4 9.33301 8.5 15.833 13.5 19.5s11.833 5.5 20.5 5.5
c2 0 5 -0.333008 9 -1s7.33301 -1 10 -1l350 379c-61.333 15.333 -104.333 25.166 -129 29.499s-44.334 6.5 -59.001 6.5c-30 0 -54 -16.333 -72 -49s-32.333 -49 -43 -49c-12 0 -20.333 1.5 -25 4.5s-7.33398 8.5 -8.00098 16.5c0 9.33301 4.16699 23.833 12.5 43.5
s13.833 34.5 16.5 44.5c2 6 4.33301 14 7 24c18 61.333 46.333 92 85 92c12.667 0 54.5 -6.5 125.5 -19.5s135.833 -23.167 194.5 -30.5l5 6c27.333 35.333 49.333 53 66 53c8.66699 0 15 -1 19 -3s6 -4.66699 6 -8c0 -4.66699 -2.33301 -10.5 -7 -17.5
s-14.667 -18.833 -30 -35.5l-465 -500l31 -7c145.333 -36 231.333 -54 258 -54c42 0 90.5 28 145.5 84s150.167 182.667 285.5 380c2.66699 -7.33301 4.5 -14.5 5.5 -21.5s1.5 -13.167 1.5 -18.5c0 -21.333 -46.333 -93.666 -139 -216.999l-8 -10
c-90 -119.333 -160.667 -200.5 -212 -243.5s-100.333 -64.5 -147 -64.5c-17.333 0 -59.5 8 -126.5 24s-125.833 27.333 -176.5 34z" />
    <glyph glyph-name="braceleft" unicode="{" 
d="M846 1516v-49.001c-98 -1.33301 -164.833 -19.666 -200.5 -54.999s-53.5 -105.333 -53.5 -210v-145c0 -150 -21 -252.667 -63 -308s-120 -93.333 -234 -114c114 -21.333 192 -59.5 234 -114.5s63 -157.5 63 -307.5v-145c0 -104 17.667 -173.5 53 -208.5
s102.333 -53.167 201 -54.5v-49h-10c-143.333 0 -241.666 24.333 -294.999 73s-80 139.667 -80 273v217c0 104 -20 176 -60 216s-115 64.333 -225 73v56c112 10 187.5 34.5 226.5 73.5s58.5 110.5 58.5 214.5v217c0 133.333 26.667 224.5 80 273.5
s151.666 73.5 294.999 73.5h10z" />
    <glyph glyph-name="bar" unicode="|" 
d="M459 1565h108v-2048h-108v2048z" />
    <glyph glyph-name="braceright" unicode="}" 
d="M178 1516l10 0.00488281c144 0 242.833 -24.667 296.5 -74s80.5 -140.333 80.5 -273v-217c0 -104.667 19.333 -176.334 58 -215.001s113.667 -63 225 -73v-56c-110 -8.66699 -184.667 -32.834 -224 -72.501s-59 -111.834 -59 -216.501v-217
c0 -132.667 -26.833 -223.5 -80.5 -272.5s-152.5 -73.5 -296.5 -73.5h-10v49c99.333 1.33301 166.833 19.666 202.5 54.999s53.5 104.666 53.5 207.999v145c0 150.667 20.833 253.5 62.5 308.5s119.167 92.833 232.5 113.5c-113.333 20.667 -190.833 58.5 -232.5 113.5
s-62.5 157.833 -62.5 308.5v145c0 103.333 -17.833 172.833 -53.5 208.5s-103.167 54.5 -202.5 56.5v49z" />
    <glyph glyph-name="asciitilde" unicode="~" horiz-adv-x="1706" 
d="M1530 750l-0.000976562 -113c-68 -48 -134 -83.833 -198 -107.5s-127 -35.5 -189 -35.5c-66 0 -152.667 19 -260 57l-29 10l-16 6c-117.333 42.667 -208.333 64 -273 64c-55.333 0 -113.666 -12.667 -174.999 -38s-132 -66 -212 -122v113c70.667 48.667 138 85 202 109
s125.667 36 185 36c69.333 0 160 -20.333 272 -61c7.33301 -2.66699 13.333 -5 18 -7c6 -2 16.333 -5.66699 31 -11c111.333 -40 197 -60 257 -60c56.667 0 115.667 12.667 177 38s131.333 66 210 122z" />
    <glyph glyph-name="Euro" horiz-adv-x="948" 
d="M143 686l-140.998 0.000976562l21 43h139c69.333 141.333 156.166 257.5 260.499 348.5s198.5 136.5 282.5 136.5c52 0 93.167 -15.333 123.5 -46s45.5 -72.667 45.5 -126c0 -42 -11 -84.167 -33 -126.5s-55.333 -84.833 -100 -127.5l-14 -2l-14 11l2 16
c35.333 36 62.166 72.667 80.499 110s27.5 74.333 27.5 111c0 42 -11 75 -33 99s-52.667 36 -92 36c-70.667 0 -142.334 -40 -215.001 -120s-132 -186.667 -178 -320h344l-18 -43h-338c-7.33301 -22 -14.666 -47.833 -21.999 -77.5s-15 -65.834 -23 -108.501h301l-21 -41
h-286c-2 -19.333 -3.5 -38.666 -4.5 -57.999s-1.5 -38.333 -1.5 -57c0 -104 20.5 -184.667 61.5 -242s98.833 -86 173.5 -86c67.333 0 135.5 29.167 204.5 87.5s138.167 144.5 207.5 258.5c5.33301 -4.66699 9.66602 -9.66699 12.999 -15s5 -10.333 5 -15
c0 -8.66699 -12 -31.667 -36 -69s-53 -75 -87 -113c-51.333 -59.333 -103.666 -103.333 -156.999 -132s-109.333 -43 -168 -43c-107.333 0 -195 39.167 -263 117.5s-102 179.166 -102 302.499c0 18 0.166992 31.333 0.5 40s0.833008 16.334 1.5 23.001l-113 1l19 41h100
c4 30 10 60.667 18 92s17.667 62.666 29 93.999z" />
    <glyph glyph-name="Euro" unicode="&#x20ac;" horiz-adv-x="948" 
d="M143 686l-140.998 0.000976562l21 43h139c69.333 141.333 156.166 257.5 260.499 348.5s198.5 136.5 282.5 136.5c52 0 93.167 -15.333 123.5 -46s45.5 -72.667 45.5 -126c0 -42 -11 -84.167 -33 -126.5s-55.333 -84.833 -100 -127.5l-14 -2l-14 11l2 16
c35.333 36 62.166 72.667 80.499 110s27.5 74.333 27.5 111c0 42 -11 75 -33 99s-52.667 36 -92 36c-70.667 0 -142.334 -40 -215.001 -120s-132 -186.667 -178 -320h344l-18 -43h-338c-7.33301 -22 -14.666 -47.833 -21.999 -77.5s-15 -65.834 -23 -108.501h301l-21 -41
h-286c-2 -19.333 -3.5 -38.666 -4.5 -57.999s-1.5 -38.333 -1.5 -57c0 -104 20.5 -184.667 61.5 -242s98.833 -86 173.5 -86c67.333 0 135.5 29.167 204.5 87.5s138.167 144.5 207.5 258.5c5.33301 -4.66699 9.66602 -9.66699 12.999 -15s5 -10.333 5 -15
c0 -8.66699 -12 -31.667 -36 -69s-53 -75 -87 -113c-51.333 -59.333 -103.666 -103.333 -156.999 -132s-109.333 -43 -168 -43c-107.333 0 -195 39.167 -263 117.5s-102 179.166 -102 302.499c0 18 0.166992 31.333 0.5 40s0.833008 16.334 1.5 23.001l-113 1l19 41h100
c4 30 10 60.667 18 92s17.667 62.666 29 93.999z" />
    <glyph glyph-name="nonbreakingspace" unicode="&#xa0;" horiz-adv-x="948" 
 />
    <glyph glyph-name="exclamdown" unicode="&#xa1;" horiz-adv-x="682" 
d="M678 1294c36 0 60.667 -2.83203 74 -8.49902s20 -15.834 20 -30.501c0 -30.667 -2.5 -56 -7.5 -76s-11.5 -30 -19.5 -30c-2 0 -8.66699 1 -20 3l-83 15c-8.66699 1.33301 -16.167 10 -22.5 26s-9.5 34.667 -9.5 56c0 18 4.5 30 13.5 36s27.167 9 54.5 9zM641 1053
l8.00098 8.00098l23 -2l2 -12l-283 -1015c-2.66699 -11.333 -6.83398 -19.5 -12.501 -24.5s-14.5 -8.16699 -26.5 -9.5l-123 -6h-4c-5.33301 0 -9.33301 1.66699 -12 5s-4 7.66602 -4 12.999c0 3.33301 1 8.66602 3 15.999c0.666992 2.66699 1 4.33398 1 5.00098z" />
    <glyph glyph-name="cent" unicode="&#xa2;" horiz-adv-x="948" 
d="M430 291l161.999 674.999c-28 -0.666992 -54.667 -8.16699 -80 -22.5s-48.666 -35.166 -69.999 -62.499c-43.333 -55.333 -78.333 -118.5 -105 -189.5s-40 -137.5 -40 -199.5c0 -53.333 11.5 -97.333 34.5 -132s55.833 -57.667 98.5 -69zM417.999 -4.00098l-64 -21
l64 265c-78.667 12 -139.667 43.833 -183 95.5s-65 118.167 -65 199.5c0 70 16 138.333 48 205s77.333 125 136 175c38 32 77.833 56.167 119.5 72.5s85.167 25.166 130.5 26.499l55 227l64 27l-61 -256c38.667 -6.66699 71.5 -15.667 98.5 -27s48.5 -25.666 64.5 -42.999
v-14l-28 -37h-11c-21.333 22 -43.5 39.167 -66.5 51.5s-45.833 19.5 -68.5 21.5l-161 -675c46 2 90.5 17.167 133.5 45.5s85.833 71.166 128.5 128.499h12l43 -47v-10c-37.333 -48 -84.5 -86.167 -141.5 -114.5s-119.833 -45.166 -188.5 -50.499z" />
    <glyph glyph-name="sterling" unicode="&#xa3;" horiz-adv-x="948" 
d="M201 119c-22 10 -42.502 17.167 -61.502 21.5s-37.5 6.5 -55.5 6.5c-25.333 0 -48.333 -6.33301 -69 -19s-40.667 -32.667 -60 -60c14.667 -10 29.5 -17.333 44.5 -22s30.833 -7 47.5 -7c28.667 0 55.834 6.66699 81.501 20s49.834 33.333 72.501 60zM273.998 137
c66.667 -23.333 132 -41 196 -53s125.667 -18 185 -18c64.667 0 112 8.16699 142 24.5s45 42.166 45 77.499c0 24.667 -12 45.167 -36 61.5s-55 24.5 -93 24.5c-23.333 0 -46.833 -3.66699 -70.5 -11s-48.167 -18.666 -73.5 -33.999l-8 2l-6 18l6 11
c22 16.667 45.5 29 70.5 37s52.833 12 83.5 12c54.667 0 97.667 -12.5 129 -37.5s47 -58.833 47 -101.5c0 -50 -18.667 -90.167 -56 -120.5s-87 -45.5 -149 -45.5c-59.333 0 -123.5 9 -192.5 27s-150.833 47.667 -245.5 89c-33.333 -32.667 -69.166 -57.5 -107.499 -74.5
s-78.5 -25.5 -120.5 -25.5c-36 0 -69.333 7 -100 21s-58.667 35 -84 63v8c31.333 32.667 66.666 57.167 105.999 73.5s82 24.5 128 24.5c17.333 0 37.166 -2.33301 59.499 -7s53.5 -13.667 93.5 -27c23.333 34 46.333 86.833 69 158.5s44.667 162.167 66 271.5h-204l10 41
h207c46.667 184.667 109.167 327 187.5 427s166.5 150 264.5 150c50.667 0 90 -13.167 118 -39.5s42 -62.833 42 -109.5c0 -38 -9.5 -74.667 -28.5 -110s-44.833 -65 -77.5 -89h-9l-18 12l2 11c26.667 29.333 47.334 60.666 62.001 93.999s22 65.333 22 96
s-8.33301 54.334 -25 71.001s-40.334 25 -71.001 25c-64.667 0 -124.667 -43.833 -180 -131.5s-108.666 -223.167 -159.999 -406.5h256l-6 -41h-261c-28.667 -98.667 -60.5 -184.667 -95.5 -258s-74.833 -137 -119.5 -191z" />
    <glyph glyph-name="currency" unicode="&#xa4;" horiz-adv-x="948" 
d="M143 686l-140.998 0.000976562l21 43h139c69.333 141.333 156.166 257.5 260.499 348.5s198.5 136.5 282.5 136.5c52 0 93.167 -15.333 123.5 -46s45.5 -72.667 45.5 -126c0 -42 -11 -84.167 -33 -126.5s-55.333 -84.833 -100 -127.5l-14 -2l-14 11l2 16
c35.333 36 62.166 72.667 80.499 110s27.5 74.333 27.5 111c0 42 -11 75 -33 99s-52.667 36 -92 36c-70.667 0 -142.334 -40 -215.001 -120s-132 -186.667 -178 -320h344l-18 -43h-338c-7.33301 -22 -14.666 -47.833 -21.999 -77.5s-15 -65.834 -23 -108.501h301l-21 -41
h-286c-2 -19.333 -3.5 -38.666 -4.5 -57.999s-1.5 -38.333 -1.5 -57c0 -104 20.5 -184.667 61.5 -242s98.833 -86 173.5 -86c67.333 0 135.5 29.167 204.5 87.5s138.167 144.5 207.5 258.5c5.33301 -4.66699 9.66602 -9.66699 12.999 -15s5 -10.333 5 -15
c0 -8.66699 -12 -31.667 -36 -69s-53 -75 -87 -113c-51.333 -59.333 -103.666 -103.333 -156.999 -132s-109.333 -43 -168 -43c-107.333 0 -195 39.167 -263 117.5s-102 179.166 -102 302.499c0 18 0.166992 31.333 0.5 40s0.833008 16.334 1.5 23.001l-113 1l19 41h100
c4 30 10 60.667 18 92s17.667 62.666 29 93.999z" />
    <glyph glyph-name="yen" unicode="&#xa5;" horiz-adv-x="948" 
d="M289 31l114 374.999h-346l-6 12l4 26l11 5h325l-63 184h-205l-8 12l4 23l10 8h186l-162 482c-0.666992 1.33301 -1 2.5 -1 3.5v5.5c0 5.33301 1.66699 9.83301 5 13.5s7.66602 5.5 12.999 5.5h84c8.66699 0 15 -1.83301 19 -5.5s8 -11.5 12 -23.5l227 -704l487 725l13 8
h49l4 -10l-346 -500h209l8 -6l-8 -29l-10 -8h-228l-129 -184h301l8 -9l-6 -24l-12 -10h-317l-107 -367c-4 -15.333 -8.5 -25.166 -13.5 -29.499s-12.833 -6.83301 -23.5 -7.5l-84 -6h-4c-6 0 -10.5 1.33301 -13.5 4s-4.5 6.66699 -4.5 12c0 2.66699 0.666992 6.66699 2 12
c0.666992 2.66699 1.33398 5 2.00098 7z" />
    <glyph glyph-name="brokenbar" unicode="&#xa6;" 
d="M459 408h108v-758h-108v758zM459 1432h108v-758h-108v758z" />
    <glyph glyph-name="section" unicode="&#xa7;" horiz-adv-x="1067" 
d="M582 268c81.333 0 149.334 23.0039 204.001 69.0039s82 101.667 82 167c0 47.333 -18.5 95.666 -55.5 144.999s-95.5 103.333 -175.5 162c-88.667 -9.33301 -158 -34.833 -208 -76.5s-75 -94.834 -75 -159.501c0 -46.667 16.667 -92.834 50 -138.501
s92.666 -101.834 177.999 -168.501zM625.001 229.004c55.333 -50 95.9961 -97.9941 121.996 -143.994s39 -92.667 39 -140c0 -94 -38.667 -169.167 -116 -225.5s-182 -84.5 -314 -84.5c-102.667 0 -187 19.167 -253 57.5s-99 85.5 -99 141.5s31.5 100.333 94.5 133
s149.5 49 259.5 49c12 0 29.667 -1 53 -3c4 0 7 -0.333008 9 -1l6 -4l2 -20l-6 -8h-12c-101.333 0 -178 -13.333 -230 -40s-78 -65.334 -78 -116.001c0 -43.333 22.333 -78.5 67 -105.5s103.667 -40.5 177 -40.5c96.667 0 175.834 22.667 237.501 68s92.5 102 92.5 170
c0 85.333 -74.667 194.666 -224 327.999l-71 63c-44 40.667 -76.833 81.5 -98.5 122.5s-32.5 82.167 -32.5 123.5c0 77.333 31.167 142 93.5 194s148.5 85.667 258.5 101c-50 47.333 -87.333 95.166 -112 143.499s-37 98.166 -37 149.499c0 87.333 38.167 160 114.5 218
s174.5 87 294.5 87c85.333 0 152.833 -16.333 202.5 -49s74.5 -76.334 74.5 -131.001c0 -61.333 -28.833 -107.833 -86.5 -139.5s-142.167 -47.5 -253.5 -47.5c-20.667 0 -38.167 0.333008 -52.5 1s-28.166 1.66699 -41.499 3l-7 9v18l7 8c2 0 5.33301 -0.333008 10 -1
c22.667 -2 39 -3 49 -3c82 0 146.5 14.333 193.5 43s70.5 67.667 70.5 117c0 39.333 -16.667 70.666 -50 93.999s-78.666 35 -135.999 35c-80 0 -146.5 -22.667 -199.5 -68s-79.5 -102 -79.5 -170c0 -39.333 10.333 -79.333 31 -120s50 -79 88 -115l61 -57
c157.333 -142.667 236 -259 236 -349c0 -80 -31.667 -146.333 -95 -199s-149.666 -84.667 -258.999 -96z" />
    <glyph glyph-name="dieresis" unicode="&#xa8;" 
d="M817 819c-36 0 -61 3.00098 -75 9.00098s-21 16 -21 30c0 33.333 3 60.166 9 80.499s14 30.5 24 30.5c1.33301 0 13.333 -2.5 36 -7.5s45.667 -9.5 69 -13.5c6.66699 -0.666992 13.334 -9.33398 20.001 -26.001s10 -36 10 -58c0 -17.333 -4.83301 -29.166 -14.5 -35.499
s-28.834 -9.5 -57.501 -9.5zM489 819.001c-35.333 0 -59.833 2.99902 -73.5 8.99902s-20.5 16 -20.5 30c0 34 2.83301 61 8.5 81s13.167 30 22.5 30c1.33301 0 13.333 -2.5 36 -7.5s45.667 -9.5 69 -13.5c8 -1.33301 15.333 -10.333 22 -27s10 -35.667 10 -57
c0 -17.333 -5 -29.166 -15 -35.499s-29.667 -9.5 -59 -9.5z" />
    <glyph glyph-name="copyright" unicode="&#xa9;" horiz-adv-x="1683" 
d="M1120 1093l31.002 0.999023v-310h-37c-21.333 90 -56 158.333 -104 205s-107.667 70 -179 70c-83.333 0 -146.333 -31.667 -189 -95s-64 -156.666 -64 -279.999c0 -125.333 23 -220.5 69 -285.5s113.667 -97.5 203 -97.5c58.667 0 111.5 14.5 158.5 43.5
s89.167 72.5 126.5 130.5l32 -22c-38.667 -70 -86.167 -122 -142.5 -156s-122.833 -51 -199.5 -51c-108.667 0 -202 40.833 -280 122.5s-117 180.167 -117 295.5c0 123.333 38.333 226.833 115 310.5s170.667 125.5 282 125.5c49.333 0 98.666 -11.333 147.999 -34
s76.666 -34 81.999 -34c18.667 0 33.5 5.33301 44.5 16s17.833 25.667 20.5 45zM844.002 1300c-81.333 0 -160.001 -15.9971 -236.001 -47.9971s-142.667 -77.333 -200 -136c-59.333 -60.667 -104.333 -128.334 -135 -203.001s-46 -153 -46 -235
c0 -83.333 15.667 -162.5 47 -237.5s76.666 -141.833 135.999 -200.5c59.333 -60 125.5 -105.5 198.5 -136.5s150.833 -46.5 233.5 -46.5c83.333 0 162.333 15.667 237 47s140.334 76.666 197.001 135.999c58.667 60.667 103.667 128.667 135 204s47 153.333 47 234
c0 81.333 -16 161 -48 239s-76.667 145.667 -134 203s-123.666 101.666 -198.999 132.999s-153 47 -233 47zM844.001 1376c91.333 0 179.669 -17.668 265.002 -53.001s160 -85 224 -149c64.667 -64 115 -139.667 151 -227s54 -177 54 -269
c0 -91.333 -17.5 -179.333 -52.5 -264s-85.833 -160.667 -152.5 -228c-64.667 -66 -139.334 -116.5 -224.001 -151.5s-173.667 -52.5 -267 -52.5c-92.667 0 -180.834 17.333 -264.501 52s-159.5 85.334 -227.5 152.001c-66.667 66 -117.5 141 -152.5 225
s-52.5 173 -52.5 267c0 93.333 17.5 182.5 52.5 267.5s85.167 160.167 150.5 225.5c64.667 65.333 140 115.833 226 151.5s176 53.5 270 53.5z" />
    <glyph glyph-name="ordfeminine" unicode="&#xaa;" horiz-adv-x="631" 
d="M434 1384c-8.66699 7.33301 -19.167 13.001 -31.5 17.001s-24.833 6 -37.5 6c-25.333 0 -51.5 -9.33301 -78.5 -28s-54.167 -46.334 -81.5 -83.001c-38 -48 -66.667 -93.5 -86 -136.5s-29 -81.5 -29 -115.5c0 -18.667 4.16699 -33.5 12.5 -44.5s19.833 -16.5 34.5 -16.5
c35.333 0 79.833 36 133.5 108s108.167 169.667 163.5 293zM358 1165c-50 -81.333 -93.998 -140.165 -131.998 -176.498s-74.333 -54.5 -109 -54.5c-38.667 0 -69.5 13.833 -92.5 41.5s-34.5 64.834 -34.5 111.501c0 42.667 13.667 87.667 41 135s65.333 91.333 114 132
c34.667 28 71.167 49.333 109.5 64s77.166 22 116.499 22c22.667 0 45.5 -2.33301 68.5 -7s45.167 -11.334 66.5 -20.001l8 -10v-4c0 -10.667 -5.66699 -31.667 -17 -63c-8 -22 -14 -39.333 -18 -52l-70 -222c-2.66699 -12.667 -4.66699 -22.5 -6 -29.5s-2 -13.167 -2 -18.5
c0 -8 3 -14.833 9 -20.5s12.667 -8.5 20 -8.5c24 0 60 25.333 108 76s120.667 140.667 218 270c1.33301 -2 2.33301 -4.33301 3 -7s1 -6.33398 1 -11.001c0 -16 -15.667 -44.333 -47 -85c-3.33301 -4.66699 -6.33301 -8.66699 -9 -12l-15 -19
c-140.667 -175.333 -240 -263 -298 -263c-24.667 0 -43.834 6.16699 -57.501 18.5s-20.5 30.166 -20.5 53.499c0 10.667 3.5 28.167 10.5 52.5s18.5 59.833 34.5 106.5z" />
    <glyph glyph-name="guillemotleft" unicode="&#xab;" horiz-adv-x="952" 
d="M879 625c8.66699 6 15.667 10.166 21 12.499s10.333 3.5 15 3.5c7.33301 0 13 -1.83301 17 -5.5s6 -8.5 6 -14.5c0 -8 -6.33301 -18 -19 -30c-3.33301 -3.33301 -6 -5.66602 -8 -6.99902l-245 -228l63 -256c2 -8.66699 3.5 -15.5 4.5 -20.5s1.5 -8.16699 1.5 -9.5
c0 -8 -2 -14.5 -6 -19.5s-8.66699 -7.5 -14 -7.5c-7.33301 0 -13.5 2.5 -18.5 7.5s-11.167 14.833 -18.5 29.5l-141 293zM571 624.999c8.66699 5.33301 15.999 9.33203 21.999 11.999s11.667 4 17 4c7.33301 0 13 -1.83301 17 -5.5s6 -8.5 6 -14.5
c0 -8 -6.33301 -18 -19 -30c-3.33301 -3.33301 -6 -5.66602 -8 -6.99902l-246 -228l62 -256c2 -8.66699 3.5 -15.667 4.5 -21s1.5 -8.33301 1.5 -9c0 -8 -1.66699 -14.5 -5 -19.5s-7.66602 -7.5 -12.999 -7.5c-7.33301 0 -13.5 2.5 -18.5 7.5s-11.167 14.833 -18.5 29.5
l-142 293z" />
    <glyph glyph-name="logicalnot" unicode="&#xac;" horiz-adv-x="1706" 
d="M254 858h1198v-502h-96v402h-1102v100z" />
    <glyph glyph-name="sfthyphen" unicode="&#xad;" horiz-adv-x="883" 
d="M272 354l-6 15l29 86l14 8h459l10 -12l-24 -91l-13 -6h-469z" />
    <glyph glyph-name="registered" unicode="&#xae;" horiz-adv-x="1683" 
d="M723 717l33.001 0.000976562h35c79.333 0 140.333 15.167 183 45.5s64 73.833 64 130.5c0 49.333 -18.5 88.666 -55.5 117.999s-87.5 44 -151.5 44c-34.667 0 -61.334 -6.33301 -80.001 -19s-28 -31 -28 -55v-264zM469.001 1090h393c98 0 175.167 -18 231.5 -54
s84.5 -84.333 84.5 -145c0 -50 -22.833 -90.833 -68.5 -122.5s-119.167 -57.167 -220.5 -76.5c62.667 -20.667 109.834 -47 141.501 -79s54.834 -76.667 69.501 -134c4 -15.333 8.33301 -36.666 13 -63.999c9.33301 -56.667 28.666 -85 57.999 -85
c24.667 0 42.834 10.667 54.501 32s17.5 54.333 17.5 99h41v-12c0 -57.333 -13.333 -101.166 -40 -131.499s-65.334 -45.5 -116.001 -45.5c-30 0 -56.333 6.16699 -79 18.5s-38.667 29.5 -48 51.5c-10.667 25.333 -16.334 62.5 -17.001 111.5s-3.66699 82.167 -9 99.5
c-14 44 -38.5 76.5 -73.5 97.5s-82.167 31.5 -141.5 31.5c-4 0 -10.167 -0.333008 -18.5 -1s-14.5 -1 -18.5 -1v-246c0 -37.333 9.66699 -63.5 29 -78.5s53.333 -23.167 102 -24.5v-40h-385v40c50 2 84.333 10.333 103 25s28 40.667 28 78v514
c0 37.333 -9.33301 63.166 -28 77.499s-53 22.166 -103 23.499v41zM844.001 1300c-81.333 0 -160.001 -15.998 -236.001 -47.998s-142.667 -77.333 -200 -136c-58.667 -59.333 -103.5 -126.666 -134.5 -201.999s-46.5 -154 -46.5 -236c0 -83.333 15.667 -162.5 47 -237.5
s76.666 -141.833 135.999 -200.5c59.333 -60 125.5 -105.5 198.5 -136.5s150.833 -46.5 233.5 -46.5c83.333 0 162.333 15.667 237 47s140.334 76.666 197.001 135.999c58.667 60.667 103.667 128.667 135 204s47 153.333 47 234c0 81.333 -16.167 161.166 -48.5 239.499
s-76.833 145.833 -133.5 202.5c-57.333 57.333 -123.666 101.666 -198.999 132.999s-153 47 -233 47zM844 1376c91.333 0 179.669 -17.833 265.002 -53.5s160.666 -86.167 225.999 -151.5c64 -64 113.833 -139.167 149.5 -225.5s53.5 -175.5 53.5 -267.5
c0 -92.667 -17.833 -181.5 -53.5 -266.5s-86.834 -160.833 -153.501 -227.5c-66 -66 -141.167 -116.167 -225.5 -150.5s-173.5 -51.5 -267.5 -51.5c-92 0 -179.667 17.5 -263 52.5s-158.333 85.5 -225 151.5s-117.5 141 -152.5 225s-52.5 173 -52.5 267
c0 93.333 17.5 182.5 52.5 267.5s85.167 160.167 150.5 225.5c64.667 65.333 140 115.833 226 151.5s176 53.5 270 53.5z" />
    <glyph glyph-name="macron" unicode="&#xaf;" 
d="M410 944h489l-20 -102h-490z" />
    <glyph glyph-name="degree" unicode="&#xb0;" horiz-adv-x="674" 
d="M338 1382c-57.333 0 -106.501 -20.333 -147.501 -61s-61.5 -89.667 -61.5 -147c0 -58 20.333 -107 61 -147s90 -60 148 -60s107 20 147 60s60 89 60 147c0 57.333 -20.167 106.333 -60.5 147s-89.166 61 -146.499 61zM337.999 1452
c76.667 0 141.834 -27.166 195.501 -81.499s80.5 -119.833 80.5 -196.5s-27.167 -142.334 -81.5 -197.001s-119.833 -82 -196.5 -82c-78 0 -143.667 27 -197 81s-80 120 -80 198c0 77.333 27.167 143 81.5 197s120.166 81 197.499 81z" />
    <glyph glyph-name="plusminus" unicode="&#xb1;" horiz-adv-x="1706" 
d="M254 150h1198v-99h-1198v99zM805 1169h98v-348h549v-98h-549v-348h-98v348h-551v98h551v348z" />
    <glyph glyph-name="twosuperior" unicode="&#xb2;" horiz-adv-x="627" 
d="M111 532l-76.002 -69.002h-6l-15 10v8l90 123c2 2 4.5 3.5 7.5 4.5s6.16699 1.5 9.5 1.5c6 0 10.333 -0.166992 13 -0.5s5.33398 -0.5 8.00098 -0.5c96.667 96 170.834 183.833 222.501 263.5s77.5 145.834 77.5 198.501c0 27.333 -7.16699 48.5 -21.5 63.5
s-35.166 22.5 -62.499 22.5c-40.667 0 -78 -18.5 -112 -55.5s-55.333 -83.167 -64 -138.5l-4 -7h-16l-6 9c7.33301 67.333 32.666 122.666 75.999 165.999s93.666 65 150.999 65c47.333 0 86.5 -13.667 117.5 -41s46.5 -61.333 46.5 -102
c0 -67.333 -117 -210.666 -351 -429.999l-24 -23l26 -11c98.667 -40.667 160.334 -61 185.001 -61c22 0 43.167 7.16699 63.5 21.5s41.5 36.5 63.5 66.5l4 2l12 -6l2 -4c-29.333 -48 -59.333 -84.833 -90 -110.5s-60 -38.5 -88 -38.5c-20.667 0 -63.667 11.667 -129 35
c-45.333 16.667 -82 29.334 -110 38.001z" />
    <glyph glyph-name="threesuperior" unicode="&#xb3;" horiz-adv-x="627" 
d="M37 489l-1.99707 6.99512l6 8l8 2c16 -6 32.833 -10.667 50.5 -14s35.167 -5 52.5 -5c25.333 0 49 3.33301 71 10s42.667 16.334 62 29.001c36 26.667 65.5 60.667 88.5 102s34.5 81.333 34.5 120c0 32 -11.5 58 -34.5 78s-52.5 30 -88.5 30
c-11.333 0 -24.833 -1.5 -40.5 -4.5s-33.834 -7.5 -54.501 -13.5l-10 4l-4 10l4 6c86.667 36.667 150.667 73.834 192 111.501s62 77.834 62 120.501c0 19.333 -6.5 35.333 -19.5 48s-29.5 19 -49.5 19c-27.333 0 -55 -9.33301 -83 -28s-55 -46 -81 -82h-6l-13 6l-2 8
c30 43.333 64 77 102 101s76.333 36 115 36s70.167 -10.167 94.5 -30.5s36.5 -46.166 36.5 -77.499c0 -42 -19.833 -79.667 -59.5 -113s-102.167 -64.666 -187.5 -93.999c69.333 0 124.166 -13.833 164.499 -41.5s60.5 -65.167 60.5 -112.5c0 -32.667 -10.5 -66 -31.5 -100
s-51.5 -67 -91.5 -99c-28 -21.333 -61 -38.5 -99 -51.5s-74.667 -19.5 -110 -19.5c-29.333 0 -55.333 2.5 -78 7.5s-42.334 12.5 -59.001 22.5z" />
    <glyph glyph-name="acute" unicode="&#xb4;" 
d="M821 942l-280 -162h-56l279 246c12.667 10.667 24.5 18.834 35.5 24.501s20.167 8.5 27.5 8.5c14 0 25.333 -4.83301 34 -14.5s13 -21.834 13 -36.501c0 -12 -4 -23 -12 -33s-21.667 -21 -41 -33z" />
    <glyph glyph-name="mu" unicode="&#xb5;" horiz-adv-x="1079" 
d="M162 190c-15.333 -87.333 -30.002 -196.999 -44.002 -328.999c-20.667 -184.667 -56 -277 -106 -277c-22.667 0 -40.167 6.5 -52.5 19.5s-18.5 31.167 -18.5 54.5c0 26.667 20 119.834 60 279.501s73 302.834 99 429.501l111 518h129l-109 -509
c-3.33301 -17.333 -5.83301 -33.833 -7.5 -49.5s-2.5 -30.834 -2.5 -45.501c0 -60.667 14.833 -108.667 44.5 -144s69.5 -53 119.5 -53c66.667 0 123.334 26.333 170.001 79s80.667 128.667 102 228l111 494h129l-115 -527c-7.33301 -35.333 -12.833 -65.833 -16.5 -91.5
s-5.5 -46.834 -5.5 -63.501c0 -34 7 -60.333 21 -79s33.667 -28 59 -28c26 0 49.833 7.5 71.5 22.5s40.834 37.5 57.501 67.5c8 16 17.667 40.667 29 74c16 48 32.333 72 49 72c6.66699 0 12 -3.16699 16 -9.5s6 -14.833 6 -25.5c0 -18 -5.5 -44.833 -16.5 -80.5
s-24.5 -66.834 -40.5 -93.501c-26 -45.333 -56.167 -79.5 -90.5 -102.5s-71.833 -34.5 -112.5 -34.5c-50 0 -87.833 15.167 -113.5 45.5s-38.5 75.166 -38.5 134.499v27c-29.333 -72 -66.666 -125.5 -111.999 -160.5s-99.333 -52.5 -162 -52.5
c-63.333 0 -113.833 17.833 -151.5 53.5s-60.834 87.834 -69.501 156.501z" />
    <glyph glyph-name="paragraph" unicode="&#xb6;" 
d="M940 1479l-0.000976562 -70h-127v-1409h-82v1409h-186v-1409h-84v782c-116 5.33301 -207.833 39.5 -275.5 102.5s-101.5 144.833 -101.5 245.5c0 104.667 35.833 189 107.5 253s166.834 96 285.501 96h463z" />
    <glyph glyph-name="periodcentered" unicode="&#xb7;" horiz-adv-x="473" 
d="M236 676c23.333 0 43 -7.99805 59 -23.998s24 -35.333 24 -58s-8.16699 -42.334 -24.5 -59.001s-35.833 -25 -58.5 -25c-23.333 0 -42.833 8.16699 -58.5 24.5s-23.5 36.166 -23.5 59.499c0 24 7.66699 43.667 23 59s35 23 59 23z" />
    <glyph glyph-name="cedilla" unicode="&#xb8;" 
d="M285 0h52.998l-35 -110c15.333 1.33301 26.5 2.16602 33.5 2.49902s13.5 0.833008 19.5 1.5c52.667 0 93.834 -13 123.501 -39s44.5 -61.667 44.5 -107c0 -43.333 -16.667 -77.666 -50 -102.999s-78.666 -38 -135.999 -38c-48.667 0 -96.334 7 -143.001 21
s-87 33.667 -121 59l14 34c41.333 -19.333 80.333 -34.333 117 -45s68 -16 94 -16c40.667 0 71 7.5 91 22.5s30 37.5 30 67.5c0 27.333 -10.333 48.5 -31 63.5s-50 22.5 -88 22.5c-12.667 0 -25.167 -0.666992 -37.5 -2s-25.166 -3.33301 -38.499 -6z" />
    <glyph glyph-name="onesuperior" unicode="&#xb9;" horiz-adv-x="627" 
d="M184 491l205 594.002c-28.667 -28.667 -58.334 -56 -89.001 -82s-61.667 -50.333 -93 -73h-8l-9 12l3 6c42 34.667 75.5 63.167 100.5 85.5s45.833 42.166 62.5 59.499c10.667 12 23 27.667 37 47c20 27.333 38 42 54 44l40 4h2
c2.66699 0 4.83398 -0.833008 6.50098 -2.5s2.5 -3.5 2.5 -5.5c0 -2.66699 -0.333008 -5.16699 -1 -7.5s-1.66699 -4.5 -3 -6.5l-218 -670c-2.66699 -10 -5.66699 -16 -9 -18s-8.33301 -3 -15 -3l-55 -4h-2c-4 0 -7 0.833008 -9 2.5s-3.33301 4.16699 -4 7.5
c0 2.66699 0.166992 4.66699 0.5 6s0.833008 2.66602 1.5 3.99902z" />
    <glyph glyph-name="ordmasculine" unicode="&#xba;" horiz-adv-x="643" 
d="M465 1085c2 -9.33301 6.16602 -16.6641 12.499 -21.9971s14.5 -8 24.5 -8c20 0 48.333 18.667 85 56s100.334 115.333 191.001 234c2 -5.33301 3.16699 -9 3.5 -11s0.5 -4.33301 0.5 -7c0 -10 -4.5 -23 -13.5 -39s-26.167 -39.667 -51.5 -71
c-68.667 -86 -120 -143.833 -154 -173.5s-64 -44.5 -90 -44.5c-10.667 0 -21 2.33301 -31 7s-18.667 11.334 -26 20.001c-36 -33.333 -71.333 -58 -106 -74s-70.334 -24 -107.001 -24c-58.667 0 -105.5 16.5 -140.5 49.5s-52.5 77.167 -52.5 132.5c0 38.667 9 76.667 27 114
s44.667 73.666 80 108.999c34 35.333 71.5 62.666 112.5 81.999s81.167 29 120.5 29c50 0 91.167 -17.333 123.5 -52s48.5 -78.667 48.5 -132c0 -26.667 -4.66699 -54.334 -14 -83.001s-23.666 -59.334 -42.999 -92.001zM443.999 1313
c-6.66699 32.667 -18.667 57.501 -36 74.501s-39.333 25.5 -66 25.5c-14 0 -28.5 -3.33301 -43.5 -10s-29.833 -16.334 -44.5 -29.001c-39.333 -34.667 -71.333 -79 -96 -133s-37 -106.667 -37 -158c0 -39.333 8.66699 -70 26 -92s41.333 -33 72 -33
c24.667 0 50.667 10.333 78 31s55.333 50.667 84 90c-4 8 -6.66699 15.833 -8 23.5s-2 17.834 -2 30.501c0 28 6.16699 57.167 18.5 87.5s30.5 61.166 54.5 92.499z" />
    <glyph glyph-name="guillemotright" unicode="&#xbb;" horiz-adv-x="952" 
d="M190 61c-9.33301 -6.66699 -16.999 -11.3359 -22.999 -14.0029s-11 -4 -15 -4c-7.33301 0 -13 2 -17 6s-6 9.66699 -6 17c0 8.66699 8.33301 20.334 25 35.001l1 1l248 228l-63 256c-2.66699 8.66699 -4.33398 14.834 -5.00098 18.501s-1 6.83398 -1 9.50098
c0 8 1.66699 14.5 5 19.5s7.66602 7.5 12.999 7.5c8 0 14.833 -2.5 20.5 -7.5s11.834 -14.167 18.501 -27.5l139 -293zM495.001 60.998c-9.33301 -6.66699 -16.998 -11.333 -22.998 -14s-11 -4 -15 -4c-7.33301 0 -13 2 -17 6s-6 9.66699 -6 17c0 8.66699 8 20 24 34l2 2
l249 228l-64 256c-2.66699 8.66699 -4.33398 15 -5.00098 19s-1 7 -1 9c0 8 1.66699 14.5 5 19.5s7.66602 7.5 12.999 7.5c8 0 15 -2.66699 21 -8s12 -14 18 -26l140 -294z" />
    <glyph glyph-name="onequarter" unicode="&#xbc;" horiz-adv-x="1536" 
d="M1251 14l66 207.004l-311 -8h-9l-4 10l2 8c58.667 70.667 109.834 135.667 153.501 195s81.834 115.666 114.501 168.999c3.33301 5.33301 7.66602 13 12.999 23c11.333 21.333 23.333 33 36 35l85 17h2c2.66699 0 5 -1.33301 7 -4s3 -5.66699 3 -9
c0 -12.667 -34.833 -58.667 -104.5 -138s-158.5 -172.333 -266.5 -279l287 6l45 147c2 5.33301 4.83301 9.16602 8.5 11.499s8.5 3.5 14.5 3.5l47 6h4c2 0 3.83301 -1 5.5 -3s2.5 -4.66699 2.5 -8c0 -1.33301 -0.166992 -2.5 -0.5 -3.5l-1.5 -4.5l-41 -145h31l8 -6l-2 -13
l-6 -6l-39 -2l-58 -200v-2c-4 -10 -9.33301 -15.667 -16 -17l-67 -12h-5c-2 0 -3.33301 0.166992 -4 0.5s-1.33398 2.16602 -2.00098 5.49902c0 3.33301 0.166992 6.16602 0.5 8.49902s0.833008 4.83301 1.5 7.5zM1278 1202l-920 -1220l-10 -7h-82l-4 7l955 1220l14 6h43z
M176 539.004l194.999 555c-26 -26 -53.167 -50.833 -81.5 -74.5s-59.166 -47.5 -92.499 -71.5h-7l-8 10v9c34 25.333 64.167 49.166 90.5 71.499s48.833 43.5 67.5 63.5c10.667 10.667 22.667 25.334 36 44.001c18 24.667 34 38 48 40l41 2h2c2.66699 0 4.66699 -0.5 6 -1.5
s2 -2.5 2 -4.5c0 -1.33301 -0.5 -3.33301 -1.5 -6s-1.83301 -5 -2.5 -7l-207 -625c-2 -7.33301 -4.83301 -12.5 -8.5 -15.5s-8.83398 -4.5 -15.501 -4.5l-54 -4h-2c-3.33301 0 -6.16602 0.833008 -8.49902 2.5s-3.5 3.5 -3.5 5.5s0.333008 3.83301 1 5.5s1.66699 3.5 3 5.5z
" />
    <glyph glyph-name="onehalf" unicode="&#xbd;" horiz-adv-x="1536" 
d="M1047 55l-73.999 -63.002h-6l-15 8l2 6l86 114c1.33301 3.33301 3.5 5.66602 6.5 6.99902s6.5 2 10.5 2c4.66699 0 8.33398 -0.166992 11.001 -0.5s5 -0.833008 7 -1.5c93.333 90 164.833 172.167 214.5 246.5s74.5 135.5 74.5 183.5c0 25.333 -7.16699 45 -21.5 59
s-34.5 21 -60.5 21c-38.667 0 -74.334 -17.167 -107.001 -51.5s-53 -77.166 -61 -128.499l-4 -4h-16l-7 6c9.33301 62.667 34.666 114.167 75.999 154.5s89.333 60.5 144 60.5c44 0 80.833 -12.833 110.5 -38.5s44.5 -57.167 44.5 -94.5
c0 -63.333 -115.667 -201.333 -347 -414l-9 -8l52 -21c76.667 -31.333 125.667 -47 147 -47c20 0 39.5 6.33301 58.5 19s40.167 34.334 63.5 65.001l5 2l12 -6v-4c-29.333 -46 -58.5 -81 -87.5 -105s-56.5 -36 -82.5 -36c-18.667 0 -54 9.33301 -106 28
s-92.333 32.334 -121 41.001zM1278 1202l-920 -1220l-10 -7h-82l-4 7l955 1220l14 6h43zM176.001 538.998l194.999 555c-26 -26 -53.167 -50.833 -81.5 -74.5s-59.166 -47.5 -92.499 -71.5h-7l-8 10v9c34 25.333 64.167 49.166 90.5 71.499s48.833 43.5 67.5 63.5
c10.667 10.667 22.667 25.334 36 44.001c18 24.667 34 38 48 40l41 2h2c2.66699 0 4.66699 -0.5 6 -1.5s2 -2.5 2 -4.5c0 -1.33301 -0.5 -3.33301 -1.5 -6s-1.83301 -5 -2.5 -7l-207 -625c-2 -7.33301 -4.83301 -12.5 -8.5 -15.5s-8.83398 -4.5 -15.501 -4.5l-54 -4h-2
c-3.33301 0 -6.16602 0.833008 -8.49902 2.5s-3.5 3.5 -3.5 5.5s0.333008 3.83301 1 5.5s1.66699 3.5 3 5.5z" />
    <glyph glyph-name="threequarters" unicode="&#xbe;" horiz-adv-x="1536" 
d="M1251 14l66 207.004l-311 -8h-9l-4 10l2 8c58.667 70.667 109.834 135.667 153.501 195s81.834 115.666 114.501 168.999c3.33301 5.33301 7.66602 13 12.999 23c11.333 21.333 23.333 33 36 35l85 17h2c2.66699 0 5 -1.33301 7 -4s3 -5.66699 3 -9
c0 -12.667 -34.833 -58.667 -104.5 -138s-158.5 -172.333 -266.5 -279l287 6l45 147c2 5.33301 4.83301 9.16602 8.5 11.499s8.5 3.5 14.5 3.5l47 6h4c2 0 3.83301 -1 5.5 -3s2.5 -4.66699 2.5 -8c0 -1.33301 -0.166992 -2.5 -0.5 -3.5l-1.5 -4.5l-41 -145h31l8 -6l-2 -13
l-6 -6l-39 -2l-58 -200v-2c-4 -10 -9.33301 -15.667 -16 -17l-67 -12h-5c-2 0 -3.33301 0.166992 -4 0.5s-1.33398 2.16602 -2.00098 5.49902c0 3.33301 0.166992 6.16602 0.5 8.49902s0.833008 4.83301 1.5 7.5zM1278 1202l-920 -1220l-10 -7h-82l-4 7l955 1220l14 6h43z
M35 537.004l-1.99707 5.99609l8 8l6 2c15.333 -6 31.166 -10.5 47.499 -13.5s33.166 -4.5 50.499 -4.5c24.667 0 47.5 3.16699 68.5 9.5s39.833 15.833 56.5 28.5c35.333 24.667 64 56 86 94s33 75 33 111c0 30 -10.833 54.333 -32.5 73s-50.5 28 -86.5 28
c-8.66699 0 -19.834 -1.33301 -33.501 -4s-31.834 -7 -54.501 -13l-10 4l-2 11l2 6c81.333 32.667 142 66.667 182 102s60 73 60 113c0 18.667 -6.33301 33.834 -19 45.501s-29 17.5 -49 17.5c-24.667 0 -50.667 -9.16699 -78 -27.5s-52.333 -43.833 -75 -76.5h-7l-12 6
l-2 8c28.667 40.667 61 72 97 94s72.667 33 110 33s67.5 -9.16699 90.5 -27.5s34.5 -42.5 34.5 -72.5c0 -38.667 -19 -73.667 -57 -105s-97.667 -60.666 -179 -87.999c66 0 118.333 -13 157 -39s58 -60.667 58 -104c0 -31.333 -10 -62.666 -30 -93.999
s-49.333 -62.333 -88 -93c-26.667 -20 -57.667 -35.833 -93 -47.5s-70.666 -17.5 -105.999 -17.5c-28.667 0 -54.167 2.33301 -76.5 7s-40.5 11.334 -54.5 20.001z" />
    <glyph glyph-name="questiondown" unicode="&#xbf;" horiz-adv-x="934" 
d="M721 1366c36 0 60.999 -2.83203 74.999 -8.49902s21 -15.834 21 -30.501c0 -30.667 -2.83301 -56 -8.5 -76s-12.5 -30 -20.5 -30c-3.33301 0 -24.333 3.66699 -63 11c-16 2.66699 -29 5 -39 7c-8 1.33301 -15.167 10 -21.5 26s-9.5 34.667 -9.5 56c0 18 4.33301 30 13 36
s26.334 9 53.001 9zM710.999 1145l8.00098 6l24 -10v-13c-16.667 -59.333 -57.334 -152.666 -122.001 -279.999l-29 -57c-80.667 -162 -134.667 -282.5 -162 -361.5s-41 -147.833 -41 -206.5c0 -58 12.833 -103.167 38.5 -135.5s61.5 -48.5 107.5 -48.5
c59.333 0 112.333 29.667 159 89s83 143.666 109 252.999l6 10l27 -2l4 -10c-22 -125.333 -63.167 -222.5 -123.5 -291.5s-133.833 -103.5 -220.5 -103.5c-74 0 -135.167 25.167 -183.5 75.5s-72.5 113.833 -72.5 190.5c0 112 85 286 255 522l70 98
c35.333 50 65.5 98.667 90.5 146s43.5 90.333 55.5 129z" />
    <glyph glyph-name="Agrave" unicode="&#xc0;" horiz-adv-x="2232" 
d="M1532 717c-94.667 56 -186 98.666 -274 127.999s-169.333 44 -244 44c-90.667 0 -163.167 -17.5 -217.5 -52.5s-81.5 -81.167 -81.5 -138.5c0 -80 50.167 -148 150.5 -204s236.5 -90.333 408.5 -103c28.667 27.333 63.167 66.333 103.5 117s91.833 120.334 154.5 209.001
zM2154 1321c-78 -24.667 -220.333 -204.333 -427 -539l-60 -98l99.5 -70.5c29 -21 54.5 -40.5 76.5 -58.5c58 188 113 346.167 165 474.5s100.667 225.5 146 291.5zM1917 420c-7.33301 -28 -13 -55.832 -17 -83.499s-6 -55.167 -6 -82.5c0 -51.333 7 -93.833 21 -127.5
s35.667 -61.5 65 -83.5c10.667 22.667 18.5 46.167 23.5 70.5s7.5 49.166 7.5 74.499c0 44 -7.66699 84.833 -23 122.5s-39 74.167 -71 109.5zM1931 483.001c47.333 -57.333 82.8369 -116.997 106.504 -178.997s35.5 -127 35.5 -195c0 -50 -2.66699 -87.5 -8 -112.5
s-13 -37.5 -23 -37.5c-5.33301 0 -17.833 6.16699 -37.5 18.5s-39.834 27.5 -60.501 45.5c-45.333 38 -79.333 83.167 -102 135.5s-34 110.833 -34 175.5c0 26 2.16699 53 6.5 81s10.5 57 18.5 87c-26.667 22.667 -55.5 45.5 -86.5 68.5s-66.5 47.167 -106.5 72.5
c-38 -56 -73 -105 -105 -147s-61 -77.667 -87 -107h49c14.667 0 30.834 0.333008 48.501 1l76.5 3l10 -8l2 -20l-9 -8c-21.333 -4 -44.833 -6.83301 -70.5 -8.5s-56.5 -2.5 -92.5 -2.5h-55c-115.333 -116 -235 -204.333 -359 -265s-246.667 -91 -368 -91
c-120.667 0 -221.5 23.333 -302.5 70s-121.5 103 -121.5 169c0 52 21.667 93.667 65 125s101.666 47 174.999 47c54.667 0 108 -7 160 -21s102.333 -35 151 -63l4 -14l-8 -16l-12 -4c-49.333 22 -92.5 38 -129.5 48s-71.833 15 -104.5 15
c-54.667 0 -97.334 -12 -128.001 -36s-46 -57.667 -46 -101c0 -49.333 29 -91.333 87 -126s130.667 -52 218 -52c81.333 0 169 27.167 263 81.5s190 133.5 288 237.5c-190 19.333 -340.167 62.666 -450.5 129.999s-165.5 147.666 -165.5 240.999c0 66 29.667 119 89 159
s138.666 60 237.999 60s200.166 -15.5 302.499 -46.5s204.5 -76.833 306.5 -137.5c132.667 201.333 263.167 361.5 391.5 480.5s231.166 178.5 308.5 178.5c10.667 0 17.834 -1.83301 21.5 -5.5c3.66699 -3.66699 5.5 -9.83398 5.5 -18.501
c0 -12.667 -41.5 -119.667 -124.5 -321s-159.833 -397 -230.5 -587zM2208 1741l119 -226.001h-56l-149 172c-9.33301 10.667 -16.5 21.334 -21.5 32.001s-7.5 20 -7.5 28c0 12 5.33301 22.833 16 32.5s23 14.5 37 14.5c12.667 0 23.167 -3.33301 31.5 -10s18.5 -21 30.5 -43
z" />
    <glyph glyph-name="Aacute" unicode="&#xc1;" horiz-adv-x="2232" 
d="M1532 717c-94.667 56 -186 98.666 -274 127.999s-169.333 44 -244 44c-90.667 0 -163.167 -17.5 -217.5 -52.5s-81.5 -81.167 -81.5 -138.5c0 -80 50.167 -148 150.5 -204s236.5 -90.333 408.5 -103c28.667 27.333 63.167 66.333 103.5 117s91.833 120.334 154.5 209.001
zM2154 1321c-78 -24.667 -220.333 -204.333 -427 -539l-60 -98l99.5 -70.5c29 -21 54.5 -40.5 76.5 -58.5c58 188 113 346.167 165 474.5s100.667 225.5 146 291.5zM1917 420c-7.33301 -28 -13 -55.832 -17 -83.499s-6 -55.167 -6 -82.5c0 -51.333 7 -93.833 21 -127.5
s35.667 -61.5 65 -83.5c10.667 22.667 18.5 46.167 23.5 70.5s7.5 49.166 7.5 74.499c0 44 -7.66699 84.833 -23 122.5s-39 74.167 -71 109.5zM1931 483.001c47.333 -57.333 82.8369 -116.997 106.504 -178.997s35.5 -127 35.5 -195c0 -50 -2.66699 -87.5 -8 -112.5
s-13 -37.5 -23 -37.5c-5.33301 0 -17.833 6.16699 -37.5 18.5s-39.834 27.5 -60.501 45.5c-45.333 38 -79.333 83.167 -102 135.5s-34 110.833 -34 175.5c0 26 2.16699 53 6.5 81s10.5 57 18.5 87c-26.667 22.667 -55.5 45.5 -86.5 68.5s-66.5 47.167 -106.5 72.5
c-38 -56 -73 -105 -105 -147s-61 -77.667 -87 -107h49c14.667 0 30.834 0.333008 48.501 1l76.5 3l10 -8l2 -20l-9 -8c-21.333 -4 -44.833 -6.83301 -70.5 -8.5s-56.5 -2.5 -92.5 -2.5h-55c-115.333 -116 -235 -204.333 -359 -265s-246.667 -91 -368 -91
c-120.667 0 -221.5 23.333 -302.5 70s-121.5 103 -121.5 169c0 52 21.667 93.667 65 125s101.666 47 174.999 47c54.667 0 108 -7 160 -21s102.333 -35 151 -63l4 -14l-8 -16l-12 -4c-49.333 22 -92.5 38 -129.5 48s-71.833 15 -104.5 15
c-54.667 0 -97.334 -12 -128.001 -36s-46 -57.667 -46 -101c0 -49.333 29 -91.333 87 -126s130.667 -52 218 -52c81.333 0 169 27.167 263 81.5s190 133.5 288 237.5c-190 19.333 -340.167 62.666 -450.5 129.999s-165.5 147.666 -165.5 240.999c0 66 29.667 119 89 159
s138.666 60 237.999 60s200.166 -15.5 302.499 -46.5s204.5 -76.833 306.5 -137.5c132.667 201.333 263.167 361.5 391.5 480.5s231.166 178.5 308.5 178.5c10.667 0 17.834 -1.83301 21.5 -5.5c3.66699 -3.66699 5.5 -9.83398 5.5 -18.501
c0 -12.667 -41.5 -119.667 -124.5 -321s-159.833 -397 -230.5 -587zM2437 1677l-280 -162h-56l279 246c12.667 10.667 24.5 18.834 35.5 24.501s20.167 8.5 27.5 8.5c14 0 25.333 -4.83301 34 -14.5s13 -21.834 13 -36.501c0 -12 -4 -23 -12 -33s-21.667 -21 -41 -33z" />
    <glyph glyph-name="Acircumflex" unicode="&#xc2;" horiz-adv-x="2232" 
d="M1532 717c-94.667 56 -186 98.666 -274 127.999s-169.333 44 -244 44c-90.667 0 -163.167 -17.5 -217.5 -52.5s-81.5 -81.167 -81.5 -138.5c0 -80 50.167 -148 150.5 -204s236.5 -90.333 408.5 -103c28.667 27.333 63.167 66.333 103.5 117s91.833 120.334 154.5 209.001
zM2154 1321c-78 -24.667 -220.333 -204.333 -427 -539l-60 -98l99.5 -70.5c29 -21 54.5 -40.5 76.5 -58.5c58 188 113 346.167 165 474.5s100.667 225.5 146 291.5zM1917 420c-7.33301 -28 -13 -55.832 -17 -83.499s-6 -55.167 -6 -82.5c0 -51.333 7 -93.833 21 -127.5
s35.667 -61.5 65 -83.5c10.667 22.667 18.5 46.167 23.5 70.5s7.5 49.166 7.5 74.499c0 44 -7.66699 84.833 -23 122.5s-39 74.167 -71 109.5zM1931 483.001c47.333 -57.333 82.8369 -116.997 106.504 -178.997s35.5 -127 35.5 -195c0 -50 -2.66699 -87.5 -8 -112.5
s-13 -37.5 -23 -37.5c-5.33301 0 -17.833 6.16699 -37.5 18.5s-39.834 27.5 -60.501 45.5c-45.333 38 -79.333 83.167 -102 135.5s-34 110.833 -34 175.5c0 26 2.16699 53 6.5 81s10.5 57 18.5 87c-26.667 22.667 -55.5 45.5 -86.5 68.5s-66.5 47.167 -106.5 72.5
c-38 -56 -73 -105 -105 -147s-61 -77.667 -87 -107h49c14.667 0 30.834 0.333008 48.501 1l76.5 3l10 -8l2 -20l-9 -8c-21.333 -4 -44.833 -6.83301 -70.5 -8.5s-56.5 -2.5 -92.5 -2.5h-55c-115.333 -116 -235 -204.333 -359 -265s-246.667 -91 -368 -91
c-120.667 0 -221.5 23.333 -302.5 70s-121.5 103 -121.5 169c0 52 21.667 93.667 65 125s101.666 47 174.999 47c54.667 0 108 -7 160 -21s102.333 -35 151 -63l4 -14l-8 -16l-12 -4c-49.333 22 -92.5 38 -129.5 48s-71.833 15 -104.5 15
c-54.667 0 -97.334 -12 -128.001 -36s-46 -57.667 -46 -101c0 -49.333 29 -91.333 87 -126s130.667 -52 218 -52c81.333 0 169 27.167 263 81.5s190 133.5 288 237.5c-190 19.333 -340.167 62.666 -450.5 129.999s-165.5 147.666 -165.5 240.999c0 66 29.667 119 89 159
s138.666 60 237.999 60s200.166 -15.5 302.499 -46.5s204.5 -76.833 306.5 -137.5c132.667 201.333 263.167 361.5 391.5 480.5s231.166 178.5 308.5 178.5c10.667 0 17.834 -1.83301 21.5 -5.5c3.66699 -3.66699 5.5 -9.83398 5.5 -18.501
c0 -12.667 -41.5 -119.667 -124.5 -321s-159.833 -397 -230.5 -587zM2232 1786h101l160 -271h-52l-163 181l-297 -181h-66z" />
    <glyph glyph-name="Atilde" unicode="&#xc3;" horiz-adv-x="2232" 
d="M1532 717c-94.667 56 -186 98.666 -274 127.999s-169.333 44 -244 44c-90.667 0 -163.167 -17.5 -217.5 -52.5s-81.5 -81.167 -81.5 -138.5c0 -80 50.167 -148 150.5 -204s236.5 -90.333 408.5 -103c28.667 27.333 63.167 66.333 103.5 117s91.833 120.334 154.5 209.001
zM2154 1321c-78 -24.667 -220.333 -204.333 -427 -539l-60 -98l99.5 -70.5c29 -21 54.5 -40.5 76.5 -58.5c58 188 113 346.167 165 474.5s100.667 225.5 146 291.5zM1917 420c-7.33301 -28 -13 -55.832 -17 -83.499s-6 -55.167 -6 -82.5c0 -51.333 7 -93.833 21 -127.5
s35.667 -61.5 65 -83.5c10.667 22.667 18.5 46.167 23.5 70.5s7.5 49.166 7.5 74.499c0 44 -7.66699 84.833 -23 122.5s-39 74.167 -71 109.5zM1931 483.001c47.333 -57.333 82.8369 -116.997 106.504 -178.997s35.5 -127 35.5 -195c0 -50 -2.66699 -87.5 -8 -112.5
s-13 -37.5 -23 -37.5c-5.33301 0 -17.833 6.16699 -37.5 18.5s-39.834 27.5 -60.501 45.5c-45.333 38 -79.333 83.167 -102 135.5s-34 110.833 -34 175.5c0 26 2.16699 53 6.5 81s10.5 57 18.5 87c-26.667 22.667 -55.5 45.5 -86.5 68.5s-66.5 47.167 -106.5 72.5
c-38 -56 -73 -105 -105 -147s-61 -77.667 -87 -107h49c14.667 0 30.834 0.333008 48.501 1l76.5 3l10 -8l2 -20l-9 -8c-21.333 -4 -44.833 -6.83301 -70.5 -8.5s-56.5 -2.5 -92.5 -2.5h-55c-115.333 -116 -235 -204.333 -359 -265s-246.667 -91 -368 -91
c-120.667 0 -221.5 23.333 -302.5 70s-121.5 103 -121.5 169c0 52 21.667 93.667 65 125s101.666 47 174.999 47c54.667 0 108 -7 160 -21s102.333 -35 151 -63l4 -14l-8 -16l-12 -4c-49.333 22 -92.5 38 -129.5 48s-71.833 15 -104.5 15
c-54.667 0 -97.334 -12 -128.001 -36s-46 -57.667 -46 -101c0 -49.333 29 -91.333 87 -126s130.667 -52 218 -52c81.333 0 169 27.167 263 81.5s190 133.5 288 237.5c-190 19.333 -340.167 62.666 -450.5 129.999s-165.5 147.666 -165.5 240.999c0 66 29.667 119 89 159
s138.666 60 237.999 60s200.166 -15.5 302.499 -46.5s204.5 -76.833 306.5 -137.5c132.667 201.333 263.167 361.5 391.5 480.5s231.166 178.5 308.5 178.5c10.667 0 17.834 -1.83301 21.5 -5.5c3.66699 -3.66699 5.5 -9.83398 5.5 -18.501
c0 -12.667 -41.5 -119.667 -124.5 -321s-159.833 -397 -230.5 -587zM2503 1747l45 -0.000976562c-14.667 -60.667 -36.167 -106.334 -64.5 -137.001s-63.5 -46 -105.5 -46c-9.33301 0 -18.666 0.833008 -28 2.5c-9.33301 1.66699 -18.333 3.83398 -27 6.50098l-143 38
c-11.333 3.33301 -22.666 6 -34 8c-11.333 2 -20 3 -26 3c-26 0 -46.667 -6.5 -62 -19.5s-26.333 -33.167 -33 -60.5h-47c16 60 37.667 104.333 65 133s61.666 43 103 43c12 0 24 -0.833008 36 -2.5s24 -4.16699 36 -7.5l143 -39c9.33301 -2 18 -3.5 26 -4.5
s15.333 -1.5 22 -1.5c24.667 0 44.667 6.83301 60 20.5s26.666 34.834 34 63.501z" />
    <glyph glyph-name="Adieresis" unicode="&#xc4;" horiz-adv-x="2232" 
d="M1532 717c-94.667 56 -186 98.666 -274 127.999s-169.333 44 -244 44c-90.667 0 -163.167 -17.5 -217.5 -52.5s-81.5 -81.167 -81.5 -138.5c0 -80 50.167 -148 150.5 -204s236.5 -90.333 408.5 -103c28.667 27.333 63.167 66.333 103.5 117s91.833 120.334 154.5 209.001
zM2154 1321c-78 -24.667 -220.333 -204.333 -427 -539l-60 -98l99.5 -70.5c29 -21 54.5 -40.5 76.5 -58.5c58 188 113 346.167 165 474.5s100.667 225.5 146 291.5zM1917 420c-7.33301 -28 -13 -55.832 -17 -83.499s-6 -55.167 -6 -82.5c0 -51.333 7 -93.833 21 -127.5
s35.667 -61.5 65 -83.5c10.667 22.667 18.5 46.167 23.5 70.5s7.5 49.166 7.5 74.499c0 44 -7.66699 84.833 -23 122.5s-39 74.167 -71 109.5zM1931 483.001c47.333 -57.333 82.8369 -116.997 106.504 -178.997s35.5 -127 35.5 -195c0 -50 -2.66699 -87.5 -8 -112.5
s-13 -37.5 -23 -37.5c-5.33301 0 -17.833 6.16699 -37.5 18.5s-39.834 27.5 -60.501 45.5c-45.333 38 -79.333 83.167 -102 135.5s-34 110.833 -34 175.5c0 26 2.16699 53 6.5 81s10.5 57 18.5 87c-26.667 22.667 -55.5 45.5 -86.5 68.5s-66.5 47.167 -106.5 72.5
c-38 -56 -73 -105 -105 -147s-61 -77.667 -87 -107h49c14.667 0 30.834 0.333008 48.501 1l76.5 3l10 -8l2 -20l-9 -8c-21.333 -4 -44.833 -6.83301 -70.5 -8.5s-56.5 -2.5 -92.5 -2.5h-55c-115.333 -116 -235 -204.333 -359 -265s-246.667 -91 -368 -91
c-120.667 0 -221.5 23.333 -302.5 70s-121.5 103 -121.5 169c0 52 21.667 93.667 65 125s101.666 47 174.999 47c54.667 0 108 -7 160 -21s102.333 -35 151 -63l4 -14l-8 -16l-12 -4c-49.333 22 -92.5 38 -129.5 48s-71.833 15 -104.5 15
c-54.667 0 -97.334 -12 -128.001 -36s-46 -57.667 -46 -101c0 -49.333 29 -91.333 87 -126s130.667 -52 218 -52c81.333 0 169 27.167 263 81.5s190 133.5 288 237.5c-190 19.333 -340.167 62.666 -450.5 129.999s-165.5 147.666 -165.5 240.999c0 66 29.667 119 89 159
s138.666 60 237.999 60s200.166 -15.5 302.499 -46.5s204.5 -76.833 306.5 -137.5c132.667 201.333 263.167 361.5 391.5 480.5s231.166 178.5 308.5 178.5c10.667 0 17.834 -1.83301 21.5 -5.5c3.66699 -3.66699 5.5 -9.83398 5.5 -18.501
c0 -12.667 -41.5 -119.667 -124.5 -321s-159.833 -397 -230.5 -587zM2433 1554c-36 0 -61 3.00098 -75 9.00098s-21 16 -21 30c0 33.333 3 60.166 9 80.499s14 30.5 24 30.5c1.33301 0 13.333 -2.5 36 -7.5s45.667 -9.5 69 -13.5
c6.66699 -0.666992 13.334 -9.33398 20 -26.001c6.66699 -16.667 10 -36 10 -58c0 -17.333 -4.83301 -29.166 -14.5 -35.499s-28.834 -9.5 -57.5 -9.5zM2105 1554c-35.333 0 -59.832 2.99902 -73.499 8.99902s-20.5 16 -20.5 30c0 34 2.83301 61 8.5 81s13.167 30 22.5 30
c1.33301 0 13.333 -2.5 35.999 -7.5c22.667 -5 45.667 -9.5 69 -13.5c8 -1.33301 15.333 -10.333 22 -27s10 -35.667 10 -57c0 -17.333 -5 -29.166 -15 -35.499s-29.667 -9.5 -59 -9.5z" />
    <glyph glyph-name="Aring" unicode="&#xc5;" horiz-adv-x="2232" 
d="M2257 1767c-33.333 0 -61.5 -11.333 -84.5 -34s-34.5 -50.667 -34.5 -84s11.5 -61.5 34.5 -84.5s51.167 -34.5 84.5 -34.5s61.5 11.5 84.5 34.5s34.5 51.167 34.5 84.5c0 32.667 -11.667 60.5 -35 83.5s-51.333 34.5 -84 34.5zM2257 1835c52 0 96 -18 132 -54
s54 -80 54 -132c0 -52.667 -18 -97 -54 -133s-80 -54 -132 -54s-96 18 -132 54s-54 80.333 -54 133c0 52 18 96 54 132s80 54 132 54zM1532 717c-94.667 56 -186 98.666 -274 127.999s-169.333 44 -244 44c-90.667 0 -163.167 -17.5 -217.5 -52.5
s-81.5 -81.167 -81.5 -138.5c0 -80 50.167 -148 150.5 -204s236.5 -90.333 408.5 -103c28.667 27.333 63.167 66.333 103.5 117s91.833 120.334 154.5 209.001zM2154 1321c-78 -24.667 -220.333 -204.333 -427 -539l-60 -98l99.5 -70.5c29 -21 54.5 -40.5 76.5 -58.5
c58 188 113 346.167 165 474.5s100.667 225.5 146 291.5zM1917 420c-7.33301 -28 -13 -55.832 -17 -83.499s-6 -55.167 -6 -82.5c0 -51.333 7 -93.833 21 -127.5s35.667 -61.5 65 -83.5c10.667 22.667 18.5 46.167 23.5 70.5s7.5 49.166 7.5 74.499
c0 44 -7.66699 84.833 -23 122.5s-39 74.167 -71 109.5zM1931 483.001c47.333 -57.333 82.8369 -116.997 106.504 -178.997s35.5 -127 35.5 -195c0 -50 -2.66699 -87.5 -8 -112.5s-13 -37.5 -23 -37.5c-5.33301 0 -17.833 6.16699 -37.5 18.5s-39.834 27.5 -60.501 45.5
c-45.333 38 -79.333 83.167 -102 135.5s-34 110.833 -34 175.5c0 26 2.16699 53 6.5 81s10.5 57 18.5 87c-26.667 22.667 -55.5 45.5 -86.5 68.5s-66.5 47.167 -106.5 72.5c-38 -56 -73 -105 -105 -147s-61 -77.667 -87 -107h49c14.667 0 30.834 0.333008 48.501 1l76.5 3
l10 -8l2 -20l-9 -8c-21.333 -4 -44.833 -6.83301 -70.5 -8.5s-56.5 -2.5 -92.5 -2.5h-55c-115.333 -116 -235 -204.333 -359 -265s-246.667 -91 -368 -91c-120.667 0 -221.5 23.333 -302.5 70s-121.5 103 -121.5 169c0 52 21.667 93.667 65 125s101.666 47 174.999 47
c54.667 0 108 -7 160 -21s102.333 -35 151 -63l4 -14l-8 -16l-12 -4c-49.333 22 -92.5 38 -129.5 48s-71.833 15 -104.5 15c-54.667 0 -97.334 -12 -128.001 -36s-46 -57.667 -46 -101c0 -49.333 29 -91.333 87 -126s130.667 -52 218 -52c81.333 0 169 27.167 263 81.5
s190 133.5 288 237.5c-190 19.333 -340.167 62.666 -450.5 129.999s-165.5 147.666 -165.5 240.999c0 66 29.667 119 89 159s138.666 60 237.999 60s200.166 -15.5 302.499 -46.5s204.5 -76.833 306.5 -137.5c132.667 201.333 263.167 361.5 391.5 480.5
s231.166 178.5 308.5 178.5c10.667 0 17.834 -1.83301 21.5 -5.5c3.66699 -3.66699 5.5 -9.83398 5.5 -18.501c0 -12.667 -41.5 -119.667 -124.5 -321s-159.833 -397 -230.5 -587z" />
    <glyph glyph-name="AE" unicode="&#xc6;" horiz-adv-x="2988" 
d="M1532 717c-94.667 56 -186 98.666 -274 127.999s-169.333 44 -244 44c-90.667 0 -163.167 -17.5 -217.5 -52.5s-81.5 -81.167 -81.5 -138.5c0 -80 50.167 -148 150.5 -204s236.5 -90.333 408.5 -103c28.667 27.333 63.167 66.333 103.5 117s91.833 120.334 154.5 209.001
zM2154 1321c-78 -24.667 -220.333 -204.333 -427 -539l-60 -98l99.5 -70.5c29 -21 54.5 -40.5 76.5 -58.5c31.333 119.333 73 243 125 371s114 259.667 186 395zM1929 444c52.667 93.333 131.666 169.998 237 229.998c105.333 60 234 101.667 386 125
c-102.667 12 -182.667 41.667 -240 89s-86 107 -86 179c0 44 12 85.333 36 124s60.667 75 110 109c50.667 36 111.834 64.5 183.5 85.5c71.667 21 144.167 31.5 217.5 31.5c64.667 0 115.667 -12.5 153 -37.5s56 -58.833 56 -101.5c0 -63.333 -31.5 -114.666 -94.5 -153.999
s-146.167 -59 -249.5 -59c-16.667 0 -29.667 0.333008 -39 1s-18.333 1.66699 -27 3l-10 6l2 25l11 6c9.33301 -2 20.5 -3.5 33.5 -4.5s27.5 -1.5 43.5 -1.5c68.667 0 123 13.833 163 41.5s60 64.834 60 111.501c0 36 -13 64.833 -39 86.5s-60.667 32.5 -104 32.5
c-102 0 -189.333 -30 -262 -90s-109 -131 -109 -213c0 -64 26.333 -117.5 79 -160.5s129.667 -73.5 231 -91.5l10 -10l-2 -21l-10 -6c-210.667 -32.667 -380.167 -96.667 -508.5 -192s-192.5 -202.666 -192.5 -321.999c0 -79.333 29.167 -141.833 87.5 -187.5
s138.5 -68.5 240.5 -68.5c125.333 0 230 27.333 314 82s126 120.334 126 197.001c0 44 -15.667 79.167 -47 105.5s-73.666 39.5 -127 39.5c-48 0 -101.833 -13.333 -161.5 -40s-128.834 -68.667 -207.5 -126l-12 2l-10 17l2 12c94 70.667 179.167 122.834 255.5 156.501
s147.5 50.5 213.5 50.5c65.333 0 119.166 -16.833 161.5 -50.5c42.333 -33.667 63.5 -75.5 63.5 -125.5c0 -39.333 -12.5 -77.833 -37.5 -115.5s-62.167 -74.5 -111.5 -110.5c-66 -47.333 -138.5 -83.333 -217.5 -108s-161.5 -37 -247.5 -37
c-135.333 0 -242.166 33.833 -320.499 101.5s-117.5 159.5 -117.5 275.5c0 24.667 1.5 50.834 4.5 78.501s7.5 56.5 13.5 86.5c-26.667 23.333 -55.5 46.5 -86.5 69.5s-66.5 47.167 -106.5 72.5c-38 -56 -73 -105 -105 -147s-61 -77.667 -87 -107
c9.33301 0 22.666 -0.333008 39.999 -1s30 -1 38 -1c12 0 24.833 0.333008 38.5 1s32.834 1.66699 57.501 3l12 -8v-18l-8 -11c-13.333 -2 -34.166 -3.83301 -62.499 -5.5s-60.833 -2.5 -97.5 -2.5h-59c-115.333 -116 -235 -204.333 -359 -265s-246.667 -91 -368 -91
c-120.667 0 -221.5 23.333 -302.5 70s-121.5 103 -121.5 169c0 52 21.833 93.667 65.5 125s101.834 47 174.501 47c56.667 0 111.5 -7.33301 164.5 -22s101.833 -36 146.5 -64l6 -10l-10 -18l-15 -2c-48 21.333 -90.5 36.833 -127.5 46.5s-71.5 14.5 -103.5 14.5
c-54.667 0 -97.334 -12 -128.001 -36s-46 -57.667 -46 -101c0 -49.333 29 -91.333 87 -126s130.667 -52 218 -52c81.333 0 169 27.167 263 81.5s190 133.5 288 237.5c-190 19.333 -340.167 62.666 -450.5 129.999s-165.5 147.666 -165.5 240.999c0 66 29.667 119 89 159
s138.666 60 237.999 60s200.166 -15.5 302.499 -46.5s204.5 -76.833 306.5 -137.5c132.667 202 263.167 362.667 391.5 482s231.166 179 308.5 179c9.33301 0 16.166 -2.16699 20.5 -6.5c4.33301 -4.33301 6.5 -10.833 6.5 -19.5s-23.333 -66.334 -70 -173.001l-72 -163
c-68.667 -162.667 -119 -289.834 -151 -381.501s-53.333 -168.167 -64 -229.5z" />
    <glyph glyph-name="Ccedilla" unicode="&#xc7;" horiz-adv-x="1651" 
d="M696 739c32 90 75.167 175.666 129.5 256.999s119.166 157 194.499 227c-54.667 17.333 -112.667 30.5 -174 39.5s-127 13.5 -197 13.5c-137.333 0 -248.166 -25.5 -332.499 -76.5s-126.5 -117.167 -126.5 -198.5c0 -82.667 43.833 -146.667 131.5 -192
s212.5 -68.666 374.5 -69.999zM1139 1229c70 -32.667 125.831 -69.832 167.498 -111.499s71.167 -89.834 88.5 -144.501c56 51.333 100 104.5 132 159.5s48 104.167 48 147.5c0 40 -11.667 71.833 -35 95.5s-54.666 35.5 -93.999 35.5c-46.667 0 -96.667 -15.833 -150 -47.5
s-105.666 -76.5 -156.999 -134.5zM865.998 745.001c94.667 13.333 183.166 35.834 265.499 67.501s157.833 72.167 226.5 121.5c-13.333 57.333 -40.166 107.5 -80.499 150.5s-95.5 79.5 -165.5 109.5c-49.333 -64.667 -94.5 -134.334 -135.5 -209.001
s-77.833 -154.667 -110.5 -240zM683.997 694.002c-200.667 7.33301 -353.162 38.5 -457.495 93.5s-156.5 131.833 -156.5 230.5c0 91.333 48.667 164.666 146 219.999s228.666 83 393.999 83c77.333 0 153.166 -5.5 227.499 -16.5s147.5 -27.5 219.5 -49.5
c76 66.667 148.5 116.834 217.5 150.501s132.833 50.5 191.5 50.5c63.333 0 113.666 -17.667 150.999 -53s56 -82.333 56 -141c0 -64 -23 -128.833 -69 -194.5s-111.667 -126.5 -197 -182.5v-17c0 -96 -35 -179.833 -105 -251.5s-172.333 -128.5 -307 -170.5l-10 7l-6 18
l8 10c122 42.667 214.333 95.667 277 159s94 134.666 94 213.999v4c-72.667 -40 -151.334 -73.333 -236.001 -100s-176 -46.667 -274 -60c-11.333 -38 -20 -78.667 -26 -122s-9 -88 -9 -134c0 -130 35.333 -232 106 -306s167.667 -111 291 -111
c113.333 0 223.166 42.333 329.499 127s224.5 225 354.5 421c2 -5.33301 3.66699 -10.666 5 -15.999s2 -9.33301 2 -12c0 -20.667 -12.833 -50.834 -38.5 -90.501s-68.167 -94.834 -127.5 -165.501c-92.667 -110 -184 -189.833 -274 -239.5s-187.333 -74.5 -292 -74.5
c-151.333 0 -274.833 46.833 -370.5 140.5s-143.5 214.834 -143.5 363.501c0 34.667 2.5 69.834 7.5 105.501s12.167 72.167 21.5 109.5zM1059 0.00195312h52.998l-35 -110c15.333 1.33301 26.5 2.16602 33.5 2.49902s13.5 0.833008 19.5 1.5
c52.667 0 93.834 -13 123.501 -39s44.5 -61.667 44.5 -107c0 -43.333 -16.667 -77.666 -50 -102.999s-78.666 -38 -135.999 -38c-48.667 0 -96.334 7 -143.001 21s-87 33.667 -121 59l14 34c41.333 -19.333 80.333 -34.333 117 -45s68 -16 94 -16c40.667 0 71 7.5 91 22.5
s30 37.5 30 67.5c0 27.333 -10.333 48.5 -31 63.5s-50 22.5 -88 22.5c-12.667 0 -25.167 -0.666992 -37.5 -2s-25.166 -3.33301 -38.499 -6z" />
    <glyph glyph-name="Egrave" unicode="&#xc8;" horiz-adv-x="1731" 
d="M1155 940c155.333 46.667 270.668 95.999 346.001 147.999s113 108.333 113 169c0 37.333 -12.5 66.833 -37.5 88.5s-58.833 32.5 -101.5 32.5c-99.333 0 -186 -31.333 -260 -94s-111 -135 -111 -217c0 -27.333 4.16699 -51.166 12.5 -71.499
s21.166 -38.833 38.499 -55.5zM1294 798.999c-45.333 4 -87.832 12.3301 -127.499 24.9971s-76.834 30.334 -111.501 53.001c-80.667 -21.333 -157.834 -37.333 -231.501 -48s-144.167 -16 -211.5 -16c-160.667 0 -287.5 26.833 -380.5 80.5s-139.5 126.5 -139.5 218.5
c0 86.667 43.833 157.5 131.5 212.5s202.167 82.5 343.5 82.5c61.333 0 125.833 -5.16699 193.5 -15.5s137.834 -25.5 210.501 -45.5l6 -11l-4 -18l-12 -4c-66 17.333 -129.167 30.5 -189.5 39.5s-117.5 13.5 -171.5 13.5c-115.333 0 -205.666 -23.5 -270.999 -70.5
s-98 -111.5 -98 -193.5c0 -79.333 35.5 -140.5 106.5 -183.5s171.5 -64.5 301.5 -64.5c59.333 0 121.166 4.66699 185.499 14s130.833 23 199.5 41c-22.667 20 -39.667 43 -51 69s-17 55.667 -17 89c0 52.667 15.333 99.334 46 140.001s81.667 82 153 124
c45.333 27.333 99.5 48.833 162.5 64.5s126.167 23.5 189.5 23.5c68.667 0 122 -12.667 160 -38s57 -60.333 57 -105c0 -66 -45.167 -129.5 -135.5 -190.5s-225.166 -119.833 -404.499 -176.5c26.667 -21.333 57.667 -39.333 93 -54s80.666 -27.334 135.999 -38.001l8 -10
v-21l-10 -6c-205.333 -28.667 -371.333 -91.167 -498 -187.5s-190 -205.166 -190 -326.499c0 -79.333 29.5 -141.833 88.5 -187.5s140.167 -68.5 243.5 -68.5c116.667 0 216.5 27.833 299.5 83.5s124.5 120.834 124.5 195.501c0 44 -16.167 79.167 -48.5 105.5
s-74.833 39.5 -127.5 39.5c-48 0 -102.167 -13.5 -162.5 -40.5s-129.166 -68.833 -206.499 -125.5l-10 2l-11 15l2 12c90 70 173.667 122.333 251 157s149.333 52 216 52c65.333 0 119.333 -16.833 162 -50.5s64 -75.5 64 -125.5c0 -40 -12.333 -78.667 -37 -116
s-62.334 -74 -113.001 -110c-65.333 -46.667 -137.166 -82.5 -215.499 -107.5s-158.833 -37.5 -241.5 -37.5c-132.667 0 -239.5 29 -320.5 87s-121.5 134 -121.5 228c0 122.667 66.667 232.167 200 328.5s311.666 161.833 534.999 196.5zM1432 1741l119 -226.001h-56
l-149 172c-9.33301 10.667 -16.5 21.334 -21.5 32.001s-7.5 20 -7.5 28c0 12 5.33301 22.833 16 32.5s23 14.5 37 14.5c12.667 0 23.167 -3.33301 31.5 -10s18.5 -21 30.5 -43z" />
    <glyph glyph-name="Eacute" unicode="&#xc9;" horiz-adv-x="1731" 
d="M1155 940c155.333 46.667 270.668 95.999 346.001 147.999s113 108.333 113 169c0 37.333 -12.5 66.833 -37.5 88.5s-58.833 32.5 -101.5 32.5c-99.333 0 -186 -31.333 -260 -94s-111 -135 -111 -217c0 -27.333 4.16699 -51.166 12.5 -71.499
s21.166 -38.833 38.499 -55.5zM1294 798.999c-45.333 4 -87.832 12.3301 -127.499 24.9971s-76.834 30.334 -111.501 53.001c-80.667 -21.333 -157.834 -37.333 -231.501 -48s-144.167 -16 -211.5 -16c-160.667 0 -287.5 26.833 -380.5 80.5s-139.5 126.5 -139.5 218.5
c0 86.667 43.833 157.5 131.5 212.5s202.167 82.5 343.5 82.5c61.333 0 125.833 -5.16699 193.5 -15.5s137.834 -25.5 210.501 -45.5l6 -11l-4 -18l-12 -4c-66 17.333 -129.167 30.5 -189.5 39.5s-117.5 13.5 -171.5 13.5c-115.333 0 -205.666 -23.5 -270.999 -70.5
s-98 -111.5 -98 -193.5c0 -79.333 35.5 -140.5 106.5 -183.5s171.5 -64.5 301.5 -64.5c59.333 0 121.166 4.66699 185.499 14s130.833 23 199.5 41c-22.667 20 -39.667 43 -51 69s-17 55.667 -17 89c0 52.667 15.333 99.334 46 140.001s81.667 82 153 124
c45.333 27.333 99.5 48.833 162.5 64.5s126.167 23.5 189.5 23.5c68.667 0 122 -12.667 160 -38s57 -60.333 57 -105c0 -66 -45.167 -129.5 -135.5 -190.5s-225.166 -119.833 -404.499 -176.5c26.667 -21.333 57.667 -39.333 93 -54s80.666 -27.334 135.999 -38.001l8 -10
v-21l-10 -6c-205.333 -28.667 -371.333 -91.167 -498 -187.5s-190 -205.166 -190 -326.499c0 -79.333 29.5 -141.833 88.5 -187.5s140.167 -68.5 243.5 -68.5c116.667 0 216.5 27.833 299.5 83.5s124.5 120.834 124.5 195.501c0 44 -16.167 79.167 -48.5 105.5
s-74.833 39.5 -127.5 39.5c-48 0 -102.167 -13.5 -162.5 -40.5s-129.166 -68.833 -206.499 -125.5l-10 2l-11 15l2 12c90 70 173.667 122.333 251 157s149.333 52 216 52c65.333 0 119.333 -16.833 162 -50.5s64 -75.5 64 -125.5c0 -40 -12.333 -78.667 -37 -116
s-62.334 -74 -113.001 -110c-65.333 -46.667 -137.166 -82.5 -215.499 -107.5s-158.833 -37.5 -241.5 -37.5c-132.667 0 -239.5 29 -320.5 87s-121.5 134 -121.5 228c0 122.667 66.667 232.167 200 328.5s311.666 161.833 534.999 196.5zM1661 1677l-280 -162h-56l279 246
c12.667 10.667 24.5 18.834 35.5 24.501s20.167 8.5 27.5 8.5c14 0 25.333 -4.83301 34 -14.5s13 -21.834 13 -36.501c0 -12 -4 -23 -12 -33s-21.667 -21 -41 -33z" />
    <glyph glyph-name="Ecircumflex" unicode="&#xca;" horiz-adv-x="1731" 
d="M1155 940c155.333 46.667 270.668 95.999 346.001 147.999s113 108.333 113 169c0 37.333 -12.5 66.833 -37.5 88.5s-58.833 32.5 -101.5 32.5c-99.333 0 -186 -31.333 -260 -94s-111 -135 -111 -217c0 -27.333 4.16699 -51.166 12.5 -71.499
s21.166 -38.833 38.499 -55.5zM1294 798.999c-45.333 4 -87.832 12.3301 -127.499 24.9971s-76.834 30.334 -111.501 53.001c-80.667 -21.333 -157.834 -37.333 -231.501 -48s-144.167 -16 -211.5 -16c-160.667 0 -287.5 26.833 -380.5 80.5s-139.5 126.5 -139.5 218.5
c0 86.667 43.833 157.5 131.5 212.5s202.167 82.5 343.5 82.5c61.333 0 125.833 -5.16699 193.5 -15.5s137.834 -25.5 210.501 -45.5l6 -11l-4 -18l-12 -4c-66 17.333 -129.167 30.5 -189.5 39.5s-117.5 13.5 -171.5 13.5c-115.333 0 -205.666 -23.5 -270.999 -70.5
s-98 -111.5 -98 -193.5c0 -79.333 35.5 -140.5 106.5 -183.5s171.5 -64.5 301.5 -64.5c59.333 0 121.166 4.66699 185.499 14s130.833 23 199.5 41c-22.667 20 -39.667 43 -51 69s-17 55.667 -17 89c0 52.667 15.333 99.334 46 140.001s81.667 82 153 124
c45.333 27.333 99.5 48.833 162.5 64.5s126.167 23.5 189.5 23.5c68.667 0 122 -12.667 160 -38s57 -60.333 57 -105c0 -66 -45.167 -129.5 -135.5 -190.5s-225.166 -119.833 -404.499 -176.5c26.667 -21.333 57.667 -39.333 93 -54s80.666 -27.334 135.999 -38.001l8 -10
v-21l-10 -6c-205.333 -28.667 -371.333 -91.167 -498 -187.5s-190 -205.166 -190 -326.499c0 -79.333 29.5 -141.833 88.5 -187.5s140.167 -68.5 243.5 -68.5c116.667 0 216.5 27.833 299.5 83.5s124.5 120.834 124.5 195.501c0 44 -16.167 79.167 -48.5 105.5
s-74.833 39.5 -127.5 39.5c-48 0 -102.167 -13.5 -162.5 -40.5s-129.166 -68.833 -206.499 -125.5l-10 2l-11 15l2 12c90 70 173.667 122.333 251 157s149.333 52 216 52c65.333 0 119.333 -16.833 162 -50.5s64 -75.5 64 -125.5c0 -40 -12.333 -78.667 -37 -116
s-62.334 -74 -113.001 -110c-65.333 -46.667 -137.166 -82.5 -215.499 -107.5s-158.833 -37.5 -241.5 -37.5c-132.667 0 -239.5 29 -320.5 87s-121.5 134 -121.5 228c0 122.667 66.667 232.167 200 328.5s311.666 161.833 534.999 196.5zM1456 1786h101l160 -271h-52
l-163 181l-297 -181h-66z" />
    <glyph glyph-name="Edieresis" unicode="&#xcb;" horiz-adv-x="1731" 
d="M1155 940c155.333 46.667 270.668 95.999 346.001 147.999s113 108.333 113 169c0 37.333 -12.5 66.833 -37.5 88.5s-58.833 32.5 -101.5 32.5c-99.333 0 -186 -31.333 -260 -94s-111 -135 -111 -217c0 -27.333 4.16699 -51.166 12.5 -71.499
s21.166 -38.833 38.499 -55.5zM1294 798.999c-45.333 4 -87.832 12.3301 -127.499 24.9971s-76.834 30.334 -111.501 53.001c-80.667 -21.333 -157.834 -37.333 -231.501 -48s-144.167 -16 -211.5 -16c-160.667 0 -287.5 26.833 -380.5 80.5s-139.5 126.5 -139.5 218.5
c0 86.667 43.833 157.5 131.5 212.5s202.167 82.5 343.5 82.5c61.333 0 125.833 -5.16699 193.5 -15.5s137.834 -25.5 210.501 -45.5l6 -11l-4 -18l-12 -4c-66 17.333 -129.167 30.5 -189.5 39.5s-117.5 13.5 -171.5 13.5c-115.333 0 -205.666 -23.5 -270.999 -70.5
s-98 -111.5 -98 -193.5c0 -79.333 35.5 -140.5 106.5 -183.5s171.5 -64.5 301.5 -64.5c59.333 0 121.166 4.66699 185.499 14s130.833 23 199.5 41c-22.667 20 -39.667 43 -51 69s-17 55.667 -17 89c0 52.667 15.333 99.334 46 140.001s81.667 82 153 124
c45.333 27.333 99.5 48.833 162.5 64.5s126.167 23.5 189.5 23.5c68.667 0 122 -12.667 160 -38s57 -60.333 57 -105c0 -66 -45.167 -129.5 -135.5 -190.5s-225.166 -119.833 -404.499 -176.5c26.667 -21.333 57.667 -39.333 93 -54s80.666 -27.334 135.999 -38.001l8 -10
v-21l-10 -6c-205.333 -28.667 -371.333 -91.167 -498 -187.5s-190 -205.166 -190 -326.499c0 -79.333 29.5 -141.833 88.5 -187.5s140.167 -68.5 243.5 -68.5c116.667 0 216.5 27.833 299.5 83.5s124.5 120.834 124.5 195.501c0 44 -16.167 79.167 -48.5 105.5
s-74.833 39.5 -127.5 39.5c-48 0 -102.167 -13.5 -162.5 -40.5s-129.166 -68.833 -206.499 -125.5l-10 2l-11 15l2 12c90 70 173.667 122.333 251 157s149.333 52 216 52c65.333 0 119.333 -16.833 162 -50.5s64 -75.5 64 -125.5c0 -40 -12.333 -78.667 -37 -116
s-62.334 -74 -113.001 -110c-65.333 -46.667 -137.166 -82.5 -215.499 -107.5s-158.833 -37.5 -241.5 -37.5c-132.667 0 -239.5 29 -320.5 87s-121.5 134 -121.5 228c0 122.667 66.667 232.167 200 328.5s311.666 161.833 534.999 196.5zM1657 1554
c-36 0 -61 3.00098 -75 9.00098s-21 16 -21 30c0 33.333 3 60.166 9 80.499s14 30.5 24 30.5c1.33301 0 13.333 -2.5 36 -7.5s45.667 -9.5 69 -13.5c6.66699 -0.666992 13.334 -9.33398 20.001 -26.001s10 -36 10 -58c0 -17.333 -4.83301 -29.166 -14.5 -35.499
s-28.834 -9.5 -57.501 -9.5zM1329 1554c-35.333 0 -59.833 2.99902 -73.5 8.99902s-20.5 16 -20.5 30c0 34 2.83301 61 8.5 81s13.167 30 22.5 30c1.33301 0 13.333 -2.5 36 -7.5s45.667 -9.5 69 -13.5c8 -1.33301 15.333 -10.333 22 -27s10 -35.667 10 -57
c0 -17.333 -5 -29.166 -15 -35.499s-29.667 -9.5 -59 -9.5z" />
    <glyph glyph-name="Igrave" unicode="&#xcc;" horiz-adv-x="1532" 
d="M1139 1090c-74 -8.66699 -150.5 -34.832 -229.5 -78.499s-156.833 -102.834 -233.5 -177.501h37c102.667 0 191.5 22.5 266.5 67.5s128.167 107.833 159.5 188.5zM1272 1128c-50.667 -106 -128.998 -190.502 -234.998 -253.502s-223.667 -94.5 -353 -94.5
c-13.333 0 -24 0.166992 -32 0.5s-15.667 0.833008 -23 1.5c-33.333 -43.333 -64.833 -88.833 -94.5 -136.5s-57.5 -97.5 -83.5 -149.5l-13 -7l-18 9l-4 12c16 43.333 37.667 88.5 65 135.5s60.333 95.5 99 145.5c-99.333 10.667 -179.833 42.334 -241.5 95.001
s-92.5 114.334 -92.5 185.001c0 95.333 58.667 176.5 176 243.5s265.333 100.5 444 100.5c188 0 335.333 -45.333 442 -136s160 -215.334 160 -374.001c0 -54.667 -6.16699 -112.5 -18.5 -173.5s-30.5 -124.5 -54.5 -190.5c-28.667 -76 -62.334 -146.333 -101.001 -211
s-81 -121.334 -127 -170.001c-78.667 -84 -166 -150.167 -262 -198.5s-187.333 -72.5 -274 -72.5c-68 0 -121.167 14.167 -159.5 42.5s-57.5 66.833 -57.5 115.5c0 55.333 26.167 106 78.5 152s118.833 75.333 199.5 88l10 -6l3 -15l-3 -12
c-56 -17.333 -99.333 -40.666 -130 -69.999s-46 -62.666 -46 -99.999c0 -40.667 16 -73.334 48 -98.001s74 -37 126 -37c67.333 0 135 19.333 203 58s128 92.334 180 161.001c72 93.333 128 203.833 168 331.5s60 259.5 60 395.5c0 46 -3.33301 88.333 -10 127
s-16.334 74 -29.001 106zM1262 1151c-32.667 70.667 -85.666 124.833 -158.999 162.5s-162.333 56.5 -267 56.5c-135.333 0 -247.333 -28 -336 -84s-133 -125 -133 -207c0 -58 21.833 -107.833 65.5 -149.5s105.5 -71.5 185.5 -89.5c102.667 102 205.667 179.667 309 233
s202.666 80 297.999 80c4 0 10 -0.333008 18 -1s14.333 -1 19 -1zM887.003 1741l119 -226.001h-56l-149 172c-9.33301 10.667 -16.5 21.334 -21.5 32.001s-7.5 20 -7.5 28c0 12 5.33301 22.833 16 32.5s23 14.5 37 14.5c12.667 0 23.167 -3.33301 31.5 -10
s18.5 -21 30.5 -43z" />
    <glyph glyph-name="Iacute" unicode="&#xcd;" horiz-adv-x="1532" 
d="M1139 1090c-74 -8.66699 -150.5 -34.832 -229.5 -78.499s-156.833 -102.834 -233.5 -177.501h37c102.667 0 191.5 22.5 266.5 67.5s128.167 107.833 159.5 188.5zM1272 1128c-50.667 -106 -128.998 -190.502 -234.998 -253.502s-223.667 -94.5 -353 -94.5
c-13.333 0 -24 0.166992 -32 0.5s-15.667 0.833008 -23 1.5c-33.333 -43.333 -64.833 -88.833 -94.5 -136.5s-57.5 -97.5 -83.5 -149.5l-13 -7l-18 9l-4 12c16 43.333 37.667 88.5 65 135.5s60.333 95.5 99 145.5c-99.333 10.667 -179.833 42.334 -241.5 95.001
s-92.5 114.334 -92.5 185.001c0 95.333 58.667 176.5 176 243.5s265.333 100.5 444 100.5c188 0 335.333 -45.333 442 -136s160 -215.334 160 -374.001c0 -54.667 -6.16699 -112.5 -18.5 -173.5s-30.5 -124.5 -54.5 -190.5c-28.667 -76 -62.334 -146.333 -101.001 -211
s-81 -121.334 -127 -170.001c-78.667 -84 -166 -150.167 -262 -198.5s-187.333 -72.5 -274 -72.5c-68 0 -121.167 14.167 -159.5 42.5s-57.5 66.833 -57.5 115.5c0 55.333 26.167 106 78.5 152s118.833 75.333 199.5 88l10 -6l3 -15l-3 -12
c-56 -17.333 -99.333 -40.666 -130 -69.999s-46 -62.666 -46 -99.999c0 -40.667 16 -73.334 48 -98.001s74 -37 126 -37c67.333 0 135 19.333 203 58s128 92.334 180 161.001c72 93.333 128 203.833 168 331.5s60 259.5 60 395.5c0 46 -3.33301 88.333 -10 127
s-16.334 74 -29.001 106zM1262 1151c-32.667 70.667 -85.666 124.833 -158.999 162.5s-162.333 56.5 -267 56.5c-135.333 0 -247.333 -28 -336 -84s-133 -125 -133 -207c0 -58 21.833 -107.833 65.5 -149.5s105.5 -71.5 185.5 -89.5c102.667 102 205.667 179.667 309 233
s202.666 80 297.999 80c4 0 10 -0.333008 18 -1s14.333 -1 19 -1zM1116 1677l-280 -162h-56l279 246c12.667 10.667 24.5 18.834 35.5 24.501s20.167 8.5 27.5 8.5c14 0 25.333 -4.83301 34 -14.5s13 -21.834 13 -36.501c0 -12 -4 -23 -12 -33s-21.667 -21 -41 -33z" />
    <glyph glyph-name="Icircumflex" unicode="&#xce;" horiz-adv-x="1532" 
d="M1139 1090c-74 -8.66699 -150.5 -34.832 -229.5 -78.499s-156.833 -102.834 -233.5 -177.501h37c102.667 0 191.5 22.5 266.5 67.5s128.167 107.833 159.5 188.5zM1272 1128c-50.667 -106 -128.998 -190.502 -234.998 -253.502s-223.667 -94.5 -353 -94.5
c-13.333 0 -24 0.166992 -32 0.5s-15.667 0.833008 -23 1.5c-33.333 -43.333 -64.833 -88.833 -94.5 -136.5s-57.5 -97.5 -83.5 -149.5l-13 -7l-18 9l-4 12c16 43.333 37.667 88.5 65 135.5s60.333 95.5 99 145.5c-99.333 10.667 -179.833 42.334 -241.5 95.001
s-92.5 114.334 -92.5 185.001c0 95.333 58.667 176.5 176 243.5s265.333 100.5 444 100.5c188 0 335.333 -45.333 442 -136s160 -215.334 160 -374.001c0 -54.667 -6.16699 -112.5 -18.5 -173.5s-30.5 -124.5 -54.5 -190.5c-28.667 -76 -62.334 -146.333 -101.001 -211
s-81 -121.334 -127 -170.001c-78.667 -84 -166 -150.167 -262 -198.5s-187.333 -72.5 -274 -72.5c-68 0 -121.167 14.167 -159.5 42.5s-57.5 66.833 -57.5 115.5c0 55.333 26.167 106 78.5 152s118.833 75.333 199.5 88l10 -6l3 -15l-3 -12
c-56 -17.333 -99.333 -40.666 -130 -69.999s-46 -62.666 -46 -99.999c0 -40.667 16 -73.334 48 -98.001s74 -37 126 -37c67.333 0 135 19.333 203 58s128 92.334 180 161.001c72 93.333 128 203.833 168 331.5s60 259.5 60 395.5c0 46 -3.33301 88.333 -10 127
s-16.334 74 -29.001 106zM1262 1151c-32.667 70.667 -85.666 124.833 -158.999 162.5s-162.333 56.5 -267 56.5c-135.333 0 -247.333 -28 -336 -84s-133 -125 -133 -207c0 -58 21.833 -107.833 65.5 -149.5s105.5 -71.5 185.5 -89.5c102.667 102 205.667 179.667 309 233
s202.666 80 297.999 80c4 0 10 -0.333008 18 -1s14.333 -1 19 -1zM911.003 1786h101l160 -271h-52l-163 181l-297 -181h-66z" />
    <glyph glyph-name="Idieresis" unicode="&#xcf;" horiz-adv-x="1532" 
d="M1139 1090c-74 -8.66699 -150.5 -34.832 -229.5 -78.499s-156.833 -102.834 -233.5 -177.501h37c102.667 0 191.5 22.5 266.5 67.5s128.167 107.833 159.5 188.5zM1272 1128c-50.667 -106 -128.998 -190.502 -234.998 -253.502s-223.667 -94.5 -353 -94.5
c-13.333 0 -24 0.166992 -32 0.5s-15.667 0.833008 -23 1.5c-33.333 -43.333 -64.833 -88.833 -94.5 -136.5s-57.5 -97.5 -83.5 -149.5l-13 -7l-18 9l-4 12c16 43.333 37.667 88.5 65 135.5s60.333 95.5 99 145.5c-99.333 10.667 -179.833 42.334 -241.5 95.001
s-92.5 114.334 -92.5 185.001c0 95.333 58.667 176.5 176 243.5s265.333 100.5 444 100.5c188 0 335.333 -45.333 442 -136s160 -215.334 160 -374.001c0 -54.667 -6.16699 -112.5 -18.5 -173.5s-30.5 -124.5 -54.5 -190.5c-28.667 -76 -62.334 -146.333 -101.001 -211
s-81 -121.334 -127 -170.001c-78.667 -84 -166 -150.167 -262 -198.5s-187.333 -72.5 -274 -72.5c-68 0 -121.167 14.167 -159.5 42.5s-57.5 66.833 -57.5 115.5c0 55.333 26.167 106 78.5 152s118.833 75.333 199.5 88l10 -6l3 -15l-3 -12
c-56 -17.333 -99.333 -40.666 -130 -69.999s-46 -62.666 -46 -99.999c0 -40.667 16 -73.334 48 -98.001s74 -37 126 -37c67.333 0 135 19.333 203 58s128 92.334 180 161.001c72 93.333 128 203.833 168 331.5s60 259.5 60 395.5c0 46 -3.33301 88.333 -10 127
s-16.334 74 -29.001 106zM1262 1151c-32.667 70.667 -85.666 124.833 -158.999 162.5s-162.333 56.5 -267 56.5c-135.333 0 -247.333 -28 -336 -84s-133 -125 -133 -207c0 -58 21.833 -107.833 65.5 -149.5s105.5 -71.5 185.5 -89.5c102.667 102 205.667 179.667 309 233
s202.666 80 297.999 80c4 0 10 -0.333008 18 -1s14.333 -1 19 -1zM1112 1554c-36 0 -61 3.00098 -75 9.00098s-21 16 -21 30c0 33.333 3 60.166 9 80.499s14 30.5 24 30.5c1.33301 0 13.333 -2.5 36 -7.5s45.667 -9.5 69 -13.5
c6.66699 -0.666992 13.334 -9.33398 20.001 -26.001s10 -36 10 -58c0 -17.333 -4.83301 -29.166 -14.5 -35.499s-28.834 -9.5 -57.501 -9.5zM784.003 1554c-35.333 0 -59.833 2.99902 -73.5 8.99902s-20.5 16 -20.5 30c0 34 2.83301 61 8.5 81s13.167 30 22.5 30
c1.33301 0 13.333 -2.5 36 -7.5s45.667 -9.5 69 -13.5c8 -1.33301 15.333 -10.333 22 -27s10 -35.667 10 -57c0 -17.333 -5 -29.166 -15 -35.499s-29.667 -9.5 -59 -9.5z" />
    <glyph glyph-name="Eth" unicode="&#xd0;" horiz-adv-x="1890" 
d="M739 129c-27.333 8 -55.6689 14.167 -85.002 18.5s-59.666 6.5 -90.999 6.5c-54 0 -105 -9.5 -153 -28.5s-87.667 -45.167 -119 -78.5c20.667 -8 42.334 -14 65.001 -18s46.667 -6 72 -6c64 0 122 8.83301 174 26.5s97.667 44.167 137 79.5zM863.997 137
c57.333 -23.333 110.333 -40.667 159 -52s95.334 -17 140.001 -17c147.333 0 265.833 43.833 355.5 131.5s134.5 203.5 134.5 347.5c0 111.333 -30.167 218.5 -90.5 321.5s-144.166 190.167 -251.499 261.5c-20.667 -46 -44.334 -107.333 -71.001 -184
s-60.334 -181.667 -101.001 -315h227l10 -10l-8 -29l-12 -10h-230c-35.333 -93.333 -74.833 -177 -118.5 -251s-91.5 -138.667 -143.5 -194zM828.997 99.999c-47.333 -39.333 -102.002 -68.5039 -164.002 -87.5039s-132.667 -28.5 -212 -28.5c-62.667 0 -120.667 5 -174 15
s-100 24.667 -140 44v12c40.667 50 92.334 87.5 155.001 112.5s136 37.5 220 37.5c42 0 85.5 -3.5 130.5 -10.5s90.167 -17.167 135.5 -30.5c30.667 34.667 63.5 87.834 98.5 159.501s70.5 157.834 106.5 258.501h-274l-6 12l4 27l12 10h280l18 57
c76 248.667 136.333 416 181 502c-79.333 40 -159.166 70.167 -239.499 90.5s-158.833 30.5 -235.5 30.5c-138.667 0 -249.834 -38.333 -333.501 -115s-125.5 -178.334 -125.5 -305.001c0 -70.667 18.5 -136.167 55.5 -196.5s94.5 -119.166 172.5 -176.499l4 -16l-9 -17
l-14 -2c-112.667 63.333 -197.834 133.333 -255.501 210s-86.5 159 -86.5 247c0 122.667 51.5 224.334 154.5 305.001s234.5 121 394.5 121c84.667 0 172.167 -11.167 262.5 -33.5s184.5 -56.166 282.5 -101.499c56.667 73.333 120.667 130 192 170s150 63 236 69l10 -8v-18
l-10 -10c-77.333 -16.667 -143 -46.167 -197 -88.5s-97.667 -98.166 -131 -167.499c142.667 -104.667 251.334 -215.334 326.001 -332.001s112 -234 112 -352c0 -69.333 -12.667 -134.833 -38 -196.5s-61.666 -116.5 -108.999 -164.5
c-48.667 -48.667 -104 -85.667 -166 -111s-127.667 -38 -197 -38c-56.667 0 -120.5 9.66699 -191.5 29s-149.167 48.333 -234.5 87z" />
    <glyph glyph-name="Ntilde" unicode="&#xd1;" horiz-adv-x="2169" 
d="M850 27l230.997 873.998c10 37.333 17.333 71 22 101s7 56.333 7 79c0 93.333 -32 164.166 -96 212.499s-157 72.5 -279 72.5c-147.333 0 -266.666 -30.167 -357.999 -90.5s-137 -137.5 -137 -231.5c0 -70.667 28 -127.5 84 -170.5s131 -64.5 225 -64.5
c43.333 0 88.333 5.5 135 16.5s95 28.167 145 51.5l15 -5l6 -14l-6 -16c-47.333 -26.667 -98.833 -47 -154.5 -61s-112.834 -21 -171.501 -21c-112.667 0 -204.667 27.167 -276 81.5s-107 123.5 -107 207.5c0 105.333 54.167 191.333 162.5 258s250.833 100 427.5 100
c166.667 0 295.334 -29.333 386.001 -88s136 -142 136 -250c0 -34 -6.33301 -82.167 -19 -144.5s-31.667 -138.5 -57 -228.5l-79 -274c188.667 334.667 342 572.667 460 714s220.667 212 308 212c52 0 93.667 -14.667 125 -44s47 -68.666 47 -117.999
c0 -40.667 -32.333 -152 -97 -334l-86 -246c-38.667 -115.333 -67.667 -212.5 -87 -291.5s-29 -138.167 -29 -177.5c0 -44.667 10.667 -80.334 32 -107.001s49.333 -40 84 -40c54 0 119 40.5 195 121.5s186 230.167 330 447.5c2.66699 -8 4.66699 -15.667 6 -23s2 -14 2 -20
c0 -11.333 -6.66699 -28.333 -20 -51s-45.666 -69 -96.999 -139c-114.667 -160.667 -202.167 -264.667 -262.5 -312s-123.833 -71 -190.5 -71c-56.667 0 -104.834 21.333 -144.501 64s-59.5 95 -59.5 157c0 88.667 38.333 244.334 115 467.001l38 112l25 72
c74.667 221.333 112 355.333 112 402c0 22 -6.66699 39.667 -20 53s-31 20 -53 20c-54.667 0 -125.167 -48.667 -211.5 -146s-189.166 -244.666 -308.499 -441.999c-71.333 -116.667 -129.666 -220 -174.999 -310s-79.333 -170 -102 -240
c-4.66699 -14 -10.334 -32.667 -17.001 -56c-17.333 -59.333 -39.666 -90.666 -66.999 -93.999l-76 -10h-2c-3.33301 0 -6.83301 3 -10.5 9s-5.5 12.333 -5.5 19v7zM1911 1747l45 -0.000976562c-14.667 -60.667 -36.167 -106.334 -64.5 -137.001s-63.5 -46 -105.5 -46
c-9.33301 0 -18.666 0.833008 -27.999 2.5s-18.333 3.83398 -27 6.50098l-143 38c-11.333 3.33301 -22.666 6 -33.999 8s-20 3 -26 3c-26 0 -46.667 -6.5 -62 -19.5s-26.333 -33.167 -33 -60.5h-47c16 60 37.667 104.333 65 133s61.666 43 102.999 43
c12 0 24 -0.833008 36 -2.5s24 -4.16699 36 -7.5l143 -39c9.33301 -2 18 -3.5 26 -4.5s15.333 -1.5 22 -1.5c24.667 0 44.667 6.83301 60 20.5s26.666 34.834 33.999 63.501z" />
    <glyph glyph-name="Ograve" unicode="&#xd2;" horiz-adv-x="1790" 
d="M1069 41c-71.333 40.667 -124.667 92.002 -160 154.002s-53 135.667 -53 221c-21.333 -4.66699 -45.5 -8 -72.5 -10s-60.833 -3 -101.5 -3c-24 0 -45 0.666992 -63 2s-34.667 3.66602 -50 6.99902c0 -4.66699 -0.333008 -10.834 -1 -18.501s-1 -13.167 -1 -16.5
c0 -110 33.333 -198.333 100 -265s154.334 -100 263.001 -100c22.667 0 45.667 2.5 69 7.5s46.666 12.167 69.999 21.5zM1122 61.002c54 25.333 105.665 59.832 154.998 103.499s95.333 96.167 138 157.5c70 100 123.667 204 161 312s56 213.333 56 316
c0 21.333 -2.33301 41.166 -7 59.499s-11.667 34.833 -21 49.5c-50.667 -143.333 -129.167 -266.666 -235.5 -369.999s-236.166 -182.333 -389.499 -237c-3.33301 -22 -5.83301 -42.167 -7.5 -60.5s-2.5 -36.166 -2.5 -53.499c0 -62 13.333 -117.167 40 -165.5
s64.334 -85.5 113.001 -111.5zM986.997 500.001c143.333 50.667 266.334 128.5 369.001 233.5s173.667 225.167 213 360.5c-12.667 13.333 -27.834 23.5 -45.501 30.5s-37.5 10.5 -59.5 10.5c-76.667 0 -162 -60.333 -256 -181s-167.667 -272 -221 -454zM573.998 455.001
c24.667 -5.33301 47.334 -9.16699 68.001 -11.5s40 -3.5 58 -3.5c24 0 48.833 1.33301 74.5 4s53.5 7 83.5 13c10 76 30 150.833 60 224.5s68.667 143.5 116 209.5c67.333 93.333 135.666 164.5 204.999 213.5s136.333 73.5 201 73.5c22.667 0 45.667 -3.83301 69 -11.5
s46.666 -18.834 69.999 -33.501c0.666992 4 1.33398 9 2.00098 15c1.33301 14.667 2 25.334 2 32.001c0 62 -24.5 113.667 -73.5 155s-111.833 62 -188.5 62c-78.667 0 -155.5 -22.833 -230.5 -68.5s-147.167 -113.167 -216.5 -202.5
c31.333 -7.33301 55.666 -13.5 72.999 -18.5s32 -9.5 44 -13.5l8 -11l-6 -16l-12 -2l-13 2c-56 10 -96 16 -120 18c-68.667 -92.667 -126.167 -192.5 -172.5 -299.5s-80.166 -217.167 -101.499 -330.5zM433.998 489c14.667 110.667 44.001 217 88.001 319
s101.333 197.333 172 286h-6c-36.667 2.66699 -63.334 4 -80.001 4c-132 0 -238 -28.833 -318 -86.5s-120 -133.5 -120 -227.5c0 -66 22 -123.667 66 -173s110 -90 198 -122zM1118 14c-33.333 -13.333 -66.832 -23.499 -100.499 -30.499s-67.834 -10.5 -102.501 -10.5
c-134.667 0 -246.667 43 -336 129s-137.666 198 -144.999 336c-119.333 42.667 -209.833 94.834 -271.5 156.501s-92.5 131.167 -92.5 208.5c0 99.333 49.667 181.166 149 245.499s229 96.5 389 96.5c18.667 0 38 -0.5 58 -1.5s41.667 -2.5 65 -4.5
c94 98.667 191.167 173.834 291.5 225.501s199.833 77.5 298.5 77.5c92 0 165.5 -24 220.5 -72s82.5 -111.333 82.5 -190c0 -13.333 -0.666992 -26.166 -2 -38.499s-3.33301 -24.833 -6 -37.5c26 -28 45.833 -63.5 59.5 -106.5s20.5 -91.5 20.5 -145.5
c0 -70.667 -12.833 -144.834 -38.5 -222.501s-63.5 -155.834 -113.5 -234.501c-50.667 -79.333 -107 -148.666 -169 -207.999s-129 -108 -201 -146c16.667 -8 35.167 -14.167 55.5 -18.5s41.166 -6.5 62.499 -6.5c96 0 193.667 37.667 293 113s222.333 207.666 369 396.999
c2 -3.33301 3.5 -6.83301 4.5 -10.5s1.5 -7.5 1.5 -11.5c0 -18 -8.83301 -40.333 -26.5 -67s-54.5 -71.334 -110.5 -134.001c-108.667 -121.333 -203.167 -206 -283.5 -254s-164.833 -72 -253.5 -72c-28.667 0 -57.167 3.16699 -85.5 9.5s-55.833 15.5 -82.5 27.5z
M1348 1741l119 -226.001h-56l-149 172c-9.33301 10.667 -16.5 21.334 -21.5 32.001s-7.5 20 -7.5 28c0 12 5.33301 22.833 16 32.5s23 14.5 37 14.5c12.667 0 23.167 -3.33301 31.5 -10s18.5 -21 30.5 -43z" />
    <glyph glyph-name="Oacute" unicode="&#xd3;" horiz-adv-x="1790" 
d="M1069 41c-71.333 40.667 -124.667 92.002 -160 154.002s-53 135.667 -53 221c-21.333 -4.66699 -45.5 -8 -72.5 -10s-60.833 -3 -101.5 -3c-24 0 -45 0.666992 -63 2s-34.667 3.66602 -50 6.99902c0 -4.66699 -0.333008 -10.834 -1 -18.501s-1 -13.167 -1 -16.5
c0 -110 33.333 -198.333 100 -265s154.334 -100 263.001 -100c22.667 0 45.667 2.5 69 7.5s46.666 12.167 69.999 21.5zM1122 61.002c54 25.333 105.665 59.832 154.998 103.499s95.333 96.167 138 157.5c70 100 123.667 204 161 312s56 213.333 56 316
c0 21.333 -2.33301 41.166 -7 59.499s-11.667 34.833 -21 49.5c-50.667 -143.333 -129.167 -266.666 -235.5 -369.999s-236.166 -182.333 -389.499 -237c-3.33301 -22 -5.83301 -42.167 -7.5 -60.5s-2.5 -36.166 -2.5 -53.499c0 -62 13.333 -117.167 40 -165.5
s64.334 -85.5 113.001 -111.5zM986.997 500.001c143.333 50.667 266.334 128.5 369.001 233.5s173.667 225.167 213 360.5c-12.667 13.333 -27.834 23.5 -45.501 30.5s-37.5 10.5 -59.5 10.5c-76.667 0 -162 -60.333 -256 -181s-167.667 -272 -221 -454zM573.998 455.001
c24.667 -5.33301 47.334 -9.16699 68.001 -11.5s40 -3.5 58 -3.5c24 0 48.833 1.33301 74.5 4s53.5 7 83.5 13c10 76 30 150.833 60 224.5s68.667 143.5 116 209.5c67.333 93.333 135.666 164.5 204.999 213.5s136.333 73.5 201 73.5c22.667 0 45.667 -3.83301 69 -11.5
s46.666 -18.834 69.999 -33.501c0.666992 4 1.33398 9 2.00098 15c1.33301 14.667 2 25.334 2 32.001c0 62 -24.5 113.667 -73.5 155s-111.833 62 -188.5 62c-78.667 0 -155.5 -22.833 -230.5 -68.5s-147.167 -113.167 -216.5 -202.5
c31.333 -7.33301 55.666 -13.5 72.999 -18.5s32 -9.5 44 -13.5l8 -11l-6 -16l-12 -2l-13 2c-56 10 -96 16 -120 18c-68.667 -92.667 -126.167 -192.5 -172.5 -299.5s-80.166 -217.167 -101.499 -330.5zM433.998 489c14.667 110.667 44.001 217 88.001 319
s101.333 197.333 172 286h-6c-36.667 2.66699 -63.334 4 -80.001 4c-132 0 -238 -28.833 -318 -86.5s-120 -133.5 -120 -227.5c0 -66 22 -123.667 66 -173s110 -90 198 -122zM1118 14c-33.333 -13.333 -66.832 -23.499 -100.499 -30.499s-67.834 -10.5 -102.501 -10.5
c-134.667 0 -246.667 43 -336 129s-137.666 198 -144.999 336c-119.333 42.667 -209.833 94.834 -271.5 156.501s-92.5 131.167 -92.5 208.5c0 99.333 49.667 181.166 149 245.499s229 96.5 389 96.5c18.667 0 38 -0.5 58 -1.5s41.667 -2.5 65 -4.5
c94 98.667 191.167 173.834 291.5 225.501s199.833 77.5 298.5 77.5c92 0 165.5 -24 220.5 -72s82.5 -111.333 82.5 -190c0 -13.333 -0.666992 -26.166 -2 -38.499s-3.33301 -24.833 -6 -37.5c26 -28 45.833 -63.5 59.5 -106.5s20.5 -91.5 20.5 -145.5
c0 -70.667 -12.833 -144.834 -38.5 -222.501s-63.5 -155.834 -113.5 -234.501c-50.667 -79.333 -107 -148.666 -169 -207.999s-129 -108 -201 -146c16.667 -8 35.167 -14.167 55.5 -18.5s41.166 -6.5 62.499 -6.5c96 0 193.667 37.667 293 113s222.333 207.666 369 396.999
c2 -3.33301 3.5 -6.83301 4.5 -10.5s1.5 -7.5 1.5 -11.5c0 -18 -8.83301 -40.333 -26.5 -67s-54.5 -71.334 -110.5 -134.001c-108.667 -121.333 -203.167 -206 -283.5 -254s-164.833 -72 -253.5 -72c-28.667 0 -57.167 3.16699 -85.5 9.5s-55.833 15.5 -82.5 27.5z
M1577 1677l-280 -162h-56l279 246c12.667 10.667 24.5 18.834 35.5 24.501s20.167 8.5 27.5 8.5c14 0 25.333 -4.83301 34 -14.5s13 -21.834 13 -36.501c0 -12 -4 -23 -12 -33s-21.667 -21 -41 -33z" />
    <glyph glyph-name="Ocircumflex" unicode="&#xd4;" horiz-adv-x="1790" 
d="M1069 41c-71.333 40.667 -124.667 92.002 -160 154.002s-53 135.667 -53 221c-21.333 -4.66699 -45.5 -8 -72.5 -10s-60.833 -3 -101.5 -3c-24 0 -45 0.666992 -63 2s-34.667 3.66602 -50 6.99902c0 -4.66699 -0.333008 -10.834 -1 -18.501s-1 -13.167 -1 -16.5
c0 -110 33.333 -198.333 100 -265s154.334 -100 263.001 -100c22.667 0 45.667 2.5 69 7.5s46.666 12.167 69.999 21.5zM1122 61.002c54 25.333 105.665 59.832 154.998 103.499s95.333 96.167 138 157.5c70 100 123.667 204 161 312s56 213.333 56 316
c0 21.333 -2.33301 41.166 -7 59.499s-11.667 34.833 -21 49.5c-50.667 -143.333 -129.167 -266.666 -235.5 -369.999s-236.166 -182.333 -389.499 -237c-3.33301 -22 -5.83301 -42.167 -7.5 -60.5s-2.5 -36.166 -2.5 -53.499c0 -62 13.333 -117.167 40 -165.5
s64.334 -85.5 113.001 -111.5zM986.997 500.001c143.333 50.667 266.334 128.5 369.001 233.5s173.667 225.167 213 360.5c-12.667 13.333 -27.834 23.5 -45.501 30.5s-37.5 10.5 -59.5 10.5c-76.667 0 -162 -60.333 -256 -181s-167.667 -272 -221 -454zM573.998 455.001
c24.667 -5.33301 47.334 -9.16699 68.001 -11.5s40 -3.5 58 -3.5c24 0 48.833 1.33301 74.5 4s53.5 7 83.5 13c10 76 30 150.833 60 224.5s68.667 143.5 116 209.5c67.333 93.333 135.666 164.5 204.999 213.5s136.333 73.5 201 73.5c22.667 0 45.667 -3.83301 69 -11.5
s46.666 -18.834 69.999 -33.501c0.666992 4 1.33398 9 2.00098 15c1.33301 14.667 2 25.334 2 32.001c0 62 -24.5 113.667 -73.5 155s-111.833 62 -188.5 62c-78.667 0 -155.5 -22.833 -230.5 -68.5s-147.167 -113.167 -216.5 -202.5
c31.333 -7.33301 55.666 -13.5 72.999 -18.5s32 -9.5 44 -13.5l8 -11l-6 -16l-12 -2l-13 2c-56 10 -96 16 -120 18c-68.667 -92.667 -126.167 -192.5 -172.5 -299.5s-80.166 -217.167 -101.499 -330.5zM433.998 489c14.667 110.667 44.001 217 88.001 319
s101.333 197.333 172 286h-6c-36.667 2.66699 -63.334 4 -80.001 4c-132 0 -238 -28.833 -318 -86.5s-120 -133.5 -120 -227.5c0 -66 22 -123.667 66 -173s110 -90 198 -122zM1118 14c-33.333 -13.333 -66.832 -23.499 -100.499 -30.499s-67.834 -10.5 -102.501 -10.5
c-134.667 0 -246.667 43 -336 129s-137.666 198 -144.999 336c-119.333 42.667 -209.833 94.834 -271.5 156.501s-92.5 131.167 -92.5 208.5c0 99.333 49.667 181.166 149 245.499s229 96.5 389 96.5c18.667 0 38 -0.5 58 -1.5s41.667 -2.5 65 -4.5
c94 98.667 191.167 173.834 291.5 225.501s199.833 77.5 298.5 77.5c92 0 165.5 -24 220.5 -72s82.5 -111.333 82.5 -190c0 -13.333 -0.666992 -26.166 -2 -38.499s-3.33301 -24.833 -6 -37.5c26 -28 45.833 -63.5 59.5 -106.5s20.5 -91.5 20.5 -145.5
c0 -70.667 -12.833 -144.834 -38.5 -222.501s-63.5 -155.834 -113.5 -234.501c-50.667 -79.333 -107 -148.666 -169 -207.999s-129 -108 -201 -146c16.667 -8 35.167 -14.167 55.5 -18.5s41.166 -6.5 62.499 -6.5c96 0 193.667 37.667 293 113s222.333 207.666 369 396.999
c2 -3.33301 3.5 -6.83301 4.5 -10.5s1.5 -7.5 1.5 -11.5c0 -18 -8.83301 -40.333 -26.5 -67s-54.5 -71.334 -110.5 -134.001c-108.667 -121.333 -203.167 -206 -283.5 -254s-164.833 -72 -253.5 -72c-28.667 0 -57.167 3.16699 -85.5 9.5s-55.833 15.5 -82.5 27.5z
M1372 1786h101l160 -271h-52l-163 181l-297 -181h-66z" />
    <glyph glyph-name="Otilde" unicode="&#xd5;" horiz-adv-x="1790" 
d="M1069 41c-71.333 40.667 -124.667 92.002 -160 154.002s-53 135.667 -53 221c-21.333 -4.66699 -45.5 -8 -72.5 -10s-60.833 -3 -101.5 -3c-24 0 -45 0.666992 -63 2s-34.667 3.66602 -50 6.99902c0 -4.66699 -0.333008 -10.834 -1 -18.501s-1 -13.167 -1 -16.5
c0 -110 33.333 -198.333 100 -265s154.334 -100 263.001 -100c22.667 0 45.667 2.5 69 7.5s46.666 12.167 69.999 21.5zM1122 61.002c54 25.333 105.665 59.832 154.998 103.499s95.333 96.167 138 157.5c70 100 123.667 204 161 312s56 213.333 56 316
c0 21.333 -2.33301 41.166 -7 59.499s-11.667 34.833 -21 49.5c-50.667 -143.333 -129.167 -266.666 -235.5 -369.999s-236.166 -182.333 -389.499 -237c-3.33301 -22 -5.83301 -42.167 -7.5 -60.5s-2.5 -36.166 -2.5 -53.499c0 -62 13.333 -117.167 40 -165.5
s64.334 -85.5 113.001 -111.5zM986.997 500.001c143.333 50.667 266.334 128.5 369.001 233.5s173.667 225.167 213 360.5c-12.667 13.333 -27.834 23.5 -45.501 30.5s-37.5 10.5 -59.5 10.5c-76.667 0 -162 -60.333 -256 -181s-167.667 -272 -221 -454zM573.998 455.001
c24.667 -5.33301 47.334 -9.16699 68.001 -11.5s40 -3.5 58 -3.5c24 0 48.833 1.33301 74.5 4s53.5 7 83.5 13c10 76 30 150.833 60 224.5s68.667 143.5 116 209.5c67.333 93.333 135.666 164.5 204.999 213.5s136.333 73.5 201 73.5c22.667 0 45.667 -3.83301 69 -11.5
s46.666 -18.834 69.999 -33.501c0.666992 4 1.33398 9 2.00098 15c1.33301 14.667 2 25.334 2 32.001c0 62 -24.5 113.667 -73.5 155s-111.833 62 -188.5 62c-78.667 0 -155.5 -22.833 -230.5 -68.5s-147.167 -113.167 -216.5 -202.5
c31.333 -7.33301 55.666 -13.5 72.999 -18.5s32 -9.5 44 -13.5l8 -11l-6 -16l-12 -2l-13 2c-56 10 -96 16 -120 18c-68.667 -92.667 -126.167 -192.5 -172.5 -299.5s-80.166 -217.167 -101.499 -330.5zM433.998 489c14.667 110.667 44.001 217 88.001 319
s101.333 197.333 172 286h-6c-36.667 2.66699 -63.334 4 -80.001 4c-132 0 -238 -28.833 -318 -86.5s-120 -133.5 -120 -227.5c0 -66 22 -123.667 66 -173s110 -90 198 -122zM1118 14c-33.333 -13.333 -66.832 -23.499 -100.499 -30.499s-67.834 -10.5 -102.501 -10.5
c-134.667 0 -246.667 43 -336 129s-137.666 198 -144.999 336c-119.333 42.667 -209.833 94.834 -271.5 156.501s-92.5 131.167 -92.5 208.5c0 99.333 49.667 181.166 149 245.499s229 96.5 389 96.5c18.667 0 38 -0.5 58 -1.5s41.667 -2.5 65 -4.5
c94 98.667 191.167 173.834 291.5 225.501s199.833 77.5 298.5 77.5c92 0 165.5 -24 220.5 -72s82.5 -111.333 82.5 -190c0 -13.333 -0.666992 -26.166 -2 -38.499s-3.33301 -24.833 -6 -37.5c26 -28 45.833 -63.5 59.5 -106.5s20.5 -91.5 20.5 -145.5
c0 -70.667 -12.833 -144.834 -38.5 -222.501s-63.5 -155.834 -113.5 -234.501c-50.667 -79.333 -107 -148.666 -169 -207.999s-129 -108 -201 -146c16.667 -8 35.167 -14.167 55.5 -18.5s41.166 -6.5 62.499 -6.5c96 0 193.667 37.667 293 113s222.333 207.666 369 396.999
c2 -3.33301 3.5 -6.83301 4.5 -10.5s1.5 -7.5 1.5 -11.5c0 -18 -8.83301 -40.333 -26.5 -67s-54.5 -71.334 -110.5 -134.001c-108.667 -121.333 -203.167 -206 -283.5 -254s-164.833 -72 -253.5 -72c-28.667 0 -57.167 3.16699 -85.5 9.5s-55.833 15.5 -82.5 27.5z
M1643 1747l45 -0.000976562c-14.667 -60.667 -36.167 -106.334 -64.5 -137.001s-63.5 -46 -105.5 -46c-9.33301 0 -18.666 0.833008 -27.999 2.5s-18.333 3.83398 -27 6.50098l-143 38c-11.333 3.33301 -22.666 6 -33.999 8s-20 3 -26 3c-26 0 -46.667 -6.5 -62 -19.5
s-26.333 -33.167 -33 -60.5h-47c16 60 37.667 104.333 65 133s61.666 43 102.999 43c12 0 24 -0.833008 36 -2.5s24 -4.16699 36 -7.5l143 -39c9.33301 -2 18 -3.5 26 -4.5s15.333 -1.5 22 -1.5c24.667 0 44.667 6.83301 60 20.5s26.666 34.834 33.999 63.501z" />
    <glyph glyph-name="Odieresis" unicode="&#xd6;" horiz-adv-x="1790" 
d="M1069 41c-71.333 40.667 -124.667 92.002 -160 154.002s-53 135.667 -53 221c-21.333 -4.66699 -45.5 -8 -72.5 -10s-60.833 -3 -101.5 -3c-24 0 -45 0.666992 -63 2s-34.667 3.66602 -50 6.99902c0 -4.66699 -0.333008 -10.834 -1 -18.501s-1 -13.167 -1 -16.5
c0 -110 33.333 -198.333 100 -265s154.334 -100 263.001 -100c22.667 0 45.667 2.5 69 7.5s46.666 12.167 69.999 21.5zM1122 61.002c54 25.333 105.665 59.832 154.998 103.499s95.333 96.167 138 157.5c70 100 123.667 204 161 312s56 213.333 56 316
c0 21.333 -2.33301 41.166 -7 59.499s-11.667 34.833 -21 49.5c-50.667 -143.333 -129.167 -266.666 -235.5 -369.999s-236.166 -182.333 -389.499 -237c-3.33301 -22 -5.83301 -42.167 -7.5 -60.5s-2.5 -36.166 -2.5 -53.499c0 -62 13.333 -117.167 40 -165.5
s64.334 -85.5 113.001 -111.5zM986.997 500.001c143.333 50.667 266.334 128.5 369.001 233.5s173.667 225.167 213 360.5c-12.667 13.333 -27.834 23.5 -45.501 30.5s-37.5 10.5 -59.5 10.5c-76.667 0 -162 -60.333 -256 -181s-167.667 -272 -221 -454zM573.998 455.001
c24.667 -5.33301 47.334 -9.16699 68.001 -11.5s40 -3.5 58 -3.5c24 0 48.833 1.33301 74.5 4s53.5 7 83.5 13c10 76 30 150.833 60 224.5s68.667 143.5 116 209.5c67.333 93.333 135.666 164.5 204.999 213.5s136.333 73.5 201 73.5c22.667 0 45.667 -3.83301 69 -11.5
s46.666 -18.834 69.999 -33.501c0.666992 4 1.33398 9 2.00098 15c1.33301 14.667 2 25.334 2 32.001c0 62 -24.5 113.667 -73.5 155s-111.833 62 -188.5 62c-78.667 0 -155.5 -22.833 -230.5 -68.5s-147.167 -113.167 -216.5 -202.5
c31.333 -7.33301 55.666 -13.5 72.999 -18.5s32 -9.5 44 -13.5l8 -11l-6 -16l-12 -2l-13 2c-56 10 -96 16 -120 18c-68.667 -92.667 -126.167 -192.5 -172.5 -299.5s-80.166 -217.167 -101.499 -330.5zM433.998 489c14.667 110.667 44.001 217 88.001 319
s101.333 197.333 172 286h-6c-36.667 2.66699 -63.334 4 -80.001 4c-132 0 -238 -28.833 -318 -86.5s-120 -133.5 -120 -227.5c0 -66 22 -123.667 66 -173s110 -90 198 -122zM1118 14c-33.333 -13.333 -66.832 -23.499 -100.499 -30.499s-67.834 -10.5 -102.501 -10.5
c-134.667 0 -246.667 43 -336 129s-137.666 198 -144.999 336c-119.333 42.667 -209.833 94.834 -271.5 156.501s-92.5 131.167 -92.5 208.5c0 99.333 49.667 181.166 149 245.499s229 96.5 389 96.5c18.667 0 38 -0.5 58 -1.5s41.667 -2.5 65 -4.5
c94 98.667 191.167 173.834 291.5 225.501s199.833 77.5 298.5 77.5c92 0 165.5 -24 220.5 -72s82.5 -111.333 82.5 -190c0 -13.333 -0.666992 -26.166 -2 -38.499s-3.33301 -24.833 -6 -37.5c26 -28 45.833 -63.5 59.5 -106.5s20.5 -91.5 20.5 -145.5
c0 -70.667 -12.833 -144.834 -38.5 -222.501s-63.5 -155.834 -113.5 -234.501c-50.667 -79.333 -107 -148.666 -169 -207.999s-129 -108 -201 -146c16.667 -8 35.167 -14.167 55.5 -18.5s41.166 -6.5 62.499 -6.5c96 0 193.667 37.667 293 113s222.333 207.666 369 396.999
c2 -3.33301 3.5 -6.83301 4.5 -10.5s1.5 -7.5 1.5 -11.5c0 -18 -8.83301 -40.333 -26.5 -67s-54.5 -71.334 -110.5 -134.001c-108.667 -121.333 -203.167 -206 -283.5 -254s-164.833 -72 -253.5 -72c-28.667 0 -57.167 3.16699 -85.5 9.5s-55.833 15.5 -82.5 27.5z
M1573 1554c-36 0 -61 3.00098 -75 9.00098s-21 16 -21 30c0 33.333 3 60.166 9 80.499s14 30.5 24 30.5c1.33301 0 13.333 -2.5 36 -7.5s45.667 -9.5 69 -13.5c6.66699 -0.666992 13.334 -9.33398 20.001 -26.001s10 -36 10 -58c0 -17.333 -4.83301 -29.166 -14.5 -35.499
s-28.834 -9.5 -57.501 -9.5zM1245 1554c-35.333 0 -59.833 2.99902 -73.5 8.99902s-20.5 16 -20.5 30c0 34 2.83301 61 8.5 81s13.167 30 22.5 30c1.33301 0 13.333 -2.5 36 -7.5s45.667 -9.5 69 -13.5c8 -1.33301 15.333 -10.333 22 -27s10 -35.667 10 -57
c0 -17.333 -5 -29.166 -15 -35.499s-29.667 -9.5 -59 -9.5z" />
    <glyph glyph-name="multiply" unicode="&#xd7;" horiz-adv-x="1706" 
d="M375 1161l481 -481l481 481l70 -67l-481 -484l481 -481l-70 -68l-481 482l-481 -482l-70 68l481 481l-481 484z" />
    <glyph glyph-name="Oslash" unicode="&#xd8;" horiz-adv-x="1790" 
d="M1069 41c-71.333 40.667 -124.667 92.002 -160 154.002s-53 135.667 -53 221c-21.333 -4.66699 -45.5 -8 -72.5 -10s-60.833 -3 -101.5 -3c-24 0 -45 0.666992 -63 2s-34.667 3.66602 -50 6.99902c0 -4.66699 -0.333008 -10.834 -1 -18.501s-1 -13.167 -1 -16.5
c0 -110 33.333 -198.333 100 -265s154.334 -100 263.001 -100c22.667 0 45.667 2.5 69 7.5s46.666 12.167 69.999 21.5zM431.999 489.002c14.667 109.333 43.999 215.167 87.999 317.5s102 197.833 174 286.5c-24.667 2 -43.167 3.33301 -55.5 4s-23.166 1 -32.499 1
c-132 0 -237.667 -28.833 -317 -86.5s-119 -133.5 -119 -227.5c0 -66.667 21.833 -124.5 65.5 -173.5s109.167 -89.5 196.5 -121.5zM573.998 455.003c24.667 -5.33301 47.334 -9.16602 68.001 -11.499s40 -3.5 58 -3.5c24 0 48.833 1.33301 74.5 4s53.5 7 83.5 13
c10 76 30 150.833 60 224.5s68.667 143.5 116 209.5c67.333 93.333 135.666 164.5 204.999 213.5s136.333 73.5 201 73.5c22 0 44.333 -3.83301 67 -11.5s46 -18.834 70 -33.501c0.666992 6 1.83398 14.167 3.50098 24.5s2.5 17.833 2.5 22.5
c0 62 -24.833 113.667 -74.5 155s-112.834 62 -189.501 62c-78.667 0 -155.5 -22.833 -230.5 -68.5s-146.833 -112.834 -215.5 -201.501l91 -26c11.333 -3.33301 19.666 -5.66602 24.999 -6.99902l8 -13l-8 -14l-10 -4c-35.333 6.66699 -62 11.5 -80 14.5s-35 5.5 -51 7.5
c-68.667 -92.667 -126.167 -192.5 -172.5 -299.5s-80.166 -217.167 -101.499 -330.5zM984.998 500.003c144 50.667 267.499 128.5 370.499 233.5s174.167 225.167 213.5 360.5c-12.667 13.333 -27.834 23.5 -45.501 30.5s-37.5 10.5 -59.5 10.5
c-77.333 0 -163.166 -60.5 -257.499 -181.5s-168.166 -272.167 -221.499 -453.5zM1122 61.0029c54 25.333 105.665 59.832 154.998 103.499s95.333 96.167 138 157.5c69.333 98.667 122.5 202.167 159.5 310.5s55.5 214.166 55.5 317.499c0 22.667 -2.16699 43 -6.5 61
s-10.833 34 -19.5 48c-50.667 -143.333 -129.167 -266.666 -235.5 -369.999s-236.166 -182.333 -389.499 -237c-3.33301 -22 -5.83301 -42.167 -7.5 -60.5s-2.5 -36.166 -2.5 -53.499c0 -62 13.333 -117.167 40 -165.5s64.334 -85.5 113.001 -111.5zM1118 14.002
c-33.333 -13.333 -66.999 -23.498 -100.999 -30.498s-68.667 -10.5 -104 -10.5c-34 0 -68.167 3.66699 -102.5 11s-67.5 18 -99.5 32l-211 -348l-15 -2l-34 21l-2 14l202 346c-66.667 41.333 -118.667 95.5 -156 162.5s-57.666 143.167 -60.999 228.5
c-120 42.667 -211 94.834 -273 156.501s-93 131.167 -93 208.5c0 99.333 50 181.166 150 245.499s230 96.5 390 96.5c18.667 0 38 -0.5 58 -1.5s41.667 -2.5 65 -4.5c96.667 101.333 195.167 176.833 295.5 226.5s204.5 74.5 312.5 74.5c24 0 47.167 -2.33301 69.5 -7
s43.833 -11.334 64.5 -20.001l204 338h13l41 -25l2 -14l-201 -336c30.667 -26.667 53.667 -56.667 69 -90s23 -70 23 -110c0 -12 -0.666992 -23.833 -2 -35.5s-3.33301 -23.834 -6 -36.501c26 -28 45.833 -63.5 59.5 -106.5s20.5 -91.5 20.5 -145.5
c0 -70.667 -12.833 -144.834 -38.5 -222.501s-63.5 -155.834 -113.5 -234.501c-50.667 -79.333 -107 -148.666 -169 -207.999s-129 -108 -201 -146c17.333 -8 35.666 -14.167 54.999 -18.5s39.666 -6.5 60.999 -6.5c96.667 0 194.834 37.667 294.501 113
s218.167 202 355.5 380c1.33301 -2 2.66602 -5.16699 3.99902 -9.5s2 -8.5 2 -12.5c0 -16 -8.66699 -37.167 -26 -63.5s-52.333 -69.166 -105 -128.499c-105.333 -118 -197.833 -200.5 -277.5 -247.5s-163.5 -70.5 -251.5 -70.5c-28.667 0 -57.167 3.16699 -85.5 9.5
s-55.833 15.5 -82.5 27.5z" />
    </font>
</defs>
</svg>
