<?xml version="1.0" standalone="no"?>
<!DOCTYPE svg PUBLIC "-//W3C//DTD SVG 1.1//EN" "http://www.w3.org/Graphics/SVG/1.1/DTD/svg11.dtd" >
<svg>
<metadata>
Created by FontForge 20120731 at Mon Dec  1 04:26:07 2014
 By Orthosie Webhosting
Copyright (c) 2006, Nick Curtis. All Rights Reserved. Distributed under the 1001Fonts Free For Personal Use License (FFP) http://www.1001fonts.com/licenses/ffp.html - PayPal donations in any amount may be made at nicksfonts.com.
</metadata>
<defs>
<font id="AeroviasBrasilNF" horiz-adv-x="364" >
  <font-face 
    font-family="Aerovias Brasil NF"
    font-weight="400"
    font-stretch="normal"
    units-per-em="1000"
    panose-1="2 1 6 6 2 2 3 9 3 3"
    ascent="846"
    descent="-154"
    x-height="517"
    cap-height="681"
    bbox="-167 -203 2142 847"
    underline-thickness="20"
    underline-position="-113"
    unicode-range="U+0020-2212"
  />
<missing-glyph horiz-adv-x="300" 
 />
    <glyph glyph-name=".notdef" horiz-adv-x="300" 
 />
    <glyph glyph-name=".null" horiz-adv-x="0" 
 />
    <glyph glyph-name="nonmarkingreturn" horiz-adv-x="333" 
 />
    <glyph glyph-name="space" unicode=" " horiz-adv-x="300" 
 />
    <glyph glyph-name="exclam" unicode="!" horiz-adv-x="114" 
d="M167 517l-113 -421h-82l113 421h82zM48 73l-19 -73h-82l19 73h82z" />
    <glyph glyph-name="quotedbl" unicode="&#x22;" horiz-adv-x="290" 
d="M296 517l-44 -163h-82l44 163h82zM186 517l-44 -163h-82l44 163h82z" />
    <glyph glyph-name="numbersign" unicode="#" horiz-adv-x="418" 
d="M399 247l-79 22l-12 -44l79 -22l-21 -78l-80 22l-40 -147h-85l47 168l-44 13l-50 -181h-84l56 202l-79 23l21 77l79 -21l12 43l-79 23l21 78l80 -22l32 114h84l-38 -136l44 -12l41 148h85l-47 -170l78 -21zM230 247l12 44l-44 12l-12 -44z" />
    <glyph glyph-name="dollar" unicode="$" horiz-adv-x="258" 
d="M104 43l-12 -43h-82l11 40h-64l22 80h103q9 0 19.5 9t10.5 18q0 26 -18 103.5t-18 108.5q0 38 30 69t68 35l15 54h82l-15 -53h41l-21 -79h-91q-9 0 -19.5 -9.5t-10.5 -18.5q0 -26 18 -103.5t18 -108.5q0 -35 -26 -64.5t-61 -37.5z" />
    <glyph glyph-name="percent" unicode="%" horiz-adv-x="661" 
d="M530 342q47 0 72.5 -36.5t25.5 -85.5q0 -73 -49.5 -146.5t-118.5 -73.5q-47 0 -72.5 36.5t-25.5 85.5q0 73 49.5 146.5t118.5 73.5zM496 517l-244 -517h-88l244 517h88zM202 517q47 0 72.5 -36.5t25.5 -85.5q0 -73 -49.5 -146.5t-119.5 -73.5q-47 0 -72.5 36.5
t-25.5 85.5q0 73 49.5 146.5t119.5 73.5zM530 263q-34 0 -61.5 -51.5t-27.5 -89.5q0 -42 19 -42q34 0 61 51t27 89q0 43 -18 43zM202 438q-35 0 -62 -51.5t-27 -89.5q0 -42 18 -42q35 0 62 51t27 89q0 43 -18 43z" />
    <glyph glyph-name="ampersand" unicode="&#x26;" horiz-adv-x="435" 
d="M174 223l281 171l-30 -111l-96 -59v-14q0 -79 -63.5 -144.5t-142.5 -65.5q-58 0 -95.5 40t-37.5 98q0 56 32 107.5t82 79.5q-11 21 -11 49q0 56 45.5 99.5t101.5 43.5q44 0 73 -28l-55 -57q-6 6 -18 6q-24 0 -46 -20t-22 -44q0 -23 23 -23h38l-27 -79h-15
q-47 0 -84.5 -43t-37.5 -91q0 -26 14 -42t40 -16q37 0 70 27t47 63l-96 -58z" />
    <glyph glyph-name="quotesingle" unicode="'" horiz-adv-x="180" 
d="M186 517l-44 -163h-82l44 163h82z" />
    <glyph glyph-name="parenleft" unicode="(" horiz-adv-x="276" 
d="M150 -140q-35 0 -63 16t-45 40.5t-28 57.5t-15.5 64t-4.5 62q0 117 43.5 241t116.5 216q97 123 195 124v-78q-58 0 -135 -94q-65 -81 -104 -193.5t-39 -215.5q0 -23 3 -47t10.5 -52t24.5 -46t41 -18v-77z" />
    <glyph glyph-name="parenright" unicode=")" horiz-adv-x="276" 
d="M126 681q43 0 75.5 -23.5t49 -61.5t24 -77t7.5 -79q0 -116 -43.5 -240.5t-115.5 -215.5q-100 -124 -196 -124v77q59 1 135 94q65 81 104 193.5t39 215.5q0 23 -3 47t-10.5 52t-24.5 46t-41 18v78z" />
    <glyph glyph-name="asterisk" unicode="*" horiz-adv-x="343" 
d="M181 681l36 -113h119l-97 -70l38 -113l-96 71l-96 -71l37 113l-97 69h119z" />
    <glyph glyph-name="plus" unicode="+" horiz-adv-x="348" 
d="M342 298l-21 -79h-118l-32 -118h-79l32 118h-119l22 79h118l32 119h79l-32 -119h118z" />
    <glyph glyph-name="comma" unicode="," horiz-adv-x="186" 
d="M35 80h91l-23 -80l-52 -65h-26l18 65h-29z" />
    <glyph glyph-name="hyphen" unicode="-" horiz-adv-x="152" 
d="M146 298l-21 -79h-120l22 79h119z" />
    <glyph glyph-name="period" unicode="." horiz-adv-x="172" 
d="M112 80l-21 -80h-86l22 80h85z" />
    <glyph glyph-name="slash" unicode="/" horiz-adv-x="267" 
d="M347 620l-340 -722h-88l341 722h87z" />
    <glyph glyph-name="zero" unicode="0" horiz-adv-x="401" 
d="M259 517q67 0 102 -53t35 -123q0 -50 -19 -108.5t-51 -111t-81.5 -87t-102.5 -34.5q-67 0 -102 53.5t-35 123.5q0 50 19 108.5t51 110.5t81.5 86.5t102.5 34.5zM259 438q-47 0 -89 -48t-64 -108t-22 -105q0 -36 13.5 -66.5t44.5 -30.5q47 0 89 48t63.5 107.5t21.5 105.5
q0 36 -13 66.5t-44 30.5z" />
    <glyph glyph-name="one" unicode="1" horiz-adv-x="220" 
d="M236 517l-138 -517h-82l117 438h-68l21 79h150z" />
    <glyph glyph-name="two" unicode="2" horiz-adv-x="330" 
d="M245 0h-281l295 403q9 13 9 24t-16 11h-145l22 79h126q39 0 66 -25.5t27 -64.5q0 -36 -25 -71l-203 -276h146z" />
    <glyph glyph-name="three" unicode="3" horiz-adv-x="307" 
d="M137 112q57 44 57 101q0 38 -24 50.5t-65 12.5h-34l21 79h41q23 0 44.5 19.5t21.5 42.5q0 21 -23 21h-95l21 79h74q43 0 72.5 -28.5t29.5 -71.5q0 -56 -48 -101q43 -40 43 -103q0 -46 -24 -89.5t-62 -74.5q-64 -49 -133 -49h-90l21 80q9 0 25.5 -0.5t23.5 -0.5
q62 0 103 33z" />
    <glyph glyph-name="four" unicode="4" horiz-adv-x="391" 
d="M285 129l-35 -129h-82l35 129h-203q12 80 71.5 169t147.5 152.5t170 66.5l-83 -309h55l-21 -79h-55zM224 208l48 181q-108 -75 -162 -181h114z" />
    <glyph glyph-name="five" unicode="5" horiz-adv-x="333" 
d="M219 213q0 29 -18.5 46t-47.5 17h-118l125 241h194l-22 -79h-124l-43 -83q58 -5 95.5 -44.5t37.5 -97.5q0 -83 -68 -148t-151 -65h-115l21 80h94q50 0 95 41.5t45 91.5z" />
    <glyph glyph-name="six" unicode="6" horiz-adv-x="362" 
d="M0 144q0 52 23 116.5t60 121.5t91 96t110 39h29l-21 -79q-68 0 -138 -94q24 8 47 8q56 0 91.5 -39.5t35.5 -96.5q0 -79 -61 -147.5t-139 -68.5q-62 0 -95 40.5t-33 103.5zM80 132q0 -22 13 -37t35 -15q46 0 83 44.5t37 91.5q0 24 -12 40t-35 16q-52 0 -86.5 -43.5
t-34.5 -96.5z" />
    <glyph glyph-name="seven" unicode="7" horiz-adv-x="299" 
d="M-5 0l227 438h-158l21 79h267l-268 -517h-89z" />
    <glyph glyph-name="eight" unicode="8" horiz-adv-x="373" 
d="M303 311q36 -39 36 -97q0 -81 -63 -147.5t-143 -66.5q-58 0 -95.5 40t-37.5 98q0 56 32 107t82 80q-11 24 -11 48q0 57 45 100.5t102 43.5q44 0 73.5 -28.5t29.5 -72.5q0 -58 -50 -105zM206 352q24 0 46 20t22 44q0 22 -24 22t-46 -20.5t-22 -44.5q0 -21 24 -21zM206 272
q-48 0 -87.5 -43t-39.5 -91q0 -26 14 -42t40 -16q47 0 86.5 43t39.5 91q0 26 -14 42t-39 16z" />
    <glyph glyph-name="nine" unicode="9" horiz-adv-x="357" 
d="M361 374q0 -72 -37 -158t-104.5 -151t-141.5 -65h-29l21 80q67 0 137 93q-26 -7 -46 -7q-56 0 -91.5 39.5t-35.5 96.5q0 79 61 147t139 68q62 0 94.5 -40t32.5 -103zM281 385q0 22 -13 37.5t-34 15.5q-46 0 -83.5 -45t-37.5 -91q0 -24 12.5 -40.5t35.5 -16.5
q51 0 85.5 44t34.5 96z" />
    <glyph glyph-name="colon" unicode=":" horiz-adv-x="201" 
d="M141 298l-21 -79h-85l21 79h85zM105 80l-22 -80h-85l21 80h86z" />
    <glyph glyph-name="semicolon" unicode=";" horiz-adv-x="210" 
d="M150 298l-21 -79h-86l22 79h85zM23 80h90l-22 -80l-53 -65h-25l17 65h-29z" />
    <glyph glyph-name="less" unicode="&#x3c;" horiz-adv-x="329" 
d="M253 37l-248 180l22 83l345 180l-28 -104l-246 -128l177 -129z" />
    <glyph glyph-name="equal" unicode="=" horiz-adv-x="348" 
d="M360 365l-21 -79h-316l21 79h316zM325 232l-22 -80h-315l21 80h316z" />
    <glyph glyph-name="greater" unicode="&#x3e;" horiz-adv-x="329" 
d="M75 480l249 -180l-22 -83l-345 -180l28 104l246 129l-178 128z" />
    <glyph glyph-name="question" unicode="?" horiz-adv-x="277" 
d="M79 250l141 156q7 9 7 21q0 11 -13 11h-150l21 79h129q39 0 65.5 -25.5t26.5 -64.5q0 -44 -27 -74l-129 -143l-30 -114h-82zM113 73l-19 -73h-82l20 73h81z" />
    <glyph glyph-name="at" unicode="@" horiz-adv-x="552" 
d="M336 26q-62 -26 -118 -26q-89 0 -148.5 57t-59.5 145q0 122 101 218.5t224 96.5q89 0 148 -57t59 -145q0 -94 -76 -192h-171l2 8q-24 -8 -47 -8q-48 0 -80.5 31.5t-32.5 79.5q0 63 50.5 112t114.5 49q52 0 85 -36h53l-42 -157h28q37 57 37 113t-36 89.5t-92 33.5
q-90 0 -168 -73t-78 -163q0 -55 36.5 -88.5t92.5 -33.5q43 0 86 19zM336 284q0 31 -34 31q-31 0 -58.5 -25.5t-27.5 -55.5q0 -32 34 -32q30 0 58 26t28 56z" />
    <glyph glyph-name="A" unicode="A" horiz-adv-x="541" 
d="M394 142h-233q-4 -34 -4 -52q0 -130 103 -230h-108q-74 98 -74 231q0 25 3 51h-99l21 80h94q22 80 74.5 161.5t121.5 148t156.5 108t171.5 41.5l-183 -681h-82zM416 222l95 356q-114 -50 -204 -145t-128 -211h237z" />
    <glyph glyph-name="B" unicode="B" horiz-adv-x="508" 
d="M83 80l161 600h124q53 0 89 -34.5t36 -87.5q0 -38 -21 -77t-52 -61q66 -52 66 -142q0 -108 -89 -193t-197 -85h-56l-37 -140h-83l38 140h-118l21 80h118zM267 458h34q41 0 76.5 29.5t35.5 70.5q0 20 -12.5 31.5t-32.5 11.5h-63zM165 80h35q75 0 141 61.5t66 136.5
q0 46 -30 73.5t-76 27.5h-55z" />
    <glyph glyph-name="C" unicode="C" horiz-adv-x="459" 
d="M375 86q-88 -86 -178 -86q-85 0 -129 69t-44 159q0 94 38.5 188t103.5 164q93 101 192 101q48 0 86 -26t60 -71l-71 -35q-25 52 -75 52q-65 0 -134 -75q-54 -58 -87 -139t-33 -159q0 -34 7 -65t29.5 -57t56.5 -26q59 0 123 62z" />
    <glyph glyph-name="D" unicode="D" horiz-adv-x="544" 
d="M73 80l161 601h82q103 0 165.5 -73t62.5 -178q0 -99 -53 -198.5t-144.5 -165.5t-191.5 -66h-22l-37 -140h-82l37 140h-107l21 80h108zM155 80q79 0 152 55.5t115 136.5t42 158q0 72 -39 121.5t-109 49.5h-21z" />
    <glyph glyph-name="E" unicode="E" horiz-adv-x="480" 
d="M137 380l80 301h343l-21 -80h-261l-59 -221h207l-21 -79h-207l-60 -221h261l-21 -80h-261l-38 -140h-82l38 140h-91l21 80h91l60 221h-92l21 79h92z" />
    <glyph glyph-name="F" unicode="F" horiz-adv-x="480" 
d="M426 380l-21 -79h-207l-119 -441h-82l119 441h-92l21 79h92l80 301h343l-21 -80h-261l-59 -221h207z" />
    <glyph glyph-name="G" unicode="G" horiz-adv-x="446" 
d="M281 20q-45 -20 -84 -20q-85 0 -129 69t-44 159q0 93 38.5 187.5t102.5 164.5q95 101 193 101q48 0 86 -26t60 -71l-71 -35q-25 52 -75 52q-64 0 -135 -75q-55 -58 -87.5 -138.5t-32.5 -159.5q0 -25 4.5 -48.5t14.5 -47t29.5 -38t45.5 -14.5q54 0 115 55l44 166h-130
l21 79h212l-139 -520h-82z" />
    <glyph glyph-name="H" unicode="H" horiz-adv-x="455" 
d="M285 0l80 301h-174l-118 -441h-82l118 441h-85l21 79h85l81 301h82l-81 -301h175l80 301h82l-182 -681h-82z" />
    <glyph glyph-name="I" unicode="I" horiz-adv-x="136" 
d="M208 681l-220 -821h-82l220 821h82z" />
    <glyph glyph-name="J" unicode="J" horiz-adv-x="202" 
d="M296 681l-181 -674q-17 -61 -70.5 -104t-115.5 -43q-59 0 -96 40l57 54q14 -14 39 -14q36 0 68.5 26t41.5 61l175 654h82z" />
    <glyph glyph-name="K" unicode="K" horiz-adv-x="515" 
d="M226 448l260 233h118l-310 -279q70 -53 106.5 -132t36.5 -170q0 -119 -62 -240h-90q73 120 73 246q0 83 -40.5 153t-113.5 106l-97 -365h-83l102 380h-81l22 79h80l60 222h82z" />
    <glyph glyph-name="L" unicode="L" horiz-adv-x="304" 
d="M-6 -61l199 742h82l-199 -742h211l-21 -79h-360l21 79h67z" />
    <glyph glyph-name="M" unicode="M" horiz-adv-x="605" 
d="M421 0l158 591q-80 -41 -136.5 -109.5t-79.5 -153.5l-88 -328h-82l86 320q20 74 20 112q0 53 -23 98t-67 71l-199 -741h-82l220 821h81q51 -26 87 -69t51 -98q86 113 218 167h100l-182 -681h-82z" />
    <glyph glyph-name="N" unicode="N" horiz-adv-x="470" 
d="M550 681l-182 -681h-82l59 221q13 49 13 105q0 84 -40 154t-113 107l-195 -727h-82l220 821q86 0 158 -63t105 -149l57 212h82z" />
    <glyph glyph-name="O" unicode="O" horiz-adv-x="531" 
d="M358 681q85 0 129 -69t44 -159q0 -65 -25 -143t-67 -147.5t-106.5 -116t-135.5 -46.5q-85 0 -129 69t-44 159q0 93 38.5 188t102.5 164q95 101 193 101zM358 601q-64 0 -135 -75q-54 -59 -87 -139.5t-33 -158.5q0 -25 4.5 -48.5t14.5 -47t29.5 -38t45.5 -14.5
q69 0 130.5 68t93 153t31.5 152q0 25 -4.5 48.5t-14.5 47t-29.5 38t-45.5 14.5z" />
    <glyph glyph-name="P" unicode="P" horiz-adv-x="507" 
d="M-9 -140l198 741h-84l21 80h230q80 0 134 -51.5t54 -131.5q0 -110 -90.5 -196.5t-200.5 -86.5h-85l-95 -355h-82zM272 601l-83 -306h64q77 0 144 63t67 140q0 47 -30.5 75t-77.5 28h-84z" />
    <glyph glyph-name="Q" unicode="Q" horiz-adv-x="513" 
d="M44 -140l80 157q-51 28 -75.5 86.5t-24.5 124.5q0 93 38.5 188t102.5 164q95 101 193 101q85 0 129 -69t44 -159q0 -65 -24.5 -141.5t-66 -145.5t-104.5 -116t-132 -50l-31 -61h202l-21 -79h-310zM160 88l70 137h89l-69 -135q82 34 142 150t60 213q0 25 -4.5 48.5
t-14.5 47t-29.5 38t-45.5 14.5q-64 0 -135 -75q-54 -58 -87 -139t-33 -159q0 -107 57 -140z" />
    <glyph glyph-name="R" unicode="R" horiz-adv-x="508" 
d="M357 681q80 0 133.5 -51.5t53.5 -131.5q0 -87 -59 -161.5t-143 -104.5l78 -372h-81l-74 356q-16 -1 -48 -1h-48l-58 -215h-82l161 601h-85l21 80h231zM190 295h63q78 0 145 63t67 140q0 47 -30.5 75t-77.5 28h-85z" />
    <glyph glyph-name="S" unicode="S" horiz-adv-x="358" 
d="M-73 -61h137q41 0 78 34.5t37 75.5q0 10 -1 15l-74 399q-3 17 -3 33q0 71 61.5 128t133.5 57h155l-21 -80h-134q-40 0 -77.5 -33.5t-37.5 -73.5q0 -11 1 -17l74 -400q3 -13 3 -29q0 -73 -61 -130.5t-134 -57.5h-158z" />
    <glyph glyph-name="T" unicode="T" horiz-adv-x="387" 
d="M39 -140l199 741h-133l21 80h341l-21 -80h-126l-199 -741h-82z" />
    <glyph glyph-name="U" unicode="U" horiz-adv-x="495" 
d="M570 681l-130 -485q-21 -81 -93.5 -138.5t-155.5 -57.5q-71 0 -119 46.5t-48 117.5q0 28 7 53l124 464h82l-130 -485q-4 -22 -4 -32q0 -39 24.5 -61.5t63.5 -22.5q56 0 107 41t66 96l124 464h82z" />
    <glyph glyph-name="V" unicode="V" horiz-adv-x="482" 
d="M62 105q148 64 251.5 200.5t103.5 290.5q0 72 -30 135t-86 103h115q81 -102 81 -238q0 -114 -51 -222t-138 -195q-179 -179 -356 -179l183 681h82z" />
    <glyph glyph-name="W" unicode="W" horiz-adv-x="802" 
d="M382 105q147 65 251 201t104 288q0 73 -29.5 136t-86.5 104h115q81 -100 81 -243q0 -111 -52 -219t-137 -193q-179 -179 -356 -179l53 196q-184 -196 -373 -196l183 681h82l-155 -576q102 44 177 115t110.5 135t53.5 132l52 194h82z" />
    <glyph glyph-name="X" unicode="X" horiz-adv-x="648" 
d="M717 681l-275 -319l118 -362h-84l-94 291l-372 -431h-104l447 520l-97 301h83l75 -231l198 231h105z" />
    <glyph glyph-name="Y" unicode="Y" horiz-adv-x="448" 
d="M308 -140h-82l43 158q-101 46 -156.5 138t-55.5 205q0 165 110 320h100q-131 -151 -131 -323q0 -85 40 -155t114 -107l156 585h82z" />
    <glyph glyph-name="Z" unicode="Z" horiz-adv-x="400" 
d="M-48 0l380 601h-198l21 80h321l-380 -601h208l-21 -80h-331z" />
    <glyph glyph-name="bracketleft" unicode="[" horiz-adv-x="176" 
d="M50 -141h-144l220 820h144l-21 -77h-64l-178 -666h64z" />
    <glyph glyph-name="backslash" unicode="\" horiz-adv-x="443" 
d="M253 -103l-140 722h77l141 -722h-78z" />
    <glyph glyph-name="bracketright" unicode="]" horiz-adv-x="176" 
d="M126 679h144l-220 -820h-144l21 77h64l178 666h-64z" />
    <glyph glyph-name="underscore" unicode="_" horiz-adv-x="500" 
d="M0 -84v62h500v-62h-500z" />
    <glyph glyph-name="grave" unicode="`" horiz-adv-x="271" 
d="M35 683l222 -62l-21 -76l-222 62z" />
    <glyph glyph-name="a" unicode="a" 
d="M203 88h-147q0 -4 -0.5 -13t-0.5 -14q0 -29 8 -61h-81q-6 30 -6 61q0 85 38 165.5t102 143.5q53 53 137 100t147 47l-138 -517h-82zM75 167h150l61 230q-72 -36 -128 -96.5t-83 -133.5z" />
    <glyph glyph-name="b" unicode="b" horiz-adv-x="339" 
d="M262 316q43 -40 43 -103q0 -46 -24 -90t-63 -74q-63 -49 -133 -49h-121l138 517h106q42 0 71.5 -28.5t29.5 -71.5q0 -57 -47 -101zM141 355h23q23 0 44.5 20t21.5 42q0 21 -22 21h-45zM120 276l-53 -196h18q44 0 84 32q56 43 56 101q0 30 -18 46.5t-48 16.5h-39z" />
    <glyph glyph-name="c" unicode="c" horiz-adv-x="351" 
d="M278 66q-66 -66 -136 -66q-67 0 -102 53.5t-35 123.5q0 50 19 108.5t51 110.5t81.5 86.5t102.5 34.5q38 0 68.5 -20.5t47.5 -55.5l-71 -35q-15 32 -45 32q-42 0 -90 -52q-39 -41 -62 -97.5t-23 -111.5q0 -36 13.5 -66.5t44.5 -30.5q37 0 81 42z" />
    <glyph glyph-name="d" unicode="d" horiz-adv-x="346" 
d="M154 517q79 0 127.5 -56t48.5 -137q0 -75 -40 -150t-109 -124.5t-145 -49.5h-89l138 517h69zM146 438l-96 -358q79 9 140 86t61 158q0 52 -27 83t-78 31z" />
    <glyph glyph-name="e" unicode="e" horiz-adv-x="279" 
d="M177 0h-230l138 517h230l-21 -79h-148l-37 -140h110l-21 -79h-111l-37 -139h148z" />
    <glyph glyph-name="f" unicode="f" horiz-adv-x="271" 
d="M-53 0l138 517h234l-21 -79h-152l-37 -140h108l-21 -79h-108l-59 -219h-82z" />
    <glyph glyph-name="g" unicode="g" horiz-adv-x="375" 
d="M208 298h139l-62 -225q-69 -73 -143 -73q-67 0 -102 53.5t-35 123.5q0 50 19 108.5t51 110.5t81.5 86.5t102.5 34.5q38 0 68.5 -20.5t47.5 -55.5l-71 -35q-15 32 -45 32q-42 0 -90 -52q-39 -41 -62 -97.5t-23 -111.5q0 -36 13.5 -66.5t44.5 -30.5q36 0 73 35l28 104h-58z
" />
    <glyph glyph-name="h" unicode="h" horiz-adv-x="317" 
d="M-53 0l139 517h81l-58 -219h105l58 219h81l-137 -517h-81l57 219h-104l-59 -219h-82z" />
    <glyph glyph-name="i" unicode="i" horiz-adv-x="148" 
d="M184 517l-138 -517h-82l138 517h82z" />
    <glyph glyph-name="j" unicode="j" horiz-adv-x="251" 
d="M287 517l-108 -402q-13 -48 -55 -81.5t-91 -33.5q-48 0 -78 32l58 55q6 -7 20 -7q22 0 43 16.5t27 38.5l102 382h82z" />
    <glyph glyph-name="k" unicode="k" horiz-adv-x="358" 
d="M167 517l-39 -148l164 148h119l-237 -213q98 -81 98 -219q0 -38 -10 -85h-83q14 44 14 87q0 55 -24 101t-70 73l-70 -261h-82l138 517h82z" />
    <glyph glyph-name="l" unicode="l" horiz-adv-x="215" 
d="M167 517l-117 -437h99l-21 -80h-181l138 517h82z" />
    <glyph glyph-name="m" unicode="m" horiz-adv-x="480" 
d="M-36 0l138 517h70q72 -34 102 -110q63 75 153 110h89l-139 -517h-82l112 419q-100 -63 -128 -165l-67 -254h-82l73 274q7 30 7 51q0 69 -49 106l-115 -431h-82z" />
    <glyph glyph-name="n" unicode="n" horiz-adv-x="381" 
d="M251 241q0 55 -24 101t-70 73l-111 -415h-82l138 517q55 0 111.5 -43t84.5 -96l37 139h82l-138 -517h-82q3 10 20 69.5t25.5 100t8.5 71.5z" />
    <glyph glyph-name="o" unicode="o" horiz-adv-x="421" 
d="M260 517q67 0 102 -53t35 -123q0 -50 -19 -108.5t-51 -111t-81.5 -87t-102.5 -34.5q-67 0 -102 53.5t-35 123.5q0 50 19 108.5t51 110.5t81.5 86.5t102.5 34.5zM260 438q-47 0 -89 -48t-64 -108t-22 -105q0 -36 13.5 -66.5t44.5 -30.5q47 0 89 48t63.5 107.5t21.5 105.5
q0 36 -13 66.5t-44 30.5z" />
    <glyph glyph-name="p" unicode="p" 
d="M-36 0l138 517h114q63 0 105.5 -41t42.5 -103q0 -84 -69.5 -150t-153.5 -66h-53l-42 -157h-82zM109 236h32q52 0 97.5 43t45.5 94q0 30 -18.5 47.5t-49.5 17.5h-53z" />
    <glyph glyph-name="q" unicode="q" horiz-adv-x="432" 
d="M330 0h-102v24q-42 -24 -86 -24q-67 0 -102 53.5t-35 123.5q0 50 19 108.5t51 110.5t81.5 86.5t102.5 34.5q67 0 102 -53t35 -123q0 -66 -29 -138.5t-73 -122.5h58zM259 438q-47 0 -89 -48t-64 -108t-22 -105q0 -36 13.5 -66.5t44.5 -30.5q47 0 89 48t63.5 107.5
t21.5 105.5q0 36 -13 66.5t-44 30.5z" />
    <glyph glyph-name="r" unicode="r" 
d="M-36 0l138 517h114q63 0 105.5 -41t42.5 -103q0 -64 -42.5 -119.5t-103.5 -80.5l37 -173h-81l-33 157h-53l-42 -157h-82zM109 236h32q52 0 97.5 43t45.5 94q0 30 -18.5 47.5t-49.5 17.5h-53z" />
    <glyph glyph-name="s" unicode="s" horiz-adv-x="267" 
d="M-32 80h94q17 0 33.5 14.5t16.5 31.5l-45 247q-2 12 -2 20q0 49 40 86.5t89 37.5h109l-21 -79q-4 0 -21.5 1t-29.5 1q-87 0 -87 -44v-4l45 -247q2 -14 2 -20q0 -49 -40 -87t-89 -38h-115z" />
    <glyph glyph-name="t" unicode="t" horiz-adv-x="263" 
d="M85 517h226l-21 -79h-71l-117 -438h-82l117 438h-73z" />
    <glyph glyph-name="u" unicode="u" horiz-adv-x="387" 
d="M423 517l-99 -366q-17 -63 -72 -107t-119 -44q-57 0 -95 37t-38 93q0 22 6 41l92 346h82l-98 -366q-3 -11 -3 -21q0 -23 15 -36.5t39 -13.5q37 0 71 27.5t44 63.5l93 346h82z" />
    <glyph glyph-name="v" unicode="v" horiz-adv-x="369" 
d="M380 517q7 -39 7 -67q0 -84 -38 -164.5t-102 -144.5q-59 -59 -135.5 -100t-147.5 -41l138 517h82l-108 -403q97 49 164 141.5t67 194.5q0 36 -9 67h82z" />
    <glyph glyph-name="w" unicode="w" horiz-adv-x="602" 
d="M230 125q-58 -53 -128.5 -89t-137.5 -36l138 517h82l-108 -403q79 40 139 109t82 152l38 142h82l-108 -403q97 49 164 141.5t67 194.5q0 36 -9 67h81q8 -35 8 -67q0 -84 -38 -164.5t-102 -144.5q-59 -59 -135.5 -100t-147.5 -41z" />
    <glyph glyph-name="x" unicode="x" horiz-adv-x="458" 
d="M205 517l51 -157l136 157h104l-211 -245l88 -272h-83l-66 201l-173 -201h-104l249 290l-74 227h83z" />
    <glyph glyph-name="y" unicode="y" horiz-adv-x="332" 
d="M148 0l32 123q-61 32 -95.5 91.5t-34.5 129.5q0 90 48 173h94q-63 -85 -63 -173q0 -93 73 -142l84 315h82l-138 -517h-82z" />
    <glyph glyph-name="z" unicode="z" horiz-adv-x="314" 
d="M204 0h-257l276 438h-113v79h257l-276 -437h113v-80z" />
    <glyph glyph-name="braceleft" unicode="{" horiz-adv-x="245" 
d="M319 602q-3 0 -15 1t-19 1q-33 0 -37 -16l-65 -244q-13 -49 -58 -82q16 -25 16 -56q0 -19 -4 -32l-64 -238h67l-21 -77h-53q-30 0 -51 20t-21 50q0 11 3 21l65 244q2 8 2 12q0 25 -34 25q-5 0 -13 -0.5t-11 -0.5l20 78q29 0 52 14.5t30 41.5l65 244q8 30 34.5 50.5
t57.5 20.5h74z" />
    <glyph glyph-name="braceright" unicode="}" horiz-adv-x="245" 
d="M-73 -64q3 0 15 -1t19 -1q33 0 37 16l65 244q14 50 57 82q-16 27 -16 56q0 15 5 32l63 238h-67l21 77h54q30 0 50.5 -20t20.5 -50q0 -11 -3 -21l-65 -244q-2 -6 -2 -12q0 -25 34 -25q5 0 13.5 0.5t11.5 0.5l-21 -78q-29 0 -52 -14.5t-30 -41.5l-65 -244q-8 -30 -34 -50.5
t-57 -20.5h-75z" />
    <glyph glyph-name="asciitilde" unicode="~" horiz-adv-x="16" 
 />
    <glyph glyph-name="nbspace" unicode="&#xa0;" horiz-adv-x="300" 
 />
    <glyph glyph-name="exclamdown" unicode="&#xa1;" horiz-adv-x="114" 
d="M-53 -101l113 421h82l-113 -421h-82zM66 343l19 73h82l-19 -73h-82z" />
    <glyph glyph-name="cent" unicode="&#xa2;" horiz-adv-x="285" 
d="M170 449l19 68h82l-20 -73q33 -16 49 -52l-71 -34q-7 17 -24 17q-46 0 -82 -65.5t-36 -116.5q0 -61 32 -61q23 0 53 28l55 -56q-37 -37 -80 -48l-15 -56h-82l18 66q-61 35 -61 127q0 78 46.5 156.5t116.5 99.5z" />
    <glyph glyph-name="sterling" unicode="&#xa3;" horiz-adv-x="365" 
d="M30 80l23 84h-63l22 79h62l43 160q13 48 55 81t91 33t78 -32l-58 -54q-7 7 -20 7q-22 0 -43 -17t-27 -39l-37 -139h109l-22 -79h-108l-23 -84h189l-21 -80h-333l21 80h62z" />
    <glyph glyph-name="currency" unicode="&#xa4;" horiz-adv-x="397" 
d="M329 66q-66 -66 -136 -66q-67 0 -102 54t-35 125v12h-58l14 53h51q4 20 7 30h-50l14 53h55q33 75 92 132.5t129 57.5q38 0 68.5 -20.5t47.5 -55.5l-72 -35q-13 32 -44 32q-38 0 -73.5 -34.5t-59.5 -76.5h210l-28 -53h-206l-9 -30h206l-28 -53h-186l-1 -18q0 -34 14 -63.5
t44 -29.5q38 0 81 43z" />
    <glyph glyph-name="yen" unicode="&#xa5;" horiz-adv-x="409" 
d="M171 0l33 123q-50 25 -81 68h-125l14 53h81q-4 10 -10 30h-63l14 53h40v25q0 81 47 165h94q-62 -84 -62 -173q0 -94 72 -142l84 315h83l-51 -190h70l-14 -53h-71l-8 -30h71l-15 -53h-70l-51 -191h-82z" />
    <glyph glyph-name="section" unicode="&#xa7;" horiz-adv-x="2170" 
d="M27 750h128v-750h-128v750zM2020 750h122v-750h-122v750zM1249 468q15 40 40.5 74t60 58.5t76 38t86.5 13.5t86.5 -13.5t76 -38t60 -58.5t40.5 -74h123q-12 50 -36.5 94.5t-59 81t-77 63.5t-91.5 43h-244q-49 -16 -91.5 -43t-77 -63.5t-59 -81t-36.5 -94.5h123zM1775 276
q-15 -40 -40.5 -74t-60 -58.5t-76 -38t-86.5 -13.5t-86.5 13.5t-76 38t-60 58.5t-40.5 74h-123q24 -96 89.5 -168.5t156.5 -107.5h281q91 35 156 107.5t89 168.5h-123zM923 276q-15 -40 -41 -74t-60.5 -58.5t-76 -38t-86.5 -13.5t-86 13.5t-75.5 38t-60.5 58.5t-41 74h-122
q12 -48 34.5 -90.5t54 -78t71.5 -63t85 -44.5h281q45 17 85 44.5t71.5 63t54 78t34.5 90.5h-122zM397 468q15 40 40.5 74t60 58.5t75.5 38t86 13.5t86.5 -13.5t76 -38t60 -58.5t40.5 -74h123q-12 50 -36.5 94.5t-59 81t-77 63.5t-90.5 43h-245q-48 -16 -90.5 -43t-77 -63.5
t-59 -81t-36.5 -94.5h123zM274 448h95v-30h-56v-33h50v-32h-51v-58h-38v153zM1006 448h44l71 -102v102h38v-153h-35l-81 104v-104h-37v153zM1457 448h115v-38h-32v-115h-51v116h-32v37zM662 456q-14 0 -29.5 -4t-28.5 -14t-22 -28t-9 -46t12.5 -44t27.5 -24q18 -10 41 -12
q24 2 43 12q17 8 30.5 25t13.5 49t-12.5 49t-27.5 25q-18 10 -39 12zM655 322q-12 2 -22 7q-8 5 -14.5 13.5t-6.5 24.5q0 15 4.5 25t11.5 16t15.5 8t15.5 2q11 -1 21 -6q8 -5 15 -15t7 -27q0 -18 -7.5 -27.5t-16.5 -14.5q-11 -5 -23 -6zM1790 333q8 -4 18.5 -7t23.5 -3
q10 0 17.5 3t7.5 12q0 10 -11.5 14t-25 8.5t-24.5 13.5t-11 30q0 13 6 22t15.5 14.5t21.5 7.5t23 2q24 0 39 -6l-3 -31q-14 7 -33 7q-8 0 -17.5 -2t-9.5 -12q0 -9 11 -12.5t24.5 -8t24.5 -13t11 -29.5q0 -29 -20 -39t-46 -10q-11 0 -23 1t-23 5z" />
    <glyph glyph-name="dieresis" unicode="&#xa8;" horiz-adv-x="238" 
d="M176 635q18 0 31.5 -13.5t13.5 -31.5q0 -19 -13.5 -32t-31.5 -13q-19 0 -32 13t-13 32q0 18 13 31.5t32 13.5zM62 635q19 0 32 -13.5t13 -31.5q0 -19 -13 -32t-32 -13q-18 0 -31 13t-13 32q0 18 13 31.5t31 13.5z" />
    <glyph glyph-name="copyright" unicode="&#xa9;" horiz-adv-x="567" 
d="M284 516q106 0 182 -76t76 -182q0 -107 -76 -183t-182 -76q-107 0 -183 76t-76 183t76 182.5t183 75.5zM284 491q-97 0 -165.5 -68.5t-68.5 -164.5q0 -97 68.5 -165.5t165.5 -68.5q96 0 164.5 68.5t68.5 165.5q0 96 -68.5 164.5t-164.5 68.5zM345 109q-50 -50 -106 -50
q-51 0 -78 41t-27 95q0 53 24 113t71 105t101 45q60 0 89 -59l-55 -27q-12 25 -34 25q-53 0 -94 -72t-41 -130q0 -28 10 -51.5t34 -23.5q30 0 63 33z" />
    <glyph glyph-name="ordfeminine" unicode="&#xaa;" horiz-adv-x="205" 
d="M119 309h-81v-15q0 -20 4 -33h-45q-3 17 -3 33q0 93 77 170q29 29 75.5 55t80.5 26l-76 -284h-45zM49 353h82l34 126q-85 -43 -116 -126z" />
    <glyph glyph-name="guillemotleft" unicode="&#xab;" horiz-adv-x="345" 
d="M128 105l-112 153l194 153l-34 -128l-51 -40l29 -40zM288 105l-112 153l194 153l-34 -128l-51 -40l29 -40z" />
    <glyph glyph-name="logicalnot" unicode="&#xac;" horiz-adv-x="348" 
d="M310 133h-79l22 85h-236l21 80h316z" />
    <glyph glyph-name="registered" unicode="&#xae;" horiz-adv-x="377" 
d="M189 680q68 0 117 -49t49 -118q0 -68 -49 -117t-117 -49q-69 0 -118 49t-49 117q0 69 49 118t118 49zM189 656q-59 0 -101 -42t-42 -101t42 -101t101 -42q58 0 100 42t42 101t-41.5 101t-100.5 42zM113 415l56 207h45q25 0 42 -16t17 -41q0 -26 -16.5 -48t-41.5 -33
l15 -69h-33l-13 63h-21l-17 -63h-33zM171 510h13q21 0 39.5 17t18.5 38q0 25 -28 25h-21z" />
    <glyph glyph-name="macron" unicode="&#xaf;" horiz-adv-x="248" 
d="M242 624l-21 -79h-216l22 79h215z" />
    <glyph glyph-name="degree" unicode="&#xb0;" horiz-adv-x="211" 
d="M105 516q36 0 61.5 -25.5t25.5 -60.5t-25.5 -60.5t-61.5 -25.5q-35 0 -60.5 25.5t-25.5 60.5t25.5 60.5t60.5 25.5zM105 459q-12 0 -20.5 -8.5t-8.5 -20.5t8.5 -20.5t20.5 -8.5t21 8.5t9 20.5t-9 20.5t-21 8.5z" />
    <glyph glyph-name="plusminus" unicode="&#xb1;" horiz-adv-x="348" 
d="M356 299l-21 -80h-119l-31 -118h-80l32 118h-118l21 80h118l32 118h79l-31 -118h118zM297 80l-21 -80h-316l21 80h316z" />
    <glyph glyph-name="twosuperior" unicode="&#xb2;" horiz-adv-x="232" 
d="M186 447h-126l133 181q4 8 4 11q0 5 -8 5h-65l10 36h57q17 0 29 -12t12 -29q0 -14 -11 -32l-91 -123h65z" />
    <glyph glyph-name="threesuperior" unicode="&#xb3;" horiz-adv-x="201" 
d="M138 500q25 18 25 45q0 28 -40 28h-15l10 36h18q10 0 19.5 9t9.5 19q0 9 -10 9h-43l10 36h33q20 0 33 -13t13 -32q0 -26 -22 -46q20 -17 20 -46q0 -42 -39 -74q-31 -22 -60 -22h-40l9 37q4 0 11.5 -0.5t10.5 -0.5q29 0 47 15z" />
    <glyph glyph-name="acute" unicode="&#xb4;" horiz-adv-x="279" 
d="M18 621l222 62l21 -76l-222 -62z" />
    <glyph glyph-name="mu" unicode="&#xb5;" horiz-adv-x="521" 
d="M468 327l-58 -235q-5 -18 -5 -35q0 -27 20 -27q23 0 44 44h16q-33 -85 -99 -85q-51 0 -51 55q0 11 1 17q-89 -72 -159 -72q-37 0 -62 25l-1 -4q-4 -15 -4 -49v-15q0 -18 -1 -24q-4 -16 -17 -29t-30 -13q-26 0 -26 31q0 5 2 13q6 18 11 25q32 57 47 118l64 260h67
l-50 -206q-7 -30 -7 -43q0 -43 53 -43q54 0 118 46l61 246h66z" />
    <glyph glyph-name="mu" unicode="&#x3bc;" horiz-adv-x="521" 
d="M468 327l-58 -235q-5 -18 -5 -35q0 -27 20 -27q23 0 44 44h16q-33 -85 -99 -85q-51 0 -51 55q0 11 1 17q-89 -72 -159 -72q-37 0 -62 25l-1 -4q-4 -15 -4 -49v-15q0 -18 -1 -24q-4 -16 -17 -29t-30 -13q-26 0 -26 31q0 5 2 13q6 18 11 25q32 57 47 118l64 260h67
l-50 -206q-7 -30 -7 -43q0 -43 53 -43q54 0 118 46l61 246h66z" />
    <glyph glyph-name="paragraph" unicode="&#xb6;" horiz-adv-x="543" 
d="M250 681h257v-27h-37q-20 0 -34 -14t-14 -34v-755h-51v790h-43v-790h-48v402h-30q-88 0 -151 62.5t-63 151.5t63 151.5t151 62.5z" />
    <glyph glyph-name="periodcentered" unicode="&#xb7;" horiz-adv-x="118" 
d="M112 297l-21 -79h-86l22 79h85z" />
    <glyph glyph-name="cedilla" unicode="&#xb8;" horiz-adv-x="206" 
d="M170 27l-55 -55q28 -7 46.5 -31.5t18.5 -53.5q0 -37 -26 -63.5t-63 -26.5h-106l22 78h51q43 0 43 12q0 11 -39 11h-90l115 129h83z" />
    <glyph glyph-name="onesuperior" unicode="&#xb9;" horiz-adv-x="171" 
d="M135 680l-62 -233h-37l53 197h-31l10 36h67z" />
    <glyph glyph-name="ordmasculine" unicode="&#xba;" horiz-adv-x="235" 
d="M150 545q36 0 55.5 -29t19.5 -68q0 -61 -41 -124t-99 -63q-36 0 -55.5 29t-19.5 68q0 61 41 124t99 63zM150 501q-38 0 -67 -51t-29 -92q0 -54 31 -54q38 0 67 51t29 93q0 53 -31 53z" />
    <glyph glyph-name="guillemotright" unicode="&#xbb;" horiz-adv-x="345" 
d="M217 411l112 -153l-194 -153l34 128l51 40l-29 39zM57 411l112 -153l-194 -153l34 128l51 40l-29 39z" />
    <glyph glyph-name="onequarter" unicode="&#xbc;" horiz-adv-x="510" 
d="M195 521l-92 -347h-55l78 294h-45l14 53h100zM421 519l-326 -518h-59l327 518h58zM404 87l-23 -87h-55l23 87h-136q13 84 95.5 170t165.5 90l-56 -207h37l-14 -53h-37zM363 140l33 121q-72 -49 -109 -121h76z" />
    <glyph glyph-name="onehalf" unicode="&#xbd;" horiz-adv-x="532" 
d="M427 0h-188l198 270q6 10 6 16q0 8 -11 8h-97l15 53h84q26 0 44 -17.5t18 -43.5q0 -25 -16 -47l-136 -185h98zM195 521l-92 -347h-55l78 294h-45l14 53h100zM421 519l-326 -518h-59l327 518h58z" />
    <glyph glyph-name="threequarters" unicode="&#xbe;" horiz-adv-x="578" 
d="M152 245q38 29 38 68q0 26 -16 34t-44 8h-22l14 53h27q15 0 29.5 13.5t14.5 28.5q0 14 -15 14h-64l14 53h50q29 0 48.5 -19t19.5 -48q0 -39 -32 -68q29 -26 29 -69q0 -64 -58 -110q-43 -33 -89 -33h-60l14 54q6 0 17 -0.5t16 -0.5q41 0 69 22zM489 519l-326 -518h-59
l327 518h58zM472 87l-23 -87h-55l23 87h-136q13 84 95.5 170t165.5 90l-56 -207h37l-14 -53h-37zM431 140l33 121q-72 -49 -109 -121h76z" />
    <glyph glyph-name="questiondown" unicode="&#xbf;" horiz-adv-x="277" 
d="M198 166l-141 -156q-7 -9 -7 -20t13 -11h150l-21 -80h-129q-39 0 -65.5 26t-26.5 65q0 43 27 73l129 144l30 113h82zM164 343l19 73h82l-20 -73h-81z" />
    <glyph glyph-name="Agrave" unicode="&#xc0;" horiz-adv-x="541" 
d="M394 142h-233q-4 -34 -4 -52q0 -130 103 -230h-108q-74 98 -74 231q0 25 3 51h-99l21 80h94q22 80 74.5 161.5t121.5 148t156.5 108t171.5 41.5l-183 -681h-82zM416 222l95 356q-114 -50 -204 -145t-128 -211h237zM350 847l222 -62l-21 -76l-222 62z" />
    <glyph glyph-name="Aacute" unicode="&#xc1;" horiz-adv-x="541" 
d="M394 142h-233q-4 -34 -4 -52q0 -130 103 -230h-108q-74 98 -74 231q0 25 3 51h-99l21 80h94q22 80 74.5 161.5t121.5 148t156.5 108t171.5 41.5l-183 -681h-82zM416 222l95 356q-114 -50 -204 -145t-128 -211h237zM406 785l222 62l21 -76l-222 -62z" />
    <glyph glyph-name="Acircumflex" unicode="&#xc2;" horiz-adv-x="541" 
d="M394 142h-233q-4 -34 -4 -52q0 -130 103 -230h-108q-74 98 -74 231q0 25 3 51h-99l21 80h94q22 80 74.5 161.5t121.5 148t156.5 108t171.5 41.5l-183 -681h-82zM416 222l95 356q-114 -50 -204 -145t-128 -211h237zM529 841h72l84 -115l-4 -17h-86l-37 55l-69 -55h-109
l4 17z" />
    <glyph glyph-name="Atilde" unicode="&#xc3;" horiz-adv-x="541" 
d="M394 142h-233q-4 -34 -4 -52q0 -130 103 -230h-108q-74 98 -74 231q0 25 3 51h-99l21 80h94q22 80 74.5 161.5t121.5 148t156.5 108t171.5 41.5l-183 -681h-82zM416 222l95 356q-114 -50 -204 -145t-128 -211h237zM408 748q16 28 45.5 45t62.5 17q20 0 48 -11t38 -11
q25 0 40 23l68 -39q-16 -29 -45.5 -46t-62.5 -17q-20 0 -48 11t-38 11q-26 0 -39 -23z" />
    <glyph glyph-name="Adieresis" unicode="&#xc4;" horiz-adv-x="541" 
d="M394 142h-233q-4 -34 -4 -52q0 -130 103 -230h-108q-74 98 -74 231q0 25 3 51h-99l21 80h94q22 80 74.5 161.5t121.5 148t156.5 108t171.5 41.5l-183 -681h-82zM416 222l95 356q-114 -50 -204 -145t-128 -211h237zM600 799q18 0 31.5 -13.5t13.5 -31.5q0 -19 -13.5 -32
t-31.5 -13q-19 0 -32 13t-13 32q0 18 13 31.5t32 13.5zM486 799q19 0 32 -13.5t13 -31.5q0 -19 -13 -32t-32 -13q-18 0 -31 13t-13 32q0 18 13 31.5t31 13.5z" />
    <glyph glyph-name="Aring" unicode="&#xc5;" horiz-adv-x="541" 
d="M394 142h-233q-4 -34 -4 -52q0 -130 103 -230h-108q-74 98 -74 231q0 25 3 51h-99l21 80h94q22 80 74.5 161.5t121.5 148t156.5 108t171.5 41.5l-183 -681h-82zM416 222l95 356q-114 -50 -204 -145t-128 -211h237zM592 799q28 0 48.5 -20.5t20.5 -48.5q0 -29 -20 -49.5
t-49 -20.5t-49.5 20.5t-20.5 49.5q0 28 20.5 48.5t49.5 20.5zM592 757q-11 0 -19 -8t-8 -19t8 -19.5t19 -8.5t19 8.5t8 19.5t-8 19t-19 8z" />
    <glyph glyph-name="AE" unicode="&#xc6;" horiz-adv-x="787" 
d="M635 142h-159l-16 -62h260l-21 -80h-434l21 80h92l16 62h-233q-4 -34 -4 -52q0 -130 103 -230h-108q-74 98 -74 232q0 26 3 50h-99l21 80h94q22 80 74.5 161.5t121.5 148t156.5 108t171.5 41.5h260l-21 -80h-261l-101 -379h158zM416 222l95 356q-114 -50 -204 -145
t-128 -211h237z" />
    <glyph glyph-name="Ccedilla" unicode="&#xc7;" horiz-adv-x="459" 
d="M375 86q-88 -86 -178 -86q-85 0 -129 69t-44 159q0 94 38.5 188t103.5 164q93 101 192 101q48 0 86 -26t60 -71l-71 -35q-25 52 -75 52q-65 0 -134 -75q-54 -58 -87 -139t-33 -159q0 -34 7 -65t29.5 -57t56.5 -26q59 0 123 62zM228 26l-47 -47q24 -6 39.5 -26.5
t15.5 -45.5q0 -31 -22 -53.5t-53 -22.5h-90l19 66h43q36 0 36 10t-33 10h-76l98 109h70z" />
    <glyph glyph-name="Egrave" unicode="&#xc8;" horiz-adv-x="480" 
d="M137 380l80 301h343l-21 -80h-261l-59 -221h207l-21 -79h-207l-60 -221h261l-21 -80h-261l-38 -140h-82l38 140h-91l21 80h91l60 221h-92l21 79h92zM258 847l222 -62l-21 -76l-222 62z" />
    <glyph glyph-name="Eacute" unicode="&#xc9;" horiz-adv-x="480" 
d="M137 380l80 301h343l-21 -80h-261l-59 -221h207l-21 -79h-207l-60 -221h261l-21 -80h-261l-38 -140h-82l38 140h-91l21 80h91l60 221h-92l21 79h92zM286 785l222 62l21 -76l-222 -62z" />
    <glyph glyph-name="Ecircumflex" unicode="&#xca;" horiz-adv-x="480" 
d="M137 380l80 301h343l-21 -80h-261l-59 -221h207l-21 -79h-207l-60 -221h261l-21 -80h-261l-38 -140h-82l38 140h-91l21 80h91l60 221h-92l21 79h92zM391 841h72l84 -115l-4 -17h-86l-37 55l-69 -55h-109l4 17z" />
    <glyph glyph-name="Edieresis" unicode="&#xcb;" horiz-adv-x="480" 
d="M137 380l80 301h343l-21 -80h-261l-59 -221h207l-21 -79h-207l-60 -221h261l-21 -80h-261l-38 -140h-82l38 140h-91l21 80h91l60 221h-92l21 79h92zM448 799q18 0 31.5 -13.5t13.5 -31.5q0 -19 -13.5 -32t-31.5 -13q-19 0 -32 13t-13 32q0 18 13 31.5t32 13.5zM334 799
q19 0 32 -13.5t13 -31.5q0 -19 -13 -32t-32 -13q-18 0 -31 13t-13 32q0 18 13 31.5t31 13.5z" />
    <glyph glyph-name="Igrave" unicode="&#xcc;" horiz-adv-x="136" 
d="M208 681l-220 -821h-82l220 821h82zM-32 847l222 -62l-21 -76l-222 62z" />
    <glyph glyph-name="Iacute" unicode="&#xcd;" horiz-adv-x="136" 
d="M208 681l-220 -821h-82l220 821h82zM102 785l222 62l21 -76l-222 -62z" />
    <glyph glyph-name="Icircumflex" unicode="&#xce;" horiz-adv-x="136" 
d="M208 681l-220 -821h-82l220 821h82zM172 841h72l84 -115l-4 -17h-86l-37 55l-69 -55h-109l4 17z" />
    <glyph glyph-name="Idieresis" unicode="&#xcf;" horiz-adv-x="136" 
d="M208 681l-220 -821h-82l220 821h82zM217 799q18 0 31.5 -13.5t13.5 -31.5q0 -19 -13.5 -32t-31.5 -13q-19 0 -32 13t-13 32q0 18 13 31.5t32 13.5zM103 799q19 0 32 -13.5t13 -31.5q0 -19 -13 -32t-32 -13q-18 0 -31 13t-13 32q0 18 13 31.5t31 13.5z" />
    <glyph glyph-name="Eth" unicode="&#xd0;" horiz-adv-x="530" 
d="M73 80l59 221h-80l21 79h80l81 301h82q103 0 165.5 -73t62.5 -178q0 -99 -53 -198.5t-144.5 -165.5t-191.5 -66h-22l-37 -140h-82l37 140h-107l21 80h108zM235 380h79l-22 -79h-78l-59 -221q79 0 152 55.5t115 136.5t42 158q0 72 -39 121.5t-109 49.5h-21z" />
    <glyph glyph-name="Ntilde" unicode="&#xd1;" horiz-adv-x="456" 
d="M550 681l-182 -681h-82l59 221q13 49 13 105q0 84 -40 154t-113 107l-195 -727h-82l220 821q86 0 158 -63t105 -149l57 212h82zM197 748q16 28 45.5 45t62.5 17q20 0 48 -11t38 -11q25 0 40 23l68 -39q-16 -29 -45.5 -46t-62.5 -17q-20 0 -48 11t-38 11q-26 0 -39 -23z
" />
    <glyph glyph-name="Ograve" unicode="&#xd2;" horiz-adv-x="531" 
d="M358 681q85 0 129 -69t44 -159q0 -65 -25 -143t-67 -147.5t-106.5 -116t-135.5 -46.5q-85 0 -129 69t-44 159q0 93 38.5 188t102.5 164q95 101 193 101zM358 601q-64 0 -135 -75q-54 -59 -87 -139.5t-33 -158.5q0 -25 4.5 -48.5t14.5 -47t29.5 -38t45.5 -14.5
q69 0 130.5 68t93 153t31.5 152q0 25 -4.5 48.5t-14.5 47t-29.5 38t-45.5 14.5zM242 847l222 -62l-21 -76l-222 62z" />
    <glyph glyph-name="Oacute" unicode="&#xd3;" horiz-adv-x="531" 
d="M358 681q85 0 129 -69t44 -159q0 -65 -25 -143t-67 -147.5t-106.5 -116t-135.5 -46.5q-85 0 -129 69t-44 159q0 93 38.5 188t102.5 164q95 101 193 101zM358 601q-64 0 -135 -75q-54 -59 -87 -139.5t-33 -158.5q0 -25 4.5 -48.5t14.5 -47t29.5 -38t45.5 -14.5
q69 0 130.5 68t93 153t31.5 152q0 25 -4.5 48.5t-14.5 47t-29.5 38t-45.5 14.5zM266 785l222 62l21 -76l-222 -62z" />
    <glyph glyph-name="Ocircumflex" unicode="&#xd4;" horiz-adv-x="531" 
d="M358 681q85 0 129 -69t44 -159q0 -65 -25 -143t-67 -147.5t-106.5 -116t-135.5 -46.5q-85 0 -129 69t-44 159q0 93 38.5 188t102.5 164q95 101 193 101zM358 601q-64 0 -135 -75q-54 -59 -87 -139.5t-33 -158.5q0 -25 4.5 -48.5t14.5 -47t29.5 -38t45.5 -14.5
q69 0 130.5 68t93 153t31.5 152q0 25 -4.5 48.5t-14.5 47t-29.5 38t-45.5 14.5zM366 841h72l84 -115l-4 -17h-86l-37 55l-69 -55h-109l4 17z" />
    <glyph glyph-name="Otilde" unicode="&#xd5;" horiz-adv-x="531" 
d="M358 681q85 0 129 -69t44 -159q0 -65 -25 -143t-67 -147.5t-106.5 -116t-135.5 -46.5q-85 0 -129 69t-44 159q0 93 38.5 188t102.5 164q95 101 193 101zM358 601q-64 0 -135 -75q-54 -59 -87 -139.5t-33 -158.5q0 -25 4.5 -48.5t14.5 -47t29.5 -38t45.5 -14.5
q69 0 130.5 68t93 153t31.5 152q0 25 -4.5 48.5t-14.5 47t-29.5 38t-45.5 14.5zM217 748q16 28 45.5 45t62.5 17q20 0 48 -11t38 -11q25 0 40 23l68 -39q-16 -29 -45.5 -46t-62.5 -17q-20 0 -48 11t-38 11q-26 0 -39 -23z" />
    <glyph glyph-name="Odieresis" unicode="&#xd6;" horiz-adv-x="531" 
d="M358 681q85 0 129 -69t44 -159q0 -65 -25 -143t-67 -147.5t-106.5 -116t-135.5 -46.5q-85 0 -129 69t-44 159q0 93 38.5 188t102.5 164q95 101 193 101zM358 601q-64 0 -135 -75q-54 -59 -87 -139.5t-33 -158.5q0 -25 4.5 -48.5t14.5 -47t29.5 -38t45.5 -14.5
q69 0 130.5 68t93 153t31.5 152q0 25 -4.5 48.5t-14.5 47t-29.5 38t-45.5 14.5zM442 799q18 0 31.5 -13.5t13.5 -31.5q0 -19 -13.5 -32t-31.5 -13q-19 0 -32 13t-13 32q0 18 13 31.5t32 13.5zM328 799q19 0 32 -13.5t13 -31.5q0 -19 -13 -32t-32 -13q-18 0 -31 13t-13 32
q0 18 13 31.5t31 13.5z" />
    <glyph glyph-name="multiply" unicode="&#xd7;" horiz-adv-x="311" 
d="M277 398l41 -56l-106 -84l61 -84l-71 -56l-61 84l-106 -84l-41 56l106 84l-62 84l72 56l61 -84z" />
    <glyph glyph-name="Oslash" unicode="&#xd8;" horiz-adv-x="520" 
d="M336 681q70 0 115 -50l41 50h103l-103 -124q17 -47 17 -104q0 -65 -25 -143t-67 -147.5t-106.5 -116t-135.5 -46.5q-64 0 -108 44l-36 -44h-103l94 115q-20 51 -20 113q0 93 38.5 188t103.5 164q93 101 192 101zM84 189l315 380q-23 32 -63 32q-65 0 -134 -75
q-55 -59 -88 -139t-33 -159q0 -20 3 -39zM429 480l-311 -375q22 -25 57 -25q69 0 130.5 68t93 153t31.5 152q0 5 -0.5 14t-0.5 13z" />
    <glyph glyph-name="Ugrave" unicode="&#xd9;" horiz-adv-x="495" 
d="M570 681l-130 -485q-21 -81 -93.5 -138.5t-155.5 -57.5q-71 0 -119 46.5t-48 117.5q0 28 7 53l124 464h82l-130 -485q-4 -22 -4 -32q0 -39 24.5 -61.5t63.5 -22.5q56 0 107 41t66 96l124 464h82zM266 847l222 -62l-21 -76l-222 62z" />
    <glyph glyph-name="Uacute" unicode="&#xda;" horiz-adv-x="495" 
d="M570 681l-130 -485q-21 -81 -93.5 -138.5t-155.5 -57.5q-71 0 -119 46.5t-48 117.5q0 28 7 53l124 464h82l-130 -485q-4 -22 -4 -32q0 -39 24.5 -61.5t63.5 -22.5q56 0 107 41t66 96l124 464h82zM256 785l222 62l21 -76l-222 -62z" />
    <glyph glyph-name="Ucircumflex" unicode="&#xdb;" horiz-adv-x="495" 
d="M570 681l-130 -485q-21 -81 -93.5 -138.5t-155.5 -57.5q-71 0 -119 46.5t-48 117.5q0 28 7 53l124 464h82l-130 -485q-4 -22 -4 -32q0 -39 24.5 -61.5t63.5 -22.5q56 0 107 41t66 96l124 464h82zM364 841h72l84 -115l-4 -17h-86l-37 55l-69 -55h-109l4 17z" />
    <glyph glyph-name="Udieresis" unicode="&#xdc;" horiz-adv-x="495" 
d="M570 681l-130 -485q-21 -81 -93.5 -138.5t-155.5 -57.5q-71 0 -119 46.5t-48 117.5q0 28 7 53l124 464h82l-130 -485q-4 -22 -4 -32q0 -39 24.5 -61.5t63.5 -22.5q56 0 107 41t66 96l124 464h82zM404 799q18 0 31.5 -13.5t13.5 -31.5q0 -19 -13.5 -32t-31.5 -13
q-19 0 -32 13t-13 32q0 18 13 31.5t32 13.5zM290 799q19 0 32 -13.5t13 -31.5q0 -19 -13 -32t-32 -13q-18 0 -31 13t-13 32q0 18 13 31.5t31 13.5z" />
    <glyph glyph-name="Yacute" unicode="&#xdd;" horiz-adv-x="448" 
d="M308 -140h-82l43 158q-101 46 -156.5 138t-55.5 205q0 165 110 320h100q-131 -151 -131 -323q0 -85 40 -155t114 -107l156 585h82zM275 785l222 62l21 -76l-222 -62z" />
    <glyph glyph-name="Thorn" unicode="&#xde;" horiz-adv-x="507" 
d="M297 681l-34 -126h59q80 0 134 -51.5t54 -131.5q0 -109 -90.5 -195.5t-200.5 -86.5h-81l-61 -230h-82l165 616h-89l21 79h89l34 126h82zM242 476l-82 -307h59q78 0 145 63t67 140q0 47 -30.5 75.5t-78.5 28.5h-80z" />
    <glyph glyph-name="germandbls" unicode="&#xdf;" horiz-adv-x="420" 
d="M-32 80h94q17 0 33.5 14.5t16.5 31.5l-45 247q-2 12 -2 20q0 49 40 86.5t89 37.5h109l-5 -19q32 19 66 19h109l-21 -79q-4 0 -21.5 1t-29.5 1q-87 0 -87 -44v-4l45 -247q2 -14 2 -20q0 -49 -40 -87t-89 -38h-115l4 16q-29 -16 -59 -16h-115zM245 438h-51q-18 0 -33.5 -14
t-16.5 -32l45 -247q2 -14 2 -20q0 -22 -10 -45h51q17 0 33 14.5t16 31.5v5l-44 242q-2 12 -2 20q0 22 10 45z" />
    <glyph glyph-name="agrave" unicode="&#xe0;" 
d="M203 88h-147q0 -4 -0.5 -13t-0.5 -14q0 -29 8 -61h-81q-6 30 -6 61q0 85 38 165.5t102 143.5q53 53 137 100t147 47l-138 -517h-82zM75 167h150l61 230q-72 -36 -128 -96.5t-83 -133.5zM153 683l222 -62l-21 -76l-222 62z" />
    <glyph glyph-name="aacute" unicode="&#xe1;" 
d="M203 88h-147q0 -4 -0.5 -13t-0.5 -14q0 -29 8 -61h-81q-6 30 -6 61q0 85 38 165.5t102 143.5q53 53 137 100t147 47l-138 -517h-82zM75 167h150l61 230q-72 -36 -128 -96.5t-83 -133.5zM179 621l222 62l21 -76l-222 -62z" />
    <glyph glyph-name="acircumflex" unicode="&#xe2;" 
d="M203 88h-147q0 -4 -0.5 -13t-0.5 -14q0 -29 8 -61h-81q-6 30 -6 61q0 85 38 165.5t102 143.5q53 53 137 100t147 47l-138 -517h-82zM75 167h150l61 230q-72 -36 -128 -96.5t-83 -133.5zM285 677h72l84 -115l-4 -17h-86l-37 55l-69 -55h-109l4 17z" />
    <glyph glyph-name="atilde" unicode="&#xe3;" 
d="M203 88h-147q0 -4 -0.5 -13t-0.5 -14q0 -29 8 -61h-81q-6 30 -6 61q0 85 38 165.5t102 143.5q53 53 137 100t147 47l-138 -517h-82zM75 167h150l61 230q-72 -36 -128 -96.5t-83 -133.5zM142 584q16 28 45.5 45t62.5 17q20 0 48 -11t38 -11q25 0 40 23l68 -39
q-16 -29 -45.5 -46t-62.5 -17q-20 0 -48 11t-38 11q-26 0 -39 -23z" />
    <glyph glyph-name="adieresis" unicode="&#xe4;" 
d="M203 88h-147q0 -4 -0.5 -13t-0.5 -14q0 -29 8 -61h-81q-6 30 -6 61q0 85 38 165.5t102 143.5q53 53 137 100t147 47l-138 -517h-82zM75 167h150l61 230q-72 -36 -128 -96.5t-83 -133.5zM372 635q18 0 31.5 -13.5t13.5 -31.5q0 -19 -13.5 -32t-31.5 -13q-19 0 -32 13
t-13 32q0 18 13 31.5t32 13.5zM258 635q19 0 32 -13.5t13 -31.5q0 -19 -13 -32t-32 -13q-18 0 -31 13t-13 32q0 18 13 31.5t31 13.5z" />
    <glyph glyph-name="aring" unicode="&#xe5;" 
d="M203 88h-147q0 -4 -0.5 -13t-0.5 -14q0 -29 8 -61h-81q-6 30 -6 61q0 85 38 165.5t102 143.5q53 53 137 100t147 47l-138 -517h-82zM75 167h150l61 230q-72 -36 -128 -96.5t-83 -133.5zM365 638q29 0 49 -20t20 -49t-20 -49.5t-49 -20.5t-49.5 20.5t-20.5 49.5
q0 28 20.5 48.5t49.5 20.5zM365 596q-11 0 -19 -8t-8 -19t8 -19.5t19 -8.5t19 8.5t8 19.5t-8 19t-19 8z" />
    <glyph glyph-name="ae" unicode="&#xe6;" horiz-adv-x="556" 
d="M203 88h-147q0 -4 -0.5 -13t-0.5 -14q0 -29 8 -61h-81q-6 30 -6 61q0 84 38 164.5t102 144.5q58 58 136 102.5t145 44.5h212l-21 -79h-209l-37 -139h171l-21 -80h-171l-38 -139h209l-21 -80h-291zM75 168h150l61 229q-71 -36 -127.5 -96t-83.5 -133z" />
    <glyph glyph-name="ccedilla" unicode="&#xe7;" horiz-adv-x="346" 
d="M278 66q-66 -66 -136 -66q-67 0 -102 53.5t-35 123.5q0 50 19 108.5t51 110.5t81.5 86.5t102.5 34.5q38 0 68.5 -20.5t47.5 -55.5l-71 -35q-15 32 -45 32q-42 0 -90 -52q-39 -41 -62 -97.5t-23 -111.5q0 -36 13.5 -66.5t44.5 -30.5q37 0 81 42zM168 30l-43 -43
q22 -6 36 -24.5t14 -41.5q0 -29 -20.5 -49.5t-48.5 -20.5h-83l17 61h40q34 0 34 9t-31 9h-70l90 100h65z" />
    <glyph glyph-name="egrave" unicode="&#xe8;" horiz-adv-x="262" 
d="M177 0h-230l138 517h230l-21 -79h-148l-37 -140h110l-21 -79h-111l-37 -139h148zM60 683l222 -62l-21 -76l-222 62z" />
    <glyph glyph-name="eacute" unicode="&#xe9;" horiz-adv-x="262" 
d="M177 0h-230l138 517h230l-21 -79h-148l-37 -140h110l-21 -79h-111l-37 -139h148zM100 621l222 62l21 -76l-222 -62z" />
    <glyph glyph-name="ecircumflex" unicode="&#xea;" horiz-adv-x="262" 
d="M177 0h-230l138 517h230l-21 -79h-148l-37 -140h110l-21 -79h-111l-37 -139h148zM193 677h72l84 -115l-4 -17h-86l-37 55l-69 -55h-109l4 17z" />
    <glyph glyph-name="edieresis" unicode="&#xeb;" horiz-adv-x="262" 
d="M177 0h-230l138 517h230l-21 -79h-148l-37 -140h110l-21 -79h-111l-37 -139h148zM250 635q18 0 31.5 -13.5t13.5 -31.5q0 -19 -13.5 -32t-31.5 -13q-19 0 -32 13t-13 32q0 18 13 31.5t32 13.5zM136 635q19 0 32 -13.5t13 -31.5q0 -19 -13 -32t-32 -13q-18 0 -31 13
t-13 32q0 18 13 31.5t31 13.5z" />
    <glyph glyph-name="igrave" unicode="&#xec;" horiz-adv-x="148" 
d="M184 517l-138 -517h-82l138 517h82zM-26 683l222 -62l-21 -76l-222 62z" />
    <glyph glyph-name="iacute" unicode="&#xed;" horiz-adv-x="148" 
d="M184 517l-138 -517h-82l138 517h82zM56 621l222 62l21 -76l-222 -62z" />
    <glyph glyph-name="icircumflex" unicode="&#xee;" horiz-adv-x="148" 
d="M184 517l-138 -517h-82l138 517h82zM139 677h72l84 -115l-4 -17h-86l-37 55l-69 -55h-109l4 17z" />
    <glyph glyph-name="idieresis" unicode="&#xef;" horiz-adv-x="148" 
d="M184 517l-138 -517h-82l138 517h82zM214 635q18 0 31.5 -13.5t13.5 -31.5q0 -19 -13.5 -32t-31.5 -13q-19 0 -32 13t-13 32q0 18 13 31.5t32 13.5zM100 635q19 0 32 -13.5t13 -31.5q0 -19 -13 -32t-32 -13q-18 0 -31 13t-13 32q0 18 13 31.5t31 13.5z" />
    <glyph glyph-name="eth" unicode="&#xf0;" horiz-adv-x="389" 
d="M27 299h50l59 218h68q80 0 128.5 -56t48.5 -137q0 -75 -40 -150t-109 -124.5t-145 -49.5h-90l59 219h-51zM197 438l-38 -139h58l-21 -80h-58l-37 -138q78 9 139 86t61 157q0 53 -26.5 83.5t-77.5 30.5z" />
    <glyph glyph-name="ntilde" unicode="&#xf1;" horiz-adv-x="381" 
d="M251 241q0 55 -24 101t-70 73l-111 -415h-82l138 517q55 0 111.5 -43t84.5 -96l37 139h82l-138 -517h-82q3 10 20 69.5t25.5 100t8.5 71.5zM108 584q16 28 45.5 45t62.5 17q20 0 48 -11t38 -11q25 0 40 23l68 -39q-16 -29 -45.5 -46t-62.5 -17q-20 0 -48 11t-38 11
q-26 0 -39 -23z" />
    <glyph glyph-name="ograve" unicode="&#xf2;" horiz-adv-x="401" 
d="M259 517q67 0 102 -53t35 -123q0 -50 -19 -108.5t-51 -111t-81.5 -87t-102.5 -34.5q-67 0 -102 53.5t-35 123.5q0 50 19 108.5t51 110.5t81.5 86.5t102.5 34.5zM259 438q-47 0 -89 -48t-64 -108t-22 -105q0 -36 13.5 -66.5t44.5 -30.5q47 0 89 48t63.5 107.5t21.5 105.5
q0 36 -13 66.5t-44 30.5zM137 683l222 -62l-21 -76l-222 62z" />
    <glyph glyph-name="oacute" unicode="&#xf3;" horiz-adv-x="401" 
d="M259 517q67 0 102 -53t35 -123q0 -50 -19 -108.5t-51 -111t-81.5 -87t-102.5 -34.5q-67 0 -102 53.5t-35 123.5q0 50 19 108.5t51 110.5t81.5 86.5t102.5 34.5zM259 438q-47 0 -89 -48t-64 -108t-22 -105q0 -36 13.5 -66.5t44.5 -30.5q47 0 89 48t63.5 107.5t21.5 105.5
q0 36 -13 66.5t-44 30.5zM143 621l222 62l21 -76l-222 -62z" />
    <glyph glyph-name="ocircumflex" unicode="&#xf4;" horiz-adv-x="401" 
d="M259 517q67 0 102 -53t35 -123q0 -50 -19 -108.5t-51 -111t-81.5 -87t-102.5 -34.5q-67 0 -102 53.5t-35 123.5q0 50 19 108.5t51 110.5t81.5 86.5t102.5 34.5zM259 438q-47 0 -89 -48t-64 -108t-22 -105q0 -36 13.5 -66.5t44.5 -30.5q47 0 89 48t63.5 107.5t21.5 105.5
q0 36 -13 66.5t-44 30.5zM263 677h72l84 -115l-4 -17h-86l-37 55l-69 -55h-109l4 17z" />
    <glyph glyph-name="otilde" unicode="&#xf5;" horiz-adv-x="401" 
d="M259 517q67 0 102 -53t35 -123q0 -50 -19 -108.5t-51 -111t-81.5 -87t-102.5 -34.5q-67 0 -102 53.5t-35 123.5q0 50 19 108.5t51 110.5t81.5 86.5t102.5 34.5zM259 438q-47 0 -89 -48t-64 -108t-22 -105q0 -36 13.5 -66.5t44.5 -30.5q47 0 89 48t63.5 107.5t21.5 105.5
q0 36 -13 66.5t-44 30.5zM118 584q16 28 45.5 45t62.5 17q20 0 48 -11t38 -11q25 0 40 23l68 -39q-16 -29 -45.5 -46t-62.5 -17q-20 0 -48 11t-38 11q-26 0 -39 -23z" />
    <glyph glyph-name="odieresis" unicode="&#xf6;" horiz-adv-x="401" 
d="M259 517q67 0 102 -53t35 -123q0 -50 -19 -108.5t-51 -111t-81.5 -87t-102.5 -34.5q-67 0 -102 53.5t-35 123.5q0 50 19 108.5t51 110.5t81.5 86.5t102.5 34.5zM259 438q-47 0 -89 -48t-64 -108t-22 -105q0 -36 13.5 -66.5t44.5 -30.5q47 0 89 48t63.5 107.5t21.5 105.5
q0 36 -13 66.5t-44 30.5zM311 635q18 0 31.5 -13.5t13.5 -31.5q0 -19 -13.5 -32t-31.5 -13q-19 0 -32 13t-13 32q0 18 13 31.5t32 13.5zM197 635q19 0 32 -13.5t13 -31.5q0 -19 -13 -32t-32 -13q-18 0 -31 13t-13 32q0 18 13 31.5t31 13.5z" />
    <glyph glyph-name="divide" unicode="&#xf7;" horiz-adv-x="348" 
d="M219 428q17 0 28.5 -11t11.5 -28q0 -25 -21 -45t-47 -20q-17 0 -28 10.5t-11 27.5q0 25 21 45.5t46 20.5zM342 298l-21 -80h-316l22 80h315zM156 192q17 0 28.5 -10.5t11.5 -27.5q0 -25 -21 -45.5t-47 -20.5q-17 0 -28.5 11t-11.5 28q0 25 21.5 45t46.5 20z" />
    <glyph glyph-name="oslash" unicode="&#xf8;" horiz-adv-x="401" 
d="M259 517q30 0 53 -11l7 12h94l-43 -68q26 -48 26 -109q0 -50 -19 -108.5t-51 -111t-81.5 -87t-102.5 -34.5q-27 0 -52 11l-6 -11h-95l43 67q-27 47 -27 110q0 68 31 145.5t92 136t131 58.5zM86 152l182 285q-3 1 -9 1q-47 0 -89 -48t-64 -108t-22 -105q0 -9 2 -25z
M315 364l-181 -284h14q46 0 86.5 48.5t61 108t20.5 104.5q0 15 -1 23z" />
    <glyph glyph-name="ugrave" unicode="&#xf9;" horiz-adv-x="387" 
d="M423 517l-99 -366q-17 -63 -72 -107t-119 -44q-57 0 -95 37t-38 93q0 22 6 41l92 346h82l-98 -366q-3 -11 -3 -21q0 -23 15 -36.5t39 -13.5q37 0 71 27.5t44 63.5l93 346h82zM136 683l222 -62l-21 -76l-222 62z" />
    <glyph glyph-name="uacute" unicode="&#xfa;" horiz-adv-x="387" 
d="M423 517l-99 -366q-17 -63 -72 -107t-119 -44q-57 0 -95 37t-38 93q0 22 6 41l92 346h82l-98 -366q-3 -11 -3 -21q0 -23 15 -36.5t39 -13.5q37 0 71 27.5t44 63.5l93 346h82zM137 621l222 62l21 -76l-222 -62z" />
    <glyph glyph-name="ucircumflex" unicode="&#xfb;" horiz-adv-x="387" 
d="M423 517l-99 -366q-17 -63 -72 -107t-119 -44q-57 0 -95 37t-38 93q0 22 6 41l92 346h82l-98 -366q-3 -11 -3 -21q0 -23 15 -36.5t39 -13.5q37 0 71 27.5t44 63.5l93 346h82zM248 677h72l84 -115l-4 -17h-86l-37 55l-69 -55h-109l4 17z" />
    <glyph glyph-name="udieresis" unicode="&#xfc;" horiz-adv-x="387" 
d="M423 517l-99 -366q-17 -63 -72 -107t-119 -44q-57 0 -95 37t-38 93q0 22 6 41l92 346h82l-98 -366q-3 -11 -3 -21q0 -23 15 -36.5t39 -13.5q37 0 71 27.5t44 63.5l93 346h82zM315 635q18 0 31.5 -13.5t13.5 -31.5q0 -19 -13.5 -32t-31.5 -13q-19 0 -32 13t-13 32
q0 18 13 31.5t32 13.5zM201 635q19 0 32 -13.5t13 -31.5q0 -19 -13 -32t-32 -13q-18 0 -31 13t-13 32q0 18 13 31.5t31 13.5z" />
    <glyph glyph-name="yacute" unicode="&#xfd;" horiz-adv-x="332" 
d="M148 0l32 123q-61 32 -95.5 91.5t-34.5 129.5q0 90 48 173h94q-63 -85 -63 -173q0 -93 73 -142l84 315h82l-138 -517h-82zM121 621l222 62l21 -76l-222 -62z" />
    <glyph glyph-name="thorn" unicode="&#xfe;" horiz-adv-x="338" 
d="M167 517l-25 -95h32q63 0 105 -40.5t42 -103.5q0 -84 -69 -150t-153 -66h-54l-16 -62h-82l138 517h82zM120 343l-54 -202h33q51 0 97 43t46 94q0 30 -19 47.5t-49 17.5h-54z" />
    <glyph glyph-name="ydieresis" unicode="&#xff;" horiz-adv-x="332" 
d="M148 0l32 123q-61 32 -95.5 91.5t-34.5 129.5q0 90 48 173h94q-63 -85 -63 -173q0 -93 73 -142l84 315h82l-138 -517h-82zM306 635q18 0 31.5 -13.5t13.5 -31.5q0 -19 -13.5 -32t-31.5 -13q-19 0 -32 13t-13 32q0 18 13 31.5t32 13.5zM192 635q19 0 32 -13.5t13 -31.5
q0 -19 -13 -32t-32 -13q-18 0 -31 13t-13 32q0 18 13 31.5t31 13.5z" />
    <glyph glyph-name="OE" unicode="&#x152;" horiz-adv-x="728" 
d="M822 681l-22 -80h-260l-60 -221h208l-22 -79h-207l-59 -222h261l-22 -79h-261l-37 -140h-82l37 140h-102q-85 0 -129 69t-44 159q0 93 38.5 188t102.5 164q97 101 193 101h467zM398 380l59 221h-102q-64 0 -135 -75q-54 -58 -87 -139t-33 -159q0 -35 7.5 -66t30 -56.5
t56.5 -25.5h124l59 221h-91l21 79h91z" />
    <glyph glyph-name="oe" unicode="&#x153;" horiz-adv-x="551" 
d="M259 517q65 0 101 -53l14 53h230l-21 -79h-148l-37 -140h110l-21 -79h-110l-38 -139h148l-21 -80h-230l9 36q-49 -36 -103 -36q-67 0 -102 53.5t-35 123.5q0 50 19 108.5t51 110.5t81.5 86.5t102.5 34.5zM259 438q-47 0 -89 -48t-64 -108t-22 -105q0 -36 13.5 -66.5
t44.5 -30.5q47 0 89 48t63.5 107.5t21.5 105.5q0 36 -13 66.5t-44 30.5z" />
    <glyph glyph-name="Scaron" unicode="&#x160;" horiz-adv-x="358" 
d="M-73 -61h137q41 0 78 34.5t37 75.5q0 10 -1 15l-74 399q-3 17 -3 33q0 71 61.5 128t133.5 57h155l-21 -80h-134q-40 0 -77.5 -33.5t-37.5 -73.5q0 -11 1 -17l74 -400q3 -13 3 -29q0 -73 -61 -130.5t-134 -57.5h-158zM369 722h-86l-79 107l5 18h85l41 -56l70 56h105
l-5 -18z" />
    <glyph glyph-name="scaron" unicode="&#x161;" horiz-adv-x="250" 
d="M-32 80h94q17 0 33.5 14.5t16.5 31.5l-45 247q-2 12 -2 20q0 49 40 86.5t89 37.5h109l-21 -79q-4 0 -21.5 1t-29.5 1q-87 0 -87 -44v-4l45 -247q2 -14 2 -20q0 -49 -40 -87t-89 -38h-115zM259 558h-86l-79 107l5 18h85l41 -56l70 56h105l-5 -18z" />
    <glyph glyph-name="Ydieresis" unicode="&#x178;" horiz-adv-x="448" 
d="M308 -140h-82l43 158q-101 46 -156.5 138t-55.5 205q0 165 110 320h100q-131 -151 -131 -323q0 -85 40 -155t114 -107l156 585h82zM410 799q18 0 31.5 -13.5t13.5 -31.5q0 -19 -13.5 -32t-31.5 -13q-19 0 -32 13t-13 32q0 18 13 31.5t32 13.5zM296 799q19 0 32 -13.5
t13 -31.5q0 -19 -13 -32t-32 -13q-18 0 -31 13t-13 32q0 18 13 31.5t31 13.5z" />
    <glyph glyph-name="Zcaron" unicode="&#x17d;" horiz-adv-x="400" 
d="M-48 0l380 601h-198l21 80h321l-380 -601h208l-21 -80h-331zM359 722h-86l-79 107l5 18h85l41 -56l70 56h105l-5 -18z" />
    <glyph glyph-name="zcaron" unicode="&#x17e;" horiz-adv-x="314" 
d="M204 0h-257l276 438h-113v79h257l-276 -437h113v-80zM297 558h-86l-79 107l5 18h85l41 -56l70 56h105l-5 -18z" />
    <glyph glyph-name="florin" unicode="&#x192;" horiz-adv-x="810" 
d="M440 388h18q0 -9 -1 -13q5 1 15 1q23 0 42 -9.5t21 -28.5q21 8 49 8q33 0 55.5 -15.5t22.5 -45.5q0 -15 -9 -27q-3 -5 -8 -5q-10 0 -10 9q0 3 3 6q6 10 6 17q0 18 -15 30t-36 12q-41 0 -69 -20t-28 -40q0 -29 39 -29q5 0 15.5 2.5t16.5 2.5q10 0 10 -10q-3 -32 -32 -53
q-29 -22 -64 -22q-47 0 -76 34q-29 -34 -77 -34q-34 0 -64 22q-28 21 -31 53q0 10 12 10q17 -5 29 -5q41 0 41 29q0 19 -29 39.5t-71 20.5q-21 0 -35 -12t-14 -30q0 -9 6 -17q2 -4 2 -6q0 -9 -10 -9q-5 0 -8 5q-9 14 -9 27q0 30 22.5 45.5t55.5 15.5q28 0 49 -8
q3 19 22 28.5t40 9.5q11 0 16 -1q-1 5 -1 16q0 24 5 42q5 16 11 16t12 -16q3 -21 3 -24l-17 -21h18q0 -11 -2 -25q16 -13 16 -30q0 -25 -28 -36q-28 -14 -28 -24q0 -16 20.5 -24t43.5 -8t43 8t20 24q0 12 -28 24t-28 36q0 18 17 30q-2 8 -2 28q0 27 4 42q5 16 11 16
q7 0 12 -16q3 -21 3 -24zM474 364q-23 0 -36 -10q-14 -9 -14 -21q0 -11 14 -21q14 -9 36 -9t36 9q13 10 13 21q0 13 -13 21q-13 10 -36 10zM336 364q-23 0 -36 -10q-14 -8 -14 -21q0 -12 14 -21t36 -9t36 9q13 10 13 21q0 13 -13 21q-13 10 -36 10zM469 242q-23 -20 -64 -20
q-42 0 -65 20q-29 -23 -66 -23q-7 0 -19 2q9 -21 29 -32.5t44 -11.5q46 0 69 36q3 4 8 4q7 0 8 -4q21 -36 68 -36q24 0 44.5 11.5t28.5 32.5q-12 -2 -19 -2q-37 0 -66 23zM333 505q-115 -26 -115 -102q0 -4 1 -13.5t1 -15.5q0 -10 -10 -10q-6 0 -8 9q-3 15 -3 30
q0 65 47 114q-40 22 -49 66q0 9 9 9q8 0 9 -8q7 -29 33 -46t57 -17q29 0 53.5 15t33.5 42q3 6 9 6q7 0 9 -6q9 -27 34 -42t54 -15q30 0 56.5 17t32.5 46q1 8 9 8q9 0 9 -12q-7 -38 -44 -60q49 -51 49 -117q0 -10 -2 -30q-3 -9 -9 -9q-10 0 -10 12l3 27q0 81 -100 99
q-66 11 -91 51q-22 -36 -68 -48zM690 89q-50 -52 -122 -52q-34 -20 -81 -20h-10q-34 -17 -72 -17q-40 0 -72 17h-11q-45 0 -81 20q-73 0 -122 52q-83 60 -83 136q0 60 52 110q-24 46 -24 92q0 104 101 179q101 73 240 73q140 0 239 -73q102 -74 102 -179q0 -46 -24 -92
q52 -50 52 -110q0 -76 -84 -136zM599 59q46 9 77 43t31 81q0 40 -24 70q-2 4 -2 6q0 10 9 10q5 0 8 -5q28 -34 28 -81q0 -23 -6 -42q35 38 35 84q0 54 -51 101q-3 2 -3 7q0 3 1 4q25 44 25 90q0 96 -94 164q-94 70 -228 70q-135 0 -229 -70q-93 -69 -93 -164q0 -45 24 -90
q1 -1 1 -4q0 -5 -2 -7q-51 -46 -51 -101q0 -45 34 -84q-6 26 -6 42q0 45 28 81q3 5 8 5q9 0 9 -10q0 -4 -2 -6q-24 -30 -24 -70q0 -46 31.5 -80.5t76.5 -43.5q-46 43 -46 102q0 49 31 86q3 5 8 5q9 0 9 -9q0 -3 -2 -7q-28 -33 -28 -75q0 -48 35 -82.5t83 -41.5
q-54 42 -54 108q0 10 9 10q10 0 10 -10q0 -54 42.5 -90t97.5 -36t97 36t42 90q0 10 10 10q9 0 9 -10q0 -66 -54 -108q49 7 83.5 41.5t34.5 82.5q0 42 -27 75q-2 4 -2 7q0 9 9 9q4 0 7 -5q32 -37 32 -86q0 -58 -47 -102z" />
    <glyph glyph-name="circumflex" unicode="&#x2c6;" horiz-adv-x="337" 
d="M163 677h72l84 -115l-4 -17h-86l-37 55l-69 -55h-109l4 17z" />
    <glyph glyph-name="caron" unicode="&#x2c7;" horiz-adv-x="337" 
d="M249 558h-86l-79 107l5 18h85l41 -56l70 56h105l-5 -18z" />
    <glyph glyph-name="ring" unicode="&#x2da;" horiz-adv-x="176" 
d="M88 684q28 0 48.5 -20t20.5 -49t-20 -49.5t-49 -20.5t-49.5 20.5t-20.5 49.5q0 28 20.5 48.5t49.5 20.5zM88 642q-11 0 -19 -8t-8 -19t8 -19.5t19 -8.5t19 8.5t8 19.5t-8 19t-19 8z" />
    <glyph glyph-name="tilde" unicode="&#x2dc;" horiz-adv-x="328" 
d="M13 584q16 28 45.5 45t62.5 17q20 0 48 -11t38 -11q25 0 40 23l68 -39q-16 -29 -45.5 -46t-62.5 -17q-20 0 -48 11t-38 11q-26 0 -39 -23z" />
    <glyph glyph-name="endash" unicode="&#x2013;" horiz-adv-x="355" 
d="M349 297l-21 -79h-323l22 79h322z" />
    <glyph glyph-name="emdash" unicode="&#x2014;" horiz-adv-x="695" 
d="M689 297l-21 -79h-663l22 79h662z" />
    <glyph glyph-name="quoteleft" unicode="&#x2018;" horiz-adv-x="180" 
d="M186 516l-44 -163h-82l44 163h82z" />
    <glyph glyph-name="quoteright" unicode="&#x2019;" horiz-adv-x="180" 
d="M186 516l-44 -163h-82l44 163h82z" />
    <glyph glyph-name="quotesinglbase" unicode="&#x201a;" horiz-adv-x="114" 
d="M120 76l-44 -163h-82l44 163h82z" />
    <glyph glyph-name="quotedblleft" unicode="&#x201c;" horiz-adv-x="290" 
d="M296 516l-44 -163h-82l44 163h82zM186 516l-44 -163h-82l44 163h82z" />
    <glyph glyph-name="quotedblright" unicode="&#x201d;" horiz-adv-x="290" 
d="M296 516l-44 -163h-82l44 163h82zM186 516l-44 -163h-82l44 163h82z" />
    <glyph glyph-name="quotedblbase" unicode="&#x201e;" horiz-adv-x="224" 
d="M230 76l-44 -163h-82l44 163h82zM120 76l-44 -163h-82l44 163h82z" />
    <glyph glyph-name="dagger" unicode="&#x2020;" horiz-adv-x="534" 
d="M340 -20q-42 -8 -73 -40q-29 32 -73 40q57 179 59 357q-80 -8 -140 -64q-25 54 -77 78q53 25 77 78q61 -58 140 -65q-6 89 -70 158q58 26 84 84q26 -58 84 -84q-63 -66 -69 -158q80 7 139 65q24 -53 77 -78q-52 -24 -77 -78q-58 56 -140 64q2 -178 59 -357z" />
    <glyph glyph-name="daggerdbl" unicode="&#x2021;" horiz-adv-x="495" 
d="M315 281q-27 -22 -38.5 -39.5t-16.5 -48.5q74 8 128 58q23 -48 71 -71q-49 -22 -71 -70q-54 52 -128 58q6 -82 65 -143q-54 -24 -78 -75q-22 51 -77 75q59 61 65 143q-74 -6 -128 -58q-23 49 -71 70q48 23 71 71q54 -50 128 -58q-6 31 -17.5 48.5t-37.5 39.5
q26 22 37.5 39.5t17.5 48.5q-74 -8 -128 -58q-23 48 -71 71q48 21 71 70q54 -52 128 -58q-6 82 -65 143q55 24 77 75q24 -51 78 -75q-59 -61 -65 -143q74 6 128 58q22 -48 71 -70q-48 -23 -71 -71q-54 50 -128 58q5 -31 16.5 -48.5t38.5 -39.5z" />
    <glyph glyph-name="bullet" unicode="&#x2022;" horiz-adv-x="320" 
d="M160 397q57 0 98 -41t41 -98q0 -58 -41 -98.5t-98 -40.5q-58 0 -98.5 40.5t-40.5 98.5q0 57 40.5 98t98.5 41z" />
    <glyph glyph-name="ellipsis" unicode="&#x2026;" horiz-adv-x="354" 
d="M112 79l-21 -80h-86l22 80h85zM230 79l-21 -80h-86l22 80h85zM348 79l-21 -80h-86l22 80h85z" />
    <glyph glyph-name="perthousand" unicode="&#x2030;" horiz-adv-x="938" 
d="M533 341q47 0 72.5 -36.5t25.5 -85.5q0 -73 -49.5 -146.5t-118.5 -73.5q-47 0 -72.5 36.5t-25.5 85.5q0 73 49.5 146.5t118.5 73.5zM499 516l-244 -517h-88l244 517h88zM205 516q47 0 72.5 -36.5t25.5 -85.5q0 -73 -49.5 -146.5t-119.5 -73.5q-47 0 -72.5 36.5
t-25.5 85.5q0 73 49.5 146.5t119.5 73.5zM533 262q-34 0 -61.5 -51.5t-27.5 -89.5q0 -42 19 -42q34 0 61 51t27 89q0 43 -18 43zM205 437q-35 0 -62 -51.5t-27 -89.5q0 -42 18 -42q35 0 62 51t27 89q0 43 -18 43zM804 515q47 0 72.5 -36.5t25.5 -85.5q0 -73 -49.5 -146.5
t-118.5 -73.5q-47 0 -72.5 36.5t-25.5 85.5q0 73 49.5 146.5t118.5 73.5zM804 436q-34 0 -61.5 -51.5t-27.5 -89.5q0 -42 19 -42q34 0 61 51t27 89q0 43 -18 43z" />
    <glyph glyph-name="guilsinglleft" unicode="&#x2039;" horiz-adv-x="185" 
d="M128 105l-112 153l194 153l-34 -128l-51 -40l29 -40z" />
    <glyph glyph-name="guilsinglright" unicode="&#x203a;" horiz-adv-x="185" 
d="M57 411l112 -153l-194 -153l34 128l51 40l-29 39z" />
    <glyph glyph-name="Euro" unicode="&#x20ac;" horiz-adv-x="397" 
d="M329 65q-66 -66 -136 -66q-67 0 -102 54t-35 125v12h-58l14 53h51q4 20 7 30h-50l14 53h55q33 75 92 132.5t129 57.5q38 0 68.5 -20.5t47.5 -55.5l-72 -35q-13 32 -44 32q-38 0 -73.5 -34.5t-59.5 -76.5h210l-28 -53h-206q-1 -3 -3 -9.5t-3.5 -11.5t-2.5 -9h206l-28 -53
h-186l-1 -18q0 -34 14 -63.5t44 -29.5q38 0 81 43z" />
    <glyph glyph-name="trademark" unicode="&#x2122;" horiz-adv-x="384" 
d="M127 421l69 259h35q38 -20 51 -55q33 37 77 55h44l-69 -259h-41l56 210q-50 -32 -64 -83l-34 -127h-41q2 7 14 47t19 70t7 46q0 34 -24 53l-58 -216h-41zM51 680h113l-11 -40h-36l-58 -219h-41l58 219h-36z" />
    <glyph glyph-name="minus" unicode="&#x2212;" horiz-adv-x="348" 
d="M342 298l-21 -80h-316l22 80h315z" />
    </font>
</defs>
</svg>
